<?xml version="1.0" encoding="UTF-8"?>
<svg xmlns="http://www.w3.org/2000/svg" xmlns:xlink="http://www.w3.org/1999/xlink" viewBox="0 0 64 64" width="64px" height="64px">
<g id="surface76540226">
<path style=" stroke:none;fill-rule:nonzero;fill:rgb(14.509805%,38.82353%,92.156863%);fill-opacity:1;" d="M 32 8 C 18.769531 8 8 18.769531 8 32 C 8 45.230469 18.769531 56 32 56 C 45.230469 56 56 45.230469 56 32 C 56 18.769531 45.230469 8 32 8 Z M 32 12 C 43.070312 12 52 20.929688 52 32 C 52 42.054688 44.625 50.324219 34.976562 51.757812 L 34.976562 37.832031 L 40.671875 37.832031 L 41.566406 32.046875 L 34.976562 32.046875 L 34.976562 28.886719 C 34.976562 26.484375 35.765625 24.351562 38.011719 24.351562 L 41.621094 24.351562 L 41.621094 19.304688 C 40.988281 19.21875 39.644531 19.03125 37.109375 19.03125 C 31.8125 19.03125 28.710938 21.828125 28.710938 28.199219 L 28.710938 32.046875 L 23.265625 32.046875 L 23.265625 37.832031 L 28.710938 37.832031 L 28.710938 51.707031 C 19.21875 50.140625 12 41.945312 12 32 C 12 20.929688 20.929688 12 32 12 Z M 32 12 "/>
</g>
</svg>
