<?xml version="1.0" encoding="UTF-8"?>
<svg xmlns="http://www.w3.org/2000/svg" xmlns:xlink="http://www.w3.org/1999/xlink" viewBox="0 0 64 64" width="64px" height="64px">
<g id="surface76494042">
<path style=" stroke:none;fill-rule:nonzero;fill:rgb(14.509805%,38.82353%,92.156863%);fill-opacity:1;" d="M 22.9375 10 C 15.835938 10 10 15.828125 10 22.9375 L 10 41.0625 C 10 48.164062 15.828125 54 22.9375 54 L 41.0625 54 C 48.164062 54 54 48.171875 54 41.0625 L 54 22.9375 C 54 15.835938 48.171875 10 41.0625 10 Z M 22.9375 14 L 41.0625 14 C 46.007812 14 50 17.992188 50 22.9375 L 50 41.0625 C 50 46.007812 46.007812 50 41.0625 50 L 22.9375 50 C 17.992188 50 14 46.007812 14 41.0625 L 14 22.9375 C 14 17.992188 17.992188 14 22.9375 14 Z M 43.8125 18.375 C 42.804688 18.375 42 19.179688 42 20.1875 C 42 21.195312 42.804688 22 43.8125 22 C 44.820312 22 45.625 21.195312 45.625 20.1875 C 45.625 19.179688 44.820312 18.375 43.8125 18.375 Z M 32 20 C 25.398438 20 20 25.398438 20 32 C 20 38.601562 25.398438 44 32 44 C 38.601562 44 44 38.601562 44 32 C 44 25.398438 38.601562 20 32 20 Z M 32 24 C 36.445312 24 40 27.554688 40 32 C 40 36.445312 36.445312 40 32 40 C 27.554688 40 24 36.445312 24 32 C 24 27.554688 27.554688 24 32 24 Z M 32 24 "/>
</g>
</svg>
