<svg id="visual" viewBox="0 0 960 540" width="960" height="540" xmlns="http://www.w3.org/2000/svg" xmlns:xlink="http://www.w3.org/1999/xlink" version="1.1"><path d="M748 540L633 491L690 442L719 393L719 344L594 295L623 245L613 196L700 147L642 98L661 49L537 0L960 0L960 49L960 98L960 147L960 196L960 245L960 295L960 344L960 393L960 442L960 491L960 540Z" fill="#715df2"></path><path d="M585 540L546 491L604 442L613 393L508 344L421 295L412 245L450 196L479 147L489 98L441 49L402 0L538 0L662 49L643 98L701 147L614 196L624 245L595 295L720 344L720 393L691 442L634 491L749 540Z" fill="#7f6cf6"></path><path d="M489 540L479 491L517 442L469 393L383 344L316 295L316 245L325 196L393 147L402 98L354 49L345 0L403 0L442 49L490 98L480 147L451 196L413 245L422 295L509 344L614 393L605 442L547 491L586 540Z" fill="#8c7bf9"></path><path d="M76 540L133 491L162 442L191 393L153 344L76 295L191 245L105 196L124 147L153 98L201 49L143 0L346 0L355 49L403 98L394 147L326 196L317 245L317 295L384 344L470 393L518 442L480 491L490 540Z" fill="#998afc"></path><path d="M0 540L0 491L0 442L0 393L0 344L0 295L0 245L0 196L0 147L0 98L0 49L0 0L144 0L202 49L154 98L125 147L106 196L192 245L77 295L154 344L192 393L163 442L134 491L77 540Z" fill="#a698ff"></path></svg>