<svg id="visual" viewBox="0 0 960 540" width="960" height="540" xmlns="http://www.w3.org/2000/svg" xmlns:xlink="http://www.w3.org/1999/xlink" version="1.1"><path d="M0 447L16 459C32 471 64 495 96 496.7C128 498.3 160 477.7 192 472.7C224 467.7 256 478.3 288 485.5C320 492.7 352 496.3 384 488.7C416 481 448 462 480 458.7C512 455.3 544 467.7 576 478.3C608 489 640 498 672 497.5C704 497 736 487 768 487.5C800 488 832 499 864 494.2C896 489.3 928 468.7 944 458.3L960 448L960 541L944 541C928 541 896 541 864 541C832 541 800 541 768 541C736 541 704 541 672 541C640 541 608 541 576 541C544 541 512 541 480 541C448 541 416 541 384 541C352 541 320 541 288 541C256 541 224 541 192 541C160 541 128 541 96 541C64 541 32 541 16 541L0 541Z" fill="#77b5f8"></path><path d="M0 503L16 496.3C32 489.7 64 476.3 96 469C128 461.7 160 460.3 192 467.8C224 475.3 256 491.7 288 492C320 492.3 352 476.7 384 474.3C416 472 448 483 480 485.8C512 488.7 544 483.3 576 485.8C608 488.3 640 498.7 672 497.3C704 496 736 483 768 484.7C800 486.3 832 502.7 864 502.7C896 502.7 928 486.3 944 478.2L960 470L960 541L944 541C928 541 896 541 864 541C832 541 800 541 768 541C736 541 704 541 672 541C640 541 608 541 576 541C544 541 512 541 480 541C448 541 416 541 384 541C352 541 320 541 288 541C256 541 224 541 192 541C160 541 128 541 96 541C64 541 32 541 16 541L0 541Z" fill="#58a3fd"></path><path d="M0 519L16 514.7C32 510.3 64 501.7 96 503.7C128 505.7 160 518.3 192 524C224 529.7 256 528.3 288 523.5C320 518.7 352 510.3 384 504.2C416 498 448 494 480 498C512 502 544 514 576 516.5C608 519 640 512 672 509.7C704 507.3 736 509.7 768 511C800 512.3 832 512.7 864 512.3C896 512 928 511 944 510.5L960 510L960 541L944 541C928 541 896 541 864 541C832 541 800 541 768 541C736 541 704 541 672 541C640 541 608 541 576 541C544 541 512 541 480 541C448 541 416 541 384 541C352 541 320 541 288 541C256 541 224 541 192 541C160 541 128 541 96 541C64 541 32 541 16 541L0 541Z" fill="#408fff"></path><path d="M0 534L16 533.3C32 532.7 64 531.3 96 525.3C128 519.3 160 508.7 192 505.7C224 502.7 256 507.3 288 509C320 510.7 352 509.3 384 511.7C416 514 448 520 480 521C512 522 544 518 576 519.2C608 520.3 640 526.7 672 524C704 521.3 736 509.7 768 504C800 498.3 832 498.7 864 502.7C896 506.7 928 514.3 944 518.2L960 522L960 541L944 541C928 541 896 541 864 541C832 541 800 541 768 541C736 541 704 541 672 541C640 541 608 541 576 541C544 541 512 541 480 541C448 541 416 541 384 541C352 541 320 541 288 541C256 541 224 541 192 541C160 541 128 541 96 541C64 541 32 541 16 541L0 541Z" fill="#3978ff"></path></svg>