<svg id="visual" viewBox="0 0 960 540" width="960" height="540" xmlns="http://www.w3.org/2000/svg" xmlns:xlink="http://www.w3.org/1999/xlink" version="1.1"><path d="M0 280L26.7 294.7C53.3 309.3 106.7 338.7 160 368.3C213.3 398 266.7 428 320 440.5C373.3 453 426.7 448 480 428.3C533.3 408.7 586.7 374.3 640 347.3C693.3 320.3 746.7 300.7 800 291C853.3 281.3 906.7 281.7 933.3 281.8L960 282L960 0L933.3 0C906.7 0 853.3 0 800 0C746.7 0 693.3 0 640 0C586.7 0 533.3 0 480 0C426.7 0 373.3 0 320 0C266.7 0 213.3 0 160 0C106.7 0 53.3 0 26.7 0L0 0Z" fill="#fa7268"></path><path d="M0 385L26.7 369.3C53.3 353.7 106.7 322.3 160 296.3C213.3 270.3 266.7 249.7 320 253C373.3 256.3 426.7 283.7 480 274.7C533.3 265.7 586.7 220.3 640 201.2C693.3 182 746.7 189 800 204C853.3 219 906.7 242 933.3 253.5L960 265L960 0L933.3 0C906.7 0 853.3 0 800 0C746.7 0 693.3 0 640 0C586.7 0 533.3 0 480 0C426.7 0 373.3 0 320 0C266.7 0 213.3 0 160 0C106.7 0 53.3 0 26.7 0L0 0Z" fill="#eb5967"></path><path d="M0 113L26.7 135.8C53.3 158.7 106.7 204.3 160 201.3C213.3 198.3 266.7 146.7 320 134.2C373.3 121.7 426.7 148.3 480 171.5C533.3 194.7 586.7 214.3 640 228.2C693.3 242 746.7 250 800 226.8C853.3 203.7 906.7 149.3 933.3 122.2L960 95L960 0L933.3 0C906.7 0 853.3 0 800 0C746.7 0 693.3 0 640 0C586.7 0 533.3 0 480 0C426.7 0 373.3 0 320 0C266.7 0 213.3 0 160 0C106.7 0 53.3 0 26.7 0L0 0Z" fill="#da3f67"></path><path d="M0 87L26.7 86.8C53.3 86.7 106.7 86.3 160 102.5C213.3 118.7 266.7 151.3 320 153.5C373.3 155.7 426.7 127.3 480 106.5C533.3 85.7 586.7 72.3 640 71.7C693.3 71 746.7 83 800 74.3C853.3 65.7 906.7 36.3 933.3 21.7L960 7L960 0L933.3 0C906.7 0 853.3 0 800 0C746.7 0 693.3 0 640 0C586.7 0 533.3 0 480 0C426.7 0 373.3 0 320 0C266.7 0 213.3 0 160 0C106.7 0 53.3 0 26.7 0L0 0Z" fill="#c62368"></path></svg>