<svg id="visual" viewBox="0 0 960 540" width="960" height="540" xmlns="http://www.w3.org/2000/svg" xmlns:xlink="http://www.w3.org/1999/xlink" version="1.1"><rect x="0" y="0" width="960" height="540" fill="#ffffff"></rect><defs><linearGradient id="grad1_0" x1="43.8%" y1="0%" x2="100%" y2="100%"><stop offset="14.444444444444446%" stop-color="#ffffff" stop-opacity="1"></stop><stop offset="85.55555555555554%" stop-color="#ffffff" stop-opacity="1"></stop></linearGradient></defs><defs><linearGradient id="grad2_0" x1="0%" y1="0%" x2="56.3%" y2="100%"><stop offset="14.444444444444446%" stop-color="#ffffff" stop-opacity="1"></stop><stop offset="85.55555555555554%" stop-color="#ffffff" stop-opacity="1"></stop></linearGradient></defs><g transform="translate(960, 0)"><path d="M0 366C-34.6 372.3 -69.2 378.6 -97.8 365.1C-126.5 351.6 -149.2 318.4 -168 291C-186.8 263.6 -201.5 242 -224.9 224.9C-248.2 207.7 -280 195 -298.8 172.5C-317.5 150 -323.1 117.9 -326.5 87.5C-329.8 57.1 -330.9 28.6 -332 0L0 0Z" fill="#3a89ff"></path></g><g transform="translate(0, 540)"><path d="M0 -342C37.3 -358.2 74.6 -374.5 94 -350.6C113.3 -326.8 114.8 -262.9 141.5 -245.1C168.2 -227.3 220.3 -255.5 246.8 -246.8C273.3 -238.1 274.2 -192.4 274.5 -158.5C274.9 -124.6 274.6 -102.6 291.7 -78.2C308.9 -53.7 343.4 -26.9 378 0L0 0Z" fill="#3a89ff"></path></g></svg>