<svg id="visual" viewBox="0 0 960 540" width="960" height="540" xmlns="http://www.w3.org/2000/svg" xmlns:xlink="http://www.w3.org/1999/xlink" version="1.1"><path d="M0 427L60 363L120 407L180 379L240 424L300 402L360 404L420 395L480 377L540 436L600 400L660 392L720 362L780 376L840 375L900 403L960 434L960 541L900 541L840 541L780 541L720 541L660 541L600 541L540 541L480 541L420 541L360 541L300 541L240 541L180 541L120 541L60 541L0 541Z" fill="#2563eb"></path><path d="M0 421L60 403L120 412L180 448L240 393L300 448L360 454L420 438L480 429L540 421L600 401L660 431L720 445L780 419L840 407L900 393L960 413L960 541L900 541L840 541L780 541L720 541L660 541L600 541L540 541L480 541L420 541L360 541L300 541L240 541L180 541L120 541L60 541L0 541Z" fill="#2967ef"></path><path d="M0 459L60 439L120 465L180 461L240 432L300 464L360 453L420 459L480 438L540 460L600 442L660 457L720 420L780 426L840 442L900 436L960 472L960 541L900 541L840 541L780 541L720 541L660 541L600 541L540 541L480 541L420 541L360 541L300 541L240 541L180 541L120 541L60 541L0 541Z" fill="#2d6bf3"></path><path d="M0 441L60 484L120 460L180 445L240 476L300 489L360 475L420 470L480 471L540 472L600 445L660 465L720 480L780 451L840 483L900 453L960 476L960 541L900 541L840 541L780 541L720 541L660 541L600 541L540 541L480 541L420 541L360 541L300 541L240 541L180 541L120 541L60 541L0 541Z" fill="#316ff7"></path><path d="M0 500L60 484L120 471L180 470L240 487L300 482L360 498L420 502L480 496L540 505L600 471L660 501L720 495L780 497L840 487L900 492L960 473L960 541L900 541L840 541L780 541L720 541L660 541L600 541L540 541L480 541L420 541L360 541L300 541L240 541L180 541L120 541L60 541L0 541Z" fill="#3574fb"></path><path d="M0 496L60 502L120 522L180 513L240 510L300 493L360 508L420 493L480 509L540 498L600 518L660 498L720 509L780 496L840 499L900 496L960 507L960 541L900 541L840 541L780 541L720 541L660 541L600 541L540 541L480 541L420 541L360 541L300 541L240 541L180 541L120 541L60 541L0 541Z" fill="#3978ff"></path></svg>