<svg id="visual" viewBox="0 0 960 540" width="960" height="540" xmlns="http://www.w3.org/2000/svg" xmlns:xlink="http://www.w3.org/1999/xlink" version="1.1"><path d="M0 406L12.3 397C24.7 388 49.3 370 74 371.5C98.7 373 123.3 394 148 413.5C172.7 433 197.3 451 221.8 431.2C246.3 411.3 270.7 353.7 295.2 355.5C319.7 357.3 344.3 418.7 369 441C393.7 463.3 418.3 446.7 443 405.7C467.7 364.7 492.3 299.3 517 294.2C541.7 289 566.3 344 591 347.7C615.7 351.3 640.3 303.7 664.8 278.3C689.3 253 713.7 250 738.2 258.3C762.7 266.7 787.3 286.3 812 313.8C836.7 341.3 861.3 376.7 886 397.5C910.7 418.3 935.3 424.7 947.7 427.8L960 431L960 0L947.7 0C935.3 0 910.7 0 886 0C861.3 0 836.7 0 812 0C787.3 0 762.7 0 738.2 0C713.7 0 689.3 0 664.8 0C640.3 0 615.7 0 591 0C566.3 0 541.7 0 517 0C492.3 0 467.7 0 443 0C418.3 0 393.7 0 369 0C344.3 0 319.7 0 295.2 0C270.7 0 246.3 0 221.8 0C197.3 0 172.7 0 148 0C123.3 0 98.7 0 74 0C49.3 0 24.7 0 12.3 0L0 0Z" fill="#fa7268"></path><path d="M0 357L12.3 341.8C24.7 326.7 49.3 296.3 74 275.8C98.7 255.3 123.3 244.7 148 226.2C172.7 207.7 197.3 181.3 221.8 206.3C246.3 231.3 270.7 307.7 295.2 327.3C319.7 347 344.3 310 369 289.2C393.7 268.3 418.3 263.7 443 248.8C467.7 234 492.3 209 517 198.3C541.7 187.7 566.3 191.3 591 194.8C615.7 198.3 640.3 201.7 664.8 199.3C689.3 197 713.7 189 738.2 215.8C762.7 242.7 787.3 304.3 812 327.3C836.7 350.3 861.3 334.7 886 321C910.7 307.3 935.3 295.7 947.7 289.8L960 284L960 0L947.7 0C935.3 0 910.7 0 886 0C861.3 0 836.7 0 812 0C787.3 0 762.7 0 738.2 0C713.7 0 689.3 0 664.8 0C640.3 0 615.7 0 591 0C566.3 0 541.7 0 517 0C492.3 0 467.7 0 443 0C418.3 0 393.7 0 369 0C344.3 0 319.7 0 295.2 0C270.7 0 246.3 0 221.8 0C197.3 0 172.7 0 148 0C123.3 0 98.7 0 74 0C49.3 0 24.7 0 12.3 0L0 0Z" fill="#eb5967"></path><path d="M0 257L12.3 230.7C24.7 204.3 49.3 151.7 74 131.8C98.7 112 123.3 125 148 148.3C172.7 171.7 197.3 205.3 221.8 226C246.3 246.7 270.7 254.3 295.2 261.8C319.7 269.3 344.3 276.7 369 272.3C393.7 268 418.3 252 443 219.7C467.7 187.3 492.3 138.7 517 124.5C541.7 110.3 566.3 130.7 591 133.3C615.7 136 640.3 121 664.8 141.3C689.3 161.7 713.7 217.3 738.2 216.3C762.7 215.3 787.3 157.7 812 160.5C836.7 163.3 861.3 226.7 886 225.3C910.7 224 935.3 158 947.7 125L960 92L960 0L947.7 0C935.3 0 910.7 0 886 0C861.3 0 836.7 0 812 0C787.3 0 762.7 0 738.2 0C713.7 0 689.3 0 664.8 0C640.3 0 615.7 0 591 0C566.3 0 541.7 0 517 0C492.3 0 467.7 0 443 0C418.3 0 393.7 0 369 0C344.3 0 319.7 0 295.2 0C270.7 0 246.3 0 221.8 0C197.3 0 172.7 0 148 0C123.3 0 98.7 0 74 0C49.3 0 24.7 0 12.3 0L0 0Z" fill="#da3f67"></path><path d="M0 136L12.3 113.3C24.7 90.7 49.3 45.3 74 33.8C98.7 22.3 123.3 44.7 148 71.8C172.7 99 197.3 131 221.8 129.8C246.3 128.7 270.7 94.3 295.2 69.8C319.7 45.3 344.3 30.7 369 35.8C393.7 41 418.3 66 443 65C467.7 64 492.3 37 517 47.7C541.7 58.3 566.3 106.7 591 105.7C615.7 104.7 640.3 54.3 664.8 44.3C689.3 34.3 713.7 64.7 738.2 66.2C762.7 67.7 787.3 40.3 812 51.5C836.7 62.7 861.3 112.3 886 132.5C910.7 152.7 935.3 143.3 947.7 138.7L960 134L960 0L947.7 0C935.3 0 910.7 0 886 0C861.3 0 836.7 0 812 0C787.3 0 762.7 0 738.2 0C713.7 0 689.3 0 664.8 0C640.3 0 615.7 0 591 0C566.3 0 541.7 0 517 0C492.3 0 467.7 0 443 0C418.3 0 393.7 0 369 0C344.3 0 319.7 0 295.2 0C270.7 0 246.3 0 221.8 0C197.3 0 172.7 0 148 0C123.3 0 98.7 0 74 0C49.3 0 24.7 0 12.3 0L0 0Z" fill="#c62368"></path></svg>