<svg id="visual" viewBox="0 0 960 540" width="960" height="540" xmlns="http://www.w3.org/2000/svg" xmlns:xlink="http://www.w3.org/1999/xlink" version="1.1"><path d="M0 361L64 384L128 397L192 364L256 450L320 434L384 368L448 405L512 419L576 447L640 391L704 399L768 447L832 448L896 370L960 370L960 541L896 541L832 541L768 541L704 541L640 541L576 541L512 541L448 541L384 541L320 541L256 541L192 541L128 541L64 541L0 541Z" fill="#3978ff"></path><path d="M0 449L64 413L128 459L192 408L256 404L320 482L384 486L448 426L512 470L576 485L640 463L704 460L768 414L832 455L896 478L960 415L960 541L896 541L832 541L768 541L704 541L640 541L576 541L512 541L448 541L384 541L320 541L256 541L192 541L128 541L64 541L0 541Z" fill="#2960d4"></path><path d="M0 453L64 461L128 475L192 499L256 476L320 517L384 463L448 507L512 509L576 487L640 497L704 473L768 458L832 466L896 474L960 472L960 541L896 541L832 541L768 541L704 541L640 541L576 541L512 541L448 541L384 541L320 541L256 541L192 541L128 541L64 541L0 541Z" fill="#174aab"></path></svg>