<svg id="visual" viewBox="0 0 900 600" width="900" height="600" xmlns="http://www.w3.org/2000/svg" xmlns:xlink="http://www.w3.org/1999/xlink" version="1.1"><rect x="0" y="0" width="900" height="600" fill="#fff"></rect><defs><linearGradient id="grad1_0" x1="33.3%" y1="0%" x2="100%" y2="100%"><stop offset="20%" stop-color="#ffffff" stop-opacity="1"></stop><stop offset="80%" stop-color="#ffffff" stop-opacity="1"></stop></linearGradient></defs><defs><linearGradient id="grad2_0" x1="0%" y1="0%" x2="66.7%" y2="100%"><stop offset="20%" stop-color="#ffffff" stop-opacity="1"></stop><stop offset="80%" stop-color="#ffffff" stop-opacity="1"></stop></linearGradient></defs><g transform="translate(900, 0)"><path d="M0 216.3C-26.4 202.6 -52.8 188.9 -71.6 172.8C-90.3 156.6 -101.4 137.9 -124.5 124.5C-147.5 111 -182.6 102.7 -199.9 82.8C-217.2 62.9 -216.8 31.5 -216.3 0L0 0Z" fill="#e8b042"></path></g><g transform="translate(0, 600)"><path d="M0 -216.3C26.8 -213 53.5 -209.7 82.8 -199.9C112 -190 143.7 -173.5 145.7 -145.7C147.6 -117.8 119.8 -78.6 126.6 -52.4C133.4 -26.3 174.9 -13.1 216.3 0L0 0Z" fill="#e8b042"></path></g></svg>