<svg id="visual" viewBox="0 0 900 600" width="900" height="600" xmlns="http://www.w3.org/2000/svg" xmlns:xlink="http://www.w3.org/1999/xlink" version="1.1"><g><g transform="translate(609 467)"><path d="M124.8 -151.3C163.3 -116.4 197.3 -78.6 197.1 -40.5C196.9 -2.5 162.6 35.8 137 78.1C111.4 120.3 94.4 166.5 64.8 176.6C35.3 186.7 -6.9 160.7 -40.3 137C-73.7 113.4 -98.3 92.2 -131.1 62.6C-163.8 32.9 -204.5 -5.2 -209.4 -47.2C-214.3 -89.3 -183.2 -135.4 -142.4 -169.9C-101.5 -204.4 -50.7 -227.5 -3.8 -222.9C43.1 -218.4 86.2 -186.3 124.8 -151.3Z" fill="none" stroke="#2563eb" stroke-width="20"></path></g><g transform="translate(72 61)"><path d="M110.1 -143C140.5 -105.8 161.4 -69 170 -28.7C178.5 11.5 174.7 55.1 151.2 79.2C127.6 103.4 84.4 108.1 44.1 124C3.9 139.8 -33.3 166.7 -60.3 159.5C-87.3 152.3 -104 111 -109 75.8C-114 40.6 -107.1 11.5 -111.4 -29.2C-115.6 -69.9 -130.9 -122.1 -114.2 -161.8C-97.5 -201.5 -48.7 -228.7 -4.4 -223.4C39.9 -218.1 79.7 -180.3 110.1 -143Z" fill="none" stroke="#2563eb" stroke-width="20"></path></g></g></svg>