<svg id="visual" viewBox="0 0 900 450" width="900" height="450" xmlns="http://www.w3.org/2000/svg" xmlns:xlink="http://www.w3.org/1999/xlink" version="1.1"><path d="M0 319L21.5 325.3C43 331.7 86 344.3 128.8 337.2C171.7 330 214.3 303 257.2 296.7C300 290.3 343 304.7 385.8 305.8C428.7 307 471.3 295 514.2 294.5C557 294 600 305 642.8 301.7C685.7 298.3 728.3 280.7 771.2 289.7C814 298.7 857 334.3 878.5 352.2L900 370L900 0L878.5 0C857 0 814 0 771.2 0C728.3 0 685.7 0 642.8 0C600 0 557 0 514.2 0C471.3 0 428.7 0 385.8 0C343 0 300 0 257.2 0C214.3 0 171.7 0 128.8 0C86 0 43 0 21.5 0L0 0Z" fill="#ff6f61"></path><path d="M0 185L21.5 193.3C43 201.7 86 218.3 128.8 228.3C171.7 238.3 214.3 241.7 257.2 247.2C300 252.7 343 260.3 385.8 253.2C428.7 246 471.3 224 514.2 210.5C557 197 600 192 642.8 196C685.7 200 728.3 213 771.2 211.7C814 210.3 857 194.7 878.5 186.8L900 179L900 0L878.5 0C857 0 814 0 771.2 0C728.3 0 685.7 0 642.8 0C600 0 557 0 514.2 0C471.3 0 428.7 0 385.8 0C343 0 300 0 257.2 0C214.3 0 171.7 0 128.8 0C86 0 43 0 21.5 0L0 0Z" fill="#f35c62"></path><path d="M0 229L21.5 214C43 199 86 169 128.8 157.7C171.7 146.3 214.3 153.7 257.2 166.7C300 179.7 343 198.3 385.8 199.2C428.7 200 471.3 183 514.2 178.8C557 174.7 600 183.3 642.8 194.8C685.7 206.3 728.3 220.7 771.2 222C814 223.3 857 211.7 878.5 205.8L900 200L900 0L878.5 0C857 0 814 0 771.2 0C728.3 0 685.7 0 642.8 0C600 0 557 0 514.2 0C471.3 0 428.7 0 385.8 0C343 0 300 0 257.2 0C214.3 0 171.7 0 128.8 0C86 0 43 0 21.5 0L0 0Z" fill="#e64964"></path><path d="M0 138L21.5 138C43 138 86 138 128.8 132.3C171.7 126.7 214.3 115.3 257.2 116.8C300 118.3 343 132.7 385.8 130.7C428.7 128.7 471.3 110.3 514.2 108.5C557 106.7 600 121.3 642.8 126.7C685.7 132 728.3 128 771.2 133.2C814 138.3 857 152.7 878.5 159.8L900 167L900 0L878.5 0C857 0 814 0 771.2 0C728.3 0 685.7 0 642.8 0C600 0 557 0 514.2 0C471.3 0 428.7 0 385.8 0C343 0 300 0 257.2 0C214.3 0 171.7 0 128.8 0C86 0 43 0 21.5 0L0 0Z" fill="#d73666"></path><path d="M0 109L21.5 105.5C43 102 86 95 128.8 84.8C171.7 74.7 214.3 61.3 257.2 62.8C300 64.3 343 80.7 385.8 82C428.7 83.3 471.3 69.7 514.2 64.5C557 59.3 600 62.7 642.8 67.8C685.7 73 728.3 80 771.2 84.3C814 88.7 857 90.3 878.5 91.2L900 92L900 0L878.5 0C857 0 814 0 771.2 0C728.3 0 685.7 0 642.8 0C600 0 557 0 514.2 0C471.3 0 428.7 0 385.8 0C343 0 300 0 257.2 0C214.3 0 171.7 0 128.8 0C86 0 43 0 21.5 0L0 0Z" fill="#c62368"></path></svg>