<svg id="visual" viewBox="0 0 900 600" width="900" height="600" xmlns="http://www.w3.org/2000/svg" xmlns:xlink="http://www.w3.org/1999/xlink" version="1.1"><g stroke-width="1" stroke-linejoin="bevel"><path d="M489 328L516 394L620 339Z" fill="#3574fb" stroke="#3574fb"></path><path d="M516 394L595 436L620 339Z" fill="#316ff7" stroke="#316ff7"></path><path d="M595 436L663 385L620 339Z" fill="#2563eb" stroke="#2563eb"></path><path d="M681 265L573 196L620 339Z" fill="#3776fd" stroke="#3776fd"></path><path d="M620 339L573 196L489 328Z" fill="#3978ff" stroke="#3978ff"></path><path d="M663 385L681 265L620 339Z" fill="#3978ff" stroke="#3978ff"></path><path d="M480 173L419 235L489 328Z" fill="#2765ed" stroke="#2765ed"></path><path d="M410 526L497 511L516 394Z" fill="#2f6df5" stroke="#2f6df5"></path><path d="M372 360L516 394L489 328Z" fill="#316ff7" stroke="#316ff7"></path><path d="M516 394L497 511L595 436Z" fill="#3776fd" stroke="#3776fd"></path><path d="M595 436L739 519L663 385Z" fill="#2d6bf3" stroke="#2d6bf3"></path><path d="M573 196L480 173L489 328Z" fill="#2f6df5" stroke="#2f6df5"></path><path d="M373 265L372 360L489 328Z" fill="#2765ed" stroke="#2765ed"></path><path d="M336 183L373 265L419 235Z" fill="#316ff7" stroke="#316ff7"></path><path d="M419 235L373 265L489 328Z" fill="#2d6bf3" stroke="#2d6bf3"></path><path d="M497 511L612 537L595 436Z" fill="#3371f9" stroke="#3371f9"></path><path d="M812 226L714 195L681 265Z" fill="#2563eb" stroke="#2563eb"></path><path d="M681 265L714 195L573 196Z" fill="#2563eb" stroke="#2563eb"></path><path d="M573 196L482 133L480 173Z" fill="#3371f9" stroke="#3371f9"></path><path d="M615 85L482 133L573 196Z" fill="#2f6df5" stroke="#2f6df5"></path><path d="M480 173L423 115L419 235Z" fill="#2967ef" stroke="#2967ef"></path><path d="M372 360L410 526L516 394Z" fill="#3371f9" stroke="#3371f9"></path><path d="M497 511L512 600L612 537Z" fill="#2f6df5" stroke="#2f6df5"></path><path d="M739 519L772 429L663 385Z" fill="#2967ef" stroke="#2967ef"></path><path d="M663 385L812 307L681 265Z" fill="#2563eb" stroke="#2563eb"></path><path d="M612 537L739 519L595 436Z" fill="#2765ed" stroke="#2765ed"></path><path d="M772 429L812 307L663 385Z" fill="#3574fb" stroke="#3574fb"></path><path d="M532 0L423 115L482 133Z" fill="#2967ef" stroke="#2967ef"></path><path d="M482 133L423 115L480 173Z" fill="#3574fb" stroke="#3574fb"></path><path d="M714 195L615 85L573 196Z" fill="#3574fb" stroke="#3574fb"></path><path d="M410 526L512 600L497 511Z" fill="#3574fb" stroke="#3574fb"></path><path d="M612 537L660 600L739 519Z" fill="#316ff7" stroke="#316ff7"></path><path d="M423 115L336 183L419 235Z" fill="#3371f9" stroke="#3371f9"></path><path d="M262 309L288 389L372 360Z" fill="#2563eb" stroke="#2563eb"></path><path d="M262 309L372 360L373 265Z" fill="#3776fd" stroke="#3776fd"></path><path d="M372 360L288 389L410 526Z" fill="#2765ed" stroke="#2765ed"></path><path d="M512 600L634 600L612 537Z" fill="#2967ef" stroke="#2967ef"></path><path d="M634 600L660 600L612 537Z" fill="#3574fb" stroke="#3574fb"></path><path d="M812 307L812 226L681 265Z" fill="#3574fb" stroke="#3574fb"></path><path d="M714 195L727 73L615 85Z" fill="#3371f9" stroke="#3371f9"></path><path d="M236 225L262 309L373 265Z" fill="#2967ef" stroke="#2967ef"></path><path d="M739 519L807 517L772 429Z" fill="#2967ef" stroke="#2967ef"></path><path d="M900 393L900 297L812 307Z" fill="#3371f9" stroke="#3371f9"></path><path d="M830 600L807 517L739 519Z" fill="#3574fb" stroke="#3574fb"></path><path d="M812 226L783 124L714 195Z" fill="#2563eb" stroke="#2563eb"></path><path d="M783 124L727 73L714 195Z" fill="#3574fb" stroke="#3574fb"></path><path d="M410 526L369 600L512 600Z" fill="#2765ed" stroke="#2765ed"></path><path d="M321 600L369 600L410 526Z" fill="#2967ef" stroke="#2967ef"></path><path d="M213 490L269 498L288 389Z" fill="#2f6df5" stroke="#2f6df5"></path><path d="M288 389L269 498L410 526Z" fill="#2563eb" stroke="#2563eb"></path><path d="M364 0L316 117L423 115Z" fill="#2d6bf3" stroke="#2d6bf3"></path><path d="M423 115L316 117L336 183Z" fill="#2f6df5" stroke="#2f6df5"></path><path d="M336 183L236 225L373 265Z" fill="#3776fd" stroke="#3776fd"></path><path d="M532 0L482 133L615 85Z" fill="#3776fd" stroke="#3776fd"></path><path d="M262 309L225 362L288 389Z" fill="#2f6df5" stroke="#2f6df5"></path><path d="M199 292L225 362L262 309Z" fill="#2f6df5" stroke="#2f6df5"></path><path d="M238 126L236 225L336 183Z" fill="#2b69f1" stroke="#2b69f1"></path><path d="M600 0L532 0L615 85Z" fill="#2d6bf3" stroke="#2d6bf3"></path><path d="M674 0L600 0L615 85Z" fill="#2b69f1" stroke="#2b69f1"></path><path d="M900 393L812 307L772 429Z" fill="#3978ff" stroke="#3978ff"></path><path d="M812 307L900 297L812 226Z" fill="#2d6bf3" stroke="#2d6bf3"></path><path d="M812 226L900 135L783 124Z" fill="#2765ed" stroke="#2765ed"></path><path d="M269 498L321 600L410 526Z" fill="#3978ff" stroke="#3978ff"></path><path d="M807 517L900 393L772 429Z" fill="#2563eb" stroke="#2563eb"></path><path d="M236 225L199 292L262 309Z" fill="#2f6df5" stroke="#2f6df5"></path><path d="M225 362L213 490L288 389Z" fill="#2f6df5" stroke="#2f6df5"></path><path d="M727 73L674 0L615 85Z" fill="#316ff7" stroke="#316ff7"></path><path d="M786 0L674 0L727 73Z" fill="#3371f9" stroke="#3371f9"></path><path d="M900 297L900 222L812 226Z" fill="#2f6df5" stroke="#2f6df5"></path><path d="M783 124L786 0L727 73Z" fill="#2d6bf3" stroke="#2d6bf3"></path><path d="M114 521L213 490L72 390Z" fill="#2b69f1" stroke="#2b69f1"></path><path d="M269 498L177 600L321 600Z" fill="#3978ff" stroke="#3978ff"></path><path d="M660 600L830 600L739 519Z" fill="#2b69f1" stroke="#2b69f1"></path><path d="M807 517L900 512L900 393Z" fill="#2563eb" stroke="#2563eb"></path><path d="M236 225L106 195L199 292Z" fill="#2f6df5" stroke="#2f6df5"></path><path d="M316 117L238 126L336 183Z" fill="#3978ff" stroke="#3978ff"></path><path d="M310 0L238 126L316 117Z" fill="#3776fd" stroke="#3776fd"></path><path d="M830 600L900 512L807 517Z" fill="#2967ef" stroke="#2967ef"></path><path d="M532 0L364 0L423 115Z" fill="#2f6df5" stroke="#2f6df5"></path><path d="M900 222L900 135L812 226Z" fill="#316ff7" stroke="#316ff7"></path><path d="M900 0L786 0L783 124Z" fill="#3978ff" stroke="#3978ff"></path><path d="M364 0L310 0L316 117Z" fill="#2b69f1" stroke="#2b69f1"></path><path d="M830 600L900 600L900 512Z" fill="#2f6df5" stroke="#2f6df5"></path><path d="M114 521L177 600L213 490Z" fill="#3776fd" stroke="#3776fd"></path><path d="M213 490L177 600L269 498Z" fill="#2f6df5" stroke="#2f6df5"></path><path d="M238 126L106 195L236 225Z" fill="#2d6bf3" stroke="#2d6bf3"></path><path d="M72 390L213 490L225 362Z" fill="#316ff7" stroke="#316ff7"></path><path d="M60 129L106 195L238 126Z" fill="#3776fd" stroke="#3776fd"></path><path d="M72 390L225 362L199 292Z" fill="#2b69f1" stroke="#2b69f1"></path><path d="M65 271L72 390L199 292Z" fill="#3574fb" stroke="#3574fb"></path><path d="M900 135L900 0L783 124Z" fill="#2765ed" stroke="#2765ed"></path><path d="M106 195L65 271L199 292Z" fill="#2563eb" stroke="#2563eb"></path><path d="M310 0L161 0L238 126Z" fill="#3574fb" stroke="#3574fb"></path><path d="M106 195L0 194L65 271Z" fill="#2967ef" stroke="#2967ef"></path><path d="M161 0L60 129L238 126Z" fill="#3371f9" stroke="#3371f9"></path><path d="M0 469L114 521L72 390Z" fill="#2765ed" stroke="#2765ed"></path><path d="M0 469L74 600L114 521Z" fill="#2563eb" stroke="#2563eb"></path><path d="M114 521L74 600L177 600Z" fill="#2f6df5" stroke="#2f6df5"></path><path d="M0 325L72 390L65 271Z" fill="#2967ef" stroke="#2967ef"></path><path d="M0 194L0 325L65 271Z" fill="#316ff7" stroke="#316ff7"></path><path d="M161 0L114 0L60 129Z" fill="#3776fd" stroke="#3776fd"></path><path d="M0 325L0 427L72 390Z" fill="#2b69f1" stroke="#2b69f1"></path><path d="M0 427L0 469L72 390Z" fill="#2b69f1" stroke="#2b69f1"></path><path d="M60 129L0 194L106 195Z" fill="#316ff7" stroke="#316ff7"></path><path d="M0 63L0 194L60 129Z" fill="#2967ef" stroke="#2967ef"></path><path d="M0 469L0 600L74 600Z" fill="#3574fb" stroke="#3574fb"></path><path d="M114 0L0 63L60 129Z" fill="#2d6bf3" stroke="#2d6bf3"></path><path d="M114 0L0 0L0 63Z" fill="#3776fd" stroke="#3776fd"></path></g></svg>