<svg id="visual" viewBox="0 0 900 600" width="900" height="600" xmlns="http://www.w3.org/2000/svg" xmlns:xlink="http://www.w3.org/1999/xlink" version="1.1"><path d="M0 49L82 91L164 133L245 43L327 97L409 67L491 97L573 97L655 49L736 115L818 109L900 43L900 0L818 0L736 0L655 0L573 0L491 0L409 0L327 0L245 0L164 0L82 0L0 0Z" fill="#2563eb"></path><path d="M0 193L82 253L164 229L245 127L327 223L409 211L491 331L573 241L655 325L736 265L818 247L900 163L900 41L818 107L736 113L655 47L573 95L491 95L409 65L327 95L245 41L164 131L82 89L0 47Z" fill="#2a68f0"></path><path d="M0 355L82 337L164 343L245 283L327 277L409 355L491 397L573 355L655 427L736 313L818 385L900 313L900 161L818 245L736 263L655 323L573 239L491 329L409 209L327 221L245 125L164 227L82 251L0 191Z" fill="#2f6df5"></path><path d="M0 409L82 421L164 379L245 379L327 367L409 403L491 487L573 451L655 493L736 385L818 469L900 373L900 311L818 383L736 311L655 425L573 353L491 395L409 353L327 275L245 281L164 341L82 335L0 353Z" fill="#3472fa"></path><path d="M0 601L82 601L164 601L245 601L327 601L409 601L491 601L573 601L655 601L736 601L818 601L900 601L900 371L818 467L736 383L655 491L573 449L491 485L409 401L327 365L245 377L164 377L82 419L0 407Z" fill="#3978ff"></path></svg>