<svg id="visual" viewBox="0 0 900 600" width="900" height="600" xmlns="http://www.w3.org/2000/svg" xmlns:xlink="http://www.w3.org/1999/xlink" version="1.1"><path d="M0 55L13.7 54C27.3 53 54.7 51 82 57C109.3 63 136.7 77 163.8 85C191 93 218 95 245.2 105C272.3 115 299.7 133 327 133C354.3 133 381.7 115 409 117C436.3 119 463.7 141 491 146C518.3 151 545.7 139 573 134C600.3 129 627.7 131 654.8 125C682 119 709 105 736.2 103C763.3 101 790.7 111 818 111C845.3 111 872.7 101 886.3 96L900 91L900 0L886.3 0C872.7 0 845.3 0 818 0C790.7 0 763.3 0 736.2 0C709 0 682 0 654.8 0C627.7 0 600.3 0 573 0C545.7 0 518.3 0 491 0C463.7 0 436.3 0 409 0C381.7 0 354.3 0 327 0C299.7 0 272.3 0 245.2 0C218 0 191 0 163.8 0C136.7 0 109.3 0 82 0C54.7 0 27.3 0 13.7 0L0 0Z" fill="#e8b042"></path><path d="M0 151L13.7 148C27.3 145 54.7 139 82 140C109.3 141 136.7 149 163.8 160C191 171 218 185 245.2 198C272.3 211 299.7 223 327 222C354.3 221 381.7 207 409 201C436.3 195 463.7 197 491 202C518.3 207 545.7 215 573 215C600.3 215 627.7 207 654.8 201C682 195 709 191 736.2 193C763.3 195 790.7 203 818 200C845.3 197 872.7 183 886.3 176L900 169L900 89L886.3 94C872.7 99 845.3 109 818 109C790.7 109 763.3 99 736.2 101C709 103 682 117 654.8 123C627.7 129 600.3 127 573 132C545.7 137 518.3 149 491 144C463.7 139 436.3 117 409 115C381.7 113 354.3 131 327 131C299.7 131 272.3 113 245.2 103C218 93 191 91 163.8 83C136.7 75 109.3 61 82 55C54.7 49 27.3 51 13.7 52L0 53Z" fill="#ee6f40"></path><path d="M0 307L13.7 295C27.3 283 54.7 259 82 267C109.3 275 136.7 315 163.8 327C191 339 218 323 245.2 317C272.3 311 299.7 315 327 334C354.3 353 381.7 387 409 396C436.3 405 463.7 389 491 379C518.3 369 545.7 365 573 358C600.3 351 627.7 341 654.8 338C682 335 709 339 736.2 354C763.3 369 790.7 395 818 401C845.3 407 872.7 393 886.3 386L900 379L900 167L886.3 174C872.7 181 845.3 195 818 198C790.7 201 763.3 193 736.2 191C709 189 682 193 654.8 199C627.7 205 600.3 213 573 213C545.7 213 518.3 205 491 200C463.7 195 436.3 193 409 199C381.7 205 354.3 219 327 220C299.7 221 272.3 209 245.2 196C218 183 191 169 163.8 158C136.7 147 109.3 139 82 138C54.7 137 27.3 143 13.7 146L0 149Z" fill="#d9205c"></path><path d="M0 403L13.7 395C27.3 387 54.7 371 82 375C109.3 379 136.7 403 163.8 413C191 423 218 419 245.2 412C272.3 405 299.7 395 327 410C354.3 425 381.7 465 409 475C436.3 485 463.7 465 491 452C518.3 439 545.7 433 573 425C600.3 417 627.7 407 654.8 413C682 419 709 441 736.2 464C763.3 487 790.7 511 818 509C845.3 507 872.7 479 886.3 465L900 451L900 377L886.3 384C872.7 391 845.3 405 818 399C790.7 393 763.3 367 736.2 352C709 337 682 333 654.8 336C627.7 339 600.3 349 573 356C545.7 363 518.3 367 491 377C463.7 387 436.3 403 409 394C381.7 385 354.3 351 327 332C299.7 313 272.3 309 245.2 315C218 321 191 337 163.8 325C136.7 313 109.3 273 82 265C54.7 257 27.3 281 13.7 293L0 305Z" fill="#9f0080"></path><path d="M0 601L13.7 601C27.3 601 54.7 601 82 601C109.3 601 136.7 601 163.8 601C191 601 218 601 245.2 601C272.3 601 299.7 601 327 601C354.3 601 381.7 601 409 601C436.3 601 463.7 601 491 601C518.3 601 545.7 601 573 601C600.3 601 627.7 601 654.8 601C682 601 709 601 736.2 601C763.3 601 790.7 601 818 601C845.3 601 872.7 601 886.3 601L900 601L900 449L886.3 463C872.7 477 845.3 505 818 507C790.7 509 763.3 485 736.2 462C709 439 682 417 654.8 411C627.7 405 600.3 415 573 423C545.7 431 518.3 437 491 450C463.7 463 436.3 483 409 473C381.7 463 354.3 423 327 408C299.7 393 272.3 403 245.2 410C218 417 191 421 163.8 411C136.7 401 109.3 377 82 373C54.7 369 27.3 385 13.7 393L0 401Z" fill="#001b98"></path></svg>