<svg id="visual" viewBox="0 0 900 600" width="900" height="600" xmlns="http://www.w3.org/2000/svg" xmlns:xlink="http://www.w3.org/1999/xlink" version="1.1"><path d="M0 55L13.7 63C27.3 71 54.7 87 82 86C109.3 85 136.7 67 163.8 60C191 53 218 57 245.2 63C272.3 69 299.7 77 327 84C354.3 91 381.7 97 409 92C436.3 87 463.7 71 491 62C518.3 53 545.7 51 573 59C600.3 67 627.7 85 654.8 87C682 89 709 75 736.2 69C763.3 63 790.7 65 818 72C845.3 79 872.7 91 886.3 97L900 103L900 0L886.3 0C872.7 0 845.3 0 818 0C790.7 0 763.3 0 736.2 0C709 0 682 0 654.8 0C627.7 0 600.3 0 573 0C545.7 0 518.3 0 491 0C463.7 0 436.3 0 409 0C381.7 0 354.3 0 327 0C299.7 0 272.3 0 245.2 0C218 0 191 0 163.8 0C136.7 0 109.3 0 82 0C54.7 0 27.3 0 13.7 0L0 0Z" fill="#09275e"></path><path d="M0 211L13.7 210C27.3 209 54.7 207 82 197C109.3 187 136.7 169 163.8 166C191 163 218 175 245.2 178C272.3 181 299.7 175 327 172C354.3 169 381.7 169 409 175C436.3 181 463.7 193 491 185C518.3 177 545.7 149 573 145C600.3 141 627.7 161 654.8 175C682 189 709 197 736.2 191C763.3 185 790.7 165 818 170C845.3 175 872.7 205 886.3 220L900 235L900 101L886.3 95C872.7 89 845.3 77 818 70C790.7 63 763.3 61 736.2 67C709 73 682 87 654.8 85C627.7 83 600.3 65 573 57C545.7 49 518.3 51 491 60C463.7 69 436.3 85 409 90C381.7 95 354.3 89 327 82C299.7 75 272.3 67 245.2 61C218 55 191 51 163.8 58C136.7 65 109.3 83 82 84C54.7 85 27.3 69 13.7 61L0 53Z" fill="#062256"></path><path d="M0 265L13.7 270C27.3 275 54.7 285 82 284C109.3 283 136.7 271 163.8 263C191 255 218 251 245.2 255C272.3 259 299.7 271 327 273C354.3 275 381.7 267 409 275C436.3 283 463.7 307 491 304C518.3 301 545.7 271 573 257C600.3 243 627.7 245 654.8 258C682 271 709 295 736.2 292C763.3 289 790.7 259 818 262C845.3 265 872.7 301 886.3 319L900 337L900 233L886.3 218C872.7 203 845.3 173 818 168C790.7 163 763.3 183 736.2 189C709 195 682 187 654.8 173C627.7 159 600.3 139 573 143C545.7 147 518.3 175 491 183C463.7 191 436.3 179 409 173C381.7 167 354.3 167 327 170C299.7 173 272.3 179 245.2 176C218 173 191 161 163.8 164C136.7 167 109.3 185 82 195C54.7 205 27.3 207 13.7 208L0 209Z" fill="#041e4f"></path><path d="M0 457L13.7 449C27.3 441 54.7 425 82 413C109.3 401 136.7 393 163.8 396C191 399 218 413 245.2 432C272.3 451 299.7 475 327 469C354.3 463 381.7 427 409 412C436.3 397 463.7 403 491 418C518.3 433 545.7 457 573 456C600.3 455 627.7 429 654.8 423C682 417 709 431 736.2 447C763.3 463 790.7 481 818 477C845.3 473 872.7 447 886.3 434L900 421L900 335L886.3 317C872.7 299 845.3 263 818 260C790.7 257 763.3 287 736.2 290C709 293 682 269 654.8 256C627.7 243 600.3 241 573 255C545.7 269 518.3 299 491 302C463.7 305 436.3 281 409 273C381.7 265 354.3 273 327 271C299.7 269 272.3 257 245.2 253C218 249 191 253 163.8 261C136.7 269 109.3 281 82 282C54.7 283 27.3 273 13.7 268L0 263Z" fill="#021a47"></path><path d="M0 601L13.7 601C27.3 601 54.7 601 82 601C109.3 601 136.7 601 163.8 601C191 601 218 601 245.2 601C272.3 601 299.7 601 327 601C354.3 601 381.7 601 409 601C436.3 601 463.7 601 491 601C518.3 601 545.7 601 573 601C600.3 601 627.7 601 654.8 601C682 601 709 601 736.2 601C763.3 601 790.7 601 818 601C845.3 601 872.7 601 886.3 601L900 601L900 419L886.3 432C872.7 445 845.3 471 818 475C790.7 479 763.3 461 736.2 445C709 429 682 415 654.8 421C627.7 427 600.3 453 573 454C545.7 455 518.3 431 491 416C463.7 401 436.3 395 409 410C381.7 425 354.3 461 327 467C299.7 473 272.3 449 245.2 430C218 411 191 397 163.8 394C136.7 391 109.3 399 82 411C54.7 423 27.3 439 13.7 447L0 455Z" fill="#001640"></path></svg>