<svg id="visual" viewBox="0 0 900 600" width="900" height="600" xmlns="http://www.w3.org/2000/svg" xmlns:xlink="http://www.w3.org/1999/xlink" version="1.1"><path d="M0 163L13.7 166C27.3 169 54.7 175 82 185C109.3 195 136.7 209 163.8 229C191 249 218 275 245.2 270C272.3 265 299.7 229 327 194C354.3 159 381.7 125 409 137C436.3 149 463.7 207 491 233C518.3 259 545.7 253 573 227C600.3 201 627.7 155 654.8 129C682 103 709 97 736.2 93C763.3 89 790.7 87 818 105C845.3 123 872.7 161 886.3 180L900 199L900 0L886.3 0C872.7 0 845.3 0 818 0C790.7 0 763.3 0 736.2 0C709 0 682 0 654.8 0C627.7 0 600.3 0 573 0C545.7 0 518.3 0 491 0C463.7 0 436.3 0 409 0C381.7 0 354.3 0 327 0C299.7 0 272.3 0 245.2 0C218 0 191 0 163.8 0C136.7 0 109.3 0 82 0C54.7 0 27.3 0 13.7 0L0 0Z" fill="#f31260"></path><path d="M0 199L13.7 203C27.3 207 54.7 215 82 225C109.3 235 136.7 247 163.8 272C191 297 218 335 245.2 341C272.3 347 299.7 321 327 289C354.3 257 381.7 219 409 221C436.3 223 463.7 265 491 283C518.3 301 545.7 295 573 268C600.3 241 627.7 193 654.8 169C682 145 709 145 736.2 147C763.3 149 790.7 153 818 178C845.3 203 872.7 249 886.3 272L900 295L900 197L886.3 178C872.7 159 845.3 121 818 103C790.7 85 763.3 87 736.2 91C709 95 682 101 654.8 127C627.7 153 600.3 199 573 225C545.7 251 518.3 257 491 231C463.7 205 436.3 147 409 135C381.7 123 354.3 157 327 192C299.7 227 272.3 263 245.2 268C218 273 191 247 163.8 227C136.7 207 109.3 193 82 183C54.7 173 27.3 167 13.7 164L0 161Z" fill="#f68339"></path><path d="M0 247L13.7 265C27.3 283 54.7 319 82 333C109.3 347 136.7 339 163.8 351C191 363 218 395 245.2 402C272.3 409 299.7 391 327 364C354.3 337 381.7 301 409 312C436.3 323 463.7 381 491 403C518.3 425 545.7 411 573 374C600.3 337 627.7 277 654.8 256C682 235 709 253 736.2 264C763.3 275 790.7 279 818 298C845.3 317 872.7 351 886.3 368L900 385L900 293L886.3 270C872.7 247 845.3 201 818 176C790.7 151 763.3 147 736.2 145C709 143 682 143 654.8 167C627.7 191 600.3 239 573 266C545.7 293 518.3 299 491 281C463.7 263 436.3 221 409 219C381.7 217 354.3 255 327 287C299.7 319 272.3 345 245.2 339C218 333 191 295 163.8 270C136.7 245 109.3 233 82 223C54.7 213 27.3 205 13.7 201L0 197Z" fill="#e8b042"></path><path d="M0 475L13.7 478C27.3 481 54.7 487 82 486C109.3 485 136.7 477 163.8 482C191 487 218 505 245.2 507C272.3 509 299.7 495 327 483C354.3 471 381.7 461 409 473C436.3 485 463.7 519 491 527C518.3 535 545.7 517 573 504C600.3 491 627.7 483 654.8 478C682 473 709 471 736.2 468C763.3 465 790.7 461 818 475C845.3 489 872.7 521 886.3 537L900 553L900 383L886.3 366C872.7 349 845.3 315 818 296C790.7 277 763.3 273 736.2 262C709 251 682 233 654.8 254C627.7 275 600.3 335 573 372C545.7 409 518.3 423 491 401C463.7 379 436.3 321 409 310C381.7 299 354.3 335 327 362C299.7 389 272.3 407 245.2 400C218 393 191 361 163.8 349C136.7 337 109.3 345 82 331C54.7 317 27.3 281 13.7 263L0 245Z" fill="#f68339"></path><path d="M0 601L13.7 601C27.3 601 54.7 601 82 601C109.3 601 136.7 601 163.8 601C191 601 218 601 245.2 601C272.3 601 299.7 601 327 601C354.3 601 381.7 601 409 601C436.3 601 463.7 601 491 601C518.3 601 545.7 601 573 601C600.3 601 627.7 601 654.8 601C682 601 709 601 736.2 601C763.3 601 790.7 601 818 601C845.3 601 872.7 601 886.3 601L900 601L900 551L886.3 535C872.7 519 845.3 487 818 473C790.7 459 763.3 463 736.2 466C709 469 682 471 654.8 476C627.7 481 600.3 489 573 502C545.7 515 518.3 533 491 525C463.7 517 436.3 483 409 471C381.7 459 354.3 469 327 481C299.7 493 272.3 507 245.2 505C218 503 191 485 163.8 480C136.7 475 109.3 483 82 484C54.7 485 27.3 479 13.7 476L0 473Z" fill="#f31260"></path></svg>