<svg id="visual" viewBox="0 0 960 540" width="960" height="540" xmlns="http://www.w3.org/2000/svg" xmlns:xlink="http://www.w3.org/1999/xlink" version="1.1"><path d="M0 77L14.5 71.5C29 66 58 55 87.2 56.7C116.3 58.3 145.7 72.7 174.8 78.2C204 83.7 233 80.3 262 74.2C291 68 320 59 349 51.7C378 44.3 407 38.7 436.2 45.8C465.3 53 494.7 73 523.8 82C553 91 582 89 611 79C640 69 669 51 698 42C727 33 756 33 785.2 41.2C814.3 49.3 843.7 65.7 872.8 65.7C902 65.7 931 49.3 945.5 41.2L960 33L960 0L945.5 0C931 0 902 0 872.8 0C843.7 0 814.3 0 785.2 0C756 0 727 0 698 0C669 0 640 0 611 0C582 0 553 0 523.8 0C494.7 0 465.3 0 436.2 0C407 0 378 0 349 0C320 0 291 0 262 0C233 0 204 0 174.8 0C145.7 0 116.3 0 87.2 0C58 0 29 0 14.5 0L0 0Z" fill="#d16415"></path><path d="M0 141L14.5 134.8C29 128.7 58 116.3 87.2 127.2C116.3 138 145.7 172 174.8 183.7C204 195.3 233 184.7 262 180.2C291 175.7 320 177.3 349 173.7C378 170 407 161 436.2 166.5C465.3 172 494.7 192 523.8 193.8C553 195.7 582 179.3 611 171.2C640 163 669 163 698 149.5C727 136 756 109 785.2 109.8C814.3 110.7 843.7 139.3 872.8 147.5C902 155.7 931 143.3 945.5 137.2L960 131L960 31L945.5 39.2C931 47.3 902 63.7 872.8 63.7C843.7 63.7 814.3 47.3 785.2 39.2C756 31 727 31 698 40C669 49 640 67 611 77C582 87 553 89 523.8 80C494.7 71 465.3 51 436.2 43.8C407 36.7 378 42.3 349 49.7C320 57 291 66 262 72.2C233 78.3 204 81.7 174.8 76.2C145.7 70.7 116.3 56.3 87.2 54.7C58 53 29 64 14.5 69.5L0 75Z" fill="#d8781d"></path><path d="M0 190L14.5 189.2C29 188.3 58 186.7 87.2 195.7C116.3 204.7 145.7 224.3 174.8 232.3C204 240.3 233 236.7 262 239.3C291 242 320 251 349 252.8C378 254.7 407 249.3 436.2 253C465.3 256.7 494.7 269.3 523.8 273.8C553 278.3 582 274.7 611 264.7C640 254.7 669 238.3 698 222.2C727 206 756 190 785.2 192.8C814.3 195.7 843.7 217.3 872.8 219.2C902 221 931 203 945.5 194L960 185L960 129L945.5 135.2C931 141.3 902 153.7 872.8 145.5C843.7 137.3 814.3 108.7 785.2 107.8C756 107 727 134 698 147.5C669 161 640 161 611 169.2C582 177.3 553 193.7 523.8 191.8C494.7 190 465.3 170 436.2 164.5C407 159 378 168 349 171.7C320 175.3 291 173.7 262 178.2C233 182.7 204 193.3 174.8 181.7C145.7 170 116.3 136 87.2 125.2C58 114.3 29 126.7 14.5 132.8L0 139Z" fill="#de8b27"></path><path d="M0 374L14.5 358.7C29 343.3 58 312.7 87.2 327.8C116.3 343 145.7 404 174.8 427.3C204 450.7 233 436.3 262 416.7C291 397 320 372 349 370.2C378 368.3 407 389.7 436.2 394.2C465.3 398.7 494.7 386.3 523.8 387.3C553 388.3 582 402.7 611 403.5C640 404.3 669 391.7 698 385.3C727 379 756 379 785.2 379C814.3 379 843.7 379 872.8 368.2C902 357.3 931 335.7 945.5 324.8L960 314L960 183L945.5 192C931 201 902 219 872.8 217.2C843.7 215.3 814.3 193.7 785.2 190.8C756 188 727 204 698 220.2C669 236.3 640 252.7 611 262.7C582 272.7 553 276.3 523.8 271.8C494.7 267.3 465.3 254.7 436.2 251C407 247.3 378 252.7 349 250.8C320 249 291 240 262 237.3C233 234.7 204 238.3 174.8 230.3C145.7 222.3 116.3 202.7 87.2 193.7C58 184.7 29 186.3 14.5 187.2L0 188Z" fill="#e39e34"></path><path d="M0 541L14.5 541C29 541 58 541 87.2 541C116.3 541 145.7 541 174.8 541C204 541 233 541 262 541C291 541 320 541 349 541C378 541 407 541 436.2 541C465.3 541 494.7 541 523.8 541C553 541 582 541 611 541C640 541 669 541 698 541C727 541 756 541 785.2 541C814.3 541 843.7 541 872.8 541C902 541 931 541 945.5 541L960 541L960 312L945.5 322.8C931 333.7 902 355.3 872.8 366.2C843.7 377 814.3 377 785.2 377C756 377 727 377 698 383.3C669 389.7 640 402.3 611 401.5C582 400.7 553 386.3 523.8 385.3C494.7 384.3 465.3 396.7 436.2 392.2C407 387.7 378 366.3 349 368.2C320 370 291 395 262 414.7C233 434.3 204 448.7 174.8 425.3C145.7 402 116.3 341 87.2 325.8C58 310.7 29 341.3 14.5 356.7L0 372Z" fill="#e8b042"></path></svg>