<svg id="visual" viewBox="0 0 960 540" width="960" height="540" xmlns="http://www.w3.org/2000/svg" xmlns:xlink="http://www.w3.org/1999/xlink" version="1.1"><path d="M0 163L16 155.8C32 148.7 64 134.3 96 121.7C128 109 160 98 192 122.3C224 146.7 256 206.3 288 220.8C320 235.3 352 204.7 384 218.2C416 231.7 448 289.3 480 282.2C512 275 544 203 576 169.7C608 136.3 640 141.7 672 147C704 152.3 736 157.7 768 171.2C800 184.7 832 206.3 864 226.2C896 246 928 264 944 273L960 282L960 0L944 0C928 0 896 0 864 0C832 0 800 0 768 0C736 0 704 0 672 0C640 0 608 0 576 0C544 0 512 0 480 0C448 0 416 0 384 0C352 0 320 0 288 0C256 0 224 0 192 0C160 0 128 0 96 0C64 0 32 0 16 0L0 0Z" fill="#2563eb"></path><path d="M0 395L16 393.2C32 391.3 64 387.7 96 391.3C128 395 160 406 192 415C224 424 256 431 288 424.7C320 418.3 352 398.7 384 399.7C416 400.7 448 422.3 480 431.3C512 440.3 544 436.7 576 423.2C608 409.7 640 386.3 672 383.7C704 381 736 399 768 397.2C800 395.3 832 373.7 864 370C896 366.3 928 380.7 944 387.8L960 395L960 280L944 271C928 262 896 244 864 224.2C832 204.3 800 182.7 768 169.2C736 155.7 704 150.3 672 145C640 139.7 608 134.3 576 167.7C544 201 512 273 480 280.2C448 287.3 416 229.7 384 216.2C352 202.7 320 233.3 288 218.8C256 204.3 224 144.7 192 120.3C160 96 128 107 96 119.7C64 132.3 32 146.7 16 153.8L0 161Z" fill="#164abc"></path><path d="M0 541L16 541C32 541 64 541 96 541C128 541 160 541 192 541C224 541 256 541 288 541C320 541 352 541 384 541C416 541 448 541 480 541C512 541 544 541 576 541C608 541 640 541 672 541C704 541 736 541 768 541C800 541 832 541 864 541C896 541 928 541 944 541L960 541L960 393L944 385.8C928 378.7 896 364.3 864 368C832 371.7 800 393.3 768 395.2C736 397 704 379 672 381.7C640 384.3 608 407.7 576 421.2C544 434.7 512 438.3 480 429.3C448 420.3 416 398.7 384 397.7C352 396.7 320 416.3 288 422.7C256 429 224 422 192 413C160 404 128 393 96 389.3C64 385.7 32 389.3 16 391.2L0 393Z" fill="#003290"></path></svg>