<svg id="visual" viewBox="0 0 960 540" width="960" height="540" xmlns="http://www.w3.org/2000/svg" xmlns:xlink="http://www.w3.org/1999/xlink" version="1.1"><path d="M0 222L87 125L175 147L262 217L349 168L436 244L524 114L611 190L698 168L785 114L873 136L960 136L960 0L873 0L785 0L698 0L611 0L524 0L436 0L349 0L262 0L175 0L87 0L0 0Z" fill="#2563eb"></path><path d="M0 282L87 174L175 190L262 303L349 239L436 309L524 206L611 260L698 249L785 185L873 174L960 228L960 134L873 134L785 112L698 166L611 188L524 112L436 242L349 166L262 215L175 145L87 123L0 220Z" fill="#1a53c6"></path><path d="M0 330L87 276L175 309L262 379L349 341L436 390L524 266L611 368L698 347L785 233L873 271L960 282L960 226L873 172L785 183L698 247L611 258L524 204L436 307L349 237L262 301L175 188L87 172L0 280Z" fill="#1144a2"></path><path d="M0 411L87 449L175 492L262 471L349 455L436 492L524 438L611 471L698 465L785 444L873 482L960 465L960 280L873 269L785 231L698 345L611 366L524 264L436 388L349 339L262 377L175 307L87 274L0 328Z" fill="#0c357f"></path><path d="M0 541L87 541L175 541L262 541L349 541L436 541L524 541L611 541L698 541L785 541L873 541L960 541L960 463L873 480L785 442L698 463L611 469L524 436L436 490L349 453L262 469L175 490L87 447L0 409Z" fill="#09275e"></path></svg>