<svg id="visual" viewBox="0 0 900 600" width="900" height="600" xmlns="http://www.w3.org/2000/svg" xmlns:xlink="http://www.w3.org/1999/xlink" version="1.1"><path d="M0 253L10 233C20 213 40 173 60 191C80 209 100 285 120 300C140 315 160 269 180 253C200 237 220 251 240 256C260 261 280 257 300 234C320 211 340 169 360 159C380 149 400 171 420 184C440 197 460 201 480 191C500 181 520 157 540 175C560 193 580 253 600 275C620 297 640 281 660 260C680 239 700 213 720 177C740 141 760 95 780 86C800 77 820 105 840 132C860 159 880 185 890 198L900 211L900 0L890 0C880 0 860 0 840 0C820 0 800 0 780 0C760 0 740 0 720 0C700 0 680 0 660 0C640 0 620 0 600 0C580 0 560 0 540 0C520 0 500 0 480 0C460 0 440 0 420 0C400 0 380 0 360 0C340 0 320 0 300 0C280 0 260 0 240 0C220 0 200 0 180 0C160 0 140 0 120 0C100 0 80 0 60 0C40 0 20 0 10 0L0 0Z" fill="#e20031"></path><path d="M0 271L10 255C20 239 40 207 60 225C80 243 100 311 120 320C140 329 160 279 180 271C200 263 220 297 240 306C260 315 280 299 300 273C320 247 340 211 360 215C380 219 400 263 420 302C440 341 460 375 480 367C500 359 520 309 540 311C560 313 580 367 600 386C620 405 640 389 660 366C680 343 700 313 720 266C740 219 760 155 780 147C800 139 820 187 840 213C860 239 880 243 890 245L900 247L900 209L890 196C880 183 860 157 840 130C820 103 800 75 780 84C760 93 740 139 720 175C700 211 680 237 660 258C640 279 620 295 600 273C580 251 560 191 540 173C520 155 500 179 480 189C460 199 440 195 420 182C400 169 380 147 360 157C340 167 320 209 300 232C280 255 260 259 240 254C220 249 200 235 180 251C160 267 140 313 120 298C100 283 80 207 60 189C40 171 20 211 10 231L0 251Z" fill="#cf002d"></path><path d="M0 457L10 450C20 443 40 429 60 422C80 415 100 415 120 405C140 395 160 375 180 370C200 365 220 375 240 390C260 405 280 425 300 444C320 463 340 481 360 468C380 455 400 411 420 411C440 411 460 455 480 466C500 477 520 455 540 446C560 437 580 441 600 446C620 451 640 457 660 457C680 457 700 451 720 450C740 449 760 453 780 458C800 463 820 469 840 488C860 507 880 539 890 555L900 571L900 245L890 243C880 241 860 237 840 211C820 185 800 137 780 145C760 153 740 217 720 264C700 311 680 341 660 364C640 387 620 403 600 384C580 365 560 311 540 309C520 307 500 357 480 365C460 373 440 339 420 300C400 261 380 217 360 213C340 209 320 245 300 271C280 297 260 313 240 304C220 295 200 261 180 269C160 277 140 327 120 318C100 309 80 241 60 223C40 205 20 237 10 253L0 269Z" fill="#bd0029"></path><path d="M0 595L10 592C20 589 40 583 60 563C80 543 100 509 120 492C140 475 160 475 180 488C200 501 220 527 240 539C260 551 280 549 300 541C320 533 340 519 360 515C380 511 400 517 420 530C440 543 460 563 480 558C500 553 520 523 540 509C560 495 580 497 600 506C620 515 640 531 660 544C680 557 700 567 720 574C740 581 760 585 780 572C800 559 820 529 840 527C860 525 880 551 890 564L900 577L900 569L890 553C880 537 860 505 840 486C820 467 800 461 780 456C760 451 740 447 720 448C700 449 680 455 660 455C640 455 620 449 600 444C580 439 560 435 540 444C520 453 500 475 480 464C460 453 440 409 420 409C400 409 380 453 360 466C340 479 320 461 300 442C280 423 260 403 240 388C220 373 200 363 180 368C160 373 140 393 120 403C100 413 80 413 60 420C40 427 20 441 10 448L0 455Z" fill="#ab0025"></path><path d="M0 601L10 601C20 601 40 601 60 601C80 601 100 601 120 601C140 601 160 601 180 601C200 601 220 601 240 601C260 601 280 601 300 601C320 601 340 601 360 601C380 601 400 601 420 601C440 601 460 601 480 601C500 601 520 601 540 601C560 601 580 601 600 601C620 601 640 601 660 601C680 601 700 601 720 601C740 601 760 601 780 601C800 601 820 601 840 601C860 601 880 601 890 601L900 601L900 575L890 562C880 549 860 523 840 525C820 527 800 557 780 570C760 583 740 579 720 572C700 565 680 555 660 542C640 529 620 513 600 504C580 495 560 493 540 507C520 521 500 551 480 556C460 561 440 541 420 528C400 515 380 509 360 513C340 517 320 531 300 539C280 547 260 549 240 537C220 525 200 499 180 486C160 473 140 473 120 490C100 507 80 541 60 561C40 581 20 587 10 590L0 593Z" fill="#9a0021"></path></svg>