<svg id="Group_267" data-name="Group 267" xmlns="http://www.w3.org/2000/svg" xmlns:xlink="http://www.w3.org/1999/xlink" width="137.606" height="140.154" viewBox="0 0 137.606 140.154">
  <defs>
    <clipPath id="clip-path">
      <rect id="Rectangle_145" data-name="Rectangle 145" width="137.606" height="140.154" fill="#014262"/>
    </clipPath>
  </defs>
  <g id="Group_266" data-name="Group 266" clip-path="url(#clip-path)">
    <path id="Path_424" data-name="Path 424" d="M19.184,120.2H64.05a1.361,1.361,0,0,0,0-2.723h-44.8V2.723h62.3V27.368a2.661,2.661,0,0,0,2.657,2.658h24.64V33.2a1.361,1.361,0,1,0,2.723,0V28.659a1.294,1.294,0,0,0-.026-.26c-.008-.041-.023-.078-.034-.117a1.369,1.369,0,0,0-.042-.137l0,0a1.332,1.332,0,0,0-.119-.224c0-.008-.011-.014-.017-.021a1.317,1.317,0,0,0-.145-.18h0l-.011-.011L83.877.4A1.363,1.363,0,0,0,83.59.186c-.026-.016-.052-.029-.079-.042a1.343,1.343,0,0,0-.329-.117h0A1.373,1.373,0,0,0,82.915,0H19.184a2.661,2.661,0,0,0-2.658,2.658V117.544a2.661,2.661,0,0,0,2.658,2.659M84.276,27.3V4.648L94.54,14.914,106.926,27.3Z" transform="translate(-6.527)" fill="#014262"/>
    <path id="Path_425" data-name="Path 425" d="M59.072,134.853H2.723V20.03A1.361,1.361,0,1,0,0,20.03V134.917a2.661,2.661,0,0,0,2.658,2.658H59.072a1.361,1.361,0,1,0,0-2.723" transform="translate(0 -7.374)" fill="#014262"/>
    <path id="Path_426" data-name="Path 426" d="M37.844,27.475H77.936a1.361,1.361,0,1,0,0-2.723H37.844a1.361,1.361,0,1,0,0,2.723" transform="translate(-14.41 -9.776)" fill="#014262"/>
    <path id="Path_427" data-name="Path 427" d="M94.1,63.912a1.362,1.362,0,0,0-1.361-1.361h-54.9a1.361,1.361,0,0,0,0,2.723h54.9A1.362,1.362,0,0,0,94.1,63.912" transform="translate(-14.41 -24.705)" fill="#014262"/>
    <path id="Path_428" data-name="Path 428" d="M37.846,98.361H62.179a1.361,1.361,0,0,0,0-2.723H37.846a1.361,1.361,0,0,0,0,2.723" transform="translate(-14.41 -37.774)" fill="#014262"/>
    <path id="Path_429" data-name="Path 429" d="M37.846,131.449H63.76a1.361,1.361,0,0,0,0-2.723H37.846a1.361,1.361,0,0,0,0,2.723" transform="translate(-14.41 -50.842)" fill="#014262"/>
    <path id="Path_430" data-name="Path 430" d="M37.846,164.537H65.293a1.361,1.361,0,0,0,0-2.723H37.846a1.361,1.361,0,0,0,0,2.723" transform="translate(-14.41 -63.911)" fill="#014262"/>
    <path id="Path_431" data-name="Path 431" d="M175.429,75.479a56.523,56.523,0,0,1-36.484-13.342,1.392,1.392,0,0,0-1.859-.026,56.621,56.621,0,0,1-36.514,13.368,1.362,1.362,0,0,0-1.361,1.361v36a53.936,53.936,0,0,0,38.4,51.652,1.364,1.364,0,0,0,.784,0,53.938,53.938,0,0,0,38.4-51.652v-36a1.362,1.362,0,0,0-1.361-1.361m-1.361,37.361A51.212,51.212,0,0,1,138,161.765a51.213,51.213,0,0,1-36.068-48.924V78.186A59.354,59.354,0,0,0,138,64.89a59.251,59.251,0,0,0,36.067,13.3Z" transform="translate(-39.185 -24.396)" fill="#f6ad37"/>
    <path id="Path_432" data-name="Path 432" d="M122.836,130.706a24.5,24.5,0,1,0,24.5-24.5,24.523,24.523,0,0,0-24.5,24.5m46.269,0a21.773,21.773,0,1,1-21.773-21.773A21.8,21.8,0,0,1,169.1,130.706" transform="translate(-48.516 -41.95)" fill="#f6ad37"/>
    <path id="Path_433" data-name="Path 433" d="M143.442,137.992a1.361,1.361,0,1,0-2.188,1.619c6.957,9.408,8.089,10.883,8.975,10.883a1.663,1.663,0,0,0,.509-.113,1.388,1.388,0,0,0,.819-.742c.914-1.334,10.312-12.023,16.113-18.548a1.362,1.362,0,0,0-2.035-1.81c-9.595,10.794-13.669,15.5-15.4,17.674-1.441-1.806-4.249-5.523-6.794-8.964" transform="translate(-55.685 -50.882)" fill="#f6ad37"/>
  </g>
</svg>
