<svg id="Group_294" data-name="Group 294" xmlns="http://www.w3.org/2000/svg" xmlns:xlink="http://www.w3.org/1999/xlink" width="83.443" height="64.187" viewBox="0 0 83.443 64.187">
  <defs>
    <clipPath id="clip-path">
      <rect id="Rectangle_160" data-name="Rectangle 160" width="83.443" height="64.187" fill="#f6ad37"/>
    </clipPath>
  </defs>
  <g id="Group_293" data-name="Group 293" transform="translate(0 0)" clip-path="url(#clip-path)">
    <path id="Path_468" data-name="Path 468" d="M82.252,81.911H1.191a1.191,1.191,0,0,1,0-2.381H82.252a1.191,1.191,0,1,1,0,2.381" transform="translate(0 -17.724)" fill="#f6ad37"/>
    <path id="Path_469" data-name="Path 469" d="M1.191,64.668A1.191,1.191,0,0,1,0,63.477V3.348a1.191,1.191,0,0,1,2.383,0V63.477a1.191,1.191,0,0,1-1.191,1.191" transform="translate(0 -0.481)" fill="#f6ad37"/>
    <path id="Path_470" data-name="Path 470" d="M22.551,71.933H9.936a1.191,1.191,0,0,1-1.191-1.191V60.991A1.191,1.191,0,0,1,9.936,59.8H22.551a1.191,1.191,0,0,1,1.191,1.191v9.752a1.191,1.191,0,0,1-1.191,1.191M11.128,69.552H21.36v-7.37H11.128Z" transform="translate(-1.949 -13.327)" fill="#f6ad37"/>
    <path id="Path_471" data-name="Path 471" d="M46.079,69.312H33.465a1.192,1.192,0,0,1-1.191-1.191V49.228a1.191,1.191,0,0,1,1.191-1.191H46.079a1.191,1.191,0,0,1,1.191,1.191V68.121a1.192,1.192,0,0,1-1.191,1.191M34.657,66.93H44.888V50.418H34.657Z" transform="translate(-7.193 -10.706)" fill="#f6ad37"/>
    <path id="Path_472" data-name="Path 472" d="M69.608,66.69H56.993A1.192,1.192,0,0,1,55.8,65.5V37.464a1.191,1.191,0,0,1,1.191-1.191H69.608A1.191,1.191,0,0,1,70.8,37.464V65.5a1.192,1.192,0,0,1-1.191,1.191M58.185,64.308H68.417V38.654H58.185Z" transform="translate(-12.436 -8.084)" fill="#f6ad37"/>
    <path id="Path_473" data-name="Path 473" d="M93.136,64.068H80.521a1.191,1.191,0,0,1-1.191-1.191V25.7a1.191,1.191,0,0,1,1.191-1.191H93.136A1.191,1.191,0,0,1,94.327,25.7V62.877a1.192,1.192,0,0,1-1.191,1.191M81.713,61.686H91.945v-34.8H81.713Z" transform="translate(-17.68 -5.462)" fill="#f6ad37"/>
    <path id="Path_474" data-name="Path 474" d="M9.937,41.734a1.191,1.191,0,0,1-.56-2.242L76.846,3.571a1.19,1.19,0,0,1,1.731,1.26L77.328,11.84a1.19,1.19,0,1,1-2.344-.417l.819-4.6L10.5,41.595a1.183,1.183,0,0,1-.558.14" transform="translate(-1.949 -0.765)" fill="#f6ad37"/>
    <path id="Path_475" data-name="Path 475" d="M94.822,5.048a1.2,1.2,0,0,1-.439-.084L87.648,2.3A1.191,1.191,0,0,1,88.527.083l6.735,2.666a1.191,1.191,0,0,1-.439,2.3" transform="translate(-19.366 0)" fill="#f6ad37"/>
  </g>
</svg>
