<svg id="Group_273" data-name="Group 273" xmlns="http://www.w3.org/2000/svg" xmlns:xlink="http://www.w3.org/1999/xlink" width="153.786" height="169.154" viewBox="0 0 153.786 169.154">
  <defs>
    <clipPath id="clip-path">
      <rect id="Rectangle_147" data-name="Rectangle 147" width="153.786" height="169.154" fill="#014262"/>
    </clipPath>
  </defs>
  <g id="Group_272" data-name="Group 272" clip-path="url(#clip-path)">
    <path id="Path_438" data-name="Path 438" d="M111.7,212.983H28.73a4.287,4.287,0,0,1-4.287-4.287V177.9a1.371,1.371,0,0,0-1.379-1.371h-.028a1.369,1.369,0,0,0-1.36,1.371v30.8a7.054,7.054,0,0,0,7.054,7.054H111.7a1.368,1.368,0,0,0,1.367-1.282c0-.009,0-.018,0-.028a1.371,1.371,0,0,0-1.367-1.457" transform="translate(-6.685 -54.439)" fill="#014262"/>
    <path id="Path_439" data-name="Path 439" d="M23.059,16.086A1.384,1.384,0,0,0,24.442,14.7V7.054A4.288,4.288,0,0,1,28.73,2.766H107.7l27.746,27.746v82.146a1.372,1.372,0,0,0,1.423,1.371h.028a1.373,1.373,0,0,0,1.315-1.372V29.94a1.384,1.384,0,0,0-.405-.978L109.25.405A1.384,1.384,0,0,0,108.272,0H28.73a7.053,7.053,0,0,0-7.054,7.054V14.7a1.384,1.384,0,0,0,1.383,1.383" transform="translate(-6.685)" fill="#014262"/>
    <path id="Path_440" data-name="Path 440" d="M100.453,205.959a1.556,1.556,0,0,0,0-3.112H44.8a1.556,1.556,0,0,0,0,3.112Z" transform="translate(-13.337 -62.556)" fill="#014262"/>
    <path id="Path_441" data-name="Path 441" d="M149.9,157l-42.853-39.536a1.555,1.555,0,0,0-2.2.089l-1.723,1.867L89.17,106.543A49.311,49.311,0,1,0,77.647,117.98l14.48,13.359-1.569,1.7a1.555,1.555,0,0,0,.089,2.2L133.5,174.776a12.107,12.107,0,0,0,17.088-.689h0A12.108,12.108,0,0,0,149.9,157M3.112,77.826A46.114,46.114,0,1,1,49.226,123.94,46.166,46.166,0,0,1,3.112,77.826m77.056,38.247a49.652,49.652,0,0,0,7.1-7.048l13.743,12.681-6.778,7.346Zm68.132,55.9a8.992,8.992,0,0,1-12.692.511L93.9,134.007l12.179-13.2,41.71,38.48a8.994,8.994,0,0,1,.511,12.692" transform="translate(0 -8.82)" fill="#f6ad37"/>
    <path id="Path_442" data-name="Path 442" d="M88.432,95.034,64.046,52.8a8.835,8.835,0,0,0-7.73-4.464h0A8.837,8.837,0,0,0,48.585,52.8L24.2,95.034a8.927,8.927,0,0,0,7.73,13.39H80.7a8.926,8.926,0,0,0,7.729-13.39m-2.695,7.371a5.755,5.755,0,0,1-5.035,2.907H31.929a5.815,5.815,0,0,1-5.036-8.722L51.28,54.351a5.814,5.814,0,0,1,10.071,0L85.738,96.59a5.755,5.755,0,0,1,0,5.815" transform="translate(-7.089 -14.905)" fill="#014262"/>
    <path id="Path_443" data-name="Path 443" d="M70.482,68.149a1.557,1.557,0,0,0-1.556,1.556V91.39a1.556,1.556,0,1,0,3.112,0V69.705a1.557,1.557,0,0,0-1.556-1.556" transform="translate(-21.256 -21.017)" fill="#014262"/>
    <path id="Path_444" data-name="Path 444" d="M70.482,113.8a1.557,1.557,0,0,0-1.556,1.556v1.431a1.556,1.556,0,0,0,3.112,0v-1.431a1.557,1.557,0,0,0-1.556-1.556" transform="translate(-21.256 -35.096)" fill="#014262"/>
  </g>
</svg>
