<svg id="Group_19" data-name="Group 19" xmlns="http://www.w3.org/2000/svg" xmlns:xlink="http://www.w3.org/1999/xlink" width="54.343" height="59.227" viewBox="0 0 54.343 59.227">
  <defs>
    <clipPath id="clip-path">
      <rect id="Rectangle_23" data-name="Rectangle 23" width="54.343" height="59.227" fill="#014262"/>
    </clipPath>
  </defs>
  <g id="Group_18" data-name="Group 18" clip-path="url(#clip-path)">
    <path id="Path_70" data-name="Path 70" d="M9.2,151.016H.743A.743.743,0,0,1,0,150.273V130.266a.743.743,0,0,1,.743-.743H9.2a.743.743,0,0,1,.743.743v20.007a.743.743,0,0,1-.743.743M1.486,149.53H8.454V131.009H1.486Z" transform="translate(0 -91.789)" fill="#014262"/>
    <path id="Path_71" data-name="Path 71" d="M60,123.7H51.547a.743.743,0,0,1-.743-.743V91.717a.743.743,0,0,1,.743-.743H60a.743.743,0,0,1,.743.743v31.238A.743.743,0,0,1,60,123.7m-7.711-1.486h6.968V92.46H52.29Z" transform="translate(-36.003 -64.47)" fill="#014262"/>
    <path id="Path_72" data-name="Path 72" d="M110.807,139.215h-8.454a.743.743,0,0,1-.743-.743V113.613a.743.743,0,0,1,.743-.743h8.454a.743.743,0,0,1,.743.743v24.859a.743.743,0,0,1-.743.743m-7.711-1.486h6.968V114.356H103.1Z" transform="translate(-72.008 -79.987)" fill="#014262"/>
    <path id="Path_73" data-name="Path 73" d="M161.611,99h-8.454a.743.743,0,0,1-.743-.743V56.87a.743.743,0,0,1,.743-.743h8.454a.743.743,0,0,1,.743.743V98.26a.743.743,0,0,1-.743.743M153.9,97.517h6.968v-39.9H153.9Z" transform="translate(-108.011 -39.775)" fill="#014262"/>
    <path id="Path_74" data-name="Path 74" d="M84.647,54.219a.739.739,0,0,1-.294-.061l-9.525-4.107a.743.743,0,0,1,.588-1.364l9.525,4.106a.743.743,0,0,1-.295,1.425" transform="translate(-52.711 -34.46)" fill="#f6ad37"/>
    <path id="Path_75" data-name="Path 75" d="M123.448,30.889a.743.743,0,0,1-.553-1.239l10.993-12.273a.743.743,0,1,1,1.106.991L124,30.642a.741.741,0,0,1-.554.247" transform="translate(-86.958 -12.14)" fill="#f6ad37"/>
    <path id="Path_76" data-name="Path 76" d="M23.1,59.929a.743.743,0,0,1-.449-1.335l10.228-7.76a.743.743,0,1,1,.9,1.183l-10.228,7.76a.736.736,0,0,1-.448.151" transform="translate(-15.842 -35.917)" fill="#f6ad37"/>
    <path id="Path_77" data-name="Path 77" d="M8.258,80.633a3.618,3.618,0,1,1,3.618-3.618,3.622,3.622,0,0,1-3.618,3.618m0-5.75a2.132,2.132,0,1,0,2.133,2.132,2.134,2.134,0,0,0-2.133-2.132" transform="translate(-3.288 -52.014)" fill="#f6ad37"/>
    <path id="Path_78" data-name="Path 78" d="M59.064,42.084a3.618,3.618,0,1,1,3.618-3.618,3.622,3.622,0,0,1-3.618,3.618m0-5.75A2.132,2.132,0,1,0,61.2,38.466a2.134,2.134,0,0,0-2.132-2.132" transform="translate(-39.293 -24.696)" fill="#f6ad37"/>
    <path id="Path_79" data-name="Path 79" d="M109.868,63.98a3.618,3.618,0,1,1,3.618-3.618,3.622,3.622,0,0,1-3.618,3.618m0-5.75A2.132,2.132,0,1,0,112,60.362a2.134,2.134,0,0,0-2.132-2.132" transform="translate(-75.296 -40.213)" fill="#f6ad37"/>
    <path id="Path_80" data-name="Path 80" d="M160.856,7.236a3.618,3.618,0,1,1,3.618-3.618,3.622,3.622,0,0,1-3.618,3.618m0-5.75a2.132,2.132,0,1,0,2.132,2.132,2.134,2.134,0,0,0-2.132-2.132" transform="translate(-111.43)" fill="#f6ad37"/>
  </g>
</svg>
