<svg id="Group_263" data-name="Group 263" xmlns="http://www.w3.org/2000/svg" xmlns:xlink="http://www.w3.org/1999/xlink" width="161.551" height="170.925" viewBox="0 0 161.551 170.925">
  <defs>
    <clipPath id="clip-path">
      <rect id="Rectangle_143" data-name="Rectangle 143" width="161.551" height="170.925" fill="#014262"/>
    </clipPath>
  </defs>
  <g id="Group_262" data-name="Group 262" clip-path="url(#clip-path)">
    <path id="Path_409" data-name="Path 409" d="M152.37,150.888H141.505V80h9.336a1.53,1.53,0,1,0,0-3.06H21.654V71.147c0-.044-.01-.084-.013-.127L85.483,20.783l7.627,6A1.53,1.53,0,1,0,95,24.379l-8.573-6.746a1.531,1.531,0,0,0-1.892,0L10.2,76.132,3.679,67.849l81.8-64.371L101.519,16.1a1.53,1.53,0,0,0,1.892-2.406L86.429.328a1.531,1.531,0,0,0-1.892,0L.584,66.39a1.532,1.532,0,0,0-.256,2.149l8.41,10.687a1.534,1.534,0,0,0,1.021.573,1.479,1.479,0,0,0,.182.011,1.531,1.531,0,0,0,.947-.328l7.707-6.064v5.051A1.53,1.53,0,0,0,20.124,80h9.338v70.889H18.6a1.531,1.531,0,0,0-1.53,1.53V169.4a1.531,1.531,0,0,0,1.53,1.53H152.37a1.531,1.531,0,0,0,1.53-1.53V152.418a1.531,1.531,0,0,0-1.53-1.53m-46.148,0V111.139h5.139a1.53,1.53,0,0,0,1.53-1.53V95.4a1.53,1.53,0,0,0-1.53-1.53H59.608a1.53,1.53,0,0,0-1.53,1.53v14.207a1.531,1.531,0,0,0,1.53,1.53h5.137v39.749H48.368V80H122.6v70.889ZM87.013,111.139h16.149v39.483H87.013ZM61.138,96.931h48.693v11.148H61.138ZM67.8,111.139H83.953v39.483H67.8Zm70.641,39.5H125.66V80h12.785ZM32.522,80H45.308v70.889H32.522ZM150.84,167.865H20.128V153.948H150.84Z" transform="translate(0 0)" fill="#014262"/>
    <path id="Path_410" data-name="Path 410" d="M173.467,50.663c4.328,0,7.85-4.022,7.85-8.964s-3.522-8.965-7.85-8.965-7.85,4.022-7.85,8.965,3.522,8.964,7.85,8.964m0-14.87c2.641,0,4.79,2.649,4.79,5.905s-2.149,5.9-4.79,5.9-4.79-2.649-4.79-5.9,2.149-5.905,4.79-5.905" transform="translate(-52.998 -10.475)" fill="#f6ad37"/>
    <path id="Path_411" data-name="Path 411" d="M195.685,67.939c0,4.944,3.522,8.965,7.85,8.965s7.85-4.022,7.85-8.965-3.522-8.965-7.85-8.965-7.85,4.022-7.85,8.965m12.64,0c0,3.256-2.149,5.905-4.79,5.905s-4.79-2.649-4.79-5.905,2.149-5.905,4.79-5.905,4.79,2.649,4.79,5.905" transform="translate(-62.619 -18.872)" fill="#f6ad37"/>
    <path id="Path_412" data-name="Path 412" d="M175.784,71.817a1.529,1.529,0,0,0,2.071-.626l19.613-36.61a1.53,1.53,0,0,0-2.7-1.445l-19.613,36.61a1.529,1.529,0,0,0,.627,2.071" transform="translate(-55.992 -10.345)" fill="#f6ad37"/>
    <path id="Path_413" data-name="Path 413" d="M177.673,77.835a30.858,30.858,0,1,0-30.858-30.858,30.894,30.894,0,0,0,30.858,30.858m0-58.657a27.8,27.8,0,1,1-27.8,27.8,27.83,27.83,0,0,1,27.8-27.8" transform="translate(-46.981 -5.158)" fill="#f6ad37"/>
  </g>
</svg>
