<svg id="Group_82" data-name="Group 82" xmlns="http://www.w3.org/2000/svg" xmlns:xlink="http://www.w3.org/1999/xlink" width="65.678" height="55.079" viewBox="0 0 65.678 55.079">
  <defs>
    <clipPath id="clip-path">
      <rect id="Rectangle_68" data-name="Rectangle 68" width="65.678" height="55.079" fill="#014262"/>
    </clipPath>
  </defs>
  <g id="Group_81" data-name="Group 81" clip-path="url(#clip-path)">
    <path id="Path_204" data-name="Path 204" d="M32.518,55.071a2.058,2.058,0,0,1-2.056-2.056V51.875C17.5,60.4-.066,50.891,0,35.368-.11,20.735,15.865,11.039,28.8,17.879l.037-.65A2.049,2.049,0,0,1,30.878,15.3h1.643c-.039-.006-.022-5.387-.024-5.6.013-.024.017-.474.02-.513H24.1a2.055,2.055,0,0,1-2.052-2.053V2.052A2.054,2.054,0,0,1,24.1,0H53.183a2.054,2.054,0,0,1,2.052,2.052V7.133a.286.286,0,0,0-.008.065l-.016.452h8.42A2.05,2.05,0,0,1,65.678,9.7v5.081a2.054,2.054,0,0,1-2.048,2.056H61.983c.02.675.07,5.455-.033,6.119a2.135,2.135,0,0,1,1.7,2.036v5.089a2.262,2.262,0,0,1-.442,1.28,2.271,2.271,0,0,1,.442,1.284v5.081a2.266,2.266,0,0,1-.428,1.254,2.271,2.271,0,0,1,.46,1.311v5.08a2.272,2.272,0,0,1-.46,1.312,2.263,2.263,0,0,1,.428,1.253v5.081A2.058,2.058,0,0,1,61.6,55.071Zm2.647-7.481A20.478,20.478,0,0,1,32,50.763v2.252a.524.524,0,0,0,.517.517H61.6a.524.524,0,0,0,.517-.517V47.934a.516.516,0,0,0-.5-.509H35.3ZM19.711,17.2c-24.1,1-24.109,35.339,0,36.336a18.168,18.168,0,0,0,0-36.336M38.822,40.153a20.506,20.506,0,0,1-2.414,5.7l.74.035H61.629a.524.524,0,0,0,.517-.517v-5.08a.524.524,0,0,0-.517-.517H38.916c-.008.032-.085.362-.093.381m.4-7.53a20.794,20.794,0,0,1-.013,5.61h22.4a.52.52,0,0,0,.507-.509V32.643a.524.524,0,0,0-.517-.517H39.155Zm-2.673-7.479a21.011,21.011,0,0,1,2.286,5.434l.33.01H61.6a.514.514,0,0,0,.517-.51V24.99a.514.514,0,0,0-.517-.509H36.147Zm-5.673-8.309a.514.514,0,0,0-.517.509v1.439A20.428,20.428,0,0,1,35,22.942h24.96a.513.513,0,0,0,.509-.517V17.344a.51.51,0,0,0-.509-.509Zm3.674-7.646a.508.508,0,0,0-.517.509v5.081a.518.518,0,0,0,.517.517H63.631a.514.514,0,0,0,.509-.517V9.7a.51.51,0,0,0-.509-.509ZM24.1,1.538a.514.514,0,0,0-.514.514V7.133a.514.514,0,0,0,.514.514H53.183a.515.515,0,0,0,.514-.514V2.052a.514.514,0,0,0-.514-.514Z" transform="translate(0)" fill="#014262"/>
    <path id="Path_205" data-name="Path 205" d="M52.393,101.66v0q-5.392-.013-10.784-.02a40.179,40.179,0,0,0,2.166-5.777h6.052a.755.755,0,0,0,0-1.509H44.229l.133-.444c.375-1.258.764-2.558,1.235-3.8a3.658,3.658,0,0,1,2.476-2.486,3.22,3.22,0,0,1,3.4,1.273.754.754,0,1,0,1.3-.769,4.862,4.862,0,0,0-3.835-2.111,4.807,4.807,0,0,0-3.917,1.956,8.137,8.137,0,0,0-1.03,2.159c-.292.825-.549,1.643-.741,2.264-.164.533-.324,1.066-.484,1.6l-.109.361h-2.76a.755.755,0,0,0,0,1.509h2.3c-.124.4-.25.8-.382,1.2A28.718,28.718,0,0,1,39.727,102a.778.778,0,0,0,.644,1.149q6.007.014,12.022.024a.755.755,0,0,0,0-1.509" transform="translate(-27.329 -60.017)" fill="#014262"/>
  </g>
</svg>
