<svg xmlns="http://www.w3.org/2000/svg" width="62.691" height="78.673" viewBox="0 0 62.691 78.673">
  <g id="Group_328" data-name="Group 328" transform="translate(-1254.25 -1644)">
    <path id="Path_232" data-name="Path 232" d="M78.722,133.241v-.168s-4.136-.009-5.941-.012a23.4,23.4,0,0,0,.831-2.28h3.12a.964.964,0,0,0-.021-1.927H74.192c.175-.581.359-1.17.574-1.736a1.6,1.6,0,0,1,1.058-1.108,1.38,1.38,0,0,1,.32-.038,1.324,1.324,0,0,1,1.07.537.968.968,0,0,0,.828.461.993.993,0,0,0,.487-.131.973.973,0,0,0,.341-1.315l-.022-.035a3.34,3.34,0,0,0-2.632-1.449h-.048A3.319,3.319,0,0,0,73.5,125.4a5.152,5.152,0,0,0-.654,1.364c-.172.484-.323.964-.434,1.328q-.117.38-.231.76H70.96a.964.964,0,0,0-.927,1,.972.972,0,0,0,.949.929h.6v0a15.985,15.985,0,0,1-1.153,2.739.975.975,0,0,0,.823,1.462c2.312.006,6.95.014,6.95.014h.01a.963.963,0,0,0,.508-1.758" transform="translate(1210.631 1566.743)" fill="#014262"/>
    <path id="Path_233" data-name="Path 233" d="M45.128,78.673H17.563A17.583,17.583,0,0,1,0,61.11V25.283A12.611,12.611,0,0,1,10.434,12.847a4.291,4.291,0,0,0,3.55-4.232V.962A.962.962,0,0,1,14.946,0H40.058a.962.962,0,1,1,0,1.924H15.908V8.615a6.212,6.212,0,0,1-5.14,6.126A10.69,10.69,0,0,0,1.924,25.283V61.11A15.658,15.658,0,0,0,17.563,76.75H45.128a15.658,15.658,0,0,0,15.64-15.64V25.283a10.69,10.69,0,0,0-8.845-10.542,6.212,6.212,0,0,1-5.14-6.126V.962a.962.962,0,1,1,1.924,0V8.615a4.291,4.291,0,0,0,3.55,4.232A12.611,12.611,0,0,1,62.691,25.283V61.11A17.583,17.583,0,0,1,45.128,78.673" transform="translate(1254.25 1644)" fill="#014262"/>
    <path id="Path_234" data-name="Path 234" d="M49.978,85.724a.962.962,0,0,1-.962-.962v-7.55a.962.962,0,1,1,1.924,0v7.55a.962.962,0,0,1-.962.962" transform="translate(1223.721 1596.509)" fill="#014262"/>
    <path id="Path_235" data-name="Path 235" d="M81.521,74.123a.962.962,0,0,1-.962-.962v-7.55a.962.962,0,0,1,1.924,0v7.55a.962.962,0,0,1-.962.962" transform="translate(1204.075 1603.734)" fill="#014262"/>
    <path id="Path_236" data-name="Path 236" d="M113.064,89.136a.962.962,0,0,1-.962-.962v-7.55a.962.962,0,0,1,1.924,0v7.55a.962.962,0,0,1-.962.962" transform="translate(1184.429 1594.383)" fill="#014262"/>
    <path id="Path_237" data-name="Path 237" d="M60.175,131.626a13.888,13.888,0,1,1,13.888-13.888,13.9,13.9,0,0,1-13.888,13.888m0-25.852a11.965,11.965,0,1,0,11.964,11.964,11.978,11.978,0,0,0-11.964-11.964" transform="translate(1225.421 1579.318)" fill="#014262"/>
    <path id="Path_238" data-name="Path 238" d="M63.291,22.89H53.139a.962.962,0,1,1,0-1.924H63.291a.962.962,0,0,1,0,1.924" transform="translate(1221.752 1630.942)" fill="#014262"/>
  </g>
</svg>
