<svg id="Group_86" data-name="Group 86" xmlns="http://www.w3.org/2000/svg" xmlns:xlink="http://www.w3.org/1999/xlink" width="65.041" height="70.856" viewBox="0 0 65.041 70.856">
  <defs>
    <clipPath id="clip-path">
      <rect id="Rectangle_70" data-name="Rectangle 70" width="65.041" height="70.856" fill="#014262"/>
    </clipPath>
  </defs>
  <g id="Group_85" data-name="Group 85" clip-path="url(#clip-path)">
    <path id="Path_215" data-name="Path 215" d="M32.521,70.855a.835.835,0,0,1-.318-.063C13.726,63.193.182,38.441,0,11.936a.837.837,0,0,1,.909-.84c1.02.088,2.112.133,3.247.133A41.522,41.522,0,0,0,31.959.216a.837.837,0,0,1,1.124,0,41.519,41.519,0,0,0,27.8,11.014c1.151,0,2.213-.043,3.247-.133a.837.837,0,0,1,.909.84c-.182,26.5-13.725,51.257-32.2,58.856a.833.833,0,0,1-.318.063M1.685,12.832c.472,25.361,13.326,48.861,30.835,56.279C50.03,61.693,62.884,38.193,63.355,12.832c-.792.048-1.608.072-2.471.072A43.114,43.114,0,0,1,32.521,1.957,43.116,43.116,0,0,1,4.156,12.9c-.849,0-1.677-.024-2.471-.072" transform="translate(0 0.001)" fill="#014262"/>
    <path id="Path_216" data-name="Path 216" d="M43.81,79.473a.838.838,0,0,1-.369-.086C29.379,72.475,18.676,53.8,16.81,32.907A.837.837,0,0,1,17.6,32a46.055,46.055,0,0,0,25.7-9.578.837.837,0,0,1,1.016,1.331A47.805,47.805,0,0,1,18.56,33.617C20.586,53.6,30.814,71.316,44.18,77.885a.837.837,0,0,1-.37,1.588" transform="translate(-11.29 -14.945)" fill="#014262"/>
    <path id="Path_217" data-name="Path 217" d="M71,99.294a.835.835,0,0,1-.592-.245l-7.2-7.2a.837.837,0,0,1,1.184-1.184l6.6,6.6L85.242,83.031a.837.837,0,0,1,1.184,1.184L71.591,99.049a.835.835,0,0,1-.592.245" transform="translate(-42.298 -55.612)" fill="#014262"/>
  </g>
</svg>
