<svg xmlns="http://www.w3.org/2000/svg" xmlns:xlink="http://www.w3.org/1999/xlink" width="78" height="67.148" viewBox="0 0 78 67.148">
  <defs>
    <clipPath id="clip-path">
      <rect id="Rectangle_159" data-name="Rectangle 159" width="78" height="67.148" fill="#09275e"/>
    </clipPath>
  </defs>
  <g id="Group_291" data-name="Group 291" clip-path="url(#clip-path)">
    <path id="Path_457" data-name="Path 457" d="M92.6,83.507a1.041,1.041,0,0,1-1.04-1.04V63.876a1.04,1.04,0,1,1,2.08,0v18.59a1.041,1.041,0,0,1-1.04,1.04" transform="translate(-29.438 -20.203)" fill="#09275e"/>
    <path id="Path_458" data-name="Path 458" d="M74.081,49.718a1.041,1.041,0,0,1-1.04-1.04V37.025l-3.084,1.418a32.775,32.775,0,0,1-7.541,2.415l-3.318.633a1.04,1.04,0,1,1-.39-2.043l3.318-.633a30.647,30.647,0,0,0,7.063-2.261l4.559-2.1a1.041,1.041,0,0,1,1.474.944V48.678a1.041,1.041,0,0,1-1.04,1.04" transform="translate(-18.604 -11.049)" fill="#09275e"/>
    <path id="Path_459" data-name="Path 459" d="M77.414,74.011a4.655,4.655,0,0,1-.465-.022,5.011,5.011,0,0,1-4.407-5.026V44.505a1.04,1.04,0,1,1,2.08,0V68.963a2.918,2.918,0,0,0,2.526,2.957A2.777,2.777,0,0,0,79.31,71.2a2.811,2.811,0,0,0,.918-2.075,1.04,1.04,0,0,1,2.08,0A2.806,2.806,0,0,0,85.39,71.92a2.918,2.918,0,0,0,2.526-2.957V44.493a1.04,1.04,0,1,1,2.08,0,2.1,2.1,0,0,0,1.814,2.138,2.016,2.016,0,0,0,2.217-2.006V28.5a5.076,5.076,0,0,0-5.07-5.071H73.582a4.755,4.755,0,0,0-2.869,1.065l-6.671,5.191a1.026,1.026,0,0,1-.323.17L57.67,31.777a1.04,1.04,0,0,1-.63-1.981l5.872-1.867,6.523-5.076a6.828,6.828,0,0,1,4.114-1.5H88.956A7.159,7.159,0,0,1,96.107,28.5V44.625A4.1,4.1,0,0,1,91.613,48.7,3.911,3.911,0,0,1,90,48.172V68.963a5.011,5.011,0,0,1-4.407,5.026,4.9,4.9,0,0,1-3.761-1.246,4.83,4.83,0,0,1-.559-.6,4.83,4.83,0,0,1-.559.6,4.908,4.908,0,0,1-3.3,1.269" transform="translate(-18.106 -6.864)" fill="#09275e"/>
    <path id="Path_460" data-name="Path 460" d="M96.645,23.429H81.27a1.04,1.04,0,0,1,0-2.08H96.645a1.04,1.04,0,0,1,0,2.08" transform="translate(-25.795 -6.864)" fill="#09275e"/>
    <path id="Path_461" data-name="Path 461" d="M103.93,49.718a1.041,1.041,0,0,1-1.04-1.04V35.4a1.04,1.04,0,0,1,2.08,0V48.678a1.041,1.041,0,0,1-1.04,1.04" transform="translate(-33.081 -11.049)" fill="#09275e"/>
    <path id="Path_462" data-name="Path 462" d="M90.154,12.4a6.2,6.2,0,1,1,6.2-6.2,6.209,6.209,0,0,1-6.2,6.2m0-10.323A4.121,4.121,0,1,0,94.276,6.2,4.126,4.126,0,0,0,90.154,2.08" transform="translate(-26.992 0)" fill="#09275e"/>
    <path id="Path_463" data-name="Path 463" d="M21.377,83.507a1.041,1.041,0,0,1-1.04-1.04V63.876a1.04,1.04,0,1,1,2.08,0v18.59a1.041,1.041,0,0,1-1.04,1.04" transform="translate(-6.539 -20.203)" fill="#09275e"/>
    <path id="Path_464" data-name="Path 464" d="M10.984,74.011q-.232,0-.465-.022a5.011,5.011,0,0,1-4.407-5.026V48.172a3.894,3.894,0,0,1-1.618.529A4.1,4.1,0,0,1,0,44.625V28.5a7.159,7.159,0,0,1,7.151-7.151H22.525a6.864,6.864,0,0,1,4.148,1.5l6.522,5.076,6.893,2.192a3.784,3.784,0,0,1-1.856,7.324l-4.044-.771a32.8,32.8,0,0,1-7.542-2.415L23.562,32.84V44.418c0,.028,0,.058,0,.087V68.963a5.011,5.011,0,0,1-4.407,5.026A4.9,4.9,0,0,1,15.4,72.742a4.829,4.829,0,0,1-.558-.6,4.867,4.867,0,0,1-3.854,1.872M8.191,44.493v24.47a2.917,2.917,0,0,0,2.525,2.956A2.8,2.8,0,0,0,13.8,69.128a1.04,1.04,0,0,1,2.08,0,2.805,2.805,0,0,0,3.083,2.791,2.917,2.917,0,0,0,2.525-2.956V44.58c0-.028,0-.057,0-.086V31.218a1.041,1.041,0,0,1,1.474-.944l4.559,2.1a30.714,30.714,0,0,0,7.063,2.261l4.042.771a1.7,1.7,0,0,0,1.854-2.419,1.686,1.686,0,0,0-1.017-.881l-7.07-2.247a1.043,1.043,0,0,1-.324-.17L25.4,24.494A4.744,4.744,0,0,0,22.55,23.43H7.151A5.077,5.077,0,0,0,2.08,28.5V44.625A2.016,2.016,0,0,0,4.3,46.631a2.105,2.105,0,0,0,1.816-2.138,1.04,1.04,0,1,1,2.08,0" transform="translate(0 -6.864)" fill="#09275e"/>
    <path id="Path_465" data-name="Path 465" d="M25.421,23.429H10.047a1.04,1.04,0,0,1,0-2.08H25.421a1.04,1.04,0,0,1,0,2.08" transform="translate(-2.896 -6.864)" fill="#09275e"/>
    <path id="Path_466" data-name="Path 466" d="M10.048,49.718a1.041,1.041,0,0,1-1.04-1.04V35.4a1.04,1.04,0,0,1,2.08,0V48.678a1.041,1.041,0,0,1-1.04,1.04" transform="translate(-2.896 -11.049)" fill="#09275e"/>
    <path id="Path_467" data-name="Path 467" d="M18.932,12.4a6.2,6.2,0,1,1,6.2-6.2,6.208,6.208,0,0,1-6.2,6.2m0-10.323A4.121,4.121,0,1,0,23.053,6.2,4.126,4.126,0,0,0,18.932,2.08" transform="translate(-4.093 0)" fill="#09275e"/>
  </g>
</svg>
