<svg id="Group_243" data-name="Group 243" xmlns="http://www.w3.org/2000/svg" xmlns:xlink="http://www.w3.org/1999/xlink" width="138.948" height="144.957" viewBox="0 0 138.948 144.957">
  <defs>
    <clipPath id="clip-path">
      <rect id="Rectangle_137" data-name="Rectangle 137" width="138.948" height="144.957" fill="#014262"/>
    </clipPath>
  </defs>
  <g id="Group_243-2" data-name="Group 243" clip-path="url(#clip-path)">
    <path id="Path_347" data-name="Path 347" d="M138.948,111.642V42.436a8.327,8.327,0,0,0-8.318-8.318H119.318a1.42,1.42,0,1,0,0,2.84h11.311a5.484,5.484,0,0,1,5.478,5.478v67.786H2.841V42.436a5.483,5.483,0,0,1,5.477-5.478h10.9a1.42,1.42,0,1,0,0-2.84H8.318A8.327,8.327,0,0,0,0,42.436v77.556a8.327,8.327,0,0,0,8.317,8.318h35.64L49.114,142H42.9a12.487,12.487,0,0,0-12.473,12.473v1.65a1.42,1.42,0,0,0,1.42,1.42h74.443a1.42,1.42,0,0,0,1.42-1.42v-1.65A12.487,12.487,0,0,0,95.234,142H89.017l5.156-13.69h36.456a8.327,8.327,0,0,0,8.318-8.318v-8.35m-34.082,42.831v.23h-71.6v-.23A9.644,9.644,0,0,1,42.9,144.84H95.234a9.644,9.644,0,0,1,9.633,9.633M85.982,142H52.149l-5.156-13.69H91.138Zm44.646-16.53H8.318a5.483,5.483,0,0,1-5.477-5.478v-6.93H136.107v6.93a5.484,5.484,0,0,1-5.478,5.478" transform="translate(0 -12.586)" fill="#014262"/>
    <path id="Path_348" data-name="Path 348" d="M54.576,77.284h65.839a5.729,5.729,0,0,0,5.722-5.723V5.723A5.728,5.728,0,0,0,120.415,0H54.576a5.728,5.728,0,0,0-5.722,5.722V71.561a5.729,5.729,0,0,0,5.722,5.723M51.694,5.723a2.885,2.885,0,0,1,2.882-2.882h65.839A2.886,2.886,0,0,1,123.3,5.723V71.561a2.886,2.886,0,0,1-2.882,2.883H54.576a2.886,2.886,0,0,1-2.882-2.883Z" transform="translate(-18.021 0)" fill="#f6ad37"/>
    <path id="Path_349" data-name="Path 349" d="M68.319,39.136a1.419,1.419,0,0,0,2.008,0l6.682-6.682,6.682,6.682A1.42,1.42,0,0,0,85.7,37.128l-6.683-6.682L85.7,23.764a1.42,1.42,0,1,0-2.009-2.008l-6.682,6.682-6.682-6.682a1.42,1.42,0,0,0-2.008,2.008L75,30.446l-6.682,6.682a1.419,1.419,0,0,0,0,2.008" transform="translate(-25.048 -7.872)" fill="#f6ad37"/>
    <path id="Path_350" data-name="Path 350" d="M120.04,30h9.45v9.45a1.42,1.42,0,0,0,2.84,0V30h9.45a1.42,1.42,0,0,0,0-2.84h-9.45v-9.45a1.42,1.42,0,0,0-2.84,0v9.45h-9.45a1.42,1.42,0,0,0,0,2.84" transform="translate(-43.757 -6.011)" fill="#f6ad37"/>
    <path id="Path_351" data-name="Path 351" d="M64.278,89.905h21.74a1.42,1.42,0,0,0,0-2.84H64.278a1.42,1.42,0,1,0,0,2.84" transform="translate(-23.187 -32.117)" fill="#f6ad37"/>
    <path id="Path_352" data-name="Path 352" d="M139.454,75.3,124.082,90.674a1.42,1.42,0,1,0,2.008,2.008L141.462,77.31a1.42,1.42,0,0,0-2.008-2.008" transform="translate(-45.618 -27.624)" fill="#f6ad37"/>
    <path id="Path_353" data-name="Path 353" d="M150.067,99.28a1.42,1.42,0,1,0-2.011,2.006l.24.24a1.42,1.42,0,0,0,2.011-2.006Z" transform="translate(-54.463 -36.469)" fill="#f6ad37"/>
    <path id="Path_354" data-name="Path 354" d="M124.344,77.573a1.42,1.42,0,0,0,2.008-2.008l-.263-.263a1.42,1.42,0,1,0-2.008,2.008Z" transform="translate(-45.618 -27.624)" fill="#f6ad37"/>
  </g>
</svg>
