<svg id="Group_247" data-name="Group 247" xmlns="http://www.w3.org/2000/svg" xmlns:xlink="http://www.w3.org/1999/xlink" width="130.896" height="156.986" viewBox="0 0 130.896 156.986">
  <defs>
    <clipPath id="clip-path">
      <rect id="Rectangle_139" data-name="Rectangle 139" width="130.896" height="156.986" fill="#014262"/>
    </clipPath>
  </defs>
  <g id="Group_246" data-name="Group 246" clip-path="url(#clip-path)">
    <path id="Path_369" data-name="Path 369" d="M64.138,52.825l0,.057-.007-.057q-7.173-.016-14.346-.027a55.021,55.021,0,0,0,2.774-7.436h8.085a1.242,1.242,0,0,0,1.2-1.287,1.251,1.251,0,0,0-1.21-1.2H53.3l.1-.32c.511-1.712,1.039-3.481,1.679-5.172A4.719,4.719,0,0,1,58.3,34.132a4.191,4.191,0,0,1,4.393,1.637,1.259,1.259,0,0,0,1.077.6,1.231,1.231,0,0,0,1.052-1.882,6.84,6.84,0,0,0-5.4-2.967h-.076a6.775,6.775,0,0,0-5.439,2.759,11.34,11.34,0,0,0-1.428,2.988c-.313.887-.625,1.84-1.01,3.091-.227.736-.449,1.474-.67,2.212l-.091.306H47.1a1.243,1.243,0,0,0,.012,2.485h2.836c-.141.449-.283.9-.433,1.347a38.965,38.965,0,0,1-2.82,6.68,1.153,1.153,0,0,0-.1,1,1.169,1.169,0,0,0,1.158.887h0q8.18.018,16.362.031h.013a1.241,1.241,0,0,0,1.2-1.286,1.249,1.249,0,0,0-1.2-1.2" transform="translate(-17.931 -12.312)" fill="#f6ad37"/>
    <path id="Path_370" data-name="Path 370" d="M72.673,113.463H23.637a1.371,1.371,0,1,1,0-2.742H72.673a1.371,1.371,0,1,1,0,2.742" transform="translate(-8.697 -43.248)" fill="#014262"/>
    <path id="Path_371" data-name="Path 371" d="M72.673,143.812H23.637a1.371,1.371,0,1,1,0-2.742H72.673a1.371,1.371,0,1,1,0,2.742" transform="translate(-8.697 -55.102)" fill="#014262"/>
    <path id="Path_372" data-name="Path 372" d="M72.673,174.161H23.637a1.371,1.371,0,1,1,0-2.742H72.673a1.371,1.371,0,1,1,0,2.742" transform="translate(-8.697 -66.956)" fill="#014262"/>
    <path id="Path_373" data-name="Path 373" d="M72.673,204.509H23.637a1.371,1.371,0,1,1,0-2.742H72.673a1.371,1.371,0,1,1,0,2.742" transform="translate(-8.697 -78.81)" fill="#014262"/>
    <path id="Path_374" data-name="Path 374" d="M48.218,61.144a22.438,22.438,0,1,1,7.572-1.326,22.293,22.293,0,0,1-7.572,1.326m.028-42.038A19.677,19.677,0,1,0,56.615,21a19.648,19.648,0,0,0-8.369-1.89" transform="translate(-10.099 -6.391)" fill="#f6ad37"/>
    <path id="Path_375" data-name="Path 375" d="M149.591,27.6H129.426a6.223,6.223,0,0,1-6.216-6.216V1.22a1.218,1.218,0,0,1,2.08-.862L150.453,25.52a1.218,1.218,0,0,1-.862,2.08M125.648,4.162V21.385a3.782,3.782,0,0,0,3.778,3.778h17.223Z" transform="translate(-48.126 0)" fill="#014262"/>
    <path id="Path_376" data-name="Path 376" d="M168.92,198.24H129.342a9,9,0,0,1-8.987-8.987V114.6a9,9,0,0,1,8.987-8.987H168.92a9,9,0,0,1,8.987,8.987v74.649a9,9,0,0,1-8.987,8.987M129.342,108.3a6.312,6.312,0,0,0-6.305,6.3v74.649a6.312,6.312,0,0,0,6.305,6.3H168.92a6.311,6.311,0,0,0,6.3-6.3V114.6a6.311,6.311,0,0,0-6.3-6.3Z" transform="translate(-47.011 -41.254)" fill="#f6ad37"/>
    <path id="Path_377" data-name="Path 377" d="M176.567,191.758H121.7a1.341,1.341,0,0,1-1.341-1.341V128.069a1.341,1.341,0,0,1,1.341-1.342h54.871a1.342,1.342,0,0,1,1.341,1.342v62.348a1.342,1.342,0,0,1-1.341,1.341m-53.53-2.683h52.189V129.41H123.036Z" transform="translate(-47.011 -49.5)" fill="#f6ad37"/>
    <path id="Path_378" data-name="Path 378" d="M168.528,118.934h-10.1a1.342,1.342,0,0,1,0-2.683h10.1a1.342,1.342,0,0,1,0,2.683" transform="translate(-61.359 -45.408)" fill="#f6ad37"/>
    <path id="Path_379" data-name="Path 379" d="M167.013,244.152h-1.656a1.342,1.342,0,0,1,0-2.683h1.656a1.342,1.342,0,0,1,0,2.683" transform="translate(-64.065 -94.318)" fill="#f6ad37"/>
    <path id="Path_380" data-name="Path 380" d="M155.44,188.409a18.934,18.934,0,1,1,18.932-18.933,18.955,18.955,0,0,1-18.932,18.933m0-35.184a16.251,16.251,0,1,0,16.25,16.251,16.269,16.269,0,0,0-16.25-16.251" transform="translate(-53.32 -58.802)" fill="#014262"/>
    <path id="Path_381" data-name="Path 381" d="M160.666,185.153a1.336,1.336,0,0,1-.948-.393l-6.618-6.617a1.341,1.341,0,0,1,1.9-1.9l5.67,5.67,10.1-10.1a1.341,1.341,0,1,1,1.9,1.9L161.615,184.76a1.336,1.336,0,0,1-.948.393" transform="translate(-59.647 -66.958)" fill="#014262"/>
    <path id="Path_382" data-name="Path 382" d="M64.222,139.7H6.215a3.777,3.777,0,0,1-3.778-3.778V6.217A3.778,3.778,0,0,1,6.216,2.439H75.8l24.448,24.448V56.55a1.219,1.219,0,0,0,2.438,0V26.382a1.219,1.219,0,0,0-.357-.862L77.165.358A1.22,1.22,0,0,0,76.3,0H6.215A6.215,6.215,0,0,0,0,6.216V135.921a6.216,6.216,0,0,0,6.216,6.216H64.222a1.219,1.219,0,1,0,0-2.438" transform="translate(0 0)" fill="#014262"/>
  </g>
</svg>
