<svg id="Group_284" data-name="Group 284" xmlns="http://www.w3.org/2000/svg" xmlns:xlink="http://www.w3.org/1999/xlink" width="76.593" height="67.188" viewBox="0 0 76.593 67.188">
  <defs>
    <clipPath id="clip-path">
      <rect id="Rectangle_155" data-name="Rectangle 155" width="76.593" height="67.188" fill="#014262"/>
    </clipPath>
  </defs>
  <g id="Group_283" data-name="Group 283" clip-path="url(#clip-path)">
    <path id="Path_445" data-name="Path 445" d="M128.851,79.531h-.4l-7.016-14.339a9.033,9.033,0,0,0,4.7-4.17.65.65,0,1,0-1.146-.613,7.744,7.744,0,0,1-4.59,3.769.647.647,0,0,0-.152.048,7.7,7.7,0,0,1-2.868.245l-12.981-1.7V59.489a4.279,4.279,0,1,0-4.9,0v3.3l-12.964,1.68a7.769,7.769,0,0,1-2.95-.267.652.652,0,0,0-.068-.021,7.734,7.734,0,0,1-4.61-3.772.65.65,0,0,0-1.146.613,9.023,9.023,0,0,0,4.7,4.168L75.443,79.531h-.4a.65.65,0,0,0,0,1.3H75.9c.378,3.869,4.1,6.917,8.614,6.917S92.75,84.7,93.128,80.83h.858a.65.65,0,0,0,0-1.3h-.4L86.835,65.739,99.5,64.1V90.52a4.9,4.9,0,0,0-2.356,5.353H92.117c-1.483,0-2.927.942-4.068,2.653a9.212,9.212,0,0,0-1.57,4.788.65.65,0,0,0,.65.65h29.632a.65.65,0,0,0,.65-.65,9.214,9.214,0,0,0-1.571-4.789c-1.141-1.711-2.585-2.653-4.066-2.653h-5.023a4.9,4.9,0,0,0-2.353-5.352V64.086l12.658,1.653L110.31,79.531h-.4a.65.65,0,0,0,0,1.3h.858c.378,3.869,4.1,6.917,8.614,6.917s8.237-3.048,8.615-6.917h.858a.65.65,0,1,0,0-1.3M85.416,65.8l6.72,13.735H76.89l6.828-13.955a9.085,9.085,0,0,0,1.7.221m-.9,20.651c-3.795,0-6.927-2.466-7.309-5.617H91.823c-.382,3.151-3.515,5.617-7.31,5.617M101.946,53.01a2.979,2.979,0,1,1-2.979,2.979,2.983,2.983,0,0,1,2.979-2.979m9.828,44.164c2.147,0,3.988,3.142,4.293,5.492H87.824c.305-2.35,2.146-5.492,4.293-5.492h5.515a4.925,4.925,0,0,0,8.626,0Zm-6.2-2.381a3.63,3.63,0,1,1-3.63-3.63,3.634,3.634,0,0,1,3.63,3.63m-3.63-4.93A4.913,4.913,0,0,0,100.8,90v-29.9a4.175,4.175,0,0,0,2.3,0V90a4.9,4.9,0,0,0-1.153-.142M127,79.531H111.756L118.475,65.8a9.042,9.042,0,0,0,1.7-.22Zm-7.623,6.917c-3.795,0-6.927-2.466-7.309-5.617h14.619c-.382,3.151-3.514,5.617-7.31,5.617" transform="translate(-52.908 -36.777)" fill="#014262"/>
    <path id="Path_446" data-name="Path 446" d="M32.92,56.872H9.236V1.3h39.73v9.609a.65.65,0,1,0,1.3,0V.65a.65.65,0,0,0-.65-.65H5.257A5.262,5.262,0,0,0,0,5.256V62.03c0,.021,0,.042.006.062,0,.062,0,.124,0,.186a5.216,5.216,0,0,0,5.28,4.91H27.658a.65.65,0,1,0,0-1.3H5.286A3.919,3.919,0,0,1,1.3,62.217a3.859,3.859,0,0,1,3.854-4.046H32.92a.65.65,0,0,0,0-1.3M1.426,58.47c-.045.047-.083.1-.126.146V5.256A3.962,3.962,0,0,1,5.257,1.3h2.68V56.872H5.158a5.113,5.113,0,0,0-3.733,1.6" fill="#014262"/>
    <path id="Path_447" data-name="Path 447" d="M85.746,34.267H67.389a.65.65,0,0,0,0,1.3H85.746a.65.65,0,0,0,0-1.3" transform="translate(-47.466 -24.371)" fill="#014262"/>
    <path id="Path_448" data-name="Path 448" d="M85.746,54.279H67.389a.65.65,0,0,0,0,1.3H85.746a.65.65,0,0,0,0-1.3" transform="translate(-47.466 -38.604)" fill="#014262"/>
  </g>
</svg>
