<svg xmlns="http://www.w3.org/2000/svg" width="404.173" height="786.141" viewBox="0 0 404.173 786.141">
  <g id="Group_4895" data-name="Group 4895" transform="translate(0 0)" opacity="0.2">
    <g id="Group_4878" data-name="Group 4878" transform="translate(157.709 536.945)">
      <path id="Path_22452" data-name="Path 22452" d="M3361.507,6634.778a1.46,1.46,0,0,0,1.1-.493c38.922-43.865,69.184-97.488,98.449-149.344q6.469-11.462,12.912-22.8c6.678-11.705,12.134-22.363,11.275-34.27-1.371-19-18.971-31.665-33.624-36.732-4.994-1.728-12.458-3.788-19.586-1.794-9.73,2.728-15.76,11.58-21.589,20.141-1.536,2.256-3.065,4.5-4.651,6.619a70.813,70.813,0,0,1-28.921,22.781,3.322,3.322,0,0,0-1.993,2.852,3.278,3.278,0,0,0,1.545,3.071,11.917,11.917,0,0,0,4.61,1.465c11.208,1.486,22.191-1.927,32.817-5.228,4.209-1.307,8.563-2.66,12.838-3.674,14.128-3.347,33.114-2.026,40.114,12.733a6.022,6.022,0,0,0,1.816,2.327,3.955,3.955,0,0,0,4.254.475c2.5-1.225,4.065-5.034,4.136-8.009.3-12.591-6.061-25.043-16.206-31.722a33.629,33.629,0,0,0-34.291-1.419,1.467,1.467,0,0,0,1.412,2.571,30.66,30.66,0,0,1,31.266,1.3c9.32,6.138,15.164,17.6,14.887,29.2-.053,2.236-1.243,4.832-2.5,5.446a1.043,1.043,0,0,1-1.223-.2,3.163,3.163,0,0,1-.9-1.221c-7.752-16.341-28.248-17.935-43.44-14.33-4.374,1.037-8.776,2.4-13.034,3.727-10.32,3.205-20.991,6.516-31.559,5.12a9.078,9.078,0,0,1-3.477-1.065.377.377,0,0,1-.141-.354.434.434,0,0,1,.215-.362,73.754,73.754,0,0,0,30.12-23.723c1.613-2.15,3.168-4.433,4.73-6.726,5.534-8.127,11.256-16.53,19.955-18.968,6.343-1.776,13.22.146,17.837,1.742,13.811,4.775,30.389,16.59,31.66,34.172.8,11.084-4.463,21.323-10.9,32.606q-6.461,11.325-12.919,22.811c-29.191,51.723-59.374,105.205-98.089,148.837a1.466,1.466,0,0,0,1.1,2.44Z" transform="translate(-3360.041 -6388.527)" fill="#09275e"/>
    </g>
    <g id="Group_4879" data-name="Group 4879" transform="translate(159.649)">
      <path id="Path_22453" data-name="Path 22453" d="M3307.919,6637.723a1.46,1.46,0,0,0,1.1-.492c51.764-58.238,89.865-126.386,127.535-196.935l.838-1.568c28.183-52.771,54.8-102.614,43.227-161.073-2.754-13.908-6.289-33.929-5.2-47.163l.157-1.809c.6-6.65,1.336-14.925-4.5-18.721a15.4,15.4,0,0,0-5.346-1.9c-.786-.17-1.574-.339-2.335-.575-6.781-2.088-10.981-9.1-15.043-15.876l-1.367-2.269a111.213,111.213,0,0,0-35.431-36.128c-2.384-1.5-4.848-2.925-7.316-4.353-8.317-4.809-16.917-9.781-22.226-17.852-3.162-4.808-5.035-10.578-6.846-16.158l-.772-2.365c-2.451-7.431-5.249-14.692-8.274-21.744q1.041,2.25,2.18,4.447a1.846,1.846,0,0,0,3.441-.44,232.633,232.633,0,0,1,32.845-75.993c12.579-18.888,18.511-35.912,18.135-52.048-.3-12.9-2.9-25.836-5.408-38.341-.987-4.911-2.006-9.991-2.848-14.905l-9.931-58.007a4.654,4.654,0,0,0-2.7-3.506,4.405,4.405,0,0,0-4.167.34c-35.649,23.045-63.646,60.187-76.813,101.9-5.08,16.093-6.615,29.042-4.832,40.748,2.3,15.106,10.236,28.337,17.911,41.134l.988,1.648c12.9,21.537,27.349,47.372,36.687,75.682l.766,2.351c1.871,5.764,3.8,11.726,7.187,16.865,5.688,8.651,14.594,13.8,23.206,18.779,2.437,1.409,4.87,2.815,7.224,4.3a108.286,108.286,0,0,1,34.488,35.171l1.356,2.249c4.142,6.916,8.838,14.753,16.693,17.173.84.259,1.708.45,2.574.638a12.981,12.981,0,0,1,4.373,1.487c4.358,2.835,3.731,9.83,3.178,16l-.16,1.83c-1.115,13.6,2.462,33.891,5.248,47.973,11.372,57.431-15.007,106.826-42.935,159.121l-.837,1.57c-37.586,70.386-75.591,138.369-127.141,196.367a1.467,1.467,0,0,0,1.1,2.44Zm92.134-783.213a1.5,1.5,0,0,1,.6.128,1.717,1.717,0,0,1,.985,1.317l9.931,58.007c.847,4.953,1.871,10.055,2.862,14.986,2.485,12.382,5.057,25.185,5.35,37.833.363,15.513-5.407,31.985-17.642,50.353a235.334,235.334,0,0,0-32.566,74.071c-14.057-29.036-15.057-65.094-2.478-94.843a1.466,1.466,0,1,0-2.7-1.143c-12.065,28.532-11.95,62.72-.092,91.392-8.241-18.469-17.926-35.46-26.869-50.39l-.989-1.651c-7.53-12.553-15.316-25.533-17.529-40.066-1.713-11.248-.209-23.774,4.732-39.425,12.963-41.078,40.52-77.644,75.607-100.323A1.463,1.463,0,0,1,3400.053,5854.51Z" transform="translate(-3306.453 -5851.582)" fill="#09275e"/>
    </g>
    <g id="Group_4880" data-name="Group 4880" transform="translate(0 102.418)">
      <path id="Path_22454" data-name="Path 22454" d="M3639.786,6102.924a2.644,2.644,0,0,0,.973-.182c1.9-.73,2.547-3.21,2.18-8.293-.716-9.886-9.575-21.383-13.35-25.866a126.893,126.893,0,0,0-10.406-10.571,128.933,128.933,0,0,1-9.887-9.986c-7.615-8.915-12.874-20.1-17.961-30.921-6.26-13.315-12.733-27.083-23.682-36.845s-25.255-14.41-37.879-18.509c-20.148-6.544-41.315-12.147-59.228-2.813-8.286,4.317-14.833,11.41-21.165,18.268-6.078,6.586-12.363,13.394-20.032,17.459a1.845,1.845,0,0,0-.926,2.073,1.816,1.816,0,0,0,1.748,1.392c19.66.124,38.5,1.154,52.972,12.239a93.492,93.492,0,0,1,10.1,9.5c1.24,1.287,2.481,2.574,3.746,3.831,23.181,23.053,54.781,36.062,86.619,35.632,1.14-.014,2.287-.044,3.438-.074,6.493-.166,13.212-.339,18.969,2.39,8.477,4.022,12.894,12.315,17.571,21.094a90.653,90.653,0,0,0,8.048,13.248C3634.954,6100.23,3637.547,6102.924,3639.786,6102.924Zm-147.622-145.982c11.865,0,24.471,3.625,36.7,7.6,12.348,4.011,26.345,8.555,36.833,17.908s16.844,22.856,22.98,35.9c5.168,11,10.513,22.364,18.384,31.578a130.551,130.551,0,0,0,10.111,10.22,124.67,124.67,0,0,1,10.17,10.322c3.59,4.265,12.012,15.161,12.668,24.189.332,4.6-.365,5.365-.394,5.4-.142-.076-1.486-.518-5.674-5.876a88.663,88.663,0,0,1-7.772-12.818c-4.694-8.816-9.55-17.929-18.9-22.366h0c-6.392-3.031-13.468-2.842-20.3-2.672-1.138.03-2.272.059-3.4.073-31.072.39-61.888-12.28-84.515-34.779-1.248-1.243-2.475-2.516-3.7-3.787a96.115,96.115,0,0,0-10.43-9.791c-14.2-10.877-32.049-12.529-50.795-12.8,6.56-4.294,12.059-10.253,17.4-16.042,6.161-6.675,12.532-13.578,20.364-17.658A43.118,43.118,0,0,1,3492.164,5956.942Zm-61.44,40.313,0,0Z" transform="translate(-3428.37 -5954)" fill="#09275e"/>
    </g>
    <g id="Group_4881" data-name="Group 4881" transform="translate(111.858 152.46)">
      <path id="Path_22455" data-name="Path 22455" d="M3529.713,6042.211a1.465,1.465,0,0,0,1.382-1.955c-3.73-10.533-13.183-16.8-20.455-20.212a132.484,132.484,0,0,0-13.934-5.3c-4.034-1.361-8.207-2.769-12.15-4.5-2.72-1.2-5.7-2.779-7.167-5.447a1.467,1.467,0,0,0-2.569,1.415c1.889,3.433,5.385,5.322,8.556,6.715,4.062,1.786,8.3,3.214,12.393,4.6a130.638,130.638,0,0,1,13.629,5.173c6.765,3.17,15.54,8.959,18.933,18.536A1.467,1.467,0,0,0,3529.713,6042.211Z" transform="translate(-3474.639 -6004.042)" fill="#09275e"/>
    </g>
    <g id="Group_4882" data-name="Group 4882" transform="translate(160.215 244.702)">
      <path id="Path_22456" data-name="Path 22456" d="M3423.788,6456.423a1.464,1.464,0,0,0,1.32-.826c1.851-3.818,6.309-10.415,10.244-16.235,3.514-5.2,6.832-10.108,8.077-12.69,10.262-21.316,20.112-43.212,29.272-65.079,2.659-6.346,5.968-14.245,6.717-22.455.823-9.02-1.8-17.416-7.03-22.459-5.722-5.524-14.824-7.468-25.616-5.482-3.239.6-6.462,1.451-9.579,2.277-5.031,1.334-10.233,2.713-15.413,2.952-14.06.681-27.185-6.842-39.875-14.089-2.385-1.361-4.759-2.717-7.13-4.016a39.017,39.017,0,0,0-25.557-3.848l21.212-15.116c7.156-5.1,14.555-10.369,23.02-12.422,9.092-2.2,18.063.312,22.859,6.413a36.5,36.5,0,0,1,2.179,3.22,26.5,26.5,0,0,0,3.8,5.079,23.08,23.08,0,0,0,7.835,4.546c3.322,1.325,6.742,2.528,10.049,3.692,7.129,2.507,14.5,5.1,21.075,9.014,9.761,5.812,16.388,14.325,18.222,23.221q.205,1.533.442,3.057a1.466,1.466,0,0,0,2.91-.349,28.291,28.291,0,0,0-.457-3.185c-.719-5.415-1.147-10.927-1.562-16.286l-4.715-60.935a2.992,2.992,0,0,0-1.237-2.211,2.76,2.76,0,0,0-2.294-.432c-3.571.929-5.884,4.831-7.744,7.966l-.186.315c-6.412,10.787-17.86,18.072-29.882,19.01a38.344,38.344,0,0,1-32.19-14.149c-3.776-4.656-6.573-10.256-9.278-15.672-1.832-3.67-3.727-7.464-5.933-11-16.08-25.776-46.663-35.956-74.067-43.474a.394.394,0,0,1-.265-.338.481.481,0,0,1,.169-.482c13.755-9.842,27.789-15.82,41.713-17.765,17.111-2.388,34.066,1.74,46.486,11.333,2.627,2.03,5.141,4.363,7.572,6.619a92.742,92.742,0,0,0,9.742,8.237,90.064,90.064,0,0,0,14.262,7.622,103.41,103.41,0,0,1,11.872,6.077,54.939,54.939,0,0,1,23.713,33.537,1.755,1.755,0,0,0,3.458-.543c-1.733-23.006-17.307-41.692-30.067-53.318-6.784-6.181-14.141-11.832-21.255-17.3-9.491-7.291-19.3-14.831-27.744-23.638-11.187-11.682-22.116-29.908-28.518-47.568a1.466,1.466,0,0,0-2.757,1c6.533,18.019,17.7,36.639,29.159,48.6,8.592,8.968,18.5,16.577,28.073,23.935,7.067,5.429,14.374,11.043,21.066,17.141,9.563,8.712,20.753,21.484,26.1,37.017a56.569,56.569,0,0,0-19.675-21.346,106.336,106.336,0,0,0-12.207-6.258,87.886,87.886,0,0,1-13.8-7.358,90.678,90.678,0,0,1-9.428-7.984c-2.479-2.3-5.043-4.679-7.775-6.789-13.036-10.073-30.772-14.423-48.684-11.917-14.4,2.01-28.869,8.162-43.014,18.282a3.387,3.387,0,0,0-1.349,3.384,3.307,3.307,0,0,0,2.376,2.65c26.869,7.372,56.834,17.318,72.355,42.2,2.133,3.421,4,7.152,5.8,10.76,2.775,5.557,5.645,11.3,9.624,16.209a41.45,41.45,0,0,0,8.578,7.939,28.414,28.414,0,0,0-16.092-.621c-9.015,2.186-16.992,7.869-24.03,12.883l-26.48,18.869a1.821,1.821,0,0,0-.544,2.338,1.768,1.768,0,0,0,2.207.825,36.054,36.054,0,0,1,29.454,1.891c2.356,1.291,4.715,2.638,7.085,3.991,13.052,7.455,26.54,15.135,41.464,14.472,5.493-.253,10.85-1.674,16.03-3.047,3.062-.813,6.231-1.652,9.357-2.227,5.7-1.047,16.27-1.833,23.05,4.709,4.592,4.431,6.889,11.938,6.145,20.082-.708,7.76-3.919,15.427-6.5,21.587-9.142,21.821-18.97,43.67-29.213,64.942-1.149,2.388-4.411,7.212-7.863,12.319-4.184,6.189-8.51,12.591-10.453,16.6a1.467,1.467,0,0,0,1.319,2.106Zm49.5-211.806,4.582,60.945c.152,1.962.306,3.943.474,5.931a44.665,44.665,0,0,0-15.6-15.113c-6.828-4.064-14.338-6.707-21.6-9.261-3.28-1.154-6.671-2.347-9.935-3.65a20.585,20.585,0,0,1-6.881-3.927,23.809,23.809,0,0,1-3.353-4.533,39.525,39.525,0,0,0-2.359-3.473,19.756,19.756,0,0,0-2.876-2.956,39.794,39.794,0,0,0,19.232,3.414c12.954-1.011,25.282-8.842,32.172-20.436l.189-.318C3468.916,6248.568,3470.889,6245.242,3473.291,6244.617Z" transform="translate(-3310.063 -6096.284)" fill="#09275e"/>
    </g>
    <g id="Group_4883" data-name="Group 4883" transform="translate(235.451 250.86)">
      <path id="Path_22457" data-name="Path 22457" d="M3398.259,6202.431a1.465,1.465,0,0,0,1.438-1.187c.619-3.191,1.86-8.24,3.057-13.122,1.207-4.917,2.454-10,3.088-13.264.978-5.028,1.99-10.229,1.692-15.545-1.058-18.944-17.714-30.805-24.825-35.025a168.158,168.158,0,0,0-18.739-9.118,158.077,158.077,0,0,1-19.228-9.44l-.38-.233c-3.312-2.026-7.433-4.547-12.06-1.943a11.452,11.452,0,0,0-5.461,9.9c-.165,9.337,5.111,18.424,14.855,25.584a116.264,116.264,0,0,0,12.1,7.462c3.027,1.7,6.156,3.454,9.088,5.382,14.935,9.829,26.528,25.659,31.805,43.429a2.345,2.345,0,0,0,2.158,1.69,2.047,2.047,0,0,0,.783-.108c-.323,1.419-.6,2.707-.813,3.8a1.465,1.465,0,0,0,1.159,1.718A1.5,1.5,0,0,0,3398.259,6202.431Zm-26.536-67.531a1.466,1.466,0,0,0-.44,2.865c3.907,1.227,6.446,5.5,8.607,9.944a266.894,266.894,0,0,1,16.052,41.468,18.777,18.777,0,0,1,.45,1.841,82.526,82.526,0,0,0-31.894-41.587c-3.018-1.987-6.194-3.768-9.264-5.491a114.085,114.085,0,0,1-11.8-7.268c-5.186-3.811-13.857-11.889-13.658-23.17a8.523,8.523,0,0,1,3.969-7.394c3.124-1.761,6.025.013,9.089,1.89l.385.235a160.142,160.142,0,0,0,19.581,9.626,165.42,165.42,0,0,1,18.414,8.951c6.708,3.981,22.416,15.131,23.4,32.666.276,4.953-.7,9.97-1.644,14.822-.62,3.193-1.86,8.241-3.058,13.124-.228.93-.457,1.865-.683,2.793-.121-.591-.275-1.213-.469-1.866a269.769,269.769,0,0,0-16.227-41.923c-2.45-5.03-5.4-9.9-10.365-11.459A1.466,1.466,0,0,0,3371.723,6134.9Z" transform="translate(-3326.837 -6102.442)" fill="#09275e"/>
    </g>
    <g id="Group_4884" data-name="Group 4884" transform="translate(253.271 443.361)">
      <path id="Path_22458" data-name="Path 22458" d="M3388.3,6330.543a1.439,1.439,0,0,0,.327-.036,1.467,1.467,0,0,0,1.1-1.755c-3.14-13.814-15.6-24.708-30.313-26.493a76.514,76.514,0,0,0-12.617-.128c-2.752.126-5.594.251-8.363.169a54.1,54.1,0,0,1-25.112-7.162,1.466,1.466,0,0,0-1.46,2.543,57.033,57.033,0,0,0,26.48,7.548c2.885.092,5.782-.041,8.59-.169a73.959,73.959,0,0,1,12.129.111c13.288,1.612,24.982,11.8,27.806,24.231A1.466,1.466,0,0,0,3388.3,6330.543Z" transform="translate(-3311.128 -6294.943)" fill="#09275e"/>
    </g>
    <g id="Group_4885" data-name="Group 4885" transform="translate(216.708 351.982)">
      <path id="Path_22459" data-name="Path 22459" d="M3421.88,6241.573a5.586,5.586,0,0,0,4-1.6,1.466,1.466,0,1,0-2.036-2.111c-1.984,1.917-5.636-.118-8.344-2.167a159.748,159.748,0,0,0-88.191-32.135,1.508,1.508,0,0,0-1.531,1.4,1.467,1.467,0,0,0,1.4,1.53,156.765,156.765,0,0,1,86.553,31.545C3417.2,6240.662,3419.858,6241.573,3421.88,6241.573Z" transform="translate(-3325.777 -6203.564)" fill="#09275e"/>
    </g>
    <g id="Group_4886" data-name="Group 4886" transform="translate(312.364 490.841)">
      <path id="Path_22460" data-name="Path 22460" d="M3312.806,6456.239a2.982,2.982,0,0,0,1.381-.34,3.227,3.227,0,0,0,1.714-2.7c.391-7.349,2.994-14.25,5.749-21.558a106.606,106.606,0,0,0,5.2-16.431,104.64,104.64,0,0,0,1.5-13.258l2.049-29.264c.279-4.011.569-8.157-.327-12.255-2.322-10.64-13.311-17.876-27.341-18.007h-.015a1.466,1.466,0,0,0-.014,2.932c12.633.119,22.481,6.427,24.507,15.7.8,3.69.529,7.622.263,11.426l-2.049,29.264a102.355,102.355,0,0,1-1.45,12.887,104.324,104.324,0,0,1-5.065,15.973c-2.713,7.193-5.518,14.633-5.934,22.436l-1,1.485.786-1.239c-5.865-3.72-12-7.813-16.9-13.338-7.027-7.921-9.766-17.5-7.515-26.289a67.578,67.578,0,0,1,4.156-10.837c.937-2.078,1.873-4.155,2.692-6.284a82.041,82.041,0,0,0,2.7-9,73.634,73.634,0,0,1,2.856-9.341,34.526,34.526,0,0,1,2.3-4.367,24.749,24.749,0,0,0,3.31-7.416c1.055-5.106-1.243-10-3.611-14.233a4.051,4.051,0,0,1,3.6.518c1.691,1.127,2.885,3.183,3.938,5,1.925,3.316,3.917,6.743,4.553,10.539.542,3.24-.148,7.447-2.915,9.54a1.466,1.466,0,0,0,1.769,2.339c3.293-2.492,4.878-7.345,4.038-12.363-.725-4.322-2.948-8.151-4.91-11.527-1.212-2.091-2.588-4.46-4.846-5.965a6.629,6.629,0,0,0-7.464-.163,2.312,2.312,0,0,0-.621,2.995c2.207,3.893,4.487,8.405,3.592,12.73a22.218,22.218,0,0,1-2.967,6.526,37.119,37.119,0,0,0-2.484,4.745,76.163,76.163,0,0,0-2.978,9.713,79.588,79.588,0,0,1-2.594,8.678c-.8,2.078-1.714,4.106-2.628,6.134a69.865,69.865,0,0,0-4.324,11.314c-2.495,9.744.48,20.3,8.163,28.962,5.151,5.81,11.48,10.036,17.52,13.869A3.032,3.032,0,0,0,3312.806,6456.239Z" transform="translate(-3284.637 -6342.423)" fill="#09275e"/>
    </g>
    <g id="Group_4887" data-name="Group 4887" transform="translate(220.57 467.167)">
      <path id="Path_22461" data-name="Path 22461" d="M3363.521,6381.131c.737,0,1.479-.033,2.222-.106a27.134,27.134,0,0,0,15.221-6.973c7.669-6.873,13.559-17.707,15.754-28.979.848-4.356,2.377-6.393,5.279-7.036,5.325-1.184,11.7-1.148,15.4,1.143.85.853,1.689,1.726,2.519,2.6a1.539,1.539,0,0,0,.34.278h0a1.463,1.463,0,0,0,.471.176,1.443,1.443,0,0,0,.731-.047,1.5,1.5,0,0,0,.353-.17,1.469,1.469,0,0,0,.443-.463,1.447,1.447,0,0,0,.175-.433v0h0a1.46,1.46,0,0,0-.06-.845,1.641,1.641,0,0,0-.1-.208c-.1-.177-.206-.349-.317-.517l-4.88-7.962c-6.505-10.608-19.043-15.353-30.49-11.533a76.829,76.829,0,0,0-17.211,8.375c-11.5,7.4-21.283,17.313-30.143,26.918L3338,6356.7c-6.893,7.492-14.022,15.24-22.849,19.4a1.778,1.778,0,0,0,.981,3.373,136.83,136.83,0,0,1,31.58-.612c2.094.2,4.258.63,6.35,1.043A49.17,49.17,0,0,0,3363.521,6381.131Zm45.3-46.763a35.493,35.493,0,0,0-7.452.806c-5.346,1.184-6.854,5.9-7.524,9.338-2.078,10.668-7.623,20.9-14.833,27.356a24.191,24.191,0,0,1-13.55,6.239c-3.564.356-7.095-.345-10.831-1.083-2.163-.426-4.4-.867-6.634-1.084a139.771,139.771,0,0,0-26.509-.038c7.015-4.552,12.923-10.973,18.671-17.222l1.236-1.341c8.728-9.463,18.351-19.214,29.573-26.441a74.074,74.074,0,0,1,16.553-8.059,23.118,23.118,0,0,1,26.4,9.26c-4.417-3.472-9.295-5.963-14.812-5.708-5.714.251-10.556,3.4-15.238,6.434-3.242,2.1-6.595,4.283-10.127,5.388a1.466,1.466,0,0,0,.876,2.8c3.916-1.226,7.44-3.514,10.849-5.726,4.551-2.956,8.852-5.748,13.769-5.965,4.761-.206,9.09,2.023,13.127,5.259A28.617,28.617,0,0,0,3408.816,6334.368Z" transform="translate(-3314.123 -6318.749)" fill="#09275e"/>
    </g>
    <g id="Group_4888" data-name="Group 4888" transform="translate(259.401 553.046)">
      <path id="Path_22462" data-name="Path 22462" d="M3335.124,6573.574a2.532,2.532,0,0,0,2.006-1c6.635-8.64,13.726-17.058,21.077-25.018,2.133-2.313,4.466-4.509,6.935-6.834,4.864-4.579,9.892-9.314,13.307-15.008,8.1-13.509,4.974-29.963,2.215-44.481l-.353-1.864a242.1,242.1,0,0,0-13.085-45.724c-.564-1.4-1.127-2.681-1.67-3.923-2.736-6.258-4.9-11.2-4.166-23.543a1.466,1.466,0,0,0-2.927-.174,56.517,56.517,0,0,0,.533,13.259,10.968,10.968,0,0,0-.507-1.025,2.536,2.536,0,0,0-2.941-1.248,2.654,2.654,0,0,0-1.92,2.674c.314,8.969-.614,15.415-3.2,22.249-2.357,6.228-6.638,11.57-10.777,16.737-1.191,1.486-2.381,2.973-3.529,4.479a118.318,118.318,0,0,0-19.051,37.2c-2.991,9.749-4,17.718-3.16,25.077,1.145,10.1,5.864,19.113,10.429,27.827,3.121,5.96,6.35,12.123,8.372,18.543a2.541,2.541,0,0,0,1.977,1.755A2.481,2.481,0,0,0,3335.124,6573.574Zm24.836-150.21a62.469,62.469,0,0,0,2.91,7.534c.532,1.217,1.084,2.478,1.638,3.847a239.345,239.345,0,0,1,12.922,45.168l.354,1.867c2.661,14,5.678,29.875-1.849,42.425-3.207,5.348-8.085,9.941-12.8,14.382-2.4,2.258-4.876,4.593-7.078,6.978-7.238,7.84-14.225,16.115-20.778,24.61-2.1-6.4-5.272-12.445-8.339-18.3-4.643-8.864-9.029-17.237-10.114-26.794-.787-6.947.182-14.537,3.051-23.889a115.379,115.379,0,0,1,18.579-36.284c1.135-1.488,2.311-2.955,3.486-4.423,3.836-4.786,7.788-9.719,10.382-15.482-.213,1-.391,2.018-.514,3.046-.666,5.554.262,11.1,1.16,16.456.824,4.924,1.678,10.016,1.219,14.937-.462,5-2.2,9.666-4.044,14.607-1.862,4.994-3.786,10.157-4.241,15.654a1.469,1.469,0,0,0,1.342,1.582,1.484,1.484,0,0,0,1.582-1.342c.421-5.091,2.19-9.841,4.064-14.87,1.829-4.9,3.719-9.973,4.218-15.359.493-5.3-.392-10.585-1.248-15.694-.9-5.392-1.757-10.486-1.14-15.622a54.386,54.386,0,0,1,2.4-9.706,76.64,76.64,0,0,0,2.074-7.534A28.732,28.732,0,0,0,3359.96,6423.364Zm-3.358-2.126c.8,2.558.475,5.633-.281,9.333q-.141.687-.307,1.378A66.924,66.924,0,0,0,3356.6,6421.238Z" transform="translate(-3313.628 -6404.628)" fill="#09275e"/>
    </g>
    <g id="Group_4889" data-name="Group 4889" transform="translate(329.071 482.494)">
      <path id="Path_22463" data-name="Path 22463" d="M3300.177,6486.088a3.029,3.029,0,0,0,.865-.126,3.151,3.151,0,0,0,2.206-2.52l6.413-37.114c2.565-14.835,5.216-30.176,4-45.6a91.8,91.8,0,0,0-12.257-39.139c-6.727-11.439-15.342-19.887-24.913-24.429-10.446-4.962-26.674-3.812-36.94,2.615a1.466,1.466,0,0,0,1.555,2.485q.736-.46,1.516-.883a7.729,7.729,0,0,0-2.325,2.145,2.6,2.6,0,0,0-.263,2.619,2.447,2.447,0,0,0,2.051,1.451c7.812.618,17.129,6.963,18,15.08a38.913,38.913,0,0,1-.012,6.337c-.072,1.3-.142,2.6-.144,3.894-.007,7.169,2.089,14.046,4.117,20.7,1.673,5.492,3.406,11.172,3.886,16.887a82.555,82.555,0,0,1-.016,10.375c-.13,2.988-.264,6.076-.115,9.143,1.071,22,16.112,39.976,30.126,55.1A3.054,3.054,0,0,0,3300.177,6486.088Zm-38.991-149.113a33.268,33.268,0,0,1,14.05,2.83c9.039,4.29,17.214,12.335,23.641,23.267a88.846,88.846,0,0,1,11.862,37.882c1.186,15.06-1.434,30.217-3.967,44.876l-6.413,37.114-.276.159c-13.662-14.742-28.325-32.228-29.347-53.245-.144-2.931-.012-5.952.114-8.872a84.3,84.3,0,0,0,.007-10.749c-.5-6.026-2.282-11.856-4-17.5-2.055-6.741-4-13.108-3.989-19.839,0-1.244.07-2.491.139-3.735a41.909,41.909,0,0,0,0-6.814c-1.016-9.411-10.957-16.551-19.912-17.611,3.256-3.377,9.478.352,15.194,4.509l.4.292a107.055,107.055,0,0,1,20.255,19.2,37.319,37.319,0,0,1,6.519,10.629c3.616,10.134-.373,21.627-4.769,32.529a1.466,1.466,0,1,0,2.72,1.1c4.607-11.425,8.771-23.508,4.81-34.61a40.013,40.013,0,0,0-7-11.494,110.1,110.1,0,0,0-20.811-19.727l-.4-.289c-3.949-2.873-11.491-8.355-16.919-5.756A40.21,40.21,0,0,1,3261.186,6336.975Z" transform="translate(-3238.864 -6334.076)" fill="#09275e"/>
    </g>
    <g id="Group_4890" data-name="Group 4890" transform="translate(118.699 459.593)">
      <path id="Path_22464" data-name="Path 22464" d="M3417.272,6370.687a46.328,46.328,0,0,0,17.265-3.141c9.84-3.894,17.775-11.363,25.451-18.586,3.307-3.113,6.728-6.333,10.236-9.2,6.494-5.3,12.115-9.428,17.807-12.415a267.556,267.556,0,0,1,26.891-3.517,1.465,1.465,0,0,0,.948-2.463c2.175.051,4.459.185,6.871.4a1.466,1.466,0,1,0,.261-2.92c-10.6-.94-18.885-.327-26.323,1.855l-.091.006c-7.512.362-14.61.71-26.041-1.809-3.735-.823-7.537-1.834-11.213-2.813-9.724-2.587-19.77-5.263-30.023-4.872-19.149.729-35.666,11.77-51.639,22.45-10.788,7.213-21.944,14.671-33.857,18.95a1.88,1.88,0,0,0,.686,3.648c12.449-.391,25.217,3.479,37.56,7.249C3393.68,6367.058,3405.565,6370.687,3417.272,6370.687Zm62.174-41.56c-3.544,2.388-7.173,5.176-11.078,8.365-3.586,2.93-7.046,6.185-10.39,9.333-7.474,7.033-15.2,14.306-24.521,17.995-16.145,6.385-32.852,1.285-50.539-4.115-10.825-3.306-21.97-6.709-33.122-7.314,10.357-4.488,20.07-10.981,29.506-17.291,16.353-10.933,31.8-21.259,50.12-21.958,9.812-.348,19.643,2.247,29.158,4.778,3.706.985,7.539,2,11.337,2.842a83.246,83.246,0,0,0,18.515,2.134q-.628.3-1.252.622c-27.4,5.136-48.4,14.355-74.791,28.531a1.466,1.466,0,0,0,1.388,2.583C3437.164,6343.071,3456.27,6334.442,3479.446,6329.127Z" transform="translate(-3342.573 -6311.175)" fill="#09275e"/>
    </g>
    <g id="Group_4891" data-name="Group 4891" transform="translate(87.911 355.998)">
      <path id="Path_22465" data-name="Path 22465" d="M3466.151,6273.381a165.685,165.685,0,0,0,24.816-2.007c11.2-1.7,22.2-4.157,32.844-6.532,9.768-2.182,19.869-4.437,30.083-6.1a1.466,1.466,0,1,0-.469-2.9q-1.317.216-2.629.441a1.736,1.736,0,0,0-.63-.542,49.66,49.66,0,0,1-16.232-13.6c-1.256-1.621-2.418-3.322-3.58-5.023a67.131,67.131,0,0,0-6.178-8.114c-5.293-5.654-11.995-9.067-19.571-12.635-6.809-3.209-13.5-6.211-20.548-7.683-17.942-3.742-35.843,2.7-49.435,8.736-3.966,1.76-7.9,3.635-11.837,5.51-10.291,4.9-20.935,9.973-31.964,12.786a2.73,2.73,0,0,0-1.981,2.053,2.8,2.8,0,0,0,.907,2.785c11.685,9.934,23.268,19.333,36.49,25.158C3437.859,6270.837,3451.048,6273.381,3466.151,6273.381Zm73.752-15.028c-5.661,1.154-11.248,2.4-16.732,3.627-10.592,2.365-21.544,4.81-32.645,6.5-25.4,3.854-46.046,2.071-63.106-5.442-12.879-5.675-23.82-14.547-35.774-24.709,11.206-2.647,21.982-7.78,32.4-12.742,3.911-1.865,7.823-3.727,11.766-5.478,13.188-5.859,30.517-12.124,47.644-8.546,6.741,1.41,13,4.215,19.9,7.465,7.3,3.438,13.739,6.712,18.678,11.988a64.777,64.777,0,0,1,5.9,7.765c1.2,1.748,2.391,3.5,3.681,5.162a52.994,52.994,0,0,0,13.068,12.009c-11.252-.957-22.365-4.579-33.157-8.094-5.14-1.675-10.455-3.408-15.735-4.838a158.722,158.722,0,0,0-54.646-5.028,1.467,1.467,0,1,0,.24,2.923,155.6,155.6,0,0,1,53.639,4.934c5.21,1.413,10.489,3.133,15.595,4.8C3520.14,6253.744,3529.909,6256.929,3539.9,6258.353Zm9.481-2.168h0Z" transform="translate(-3388.765 -6207.58)" fill="#09275e"/>
    </g>
    <g id="Group_4892" data-name="Group 4892" transform="translate(89.461 223.559)">
      <path id="Path_22466" data-name="Path 22466" d="M3474.987,6202.17a104.515,104.515,0,0,0,12.2-.756c17.472-2.058,40.511-8.612,51.048-28.144,7.051-13.066,6.5-30.385-1.378-43.1a.987.987,0,0,1-.1-.812.781.781,0,0,1,.423-.491h0a94.251,94.251,0,0,1,9.657-3.243c1.862-.552,3.585-1.066,4.943-1.537,1.278-.208,1.9-.523,1.785-1.666-.094-.952-.78-1.391-2.059-1.293a1.522,1.522,0,0,0-.388.082.675.675,0,0,1-.069.024c-.214.028-.466.059-.75.1-3.442.428-10.6,1.32-13.819,2.261-4.812-18.1-12.636-39.522-31.727-45.7-4.508-1.46-9.2-1.8-13.73-2.128-11.407-.824-25.608-1.854-37.409,4.375-7.154,3.774-12.828,9.853-17.9,15.861-8.316,9.86-19.348,24.968-19.146,42.246.122,10.453,4.267,20.249,8.874,30.2,3.727,8.05,7.265,15.174,12.822,20.829C3446.694,6197.851,3459.014,6202.169,3474.987,6202.17Zm60.6-75.768a3.731,3.731,0,0,0-1.625,2.085,3.909,3.909,0,0,0,.409,3.233c7.34,11.847,7.858,27.986,1.29,40.158-9.939,18.423-32.03,24.647-48.812,26.624-21.062,2.486-36.7-1.314-46.487-11.285-5.227-5.319-8.642-12.207-12.253-20-4.467-9.648-8.487-19.128-8.6-29-.191-16.3,10.441-30.819,18.456-40.321,4.875-5.78,10.311-11.618,17.022-15.157,11.056-5.836,24.216-4.881,35.827-4.045,4.36.316,8.869.643,13.041,1.993,17.734,5.743,25.168,26.282,29.661,43.532a3.084,3.084,0,0,0,1.465,1.928A3.034,3.034,0,0,0,3535.583,6126.4Z" transform="translate(-3416.569 -6075.141)" fill="#09275e"/>
    </g>
    <g id="Group_4893" data-name="Group 4893" transform="translate(184.54 277.978)">
      <path id="Path_22467" data-name="Path 22467" d="M3446.6,6138.011a1.457,1.457,0,0,0,.684-.17l10.432-5.52a1.466,1.466,0,1,0-1.372-2.591l-10.432,5.519a1.466,1.466,0,0,0,.688,2.762Z" transform="translate(-3445.132 -6129.56)" fill="#09275e"/>
    </g>
    <g id="Group_4894" data-name="Group 4894" transform="translate(332.129 558.086)">
      <path id="Path_22468" data-name="Path 22468" d="M3284.962,6547.526a5.158,5.158,0,0,0,3.724-1.644,7.372,7.372,0,0,0,1.663-2.768l15.908-45.168c2.387-6.776,5.093-14.457,4.591-22.361-.326-5.087-1.968-9.95-3.7-14.447-6.389-16.623-16.692-32.623-32.412-50.331a2.725,2.725,0,0,0-1.235-.955,2.673,2.673,0,0,0-2.637.4c-7.3,5.735-6.2,10.394-5.126,14.9a26.806,26.806,0,0,1,.773,4.3l.154,2.035c.481,6.185.977,12.581-1.92,17.549a27.335,27.335,0,0,1-3.493,4.428,41.537,41.537,0,0,0-2.9,3.462c-3.441,4.775-4.752,10.769-5.909,16.056-1.252,5.709-2.671,12.18-1.837,18.536.965,7.384,4.831,13.914,8.241,19.675l17.546,29.653c1.749,2.953,4.748,6.249,7.924,6.643A5.277,5.277,0,0,0,3284.962,6547.526Zm-9.013-130.866c13.578,15.9,22.678,30.471,28.465,45.529,1.646,4.281,3.208,8.888,3.507,13.582.465,7.308-2.135,14.688-4.43,21.2l-15.907,45.165a4.458,4.458,0,0,1-.981,1.679,2.206,2.206,0,0,1-1.921.759c-1.989-.246-4.327-2.8-5.762-5.226l-17.546-29.652c-3.266-5.519-6.97-11.773-7.858-18.563-.766-5.847.536-11.785,1.794-17.528,1.1-5.009,2.34-10.686,5.425-14.967a37.835,37.835,0,0,1,2.7-3.212,29.921,29.921,0,0,0,3.848-4.917c3.359-5.758,2.827-12.619,2.311-19.253l-.153-2.017a28.955,28.955,0,0,0-.845-4.769c-.993-4.188-1.716-7.233,3.789-11.682a195.817,195.817,0,0,1,1.232,55.64,1.467,1.467,0,0,0,2.913.352A198.8,198.8,0,0,0,3275.948,6416.66Z" transform="translate(-3250.36 -6409.668)" fill="#09275e"/>
    </g>
  </g>
</svg>
