<svg xmlns="http://www.w3.org/2000/svg" width="419.443" height="730.439" viewBox="0 0 419.443 730.439">
  <g id="Group_4899" data-name="Group 4899" transform="translate(-6110.367 -6825.8)" opacity="0.2">
    <g id="Group_4898" data-name="Group 4898">
      <path id="Path_22470" data-name="Path 22470" d="M6274.11,7556.239a1.468,1.468,0,0,1-1.369-.937,399.586,399.586,0,0,1-18.335-62.327c-.012-.02-.02-.044-.032-.066-14.833-37.235-22.4-91.508-23.309-128.777-.068-2.769-.1-5.55-.137-8.336-.161-12.342-.321-25.042-3.445-36.851-8.038-10.079-16.683-24.411-24.243-39.577q-1.959-2.217-3.923-4.4-2.091-2.342-4.163-4.676c-16.274-18.441-38.441-46.908-43.057-81.061-1.646-12.162-1.062-24.79-.5-37,.885-19.134,1.721-37.206-5.172-53.947-2.525-6.136-6.088-11.9-9.533-17.464-1.334-2.162-2.668-4.321-3.954-6.509-27.963-47.658-30.124-110.67-5.507-160.532a2.514,2.514,0,0,1,2.678-1.392,2.559,2.559,0,0,1,2.113,2.23c6.472,50.063,16.288,106.664,51.017,144.73,2.265,2.481,4.673,4.924,7,7.287,5.089,5.16,10.355,10.5,14.567,16.688,11.051,16.234,15.271,38.733,12.548,66.87-.936,9.641-2.528,19.34-4.069,28.718-2.1,12.809-4.275,26.056-4.771,39.205-.538,14.264,1.292,33.3,5.186,51.931,5.126,12.608,10.238,25.428,13.811,37.461.733-41.671,2.778-97.536,10.226-141.829,1.4-8.333,3.917-20.463,9.55-29.563a8.762,8.762,0,0,1,9.745-4.038,9.221,9.221,0,0,1,6.9,8.708,6.367,6.367,0,0,0,4.049,5.968,5.629,5.629,0,0,0,6.194-1.529c.756-.8,1.512-1.65,2.274-2.5,3.51-3.926,7.127-7.972,11.771-9.378a22.878,22.878,0,0,1-9.81-21.07c.2-2.114.453-4.23.7-6.343,1.228-10.426,2.391-20.271-1.959-28.876a22.662,22.662,0,0,0-12.668-10.945,19.087,19.087,0,0,1-11.458-11.474,20.263,20.263,0,0,1,1.321-17.163c5-8.786,13.037-17.169,23.017-24.11q-3.093.483-6.148,1.231a1.465,1.465,0,0,1-1.647-2.108c7.016-13.281,20.864-22.408,35.279-23.25a42.381,42.381,0,0,1,27.834,8.8,92.177,92.177,0,0,1-11.365-27.939l-.158-.713c-.876-3.937-1.781-8.01-4.556-10.148-5.217-4.017-10.718.977-18.524,9.055-6.91,7.151-14.725,15.262-22.35,9.188a1.47,1.47,0,0,1-.387-1.827,15.24,15.24,0,0,0-.744-14.842,59.549,59.549,0,0,1-49.712,5.9c-3.207-1.07-7.665-2.99-9.34-7.3-1.034-2.656-.851-5.856.561-9.784,2.422-6.72,6.755-12.967,10.944-19.008.338-.485.673-.971,1.008-1.454-6.211-7.182-9.292-17.109-7.519-26.241.988-5.074,4.561-9.866,8.5-11.392a7.375,7.375,0,0,1,7.383,1.036,10.141,10.141,0,0,1,3.256,4.356c4.759,11.657-1.109,22.016-7.878,31.97a27.186,27.186,0,0,0,6.389,4.712c9.9,5.224,22.945,4.239,33.237-2.514,2.411-1.583,4.787-3.508,7.087-5.372,5.693-4.611,11.577-9.38,18.937-9.9,6.5-.472,12.488,2.609,17,5.336a87.12,87.12,0,0,1,21.818,18.965c.026-2.216.115-4.492.286-6.805-2.11-3.157-5.18-5.854-8.359-8.649-4.364-3.834-8.874-7.8-11.193-13.293-3.92-9.29-.358-19,3.087-28.382a90.754,90.754,0,0,0,4.138-13.317,79,79,0,0,0,1.016-8.228,66.431,66.431,0,0,1,1.489-10.442c2.509-9.924,9.814-17.483,18.172-18.812a16.906,16.906,0,0,1,13.562,4.222,15.327,15.327,0,0,1,5.458,11.87,11.6,11.6,0,0,1-.132,1.436c.682.369,1.372.753,2.071,1.141,6.082,3.382,12.373,6.884,17.278,3.509,2.695-1.85,3.981-5.223,5.344-8.795.492-1.293.988-2.585,1.549-3.809,5.229-11.433,18.544-18.149,30.3-15.3,11.726,2.845,20.893,14.989,20.861,27.645-.014,6.421-2.1,12.5-4.109,18.371-1.727,5.032-3.511,10.237-3.9,15.51a68.217,68.217,0,0,0,.518,11.667q.111,1.1.22,2.2c1.1.065,2.177.141,3.239.214l11.543.809a18.9,18.9,0,0,0,14.223-5.068,21.4,21.4,0,0,0,6.773-15.455c.088-6.636,2.456-10.439,6.5-10.439h.023a6.581,6.581,0,0,1,5.295,2.907c9.57,13.643,13.152,32.962,10.36,55.869a182.176,182.176,0,0,1-3.837,20.784,13.144,13.144,0,0,1,6.9-1.558c5.907.444,10.123,5.557,13.61,10.314l17.333,23.659a20.457,20.457,0,0,1,3.285,17.153,19.119,19.119,0,0,1-10.194,12.728,41.532,41.532,0,0,1-19.252,4.134c-3-.1-6.157-.489-9.209-.862-9.438-1.159-18.355-2.254-24.1,4.066a28.734,28.734,0,0,0-4.218,6.993c-.768,1.579-1.558,3.213-2.5,4.746-5.661,9.179-15.243,13.025-25.42,13.668q4.391,2.776,8.531,5.93c10.3,7.85,16.113,15.475,18.3,23.992,1.268,4.94,1.228,10.071,1.188,15.034a67.544,67.544,0,0,0,.636,12.19,64.757,64.757,0,0,0,4.046,12.562,86.591,86.591,0,0,1,3.594,10.286c2.145,8.322,1.088,18.834-6.108,23.561-3.145,2.065-6.9,2.6-10.163,2.936a123.811,123.811,0,0,1-37.212-1.8c-8.865-1.789-14.017-5.52-15.314-11.09-.83-3.568.186-7.13,1.171-10.572,1.042-3.651,2.028-7.1.6-10.011a13.706,13.706,0,0,0-1.987-2.752,14.718,14.718,0,0,1-2.577-3.777,8.708,8.708,0,0,1,.163-7.1c2.062-4.6,7.15-7.723,10.882-9l1.792-.6c5.5-1.818,11.182-3.7,12.734-8.733,2.111-6.853-4.576-11.431-11.654-16.278a75.362,75.362,0,0,1-7.666-5.726,49.4,49.4,0,0,1-6.039-6.971c-.106-.139-.212-.276-.315-.414a38.637,38.637,0,0,1-1.068,4.642,61.23,61.23,0,0,1-3.1,8.068,32,32,0,0,1,.1,9.783c-5.315,40.325-42.309,72.855-81.03,70.956-4.393-.209-9.974-.91-14.172-4.478a28.487,28.487,0,0,1-5.338-6.827,41.9,41.9,0,0,0-2.952-4.3c-.068-.083-.14-.166-.212-.249-.283.017-.57.051-.859.1-4.384.722-8.058,4.828-11.609,8.8-.778.87-1.549,1.735-2.322,2.557a8.583,8.583,0,0,1-9.344,2.271,9.136,9.136,0,0,1-5.95-8.31,6.444,6.444,0,0,0-4.714-6.277,5.784,5.784,0,0,0-6.52,2.74c-5.361,8.66-7.789,20.417-9.149,28.507-8.064,47.947-9.77,109.625-10.349,151.925,3.245,12.176,3.408,25.111,3.568,37.676.037,2.775.072,5.544.141,8.3.767,31.4,6.279,74.933,16.915,109.943a403.8,403.8,0,0,1-5.092-61.36c-.1-17.671,1.005-38.071,9.965-55.39,4.791-9.258,11.595-17.153,18.175-24.787a197.73,197.73,0,0,0,12.479-15.5c8.812-12.588,14.745-27.447,20.483-41.816,6.329-15.847,12.872-32.232,23.33-45.8,13.482-17.485,31.871-28.793,52.766-40.737a2.474,2.474,0,0,1,2.758.183,2.633,2.633,0,0,1,.951,2.735,795.717,795.717,0,0,1-45.319,131.21c-2.651,5.937-5.194,11.168-9.45,15.083-4.925,4.53-11.354,6.483-17.573,8.373-7.082,2.153-13.768,4.186-18.026,9.736-4.636,6.042-4.768,14.034-4.911,22.5-.115,6.861-.232,13.954-2.878,20.231-2.113,5.014-5.661,9.054-9.092,12.96-1.036,1.18-2.073,2.36-3.067,3.562a75.826,75.826,0,0,0-11.9,20.174l-7.276,56.839a396.23,396.23,0,0,0,18.241,62.047,1.472,1.472,0,0,1-.839,1.9A1.507,1.507,0,0,1,6274.11,7556.239Zm109.574-364.627c-20.288,11.617-38.128,22.691-51.106,39.531-10.211,13.241-16.677,29.434-22.931,45.095-5.8,14.524-11.8,29.543-20.807,42.412a200.613,200.613,0,0,1-12.659,15.73c-6.469,7.5-13.158,15.265-17.789,24.217-8.668,16.754-9.736,36.713-9.639,54.026a402.036,402.036,0,0,0,6.7,70.455l2.4-18.753a2.5,2.5,0,0,1-3.92-1.561c-6.549-32.226-.622-66.414,16.259-93.8a1.467,1.467,0,0,1,2.7.956l-7.159,55.914a77.44,77.44,0,0,1,8.416-12.52c1.014-1.225,2.07-2.428,3.124-3.631,3.428-3.9,6.667-7.588,8.594-12.164,2.425-5.753,2.54-12.56,2.652-19.14.14-8.565.289-17.422,5.515-24.234,4.828-6.3,12.287-8.562,19.5-10.756,5.9-1.792,12.009-3.648,16.439-7.726,3.846-3.536,6.243-8.487,8.763-14.12A792.916,792.916,0,0,0,6383.684,7191.612Zm-114.631,185.217a128.29,128.29,0,0,0-12.914,81.82,83.118,83.118,0,0,1,5.515-24.028Zm-57.022-87.009c2.8,5.046,5.667,9.874,8.542,14.338q-.936-2.388-1.818-4.874A113.44,113.44,0,0,0,6212.031,7289.82Zm-6.365-12.133c3.43,3.886,6.818,7.855,9.967,12-1.792-6.048-3.364-12.342-4.7-18.685q-.684-1.671-1.361-3.336c-8.175-20.073-16.631-40.828-19.707-59.221-1.517-9.072-1.864-18.458-2.2-27.539-.5-13.327-1-27.109-5.289-39.712-3.21-9.452-8.507-18.111-13.724-26.479a183.608,183.608,0,0,1,9.028,22.891c4.731,15.868,5.155,32.78,5.561,49.133.375,15.085.765,30.683,4.562,45.293C6191.314,7245.555,6197.9,7262.055,6205.666,7277.687Zm-76.182-361.427c-23.576,48.811-21.265,110.108,5.99,156.561,1.272,2.167,2.595,4.309,3.918,6.448,3.507,5.67,7.133,11.534,9.747,17.892,7.142,17.341,6.251,36.587,5.389,55.2-.558,12.082-1.136,24.575.473,36.474,4.513,33.365,26.33,61.36,42.352,79.514q.669.76,1.343,1.515c-5.939-12.963-10.856-26.012-13.734-37.094-3.877-14.939-4.272-30.709-4.653-45.96-.4-16.162-.819-32.874-5.441-48.368-2.637-8.849-6.712-17.766-10.649-26.385a228.819,228.819,0,0,1-9.811-23.785c-4.043-10.7-6.222-23.283-1.867-35.029a1.466,1.466,0,0,1,2.781.927c-3.245,10.926-1.859,21.623,1.589,32.421a90.677,90.677,0,0,0,5.526,12.056c2.5,4.579,5.327,9.1,8.058,13.479,5.51,8.831,11.206,17.96,14.659,28.123,4.418,13.009,4.94,27.009,5.441,40.548.335,8.985.678,18.277,2.165,27.166,2.531,15.139,8.834,32.06,15.586,48.869a212.158,212.158,0,0,1-2.755-38.83c.5-13.335,2.692-26.67,4.811-39.571,1.532-9.332,3.115-18.982,4.04-28.524,2.658-27.438-1.4-49.287-12.049-64.939-4.067-5.974-9.236-11.211-14.232-16.279-2.351-2.383-4.78-4.847-7.082-7.37C6146.072,7022.946,6136.018,6966.453,6129.484,6916.26ZM6399.336,7054c.75.926,1.472,1.876,2.191,2.815a47.062,47.062,0,0,0,5.664,6.567,73.453,73.453,0,0,0,7.362,5.488c7.288,4.99,15.549,10.645,12.8,19.563-2,6.477-8.7,8.7-14.616,10.655l-1.761.587c-3.427,1.171-7.588,3.923-9.158,7.425a5.766,5.766,0,0,0-.134,4.762,12.35,12.35,0,0,0,2.1,3.018,16.1,16.1,0,0,1,2.391,3.362c1.918,3.926.73,8.084-.421,12.1-.922,3.227-1.793,6.274-1.131,9.1,1.011,4.35,5.4,7.34,13.035,8.88a121.18,121.18,0,0,0,36.329,1.759c3.061-.318,6.263-.768,8.857-2.472,5.954-3.908,6.7-13.3,4.877-20.377a83.759,83.759,0,0,0-3.476-9.933,67.949,67.949,0,0,1-4.21-13.138,69.9,69.9,0,0,1-.681-12.723c.04-4.994.077-9.713-1.1-14.283-2.016-7.844-7.491-14.958-17.236-22.389a116.884,116.884,0,0,0-12.342-8.214,65.545,65.545,0,0,1-17.6-3.33c-4.1-1.371-8.241-3-12.244-4.582q-1.934-.762-3.88-1.522a20.556,20.556,0,0,1,2.227,3.833c2.016.693,4.032,1.406,6.022,2.145,20.661,7.69,34.145,17.9,41.218,31.207a41.863,41.863,0,0,1,2.632,31.653c-2.574,7.852-7.339,13.642-13.785,16.746a1.465,1.465,0,0,1-1.93-2.007L6443,7098.733a1.466,1.466,0,0,1,2.68.209,38.838,38.838,0,0,0-3.848-23.258c-6.724-12.646-19.693-22.4-39.655-29.832-1.237-.461-2.491-.914-3.748-1.356A30.786,30.786,0,0,1,6399.336,7054Zm-104.053,82.477c.51.759.994,1.529,1.469,2.285a25.819,25.819,0,0,0,4.756,6.154c3.523,3,8.485,3.6,12.414,3.786.326.014.656.028.982.037-.151-.037-.3-.08-.455-.123-4.109-1.172-7.6-3.986-10.979-6.707C6300.718,7139.693,6298.064,7137.554,6295.283,7136.477ZM6392.2,7076c-.673,1.3-1.36,2.589-2.039,3.866-1.414,2.651-2.878,5.395-4.169,8.141-.908,1.93-1.767,3.923-2.629,5.922-3.531,8.175-7.182,16.631-14.383,21.7a44.218,44.218,0,0,1-8.145,4.21,51.253,51.253,0,0,0-6.291,3.053c-4.762,2.866-9.12,7.473-13.338,11.929-5.335,5.638-10.793,11.405-17.13,13.556,33.28-3.688,63.173-32.773,67.826-68.089A34,34,0,0,0,6392.2,7076Zm-99.846,56.839c4.879.277,8.977,3.579,12.958,6.789,3.149,2.537,6.408,5.163,9.942,6.171,9.111,2.586,16.242-4.98,23.825-12.992,4.349-4.6,8.851-9.352,13.953-12.428a54.916,54.916,0,0,1,6.641-3.23,41.331,41.331,0,0,0,7.617-3.917c6.526-4.593,10.011-12.663,13.381-20.466.874-2.027,1.747-4.049,2.669-6.008,1.32-2.812,2.8-5.589,4.233-8.273,1.38-2.588,2.78-5.22,4.054-7.913a9.284,9.284,0,0,0-4.1-6.151,16.055,16.055,0,0,0-3.554-1.317c-2.2-.628-4.464-1.28-6.145-3.211-2.248-2.591-2.205-5.925.109-8.922,2.835-3.669,8.822-6.185,13.533-3.851a19.384,19.384,0,0,1,4.965,3.635,24.322,24.322,0,0,0-1.443-7.449c-2-.681-4-1.343-5.962-2-9.066-3.01-18.372-6.1-27.063-10.553a1.462,1.462,0,0,1-1.126-.584q-1.765-.936-3.493-1.954a136.241,136.241,0,0,1-5.384,64.519,1.556,1.556,0,0,1-1.411,1,1.468,1.468,0,0,1-1.381-1.045,99.146,99.146,0,0,1,2.7-63.976q-3.935,1.7-7.737,3.691c-7.414,5.607-13.679,14.207-17.7,24.652-5.446,14.149-6.683,29.668-7.878,44.676a1.466,1.466,0,0,1-2.474.942c-8.9-8.5-11.906-23.9-7.319-37.45,3.763-11.109,12.156-21.34,24.274-29.589a100.888,100.888,0,0,1,9.57-5.741,40.139,40.139,0,0,1,8.918-5.077,20.751,20.751,0,0,1-2.211-1.731c-2.887-2.6-4.905-5.958-6.855-9.205-.814-1.356-1.63-2.713-2.506-4.012-7.806-11.547-21.557-18.509-34.921-17.714-12.362.723-24.286,8.012-31.2,18.852a77,77,0,0,1,9.109-1.245c.372-.225.75-.448,1.128-.669,7.589-4.423,17.617-9.322,27.931-7.959,9.937,1.314,19.9,10.207,18.885,21.351a1.465,1.465,0,0,1-2.222,1.118,76.536,76.536,0,0,0-44.809-10.968c-11.852,7.231-21.379,16.51-26.943,26.283a17.35,17.35,0,0,0-1.122,14.686,16.172,16.172,0,0,0,9.684,9.733,25.606,25.606,0,0,1,14.312,12.388c4.748,9.392,3.479,20.145,2.254,30.543-.247,2.09-.493,4.186-.693,6.279a19.943,19.943,0,0,0,8.917,18.619A14.675,14.675,0,0,1,6292.351,7132.838Zm153.1-32.462-8.866,16.7a26.63,26.63,0,0,0,7.683-12.027A35.743,35.743,0,0,0,6445.451,7100.376Zm-112.183-61.331c-7.86,5.6-17.5,14.616-21.734,27.12-3.823,11.291-1.993,23.917,4.364,31.964,1.148-14.158,2.606-28.65,7.792-42.125A64.549,64.549,0,0,1,6333.268,7039.045Zm21.345-9.3a96.314,96.314,0,0,0-3.932,57.306A133.429,133.429,0,0,0,6354.613,7029.743Zm32.848,19.4a9.676,9.676,0,0,0-7.208,3.62c-.83,1.077-1.967,3.185-.212,5.206,1.109,1.275,2.87,1.781,4.737,2.315a18.413,18.413,0,0,1,4.206,1.594,10.864,10.864,0,0,1,4.367,4.777c.621-1.535,1.177-3.089,1.647-4.669a35.9,35.9,0,0,0,1.34-7.017,19.766,19.766,0,0,0-6.171-5.221A6.031,6.031,0,0,0,6387.461,7049.143Zm42.077-5.475c10.933.311,21.757-2.8,27.656-12.363.867-1.406,1.626-2.973,2.36-4.486a31.417,31.417,0,0,1,4.687-7.687c6.775-7.443,16.866-6.2,26.634-5,2.989.366,6.079.746,8.948.843a38.785,38.785,0,0,0,17.889-3.85,16.186,16.186,0,0,0,8.616-10.8,17.539,17.539,0,0,0-2.806-14.706l-17.333-23.658c-3.241-4.424-6.8-8.773-11.463-9.124-2.772-.209-5.4,1.081-7.683,2.636-3.705,14.214-8.69,28.033-13.57,41.558-2.832,7.85-6.374,11.524-11.531,15.215a4.2,4.2,0,0,1-4.393.346,4.545,4.545,0,0,1-2.471-4.024c-.315-20.606,9.077-38.684,27.911-53.732.472-.375.965-.759,1.483-1.137a184.127,184.127,0,0,0,4.5-23.366c1.885-15.463,1.7-37.355-9.85-53.831a3.662,3.662,0,0,0-2.907-1.658h-.008c-3.133,0-3.543,5.275-3.571,7.545a24.35,24.35,0,0,1-7.717,17.574,21.742,21.742,0,0,1-16.417,5.836l-11.543-.807c-.914-.064-1.844-.13-2.784-.189.37,5.363.195,10.712-2.256,15.576-3.957,7.855-11.964,11.3-20.52,13.884.369.382.739.76,1.108,1.138l.507.517c6.772,6.94,15.956,17.7,17.508,30.928a28.865,28.865,0,0,1-6.017,20.958,18.042,18.042,0,0,1-12.51,7.023c-3.921.331-7.672-.717-11.3-1.728-1.718-.478-3.5-.974-5.226-1.3a25.446,25.446,0,0,0-5.784-.4q-2.685,12.235-16.05,24.126a49.23,49.23,0,0,0,5.143,1.45c8.642-2.073,17.25-3.675,25.471-5.2,7.749-1.439,16.528-3.073,24.9-.9,7.717,2,16.377,8.649,17.147,18.518a1.465,1.465,0,0,1-2.348,1.282c-11.185-8.5-25.179-8.635-39.992-8.773-8.419-.079-17.018-.157-25.156-1.907-6.034,1.465-12.07,3.167-17.986,5.242-.155.1-.307.2-.464.3a76.343,76.343,0,0,0,10.81,1.747c1.145.13,2.3.264,3.45.41A122.655,122.655,0,0,1,6429.538,7043.668Zm-38.252-11.063c2.9,1.055,5.773,2.189,8.626,3.313,3.968,1.565,8.072,3.184,12.1,4.53a64.954,64.954,0,0,0,9.833,2.448A120.553,120.553,0,0,0,6391.286,7032.6Zm-23.031-2.092c7.061,3.154,14.455,5.61,21.694,8.014q1.564.518,3.144,1.046a16.4,16.4,0,0,0-1.864-2.329,17.136,17.136,0,0,0-3.479-2.779,68.6,68.6,0,0,0-17.705-3.958C6369.452,7030.5,6368.851,7030.507,6368.255,7030.513Zm18.246-12.285c5.745.623,11.658.678,17.48.732,13.444.125,27.309.255,38.743,7.314-2.084-6.6-8.5-11.065-14.312-12.571-7.743-2-16.179-.439-23.624.948C6398.849,7015.754,6392.71,7016.9,6386.5,7018.228Zm-30.848,5.6c.022.006.045.01.068.017a34.046,34.046,0,0,1,1.784-9.939,1.467,1.467,0,0,1-.81-.255,46.946,46.946,0,0,1-7.984-6.907,75.9,75.9,0,0,1,.788,7.922,1.464,1.464,0,0,1-2.348,1.237,25.174,25.174,0,0,0,4.12,5.006A18.508,18.508,0,0,0,6355.653,7023.828Zm5.678-11.709a31.887,31.887,0,0,0-2.632,10.743l.816-.291q4.644-3.073,8.522-6.165-1.229-.584-2.425-1.256A21.8,21.8,0,0,1,6361.331,7012.119Zm-72.047-2.581a79.606,79.606,0,0,1,38.675,10.263c-.7-8.216-8.682-14.744-16.354-15.759C6303.731,7003,6295.853,7006.063,6289.284,7009.538Zm81.792,8.174q-1.173.966-2.414,1.928,2.186-.636,4.381-1.22Q6372.05,7018.087,6371.076,7017.712Zm-8.379-8.381a17.243,17.243,0,0,0,4.347,3.262,38.707,38.707,0,0,0,3.508,1.734q13.091-11.22,16.033-22.615a32.123,32.123,0,0,0-15.761,7.6A36.238,36.238,0,0,0,6362.7,7009.331Zm-49.9-54.473a9,9,0,0,1,5.6,2.046c3.616,2.788,4.684,7.594,5.627,11.834l.16.709a88.478,88.478,0,0,0,22.1,41.475,73.931,73.931,0,0,0-1.446-8.913,55.028,55.028,0,0,1-8.76-45.245c.224-.858.467-1.716.722-2.576q-.018-.393-.043-.773c-.2-2.639-.372-5.528-.447-8.589a85.3,85.3,0,0,0-23.369-21.176c-4.141-2.5-9.65-5.3-15.277-4.921-6.438.458-11.712,4.73-17.3,9.255-2.357,1.91-4.794,3.883-7.325,5.545-11.171,7.334-25.391,8.377-36.215,2.655a29.894,29.894,0,0,1-6.7-4.86q-.331.477-.662.952c-4.083,5.886-8.3,11.973-10.595,18.33-1.162,3.231-1.354,5.76-.59,7.728.937,2.406,3.331,4.18,7.537,5.583a56.6,56.6,0,0,0,48.363-6.318,1.462,1.462,0,0,1,1.938.307,17.981,17.981,0,0,1,2.383,17.919c4.882,2.835,10.162-2.013,17.47-9.579C6301.208,6960.827,6306.972,6954.858,6312.8,6954.858Zm170.407,3.584c-17.244,14.345-25.491,30.744-25.2,50.079a1.607,1.607,0,0,0,.859,1.452,1.281,1.281,0,0,0,1.366-.113c4.8-3.435,7.892-6.657,10.478-13.826C6475.143,6983.763,6479.655,6971.245,6483.206,6958.442Zm-135.686,42.145a45.2,45.2,0,0,0,8.754,9.128c1.38-20.541-4.482-41.481-15.521-58.58-.234.835-.483,1.664-.73,2.488-.094.319-.189.637-.283.956,0,.352,0,.708-.009,1.071a106.305,106.305,0,0,0,5.69,37.635Q6346.65,6996.9,6347.52,7000.587Zm11.7,9.029c0,.029-.005.059-.005.088.008-.019.017-.038.026-.055C6359.235,7009.638,6359.226,7009.628,6359.22,7009.616ZM6381.4,6889.38c-5.59,0-10.922,2.288-15.524,6.684-8.7,8.314-14.126,23.392-13.5,37.521.413,9.153,2.323,18.385,4.172,27.312,2.483,11.98,5.049,24.368,4.064,36.837l-.092,1.1c-.226,2.653-.464,5.4.4,7.7a39.256,39.256,0,0,1,7.981-9.437,34.764,34.764,0,0,1,18.272-8.423,25.464,25.464,0,0,0-.281-8.539,54.019,54.019,0,0,0-3.674-10.377c-2.5-5.783-5.077-11.763-3.908-18.2,2.187-12.049,14.025-15.307,25.477-18.457l1.3-.356a19.378,19.378,0,0,1-3.966-7.566c-2.133-8.752,4.249-17.449,11.649-20.8,5.5-2.492,11.5-2.846,17.193-2.658-.058-.586-.115-1.174-.175-1.764a70.361,70.361,0,0,1-.53-12.182c.421-5.65,2.265-11.034,4.052-16.243,2.025-5.909,3.937-11.49,3.952-17.426.026-11.361-8.153-22.25-18.622-24.79-10.432-2.533-22.273,3.468-26.94,13.67-.536,1.167-1,2.4-1.475,3.633-1.463,3.834-2.975,7.8-6.423,10.167-6.414,4.4-13.822.273-20.363-3.363-.5-.275-.987-.549-1.477-.816a14.448,14.448,0,0,1-8.124,7.535c-4.424,1.644-8.771.783-11.6-2.311a1.458,1.458,0,0,1-.378-.847,7.787,7.787,0,0,1,3.565-7.5c3.657-2.45,9.673-2.815,14.561-1.067,0-.073.006-.146.009-.221a12.422,12.422,0,0,0-4.462-9.58,13.914,13.914,0,0,0-11.168-3.529c-8.332,1.326-13.934,9.311-15.789,16.636a63.353,63.353,0,0,0-1.409,9.981,81.491,81.491,0,0,1-1.062,8.535,92.275,92.275,0,0,1-4.261,13.763c-3.4,9.259-6.607,18.006-3.136,26.232,2.056,4.873,6.311,8.613,10.426,12.23a69.158,69.158,0,0,1,6.838,6.587,64.5,64.5,0,0,1,6.945-23.153c7.35-13.5,23.85-24.847,39.972-19.264a1.466,1.466,0,0,1-.613,2.846Q6382.335,6889.381,6381.4,6889.38Zm9.415,99.059a27.989,27.989,0,0,1,5.191.48c1.856.348,3.694.859,5.473,1.352,3.542.987,6.889,1.912,10.274,1.634a15.362,15.362,0,0,0,10.483-5.959,25.8,25.8,0,0,0,5.372-18.76c-1.443-12.342-10.22-22.588-16.691-29.221l-.5-.514c-.73-.748-1.466-1.5-2.185-2.27q-1.327.374-2.657.736c-11.062,3.044-21.511,5.918-23.367,16.153-1.011,5.569,1.283,10.886,3.714,16.516a56.188,56.188,0,0,1,3.857,10.959,28.469,28.469,0,0,1,.4,8.9C6390.39,6988.44,6390.6,6988.439,6390.817,6988.439Zm-53.348-17.091a53.967,53.967,0,0,0,2.964,15.59A109.5,109.5,0,0,1,6337.469,6971.348Zm4.238-24.045a102.272,102.272,0,0,1,15.913,38.115,196.724,196.724,0,0,0-3.935-23.925c-1.873-9.042-3.811-18.39-4.229-27.776-.67-14.925,5.117-30.91,14.4-39.774a28.1,28.1,0,0,1,8.235-5.561c-10.546,1.459-20.468,9.493-25.591,18.9-4.293,7.888-6.217,16.782-6.936,25.276a18.515,18.515,0,0,1,2.463,6.506A22.282,22.282,0,0,1,6341.707,6947.3Zm-2.486-3.47.046.062a17.035,17.035,0,0,0-.057-3.841C6339.193,6941.335,6339.2,6942.6,6339.221,6943.833Zm89.309-39.233a32.617,32.617,0,0,0-13.545,2.438c-6.311,2.858-11.78,10.162-10.011,17.436a18.084,18.084,0,0,0,4.213,7.384c8.458-2.46,16.479-5.581,20.119-12.8,2.2-4.358,2.308-9.235,1.924-14.405C6430.334,6904.62,6429.432,6904.6,6428.53,6904.6Zm-196.669-10.694a4.842,4.842,0,0,0-1.755.347c-3.015,1.168-5.887,5.13-6.681,9.216-1.56,8.023,1.037,16.732,6.349,23.186,6.36-9.407,11.322-18.529,7.2-28.638a7.2,7.2,0,0,0-2.294-3.109A4.657,4.657,0,0,0,6231.861,6893.906Zm113.892-37.713c2.008,1.887,4.983,2.334,8.073,1.187a11.58,11.58,0,0,0,6.5-6.1c-4.075-1.576-9.3-1.366-12.265.623A4.816,4.816,0,0,0,6345.753,6856.193Z" fill="#2563eb"/>
    </g>
  </g>
</svg>
