<svg xmlns="http://www.w3.org/2000/svg" width="210.208" height="406.14" viewBox="0 0 210.208 406.14">
  <path id="Intersection_15" data-name="Intersection 15" d="M-8275.71,419.534a168.97,168.97,0,0,1-19.473-4.036v-2.674a161.61,161.61,0,0,0,19.891,4.182c20.369,3.368,41.433,6.854,61.867,6.485,20.764-.389,38.149-4.911,51.692-13.441.665-.42,1.332-.856,1.992-1.3-35.2-7.173-70.116-14.26-103.825-21.078a250.346,250.346,0,0,0-31.616-4.757v-2.569a251.434,251.434,0,0,1,32.125,4.814c34.641,7,70.545,14.29,106.727,21.666l2.818.573-2.311,1.714c-1.476,1.091-3,2.138-4.544,3.109-10.64,6.7-23.549,11-38.5,12.838a140.191,140.191,0,0,1-14.509,1c-1.017.018-2.037.027-3.056.027C-8236.134,426.083-8256.236,422.759-8275.71,419.534Zm38.672-51.191c-14.169-2.212-27.5-8.315-40.4-14.213-5.8-2.656-11.732-5.37-17.742-7.725v-2.753c6.392,2.463,12.671,5.335,18.813,8.144,12.737,5.828,25.91,11.857,39.725,14.012,12.075,1.852,24.085.556,35.251-1.127,20.512-3.075,46.8-8.542,68.233-23.645h0q1.449-1.019,2.89-2.119a301.91,301.91,0,0,1-55.688-2.576c-6.572-.909-13.228-2.028-19.664-3.113-12.791-2.151-26.016-4.374-39.048-5.022a132.559,132.559,0,0,0-22.66.713,86.034,86.034,0,0,0-27.854,7.935V334c16.791-7.993,36.158-9.094,50.641-8.361,13.182.654,26.482,2.892,39.345,5.056,6.417,1.081,13.057,2.2,19.59,3.1a298.259,298.259,0,0,0,59.2,2.331l3.926-.248-3.025,2.514c-2.02,1.68-4.1,3.272-6.181,4.735-21.87,15.413-48.539,20.968-69.328,24.087-2.306.344-4.646.675-7.016.966a132.258,132.258,0,0,1-16.11,1.093A84.96,84.96,0,0,1-8237.038,368.344Zm-58.145-51.938c4.306-18.364,4.254-38.622,0-59.3v-11.03c6.448,23.729,7.538,47.249,3.049,68.448q6.561-10.549,12.984-21.42l-.824.023,1.1-.486q1.755-2.975,3.5-5.969,8.08-13.893,16-28.448l-1.705.769,2.5-2.229q5.644-10.412,11.16-21.072a21.425,21.425,0,0,0-3.535-5.047,57.828,57.828,0,0,0-8.771-7.175c-1.7-1.212-3.45-2.467-5.1-3.8a52.23,52.23,0,0,1-19.371-43.3c.353-6.51,1.916-13.035,3.428-19.343l.065-.274q2.895-12.074,5.757-24.261v0q1.085-4.612,2.167-9.258l2.139-9.2.393,9.434c.573,13.823,6.646,25.792,13.075,38.462,3.75,7.393,7.629,15.035,10.354,23.131a93.35,93.35,0,0,1,3.911,41.84q.5-.991,1-1.981c6.267-12.4,12.464-25.185,18.535-38.22a76.108,76.108,0,0,1-21.293-49.76c-.613-15.052,3.066-30.52,6.625-45.481l.172-.728c1.615-6.78,3.287-13.793,6.143-20.426a58.009,58.009,0,0,1,2.7-5.48l3.529-6.283-1.145,7.117c-.985,6.107.38,12.1,1.7,17.9l.43,1.9c6.457,28.968,6.472,60.143,6.06,90.57q3.94-8.65,7.795-17.413v0c.047-.108.1-.21.15-.308.947-40.256,12.016-83.009,32.056-123.755l4.907-9.98-2.686,11.581c-2.884,12.029-4.125,24.486-5.33,36.532-1.809,18.12-3.684,36.854-11.224,53.921-1.777,4-3.893,7.945-5.935,11.755-3.381,6.3-6.6,12.311-8.462,18.6a2.972,2.972,0,0,1,.3.113c.036.015.072.032.108.049,1.112-2.69,2.393-5.7,3.121-7.124l0,0c8.773-17.076,23.089-31.123,36.933-44.706,4.039-3.964,8.217-8.06,12.179-12.16,13.689-14.158,27.376-28.854,40.685-43.685l5.571-6.2-3.45,7.6c-3.977,8.759-8.194,17.367-12.536,25.586-14.29,27.089-28.174,46.379-43.691,60.71a133.21,133.21,0,0,1-37.727,24.654q-1.733,3.933-3.472,7.839-4.676,10.491-9.5,20.851l0,.276a160.229,160.229,0,0,1,34.472-29.862c8.872-5.682,18.358-10.449,27.535-15.056l2.24-1.127c15.587-7.856,31.2-16.025,46.4-24.28l3.661-1.99-2.455,4.777a142.652,142.652,0,0,1-9.57,16.8c-13.731,19.866-34.886,30.438-53.771,38.16-3.862,1.573-7.822,3.123-11.653,4.618-14.647,5.72-29.778,11.629-42.917,20.52q-7.812,16.329-15.876,32.077-2.522,4.924-5.083,9.81l.407-.369c17.18-15.528,34.943-31.584,55.228-43.948,29.69-18.12,63.508-27.161,96.214-35.907l6.115-1.637-2.011,2.881q-1.815,2.608-3.684,5.175c-26.3,36.2-56.039,59.092-88.381,68.037-9.57,2.646-19.6,4.2-29.3,5.707-13.307,2.064-27.033,4.194-39.408,9.181-6.236,11.663-12.6,23.112-19.038,34.241,53.325-22.781,108.455-31.472,159.729-25.136l2.476.306-1.69,1.835c-1.836,2-3.771,3.951-5.741,5.809a114.8,114.8,0,0,1-64.808,30.206,116.95,116.95,0,0,1-21.851.628c-10.5-.69-21.114-2.656-31.374-4.559-12.937-2.4-26.3-4.873-39.283-4.714q-1.153,1.971-2.309,3.928c-6.763,11.464-13.712,22.754-20.778,33.765Zm19.061-23.385q-8.854,15.039-18.006,29.5-.464,1.608-.972,3.2,9.417-14.807,18.487-30.179.751-1.274,1.5-2.552Zm97.887-26.871a333.686,333.686,0,0,0-89.143,24.259c11.7.382,23.53,2.573,35.032,4.705,10.186,1.888,20.722,3.839,31.075,4.521a113.033,113.033,0,0,0,84.73-30.143c1.316-1.24,2.616-2.525,3.879-3.837a268.414,268.414,0,0,0-30.279-1.694A289.667,289.667,0,0,0-8178.235,266.151Zm-77.285-9.665q-8.7,16.094-17.643,31.476-.844,1.452-1.69,2.9l.82-.363.516-.227c6.491-11.145,12.916-22.624,19.214-34.332Zm2.544-4.735q.876-.784,1.752-1.571,2.793-5.265,5.552-10.58l-.411-.928Q-8249.5,245.254-8252.976,251.75Zm64.255-48.694c-20.078,12.239-37.752,28.215-54.843,43.664l-4.217,3.809c11.623-4.115,24.125-6.054,36.279-7.941,9.634-1.493,19.59-3.036,29.015-5.644,31.769-8.788,61.037-31.357,86.99-67.073v0q.815-1.118,1.618-2.244C-8126.19,176.265-8159.554,185.259-8188.72,203.057Zm-41.553,4.109q-4.646,9.577-9.355,18.9-2.43,4.812-4.894,9.589c-.045.187-.087.374-.132.558l-.64,2.654q1.2-2.328,2.4-4.665,7.022-13.708,13.882-27.926Zm-42.187-74.1q-2.87,12.192-5.761,24.269l-.066.274c-1.483,6.2-3.017,12.61-3.36,18.887a49.664,49.664,0,0,0,18.419,41.169c1.595,1.289,3.319,2.52,4.988,3.714a59.81,59.81,0,0,1,9.151,7.506,24.724,24.724,0,0,1,2.671,3.408,91.021,91.021,0,0,0-2.843-46.424c-2.667-7.92-6.5-15.479-10.211-22.789-5.162-10.173-10.469-20.63-12.518-32.03C-8272.147,131.726-8272.307,132.4-8272.461,133.07Zm44.243,69.838.318-.448q1.033-1.449,2.1-2.879,2.476-5.2,4.916-10.445c-.189-.176-.376-.352-.562-.531Q-8224.807,195.81-8228.218,202.908Zm74.94-55.92-2.242,1.125c-9.115,4.582-18.543,9.317-27.3,14.927a157.775,157.775,0,0,0-38.67,35.132c12.2-7.417,25.66-12.676,38.742-17.785,3.822-1.493,7.773-3.034,11.619-4.6,18.532-7.578,39.279-17.929,52.628-37.243a124.277,124.277,0,0,0,8.073-13.908C-8124.507,132.233-8138.9,139.744-8153.278,146.988Zm-65.671,44.069c.021-.023.04-.047.062-.07l-.021-.019C-8218.922,191-8218.935,191.028-8218.949,191.058Zm-16.435-99.74-.177.726c-3.516,14.793-7.155,30.085-6.553,44.783a73.54,73.54,0,0,0,19.888,47.371l1.108-2.4c.467-32.107.888-65.266-5.914-95.791l-.429-1.888a71.273,71.273,0,0,1-2.062-12.483C-8232.205,77.974-8233.821,84.754-8235.384,91.317Zm16.825,91.058c0,.087,0,.172,0,.259l-.021,1.537q3.573-7.759,7.072-15.6,1.456-3.274,2.911-6.574l-.724-.1Q-8213.883,172.216-8218.559,182.375Zm9.978-22.161.188-.079-.146-.017C-8208.552,160.151-8208.566,160.183-8208.581,160.214Zm.611-.259.023-.008c.055-.14.112-.28.174-.427a.436.436,0,0,0-.085-.068C-8207.9,159.62-8207.934,159.788-8207.97,159.955Zm3.4-1.482a130.922,130.922,0,0,0,34.858-23.233c15.3-14.126,29.015-33.2,43.165-60.026,3.036-5.748,6.011-11.689,8.886-17.74-11.521,12.7-23.282,25.267-35.047,37.432-3.981,4.121-8.172,8.234-12.224,12.207-13.7,13.441-27.864,27.34-36.449,44.048l0,0C-8201.97,152.309-8203.1,154.91-8204.572,158.473Zm-3.079-7.85A148.4,148.4,0,0,1-8201,137.138c2.02-3.771,4.111-7.665,5.848-11.581,7.375-16.691,9.146-34.4,11.018-53.138.888-8.886,1.8-17.993,3.37-27.026C-8196.544,80.221-8205.749,116.23-8207.651,150.623Z" transform="translate(8296.741 -20.442)" fill="#e8b042" stroke="rgba(0,0,0,0)" stroke-miterlimit="10" stroke-width="1"/>
</svg>
