<svg xmlns="http://www.w3.org/2000/svg" width="280" height="621.068" viewBox="0 0 280 621.068">
  <g id="Group_4918" data-name="Group 4918" transform="translate(-5312.612 -7697.835)" opacity="0.5">
    <g id="Group_4917" data-name="Group 4917" transform="translate(5312.612 7697.835)">
      <path id="Path_22485" data-name="Path 22485" d="M5430.108,8318.9a3.506,3.506,0,0,1-2.2-.715,1.2,1.2,0,0,1-.464-.948,176.848,176.848,0,0,1,1.612-21.288,172.323,172.323,0,0,0,1.516-18.69c.109-10.1-.593-19.488-1.339-29.429-.259-3.458-.52-6.933-.744-10.455-.457-7.168-2.372-12.774-4.4-18.713-1.8-5.277-3.663-10.734-4.389-17.329-1.443-13.082-2.61-28.385-.3-42.691a144.593,144.593,0,0,0,1.861-17.145c-3.351-3.6-1.91-8.422-.607-12.769.065-.225.134-.449.2-.674a86.677,86.677,0,0,0-2.908-14.776c-.558-.593-1.134-1.151-1.731-1.681a43.153,43.153,0,0,1,1.148,6.529,64.5,64.5,0,0,1,.065,8.314c-.162,4.484-.314,8.719,1.092,12.813a1.8,1.8,0,0,1-.775,2.153,1.749,1.749,0,0,1-2.182-.316c-2.882-3.109-6.54-8.466-10.413-14.136-4.993-7.309-10.472-15.328-15.52-20.506a34.586,34.586,0,0,0-12,6.18,87.706,87.706,0,0,0,8.651,7.587,82.784,82.784,0,0,1,10.127,9.111c9.453,10.547,5.926,14.584-1.8,23.429l-.546.629a61.57,61.57,0,0,0-6.411,9.417c-2.622,4.431-5.333,9.012-9.8,12.579a1.211,1.211,0,0,1-1.442.044c-12.126-8.532-15.582-34.167-12-47.283a14.036,14.036,0,0,0,4.279-24.74q-.4-.987-.761-1.966a23.367,23.367,0,0,1-4.495.009,39.855,39.855,0,0,1-9.227-2.628,45.6,45.6,0,0,0-8.308-2.515c-3.332-.522-8.458.565-13.419,1.617-7.355,1.555-14.294,3.023-16.918-.3-1.594-2.015-1.282-5.193.986-10,3.939-8.349,11.475-9.562,18.765-10.736a45.561,45.561,0,0,0,8.473-1.9c2.519-.932,4.921-3.219,7.241-5.431,3.4-3.236,6.887-6.58,11.251-6.215a3.189,3.189,0,0,1,2.859,2.833c.41,3.536.653,6.945.888,10.243.54,7.583,1.052,14.8,3.536,22.4.72-.108,1.427-.233,2.128-.354,4.136-.719,8.408-1.46,13.656,1.453a24.869,24.869,0,0,1,4.982,3.866q1.375-.337,2.782-.569a30.556,30.556,0,0,1,18.8,2.647c-.7-1.919-1.465-3.835-2.248-5.788a25.685,25.685,0,0,1-3.55-1.919c-4.731-3-6.407-6.561-8.028-10a25.561,25.561,0,0,0-4.625-7.358,11.292,11.292,0,0,0-5.2-2.817c-2.84-.925-6.06-1.975-8.262-6.852-2.959-6.559.009-22.49.356-24.285,1.244-6.427,9.366-25.988,17.429-26.828-5.477-2.336-11.857-5.036-17.649-7.409a38.181,38.181,0,0,0-10.406-2.116c-6.24-.675-12.691-1.371-17.251-7.407-.754,1.235-1.443,2.47-2.041,3.7s-1.241,2.983-1.921,4.83c-2.369,6.455-5.617,15.3-12.164,16.175a7.842,7.842,0,0,1-6.036-1.308c-3.152-2.42-3.8-7.426-4.42-12.265a44.655,44.655,0,0,0-1.2-6.7,128.084,128.084,0,0,0-5.438-14.34c-3.867-9.017-7.206-16.806-6.575-29.555.655-13.338,5.67-18.072,12.019-24.062a74.115,74.115,0,0,0,9.031-9.729c.85-1.134,1.607-2.163,2.3-3.1,4.361-5.928,6.121-8.321,10.692-8.855q-.64-1.329-1.256-2.7c-3.965-8.8-5.11-17.942-6.217-26.788-.565-4.5-1.146-9.148-2.093-13.762-.363-1.785-.8-3.627-1.253-5.509-1.284-5.366-2.61-10.915-2.551-16.368a3.974,3.974,0,0,1,1.807-3.336,3.692,3.692,0,0,1,3.522-.258,33.814,33.814,0,0,1,7.4,5c2.479,2.017,4.82,3.924,7.667,5.016.429.172,1.036-.276,1.921-.958,1.2-.931,3.025-2.327,5.163-1.1,2.8,1.607,4.773,4.269,6.472,7.2.028-3.756.972-6.55,2.847-8.529,3.414-3.611,9.64-4.328,19.615-2.262a56.432,56.432,0,0,1,14.438,5.163,25.113,25.113,0,0,1,2.862-19.664c3.686-6.2,9.7-11.3,16.377-15.423a15.851,15.851,0,0,1-1.627-.3c-4.03,1.849-7.309,5.284-10.7,8.832-3.692,3.864-7.505,7.861-12.537,10.148-5.648,2.565-10.446,2.619-14.254.169-4.914-3.168-7.727-10.5-7.716-20.123.009-9.075,2.242-20.269,8.213-27.244-.466-.464-.908-.9-1.32-1.3a62.2,62.2,0,0,1-6.722-8.167c-2.61-3.578-5.079-6.959-8.664-9.49a61.133,61.133,0,0,0-5.954-3.608c-6.734-3.719-11.6-6.406-8.78-21.073,1.166-6.047,4.729-14.125,9.535-21.608a5.75,5.75,0,0,1,5.586-2.644c3.986.5,8.22-.506,12.325-1.476,5.95-1.4,12.1-2.856,17.778.063,6.635,3.407,9.459,8.679,10.826,14.582,1.371-12.915,5.989-23.73,14.422-35.129a7.308,7.308,0,0,1,7.132-2.807,4.207,4.207,0,0,0,4.051-1.817,7.166,7.166,0,0,1,7.883-2.387c16.883,5.9,26.57,20.863,26.578,41.051,0,.5-.012,1.156-.04,1.945,5.237-8.989,11.573-16.827,18.894-18.9,5-1.42,32.79,3.131,36.679,5.467,5.308,3.194,17.27,20.11,17.2,27.079a14.354,14.354,0,0,1-4.367,10.624c-3.521,3.379-9.119,5.261-15.2,5.1a54.414,54.414,0,0,1-12.227-1.863c-6.055-1.481-10.052-2.458-19.6,3.173-9.678,5.712-9.863,8.37-10.271,14.19-.1,1.413-.208,3-.459,4.834,3.2-8.558,6.927-15.367,11.17-17.592,8.544-4.493,40.622,7.315,47.9,14.764,3.682,3.764,5.012,7.653,6.187,11.083,1.672,4.891,2.779,8.122,9.875,8.741a65.747,65.747,0,0,0,9.952-.056c8.682-.514,15.549-.936,22.532,12.74,8.244,16.143,2.805,23.09-4.723,32.7-1.271,1.624-2.61,3.337-3.967,5.2-7.494,10.293-6.631,21.251-4.584,31.559a52.166,52.166,0,0,0,1.6,5.68c1.92,5.992,3.91,12.186-1.416,17.917-3.168,3.406-6.882,5.052-11.046,4.859-.34-.014-.684-.042-1.026-.082,3.253,9.478,1.4,16.9-5.689,23.528-2.357,2.2-4.417,3.878-6.233,5.354a48.767,48.767,0,0,0-10.455,10.708,38.4,38.4,0,0,1-8.41,8.759c10.945,1.16,23.681,3.028,31.062,11.128,3.671,4.028,4.555,8.914,5.41,13.635.684,3.793,1.333,7.375,3.333,10.5,2.3,3.59,5.427,4.606,8.743,5.685,3.107,1.007,6.317,2.05,8.9,5.195a14.459,14.459,0,0,1,2.99,12.7c-1.763,7.981-8.869,14.654-14.73,17.476-8.026,3.867-16.307,2.681-24.316,1.535-7.1-1.017-13.8-1.978-19.89.585a5.362,5.362,0,0,0-3.092,3.4c-.089.2-.178.4-.272.588,2.126,4.839,2.9,10.395,1,15.173-2.713,6.8-8.3,8.691-13.706,10.521a38.906,38.906,0,0,0-7.561,3.171c-6.58,3.927-14.383,12.22-15.877,19.847-.762,3.892.145,6.86,1.108,10,.358,1.175.719,2.361,1,3.6a7.751,7.751,0,0,1-1.073,5.992,6.881,6.881,0,0,1-4.553,3.039c-5.2.925-11.294.129-16.675-.57-1.734-.227-3.378-.44-4.867-.577a36.75,36.75,0,0,0-5.021-.1c-4.469.151-5.47-.332-9.729-7.4-6.23-10.328-2.4-14.97,3.419-20.852-.134.012-.267.021-.4.031-6.667.518-11.7,6.605-11.216,13.572a124.088,124.088,0,0,0,2.328,14.9c1.457,7.4,2.966,15.046,2.273,21.675-2.658,25.41-8.555,50.4-14.256,74.574l-.075.316c-2.57,10.9-4.8,28.056-1.4,30.272.876.573,2.385-.3,3.494-1.135,5.921-4.452,7.23-17.865,8.1-26.741.171-1.743.328-3.353.5-4.745,1.368-11.048,8.651-40.617,25.663-44.706a3.33,3.33,0,0,1,3.97,2.361c3.147,10.955-.736,22.592-4.164,32.857-.479,1.438-.952,2.854-1.4,4.243l-.269.839a140.229,140.229,0,0,0-4.382,15.7c-1.809,9.1-4.368,16.586-10.973,23.515a57.157,57.157,0,0,1-12.382,9.862,2.483,2.483,0,0,1-1.985.234,17.138,17.138,0,0,0-2.3,4.548c-1.348,5.05-1.744,11.576-2.093,17.333-.1,1.714-.2,3.365-.323,4.9-1.3,16.759-2.378,31.6-2.378,31.6a1.206,1.206,0,0,1-.561.932A6.115,6.115,0,0,1,5430.108,8318.9Zm-.26-2.415a2.985,2.985,0,0,0,1.523-.279c.225-3.077,1.193-16.273,2.333-30.942.117-1.523.216-3.161.319-4.86.356-5.869.759-12.522,2.167-17.806a20.65,20.65,0,0,1,2.9-5.671,2.716,2.716,0,0,1,.1-1.907c1.486-3.421,2.838-7.105,4.146-10.667,2.873-7.834,5.847-15.934,10.594-22.359a3.923,3.923,0,0,1,4.759-1.333,4.1,4.1,0,0,1,2.416,4.556c-1.506,8.755-8.723,18.1-14.523,25.616-1.218,1.581-2.388,3.1-3.442,4.521a53.1,53.1,0,0,0,10.293-8.437c6.208-6.512,8.631-13.635,10.36-22.329a141.941,141.941,0,0,1,4.45-15.959l.266-.836c.451-1.4.926-2.826,1.409-4.272,3.316-9.935,7.074-21.2,4.133-31.437a.944.944,0,0,0-1.1-.689c-13.933,3.348-22.02,27.948-23.845,42.668-.171,1.372-.326,2.961-.492,4.684-.96,9.849-2.277,23.338-9.043,28.424-2.5,1.888-4.606,2.3-6.25,1.226a5.09,5.09,0,0,1-1.834-2.562c.044.606.091,1.212.136,1.818.718,9.551,1.455,19.431,1.345,29.636a177.4,177.4,0,0,1-1.533,18.942A179.408,179.408,0,0,0,5429.848,8316.488Zm27.266-93.749a1.508,1.508,0,0,0-1.247.682c-4.543,6.148-7.456,14.086-10.272,21.76-.708,1.932-1.43,3.9-2.179,5.842q.626-.814,1.275-1.654c5.635-7.3,12.651-16.392,14.054-24.558a1.687,1.687,0,0,0-1.631-2.071Zm-33.534-79.411a153.145,153.145,0,0,1-1.811,15.7c-2.262,14.021-1.106,29.123.321,42.045.7,6.331,2.516,11.663,4.274,16.815s3.566,10.447,4.293,16.775a133.755,133.755,0,0,1,3.053-19.1l.075-.317c5.682-24.1,11.562-49.013,14.2-74.269.655-6.271-.817-13.741-2.242-20.963a125.975,125.975,0,0,1-2.367-15.2c-.572-8.275,5.448-15.507,13.421-16.126.987-.078,2.081-.182,3.25-.328.184-.185.366-.375.551-.567a104.134,104.134,0,0,0,7.418-9.1c4.188-5.519,8.516-11.225,13.284-14.488a2.486,2.486,0,0,1,2.259-.291,2.535,2.535,0,0,1,1.565,1.706c1.588,5.7.975,10.624-1.828,14.622-4.705,6.722-14.645,9.356-22.115,10.385-.41.412-.809.815-1.2,1.206-6.352,6.376-9.54,9.578-3.964,18.826,3.845,6.376,4.211,6.358,7.592,6.24a39.252,39.252,0,0,1,5.326.107c1.514.139,3.189.357,4.957.585,5.209.683,11.112,1.449,15.948.589a4.5,4.5,0,0,0,2.969-2,5.335,5.335,0,0,0,.736-4.129c-.274-1.19-.618-2.32-.963-3.439-1.005-3.288-2.043-6.688-1.164-11.168,1.645-8.4,9.8-17.146,17-21.448a40.67,40.67,0,0,1,8.021-3.381c5.336-1.807,9.942-3.365,12.243-9.139,1.493-3.742,1.076-8.068-.405-12.021-1.212,1.008-3.1,1.54-6.474,1.24-4.665-.41-10.158-8.049-15.472-15.435-.464-.646-.926-1.289-1.378-1.912a63.823,63.823,0,0,0-19.749.12c-10.423,1.891-13.485,9.45-16.729,17.452-2.285,5.64-4.648,11.474-9.788,15.044a2.423,2.423,0,0,1-2.342.248,2.544,2.544,0,0,1-1.526-1.931,49.134,49.134,0,0,1,3.51-26.993,7.927,7.927,0,0,1-3.714-1.291c-3.587-2.306-4.85-10.182-5.836-18.053-.1-.841-.2-1.589-.286-2.2-1.108-7.684-2.489-17.26-1.3-26.528-6.739-18.753,2.062-29.429,19.125-40.714a65.663,65.663,0,0,1,6.377-3.642c3.712-1.921,6.644-3.437,9.884-7.509a33,33,0,0,0,3.74-6.536c1.582-3.317,3.22-6.748,6.322-9.326,5.671-4.708,17.522-7.981,25.007-1.883,5.978,4.867,8.185,15.185,4.629,21.645-2.526,4.594-7.348,6.1-13.218,4.145a28.75,28.75,0,0,1-8.686-4.792c-3.611-2.708-4.7-3.52-11.173,3.157a66.553,66.553,0,0,0-6.982,8.7c-3.407,4.841-6.348,9.024-14.742,12.857-1.734.79-3.163,1.4-4.365,1.915-5.7,2.432-5.919,2.528-9.736,9.712a35.759,35.759,0,0,0-3.764,11.953,62.837,62.837,0,0,0,2.816,6.322c2.943,5.8,5.886,10.409,12.075,7.929,4.778-1.9,4.59-4.88,4.333-9-.155-2.5-.333-5.326.778-8.075a22.4,22.4,0,0,1,2.514-4.206c1.407-11.049,5.985-20.107,19.718-21.591,6.442-.7,15.292.847,23.093,2.2,3.813.663,7.412,1.292,10.521,1.635.832.094,1.69.184,2.57.275a33.177,33.177,0,0,0,10.212-9.773,51.464,51.464,0,0,1,10.891-11.17c1.875-1.523,3.81-3.1,6.106-5.244,6.7-6.261,8.166-13.108,4.576-22.332-7.215-2.067-14.535-8.721-20.5-15.331-2.42-.6-4.675-1.212-6.8-1.784-14.272-3.85-22.131-5.963-35.784,5.01-2.975,2.393-6.8,7.859-10.853,13.649-7.159,10.228-14.649,20.815-21.017,20.376-2.4-.159-4.411-1.778-5.987-4.817-5.908-11.394-.525-24.4,4.693-35.348a23.7,23.7,0,0,1-1.439-8.775c-.03-20.656,17.624-56.784,32.93-60.648.373-.1,1-.323,1.844-.63,7.03-2.534,28.417-10.243,47.718,2.957,4.643,3.175,14.425,14.54,15.8,24.042.492,3.409-.157,6.24-1.929,8.41a3.066,3.066,0,0,1-2.118,1.131,3.021,3.021,0,0,1-2.252-.735,77.615,77.615,0,0,1-6.812-6.986c-4.082-4.562-7.938-8.874-14.216-11.273-9.982-3.817-20.8-2.74-31.259-1.7l-3.173.312c-1.881.178-3.584.27-5.148.352-6.638.349-10.293.542-14.568,6.934-3.376,5.049-3.99,12.193-4.583,19.1-.44,5.12-.9,10.416-2.475,14.9a111.845,111.845,0,0,1-4.815,10.869c-.279.576-.561,1.157-.841,1.743a7.979,7.979,0,0,0,5.316,4.4c5.974,1.495,8.811-4.358,12.19-12.773a54.42,54.42,0,0,1,2.834-6.332c5.872-10.321,11.543-15.357,17.846-15.845,7.318-.57,15.082,5.033,25.956,18.725.5.63,1.074,1.363,1.7,2.174,2.167,2.784,5.118,6.57,8.522,10.4,1.734.413,3.283.7,4.666.954,6.2,1.146,9.94,1.835,14.644,10.959q.938,1.821,1.668,3.547a13.19,13.19,0,0,0,2.123.27,11.472,11.472,0,0,0,9.183-4.1c4.37-4.7,2.756-9.726.889-15.547a54.56,54.56,0,0,1-1.665-5.944c-2.052-10.325-3.062-22.369,5-33.438,1.374-1.886,2.73-3.621,4.019-5.265,7.5-9.578,12.021-15.355,4.476-30.135-6.271-12.281-11.541-11.955-20.253-11.437a67.123,67.123,0,0,1-10.3.052c-8.653-.754-10.249-5.417-11.939-10.353-1.091-3.191-2.329-6.806-5.63-10.184-7.132-7.294-38.008-18.024-45.075-14.319-9.143,4.8-16.426,37.188-18.818,47.83l-.274,1.214c-.786,3.473-1.338,8.569-1.98,14.467-1.937,17.8-4.59,42.186-16.895,47.449-4.225,1.8-8.464.567-12.251-3.585-9.207-10.1-13.755-36.084-5.737-50.89a22.957,22.957,0,0,1,3.279-4.64,4.74,4.74,0,0,0-.529-1.219c-1.092-1.776-3.52-3.022-7.418-3.812-.279-.057-.555-.108-.828-.15-9.405,4.8-17.513,10.877-21.825,18.134a22.839,22.839,0,0,0-2.443,18.432c.157.563.344,1.127.557,1.692a63.938,63.938,0,0,1,27.515,33.349c.619.846,1.193,1.689,1.72,2.538,5.057,8.138,7.489,16.126,8.131,26.708,1.118,18.438,1.856,30.621-20.048,32.137a41.983,41.983,0,0,1-8.056-.237c11.117,19.768,24.993,51.509,17.883,66.639,4.146,4.584,7.407,9.483,5.938,15.433a1.67,1.67,0,0,1-1.275,1.246,1.628,1.628,0,0,1-1.65-.6l-1.724-2.224c-1.99-2.575-4.368-5.657-7.008-8.7a6.645,6.645,0,0,1-4.143-.642,29.412,29.412,0,0,0-6.845-2.168c-5.152-1.178-10.479-2.4-13.452-9.248a2.824,2.824,0,0,1,.145-2.555,2.763,2.763,0,0,1,2.083-1.387c8.326-.949,16.354,5.763,23.016,13.251a4.1,4.1,0,0,0,1.352-1.129q.338-.437.635-.905c-.7-.741-1.423-1.485-2.151-2.233-3.03-3.119-6.166-6.344-7.976-9.847q-1.143-2.207-2.217-4.323c-7.016-13.741-12.555-24.594-25.706-32.608a106.28,106.28,0,0,0-18.348-7.953c-2.636,3.583-4.389,7.665-6.435,12.427-.469,1.094-.954,2.223-1.467,3.388-2.008,4.553-5.365,9.139-8.613,13.575-1.584,2.166-3.2,4.367-4.664,6.58.146.239.3.471.469.7,3.937,5.26,9.619,5.877,15.637,6.526a40.013,40.013,0,0,1,11.058,2.279c8.18,3.354,17.53,7.354,23.852,10.069.958.41,2.123.86,3.4,1.354,4.855,1.875,11.5,4.442,14.7,8,4.591,5.1,5.556,12.8,6.489,20.238a74.339,74.339,0,0,0,1.539,9.272c2.555,9.717,3.621,19.709,4.652,29.37.64,6,1.3,12.206,2.313,18.258.051.3,4.944,30.254-4.148,36.959-2.478,1.832-5.635,1.8-9.385-.09Q5423.995,8143.573,5423.58,8143.328Zm-47.767-29.146a31.062,31.062,0,0,0-9.081,14.591c-3.332,12.192-.4,35.667,10.334,44.145,3.7-3.2,6.047-7.159,8.522-11.337a63.606,63.606,0,0,1,6.667-9.775l.548-.626c7.768-8.9,9.858-11.285,1.823-20.25a80.64,80.64,0,0,0-9.847-8.843A88,88,0,0,1,5375.813,8114.183ZM5423.7,8140.5a9.982,9.982,0,0,0,1.832,1.162c2.917,1.462,5.167,1.563,6.882.3,6.541-4.822,4.452-27.179,3.206-34.631-1.024-6.123-1.69-12.363-2.334-18.4-1.021-9.575-2.076-19.475-4.583-29.016a76.462,76.462,0,0,1-1.6-9.583c-.889-7.074-1.8-14.392-5.893-18.931-2.812-3.126-9.15-5.574-13.778-7.362-1.308-.507-2.5-.968-3.482-1.39l-1.443-.619a16.593,16.593,0,0,1,3.06,5.87c3.151,9.546,2.264,20.48,1.4,31.055-.825,10.139-1.676,20.625,1.066,29.735.984,3.265,2.233,6.447,3.468,9.53.507.183.937.31,1.322.422,2.917.855,3.309,1.474,6.008,9.448q.685,2.024,1.263,4a30,30,0,0,1,2.728,3.485c2.7,4.021,1.675,8.557.469,12.688A92.592,92.592,0,0,1,5423.7,8140.5Zm-31.4-34.7c4.944,5.341,10.1,12.884,14.823,19.806,3.039,4.448,5.942,8.7,8.394,11.751a45.905,45.905,0,0,1-.495-11,62.551,62.551,0,0,0-.056-8,44.212,44.212,0,0,0-1.921-9.146,27.461,27.461,0,0,0-19.548-3.627Q5392.9,8105.679,5392.307,8105.8Zm-21.931-4.68c.173.455.354.915.542,1.373a30.892,30.892,0,0,0,5.11,8.354,37.117,37.117,0,0,1,11.62-6.3,19.711,19.711,0,0,0-3.463-2.537c-4.507-2.5-8.016-1.9-12.08-1.187C5371.537,8100.925,5370.96,8101.025,5370.376,8101.118Zm44.716,6.618q.738.5,1.448,1.055c-2.208-6.521-2.559-7.236-3.883-7.688C5413.518,8103.274,5414.359,8105.477,5415.093,8107.736Zm-71.11-13.968a15.065,15.065,0,0,1,2.294.162,47.579,47.579,0,0,1,8.771,2.634,37.483,37.483,0,0,0,8.632,2.49,19.952,19.952,0,0,0,3.454.038c-2.442-7.686-2.955-14.919-3.5-22.506-.232-3.271-.474-6.654-.879-10.137a.785.785,0,0,0-.675-.719c-3.294-.262-6.245,2.559-9.395,5.56-2.5,2.381-5.08,4.842-8.067,5.945a47.919,47.919,0,0,1-8.921,2.023c-6.983,1.125-13.577,2.186-16.977,9.391-1.759,3.729-2.2,6.315-1.275,7.487,1.708,2.153,8.52.709,14.54-.565C5336.184,8094.682,5340.5,8093.768,5343.982,8093.768Zm54.328-71.384c-.054,0-.108,0-.164,0-5.771.368-13.888,16.93-15.43,24.9-1.128,5.809-2.686,18.057-.525,22.842,1.764,3.913,4.105,4.677,6.819,5.561a13.534,13.534,0,0,1,6.188,3.442,27.608,27.608,0,0,1,5.059,7.99c1.609,3.419,3,6.372,7.139,9,.324.2.631.391.924.562-.929-2.371-1.826-4.8-2.578-7.3-2.875-9.545-2-20.261-1.163-30.624.841-10.336,1.708-21.024-1.289-30.111C5402.341,8025.771,5400.712,8022.383,5398.311,8022.383Zm84.508,43.891c-4.6,2.965-8.814,8.513-12.885,13.879-2.076,2.737-4.064,5.354-6.053,7.621,6.458-1.207,13.822-3.709,17.458-8.9C5483.708,8075.493,5484.2,8071.253,5482.819,8066.274Zm-21.733-27.32a46.878,46.878,0,0,0-3.895,26.931c4.684-3.044,6.814-8.3,9.066-13.858,3.344-8.25,6.8-16.785,18.523-18.912a65.167,65.167,0,0,1,18.229-.4,26.093,26.093,0,0,0-3.834-4.345c-4.651-3.627-11.351-8.061-15.724-4.79a1.649,1.649,0,0,1-2.132-.11,1.731,1.731,0,0,1-.3-2.191,28.415,28.415,0,0,1,3.08-4.025c-.786.3-1.565.623-2.344.951a37.273,37.273,0,0,0-9.12,5.532c-1.689,5.158-5.7,12.815-10.912,14.981C5461.512,8038.807,5461.3,8038.887,5461.086,8038.955Zm47.282-2.971c4.28,5.955,10.1,14.02,13.651,14.332,3.282.288,4.5-.216,5.227-1.223a23.99,23.99,0,0,0-4.5-6.285C5519.28,8039.393,5514.053,8037.221,5508.368,8035.983Zm-2.018-2.788c7.063,1.2,13.787,3.672,18.08,7.9a25.64,25.64,0,0,1,4.116,5.392,7.156,7.156,0,0,1,3.812-3.48c6.7-2.819,14.052-1.767,21.159-.75,7.654,1.094,15.569,2.233,22.937-1.319,5.522-2.662,11.908-8.954,13.429-15.833a11.989,11.989,0,0,0-2.5-10.658c-2.132-2.6-4.876-3.493-7.782-4.435-3.571-1.16-7.264-2.36-10.022-6.674-2.256-3.524-2.978-7.512-3.674-11.367-.829-4.591-1.615-8.925-4.82-12.444-7.383-8.1-21.168-9.509-32.245-10.639l-.329-.035a30.178,30.178,0,0,1-12.15,3.417c-4.034.318-8.065-.692-11.962-1.671-5.261-1.324-10.238-2.58-14.954-.638-3.1,1.27-10.8,9.131-15.011,14.823a131.335,131.335,0,0,0-.335,17.638c.157,6.443.308,12.562-.546,17.619a39.254,39.254,0,0,1,7.274-4.042q3.929-1.666,7.953-2.936c17.152-12.738,48.758-12.918,68.162-6.233a1.98,1.98,0,0,1,1.289,2.277,1.9,1.9,0,0,1-2.01,1.608l-1.16-.054c-20.734-.988-43.934-2.1-65.273,4.6a29.436,29.436,0,0,0-5.179,5.1c5.289-1.544,11.543,2.608,16.049,6.118A37.4,37.4,0,0,1,5506.35,8033.2Zm-57.177-37.185c-.26,6.671.606,13.818,1.7,21.406.088.619.185,1.38.292,2.24.586,4.687,1.807,14.439,4.753,16.33a5.072,5.072,0,0,0,3.524.893,45.239,45.239,0,0,1,11.113-14.516c.157-.523.287-1.011.382-1.456,1.083-5.021.923-11.534.754-18.425-.105-4.3-.215-8.744-.019-13.04a17.073,17.073,0,0,0-.438,6.565c.26,4.141.553,8.834-5.837,11.383-8.736,3.473-12.726-4.377-15.107-9.072Q5449.7,7997.144,5449.173,7996.01ZM5468.3,8027.9a43.333,43.333,0,0,0-5.155,7.1A24.067,24.067,0,0,0,5468.3,8027.9Zm-37.229-2.16c2.386,2.807,4.574,5.639,6.507,8.144l.677.875c.3-3.983-2.007-7.538-5.124-11.069-.132.187-.267.372-.408.556A6.469,6.469,0,0,1,5431.069,8025.744Zm-83.22-105.592c-4.168.229-5.521,2.067-9.881,8-.691.942-1.456,1.978-2.309,3.116a75.912,75.912,0,0,1-9.3,10.034c-6.189,5.842-10.66,10.064-11.271,22.437-.6,12.2,2.638,19.749,6.388,28.493a129.929,129.929,0,0,1,5.533,14.6,46.3,46.3,0,0,1,1.275,7.079c.562,4.354,1.141,8.855,3.5,10.667a5.518,5.518,0,0,0,4.255.836c5.113-.687,8.07-8.743,10.23-14.626.7-1.905,1.359-3.7,2.013-5.052a49.94,49.94,0,0,1,2.833-4.993c-1.228-2.77-1.533-6-1.831-9.153-.459-4.865-.894-9.459-4.551-11.92-2.823-1.9-5.552-1.364-8.708-.743a26.8,26.8,0,0,1-4.787.64h-.062a4.093,4.093,0,0,1-3.993-3.78c-.668-7.379,1.528-12.7,6.526-15.812,9.464-5.893,26.61-2.58,40.557,2.076a31.314,31.314,0,0,1,7.493-6.5c-.334-.155-.674-.316-1.024-.487C5367.34,7948.548,5356.3,7936.817,5347.849,7920.152Zm60.184,92.814a10.911,10.911,0,0,0-1.3.074.385.385,0,0,0-.279.2.439.439,0,0,0-.025.4c2.491,5.737,6.8,6.727,11.786,7.868a31.144,31.144,0,0,1,7.4,2.37,4.483,4.483,0,0,0,.856.333C5420.89,8018.206,5414.387,8012.966,5408.032,8012.966Zm-31.331-50.085a110.939,110.939,0,0,1,17.956,7.932c13.731,8.368,19.409,19.487,26.6,33.565q1.077,2.113,2.212,4.314c1.647,3.187,4.655,6.28,7.566,9.274q.795.817,1.587,1.641c5.947-14.829-8.465-46.509-19.154-65.2-1.375-.244-2.713-.518-4.035-.787a44.418,44.418,0,0,0-11.011-1.329c-2.72,4.937-5.464,7.665-13.937,4.413A30.321,30.321,0,0,0,5376.7,7962.881Zm151.4,41.923c-10.927,0-22.027,1.821-30.9,5.983,18.673-4.213,38.19-3.457,56.029-2.615A92.074,92.074,0,0,0,5528.1,8004.8Zm-187.75-28.859a9.866,9.866,0,0,1,5.724,1.728c4.6,3.1,5.106,8.479,5.6,13.687a36.4,36.4,0,0,0,1.083,6.905c1.247-1.816,2.561-3.614,3.859-5.385,3.317-4.532,6.451-8.81,8.353-13.124.509-1.158.991-2.278,1.458-3.367,1.95-4.537,3.7-8.609,6.259-12.27-13.474-4.342-29.471-7.245-37.708-2.111-4.225,2.629-5.991,7.065-5.4,13.559a1.689,1.689,0,0,0,1.6,1.6h.024a25,25,0,0,0,4.363-.6A24.975,24.975,0,0,1,5340.348,7975.945Zm167.2-55.242a22.363,22.363,0,0,0-13.373,4.647c-2.7,2.24-4.151,5.286-5.69,8.51a35.3,35.3,0,0,1-4.026,7c-3.561,4.473-6.852,6.174-10.659,8.144a62.463,62.463,0,0,0-6.16,3.513c-15.343,10.149-23.177,18.889-19.518,33.659a35.927,35.927,0,0,1,3.136-8.345c4.1-7.714,4.783-8.175,10.913-10.8,1.188-.506,2.6-1.108,4.308-1.891,7.8-3.564,10.44-7.312,13.779-12.054a68.563,68.563,0,0,1,7.22-8.986c7.613-7.85,10.02-6.646,14.338-3.407a26.332,26.332,0,0,0,8,4.434c4.808,1.609,8.385.56,10.357-3.025,2.695-4.9,1.516-14.1-4.042-18.626A13.374,13.374,0,0,0,5507.552,7920.7Zm-12.185,43.807a30.456,30.456,0,0,0-3.258.16c-10.4,1.123-14.938,7.128-16.848,15.224,4.514-5.348,10.4-10.976,13.265-12.152,5.448-2.238,11.042-.831,16.452.532,3.707.933,7.533,1.894,11.184,1.608a30.2,30.2,0,0,0,7.632-1.544c-2.831-.366-5.968-.912-9.261-1.486C5508.164,7965.743,5501.085,7964.51,5495.368,7964.51Zm-107.954-9.335c4.646,1.343,6.5-.046,8.082-2.594A29.749,29.749,0,0,0,5387.414,7955.174Zm-36.854-35c8.127,15.6,18.61,26.594,31.224,32.728.9.441,1.745.822,2.528,1.153.164-.09.33-.176.5-.266a32.12,32.12,0,0,1,12.122-3.8,30.237,30.237,0,0,1,2.7-4.363c-4.22-2.6-8.309-5.725-12.066-8.6a94.862,94.862,0,0,0-10.776-7.549c-7.649-4.172-16.443-8.517-23.678-9.12C5352.169,7920.279,5351.326,7920.216,5350.56,7920.176ZM5415,7952.229a40.824,40.824,0,0,0,9.4.479c18.742-1.3,19.006-10.01,17.818-29.6a52.656,52.656,0,0,0-5.183-20.943c3.763,18.875,1.813,40.843-14.7,47.931a16.353,16.353,0,0,1-7.866,1.223C5414.641,7951.618,5414.821,7951.924,5415,7952.229Zm-15.276-2.353a52.212,52.212,0,0,1,10.187,1.393c.649.133,1.3.267,1.959.4-.167-.283-.333-.56-.5-.834a36.744,36.744,0,0,1-9.661-3.977A22.089,22.089,0,0,0,5399.723,7949.876Zm13.2-1.138a14.625,14.625,0,0,0,8.464-.846c20.284-8.705,14.317-40.725,12.916-47.055a54.8,54.8,0,0,0-1.685-5.981,125.487,125.487,0,0,0-10.97-12.124c-6.558-6.677-13.313-13.554-16.325-20.714a54.694,54.694,0,0,0-16.042-6.146c-8.952-1.851-14.635-1.345-17.384,1.561-2.173,2.3-2.724,6.374-1.664,12.391q.4.767.811,1.5c4.089,7.309,10.509,14.5,17.309,22.116,12.408,13.9,25.24,28.271,25.181,45.086a2.063,2.063,0,0,1-1.392,1.98,2,2,0,0,1-2.242-.674,68.636,68.636,0,0,1-4.065-6.02c-.8-1.284-1.608-2.578-2.487-3.862-3.672-5.368-7.972-9.37-12.127-13.242a89.21,89.21,0,0,1-10.675-11.2c-5.807-7.61-7.967-16.161-10.254-25.215-.415-1.638-.834-3.294-1.279-4.965s-.806-3.246-1.079-4.717l-.63-1.221c-2.087-4.047-4.247-8.232-7.665-10.2-.642-.371-1.16-.108-2.5.923-1.132.872-2.533,1.954-4.245,1.3a31.116,31.116,0,0,1-8.321-5.4,31.693,31.693,0,0,0-6.861-4.672,1.305,1.305,0,0,0-1.249.089,1.6,1.6,0,0,0-.7,1.34c-.056,5.158,1.237,10.561,2.486,15.787.455,1.908.9,3.777,1.272,5.586.963,4.7,1.552,9.4,2.122,13.945,1.134,9.066,2.207,17.633,6.024,26.1q.819,1.817,1.675,3.564c1.155.01,2.465.084,3.975.211,7.679.64,16.756,5.113,24.625,9.4a96.421,96.421,0,0,1,11.086,7.752,147.86,147.86,0,0,0,12.2,8.7,15.831,15.831,0,0,1,2.746-2.153,3.8,3.8,0,0,1,5.131,1.132C5410.233,7944.448,5411.526,7946.451,5412.92,7948.738Zm-9.535-3.655a37.289,37.289,0,0,0,6.17,2.793c-.879-1.4-1.695-2.646-2.433-3.718a1.391,1.391,0,0,0-1.891-.453A13.325,13.325,0,0,0,5403.386,7945.083Zm-31.346-67.647c.195.76.385,1.514.577,2.266,2.223,8.808,4.328,17.129,9.834,24.346a86.1,86.1,0,0,0,10.4,10.9c4.254,3.96,8.65,8.054,12.476,13.643.9,1.313,1.723,2.633,2.54,3.943,1.073,1.723,2.1,3.364,3.25,4.93-.483-15.467-12.717-29.168-24.558-42.431C5381.187,7889.016,5376.045,7883.256,5372.04,7877.435Zm92.947,24.829c-4.883,10.42-9.108,21.708-3.972,31.61,1.181,2.275,2.494,3.429,4.017,3.529.078.007.155.009.234.009,5.106,0,12.609-10.725,18.657-19.367,4.152-5.933,8.073-11.538,11.315-14.144,14.612-11.739,23.383-9.375,37.911-5.457,1.095.3,2.222.6,3.388.907-2.488-2.939-4.648-5.711-6.342-7.89-.628-.8-1.2-1.53-1.692-2.158-10.319-12.991-17.507-18.321-23.892-17.822-5.363.415-10.578,5.2-15.946,14.638a52.857,52.857,0,0,0-2.694,6.042c-2.917,7.267-6.533,16.315-15,14.207A10.132,10.132,0,0,1,5464.987,7902.264Zm78.429,1.172c4.667,4.871,9.942,9.384,15.118,11.475q-.355-.745-.75-1.508c-4.165-8.08-6.917-8.588-12.946-9.7C5544.383,7903.616,5543.908,7903.529,5543.416,7903.436Zm-68.182-48.578c-6.254,11.887-10.708,26.022-10.694,35.995a25.273,25.273,0,0,0,.576,5.588,105.474,105.474,0,0,0,4.515-10.212c1.479-4.2,1.9-9.106,2.346-14.305C5472.485,7866.007,5473.008,7859.924,5475.234,7854.858Zm-65.971,9.623c3.313,5.594,8.77,11.149,14.094,16.569,2.106,2.145,4.165,4.24,6.076,6.311A61.964,61.964,0,0,0,5409.263,7864.481Zm30.549-33.456a22.387,22.387,0,0,0-1.251,2.05c-7.384,13.64-3.217,38.678,5.4,48.13,3.081,3.379,6.287,4.384,9.535,3,11.014-4.71,13.579-28.285,15.451-45.5.649-5.974,1.212-11.131,2.027-14.739l.272-1.212c1.313-5.832,2.856-12.309,4.629-18.619-2.971,4.307-7.634,5.786-16.317,7.789a131.38,131.38,0,0,0-25.143,8.511c3.367.962,5.612,2.406,6.828,4.384a7.328,7.328,0,0,1,.371.68c3.946-3.294,9.766-5.458,18.279-4.075a3.13,3.13,0,0,1,2.512,2.266c2.32,8.6-5.623,29.556-14.165,33.213-2.022.872-5.9,1.506-9.211-3.932-3.479-5.731-1.835-11.73-.384-17.024A45.857,45.857,0,0,0,5439.812,7831.025Zm76.825,11.02a47.808,47.808,0,0,1,17.321,2.84c6.821,2.605,11.054,7.338,15.147,11.913a75.105,75.105,0,0,0,6.6,6.774.667.667,0,0,0,.469.157.684.684,0,0,0,.466-.258,8.135,8.135,0,0,0,1.412-6.551c-1.218-8.462-10.258-19.314-14.773-22.4-18.289-12.51-38.8-5.113-45.55-2.684-.95.345-1.651.593-2.071.7-6.21,1.57-12.963,9.235-18.587,18.99,4.9-7.227,9.457-7.468,16.325-7.829,1.533-.08,3.2-.169,5.05-.345l3.159-.309C5506.567,7842.547,5511.611,7842.045,5516.637,7842.045Zm-74.323-13.982c.268,2.6-.527,5.5-1.354,8.513-1.385,5.062-2.821,10.3.124,15.146,2.711,4.473,5.345,3.344,6.214,2.973,7.381-3.161,14.814-22.888,12.794-30.38a.721.721,0,0,0-.579-.525C5452.278,7822.606,5446.513,7824.047,5442.314,7828.063Zm-55.76-31.268c-4.661,5.625-7.531,15.079-7.541,25.529-.009,8.787,2.4,15.386,6.618,18.1,3.079,1.986,7.1,1.87,11.959-.334,4.609-2.1,8.262-5.922,11.794-9.622,2.88-3.014,5.8-6.078,9.262-8.2C5407.847,7817.924,5394.592,7804.8,5386.554,7796.8Zm1.643-1.75c7.917,7.883,22.887,22.715,33.368,25.73a17.085,17.085,0,0,1,4.9-1.213c-2.008-4.782-2.985-9.875-3.932-14.807-.1-.5-.192-1-.288-1.5a53.212,53.212,0,0,0-17.507-11.029c-5.778-1.974-10.8-1.465-14.936,1.5A15.127,15.127,0,0,0,5388.2,7795.045Zm42.118,24.557c.1.011.2.023.3.038a138.071,138.071,0,0,1,28.4-10.058c12.291-2.835,15.157-4.291,17.565-13.275a50.381,50.381,0,0,0,1.6-10.39c.471-6.752,1.115-9.994,11.445-16.091,10.383-6.13,15-5,21.384-3.438a52.265,52.265,0,0,0,11.732,1.8c5.394.223,10.395-1.49,13.459-4.433a12.028,12.028,0,0,0,3.63-8.917c.058-6.066-11.346-22.173-16.04-25-3.222-1.935-30.526-6.437-34.79-5.213-7.7,2.179-14.43,11.791-19.835,22.048-1.3,18.935-6.761,62.833-22.563,63.876a2.518,2.518,0,0,1-2.449-1.6c-4.468-11.707,1.218-21.1,6.716-30.186a94.128,94.128,0,0,0,5.486-9.928c.663-1.476,1.4-3.175,2.2-5.031,2.226-5.16,5-11.6,8.3-17.867.166-2.712.246-4.992.246-6.669-.007-19.1-9.108-33.241-24.97-38.787a4.811,4.811,0,0,0-5.249,1.661c-2.242,2.683-4.659,2.919-6.287,2.646a4.867,4.867,0,0,0-4.809,1.867c-12.51,16.911-16.349,32.526-13.483,56.25.176.693.373,1.373.6,2.036,3.461,10.114,5.575,10.76,13.441,13.16,1.406.429,2.976.909,4.747,1.5a22.113,22.113,0,0,0,4.317.9c3.212.424,5.989.792,7.8,6.094,1.477,4.321-3.318,17.237-7.349,24.9C5433.822,7815.377,5431.964,7818.091,5430.314,7819.6Zm-4.957-12.867a65.782,65.782,0,0,0,2.887,10.829,8.8,8.8,0,0,0,.122-4.979A16.451,16.451,0,0,0,5425.358,7806.735Zm-.9-4.648c3.015,3.039,5.368,6.423,6.238,9.918a12.169,12.169,0,0,1,.372,2.908,48.016,48.016,0,0,0,2.676-4.539c4.693-8.925,8.191-20.1,7.2-23-1.334-3.9-2.843-4.1-5.847-4.495a24.062,24.062,0,0,1-4.766-1c-1.747-.586-3.3-1.06-4.684-1.481-5.367-1.638-8.511-2.6-11.143-6.32,1.046,3.187,2.421,6.3,3.844,9.513a80.311,80.311,0,0,1,5.084,13.725C5423.812,7798.893,5424.145,7800.5,5424.457,7802.086Zm41.911-49.82c-2.137,4.458-4.014,8.806-5.6,12.487-.807,1.867-1.545,3.578-2.212,5.063a96.494,96.494,0,0,1-5.622,10.188c-5.438,8.983-10.577,17.474-6.526,28.086C5458.541,7807.342,5464.439,7773.253,5466.367,7752.267Zm-68.2,36.376a22.777,22.777,0,0,1,7.339,1.315,56,56,0,0,1,15.925,9.359c-.108-.485-.218-.966-.333-1.446a78.6,78.6,0,0,0-4.944-13.312c-2.3-5.187-4.667-10.553-5.549-16.381q-.376-2.484-.665-4.861a70.964,70.964,0,0,1-1.481-11.466c-.733-9.8-1.425-19.052-10.944-23.943-4.893-2.517-10.355-1.225-16.129.139-4.312,1.017-8.767,2.071-13.174,1.522a3.377,3.377,0,0,0-3.271,1.561c-3.59,5.589-7.893,13.979-9.2,20.766-2.494,12.953,1.085,14.929,7.583,18.516a63.918,63.918,0,0,1,6.177,3.752c3.908,2.758,6.488,6.292,9.218,10.036a60.264,60.264,0,0,0,6.463,7.865c.405.4.841.825,1.3,1.281a19.371,19.371,0,0,1,1.917-1.57A16.436,16.436,0,0,1,5398.17,7788.643Z" transform="translate(-5312.612 -7697.835)" fill="#f6ad37"/>
    </g>
  </g>
</svg>
