<svg xmlns="http://www.w3.org/2000/svg" xmlns:xlink="http://www.w3.org/1999/xlink" width="121.264" height="76.181" viewBox="0 0 121.264 76.181">
  <defs>
    <clipPath id="clip-path">
      <rect id="Rectangle_156" data-name="Rectangle 156" width="121.264" height="76.181" fill="#f6ad37"/>
    </clipPath>
  </defs>
  <g id="Group_285" data-name="Group 285" clip-path="url(#clip-path)">
    <path id="Path_449" data-name="Path 449" d="M121.2,39.949a1.074,1.074,0,0,0-1.37-.653l-7.818,2.769a4.174,4.174,0,0,1-5.322-2.538l-8.2-23.154a4.17,4.17,0,0,1,2.539-5.322l7.818-2.769a1.073,1.073,0,0,0-.716-2.023l-7.818,2.769a6.3,6.3,0,0,0-4.164,6.657l-43.981.9a4.983,4.983,0,0,0-.75.06,1.061,1.061,0,0,0-.336-.059H49.2a29.936,29.936,0,0,1-10.228-1.8L32.114,12.3a6.3,6.3,0,0,0-2.068-6.906L23.554.232a1.073,1.073,0,1,0-1.336,1.679L28.71,7.074a4.17,4.17,0,0,1,.669,5.859L14.092,32.159a4.175,4.175,0,0,1-5.859.669L1.741,27.665A1.073,1.073,0,1,0,.405,29.344L6.9,34.506a6.312,6.312,0,0,0,7.935-.066,12.22,12.22,0,0,1,4.445,5.812l.453,1.242-.632.633a6.266,6.266,0,0,0,4.448,10.705,6.369,6.369,0,0,0,1.156-.109A6.364,6.364,0,0,0,24.59,53.9a6.279,6.279,0,0,0,6.28,6.28,6.322,6.322,0,0,0,1.2-.116,6.281,6.281,0,0,0,7.362,7.363,6.322,6.322,0,0,0-.116,1.2,6.279,6.279,0,0,0,10.3,4.824l.889.891a6.277,6.277,0,0,0,10.7-3.977l2.306,2.306a6.275,6.275,0,0,0,10.708-4.093l.391.391a6.142,6.142,0,0,0,10.58-4.392,6.3,6.3,0,0,0,8.2-9.521L90.078,51.75l16.349-8.9a6.346,6.346,0,0,0,4.2,1.6,6.282,6.282,0,0,0,2.1-.362l7.818-2.769a1.073,1.073,0,0,0,.653-1.37M20.615,49.488a4.131,4.131,0,0,1,0-5.845l1.117-1.117a4.132,4.132,0,0,1,6.23,5.4l-1.532,1.532c-.1.1-.185.2-.275.3a4.153,4.153,0,0,1-5.54-.272M30.87,58.032a4.134,4.134,0,0,1-2.923-7.057l4.686-4.686a4.134,4.134,0,0,1,5.848,5.845l-4.688,4.687a4.1,4.1,0,0,1-2.923,1.211m4.44,6.154a4.141,4.141,0,0,1,0-5.847L40,53.653h0l1.672-1.672a4.134,4.134,0,0,1,5.847,5.847L42.273,63.07l-1.116,1.116a4.14,4.14,0,0,1-5.847,0M45.6,72.76A4.134,4.134,0,0,1,42.674,65.7l1.116-1.116a4.134,4.134,0,0,1,5.847,5.847l-.744.744c-.005.005-.012.009-.018.014s-.009.012-.015.018l-.34.34A4.107,4.107,0,0,1,45.6,72.76M93.1,59.519A4.156,4.156,0,0,1,86.042,62.5L73.913,50.557a1.073,1.073,0,1,0-1.5,1.53l9.687,9.538a4.668,4.668,0,0,1-.125,5.829,4.131,4.131,0,0,1-5.844,0L66.6,57.93c-.02-.019-.042-.033-.062-.051a1.091,1.091,0,0,0-.1-.085c-.014-.009-.03-.015-.044-.023a1.08,1.08,0,0,0-.143-.075c-.015-.006-.032-.009-.048-.014a1.06,1.06,0,0,0-.15-.044c-.026-.005-.052,0-.078-.008a1.114,1.114,0,0,0-.126-.012,1,1,0,0,0-.119.01c-.028,0-.057,0-.084.009a1.052,1.052,0,0,0-.145.042c-.017.006-.036.009-.053.016a1.085,1.085,0,0,0-.138.072c-.016.01-.033.016-.049.026a1.08,1.08,0,0,0-.1.082c-.022.018-.046.033-.067.054l0,0h0c-.022.023-.039.049-.059.073a1.081,1.081,0,0,0-.077.093c-.016.024-.026.051-.04.075a.988.988,0,0,0-.058.111c-.011.027-.017.056-.025.083a.991.991,0,0,0-.034.115c-.006.031-.006.063-.01.094a1.085,1.085,0,0,0-.01.111c0,.035.006.07.01.1a1,1,0,0,0,.01.1,1.036,1.036,0,0,0,.032.112c.009.029.014.059.026.087a1.124,1.124,0,0,0,.057.109.874.874,0,0,0,.041.078,1.085,1.085,0,0,0,.073.091c.021.025.038.052.062.076l5.8,5.863a4.136,4.136,0,1,1-5.851,5.847l-5.212-5.212h0a5.931,5.931,0,0,0-.431-.485,1.073,1.073,0,0,0-1.515,1.52,3.745,3.745,0,0,1,.322.363l.02.024a4.135,4.135,0,0,1-6.187,5.463l-.87-.872,0,0a6.27,6.27,0,0,0-4.03-10.7l1.91-1.91a6.276,6.276,0,0,0-7.2-10.073,6.275,6.275,0,0,0-10.715-4.5l-.207.207a6.265,6.265,0,0,0-9.426-4.944l-.19-.519a14.353,14.353,0,0,0-5.008-6.666L31.058,14.269c.014-.018.025-.037.039-.054L38.239,16.8a32.051,32.051,0,0,0,9.15,1.868L40.9,22.727a6.628,6.628,0,0,0-3.132,5.653v3.193a6.666,6.666,0,0,0,12.823,2.556l.607-1.463a4.734,4.734,0,0,1,4.048-2.922l4.727-.346A14.573,14.573,0,0,0,72.5,39.121l1.808.15a.711.711,0,0,1,.44.2l17.13,17.106A4.127,4.127,0,0,1,93.1,59.519M76.259,37.95a2.859,2.859,0,0,0-1.777-.818l-1.808-.149a12.413,12.413,0,0,1-10.894-9,1.067,1.067,0,0,0-1.112-.783l-5.575.408a6.869,6.869,0,0,0-5.874,4.239l-.608,1.463a4.52,4.52,0,0,1-8.695-1.733V28.38a4.494,4.494,0,0,1,2.124-3.832l8.614-5.387a2.871,2.871,0,0,1,1.537-.435l44.537-.906,7.941,22.423a6.352,6.352,0,0,0,.4.9L88.495,50.169Z" transform="translate(0 0)" fill="#f6ad37"/>
  </g>
</svg>
