<svg xmlns="http://www.w3.org/2000/svg" xmlns:xlink="http://www.w3.org/1999/xlink" width="61.362" height="83.01" viewBox="0 0 61.362 83.01">
  <defs>
    <clipPath id="clip-path">
      <rect id="Rectangle_161" data-name="Rectangle 161" width="61.362" height="83.01" fill="#09275e"/>
    </clipPath>
  </defs>
  <g id="Group_295" data-name="Group 295" clip-path="url(#clip-path)">
    <path id="Path_476" data-name="Path 476" d="M45.239,47.329h-10.1a1.18,1.18,0,0,1-1.159-.954A27.829,27.829,0,0,0,29.767,36.2a12.561,12.561,0,0,1-2.045-8.472,12.7,12.7,0,0,1,25.316,1.447,12.6,12.6,0,0,1-2.274,7.246A27.628,27.628,0,0,0,46.393,46.4a1.18,1.18,0,0,1-1.153.93m-9.146-2.361H44.3a29.99,29.99,0,0,1,4.524-9.9,10.34,10.34,0,1,0-17.1-.182,30.238,30.238,0,0,1,4.363,10.077" transform="translate(-9.658 -5.759)" fill="#09275e"/>
    <path id="Path_477" data-name="Path 477" d="M48.129,68.779H39.985a1.18,1.18,0,1,1,0-2.361h8.144a1.18,1.18,0,1,1,0,2.361" transform="translate(-13.559 -23.209)" fill="#09275e"/>
    <path id="Path_478" data-name="Path 478" d="M46.58,74.8H45.132a1.18,1.18,0,1,1,0-2.361H46.58a1.18,1.18,0,1,1,0,2.361" transform="translate(-15.358 -25.314)" fill="#09275e"/>
    <path id="Path_479" data-name="Path 479" d="M46.526,7.416a1.18,1.18,0,0,1-1.181-1.18V1.181a1.181,1.181,0,1,1,2.362,0V6.236a1.181,1.181,0,0,1-1.181,1.18" transform="translate(-15.845 0)" fill="#09275e"/>
    <path id="Path_480" data-name="Path 480" d="M36.675,12.565a1.18,1.18,0,0,1-1.091-.729L34.448,9.094a1.181,1.181,0,0,1,2.181-.9l1.136,2.742a1.18,1.18,0,0,1-1.09,1.632" transform="translate(-12.006 -2.607)" fill="#09275e"/>
    <path id="Path_481" data-name="Path 481" d="M22.743,26.5a1.168,1.168,0,0,1-.451-.09L19.55,25.27a1.181,1.181,0,0,1,.9-2.181L23.2,24.224a1.181,1.181,0,0,1-.452,2.272" transform="translate(-6.577 -8.036)" fill="#09275e"/>
    <path id="Path_482" data-name="Path 482" d="M20,46.724a1.181,1.181,0,0,1-.452-2.272l2.741-1.135a1.181,1.181,0,1,1,.9,2.181l-2.741,1.135a1.165,1.165,0,0,1-.451.09" transform="translate(-6.577 -15.105)" fill="#09275e"/>
    <path id="Path_483" data-name="Path 483" d="M71.576,46.724a1.165,1.165,0,0,1-.451-.09L68.383,45.5a1.181,1.181,0,1,1,.9-2.181l2.741,1.135a1.181,1.181,0,0,1-.452,2.272" transform="translate(-23.641 -15.105)" fill="#09275e"/>
    <path id="Path_484" data-name="Path 484" d="M68.836,26.5a1.181,1.181,0,0,1-.452-2.272l2.741-1.135a1.181,1.181,0,1,1,.9,2.181l-2.741,1.135a1.165,1.165,0,0,1-.451.09" transform="translate(-23.641 -8.036)" fill="#09275e"/>
    <path id="Path_485" data-name="Path 485" d="M55.766,12.565a1.18,1.18,0,0,1-1.09-1.632L55.812,8.19a1.181,1.181,0,0,1,2.181.9l-1.136,2.741a1.181,1.181,0,0,1-1.091.729" transform="translate(-19.074 -2.607)" fill="#09275e"/>
    <path id="Path_486" data-name="Path 486" d="M25.761,16.018a1.177,1.177,0,0,1-.835-.345L21.351,12.1a1.181,1.181,0,0,1,1.669-1.67L26.6,14a1.18,1.18,0,0,1-.835,2.015" transform="translate(-7.34 -3.523)" fill="#09275e"/>
    <path id="Path_487" data-name="Path 487" d="M17.16,36.783H12.1a1.18,1.18,0,0,1,0-2.361H17.16a1.18,1.18,0,1,1,0,2.361" transform="translate(-3.817 -12.028)" fill="#09275e"/>
    <path id="Path_488" data-name="Path 488" d="M22.186,59.2a1.18,1.18,0,0,1-.835-2.015l3.575-3.575a1.181,1.181,0,1,1,1.669,1.67l-3.575,3.575a1.177,1.177,0,0,1-.835.345" transform="translate(-7.34 -18.613)" fill="#09275e"/>
    <path id="Path_489" data-name="Path 489" d="M68.945,59.2a1.177,1.177,0,0,1-.835-.345l-3.575-3.575a1.181,1.181,0,1,1,1.669-1.67l3.575,3.575a1.18,1.18,0,0,1-.835,2.015" transform="translate(-22.43 -18.613)" fill="#09275e"/>
    <path id="Path_490" data-name="Path 490" d="M78.232,36.783H73.176a1.18,1.18,0,0,1,0-2.361h5.056a1.18,1.18,0,1,1,0,2.361" transform="translate(-25.158 -12.028)" fill="#09275e"/>
    <path id="Path_491" data-name="Path 491" d="M65.37,16.018A1.18,1.18,0,0,1,64.535,14l3.575-3.575a1.181,1.181,0,0,1,1.669,1.67L66.2,15.672a1.178,1.178,0,0,1-.835.345" transform="translate(-22.43 -3.523)" fill="#09275e"/>
    <path id="Path_492" data-name="Path 492" d="M7.569,114.028H3.959A3.963,3.963,0,0,1,0,110.068V92.723a3.963,3.963,0,0,1,3.959-3.959H7.569a3.963,3.963,0,0,1,3.959,3.959v17.345a3.964,3.964,0,0,1-3.959,3.959m-3.611-22.9a1.6,1.6,0,0,0-1.6,1.6v17.345a1.6,1.6,0,0,0,1.6,1.6H7.569a1.6,1.6,0,0,0,1.6-1.6V92.723a1.6,1.6,0,0,0-1.6-1.6Z" transform="translate(0 -31.017)" fill="#09275e"/>
    <path id="Path_493" data-name="Path 493" d="M30.22,101.469a1.181,1.181,0,0,1-.349-2.308,32.083,32.083,0,0,1,13.894-1.122l5.476.77a1.252,1.252,0,0,0,1.388-.957l.1-.462a1.248,1.248,0,0,0-.928-1.488l-7.681-1.814a29.357,29.357,0,0,0-12.151-.3L15.486,96.466a1.181,1.181,0,0,1-.429-2.322l14.486-2.677a31.7,31.7,0,0,1,13.123.323L50.348,93.6a3.617,3.617,0,0,1,2.688,4.309l-.105.462a3.631,3.631,0,0,1-4.019,2.772l-5.477-.77a29.72,29.72,0,0,0-12.864,1.04,1.2,1.2,0,0,1-.351.053" transform="translate(-4.924 -31.774)" fill="#09275e"/>
    <path id="Path_494" data-name="Path 494" d="M29.37,115.356a121.809,121.809,0,0,1-14.237-.838,1.18,1.18,0,1,1,.276-2.345,118.367,118.367,0,0,0,45.1-3.356L63,108.139a1.245,1.245,0,0,0,.264-2.3,1.25,1.25,0,0,0-.591-.149l-13.629-.311a1.18,1.18,0,0,1-1.153-1.207,1.164,1.164,0,0,1,1.207-1.153l13.6.311a3.74,3.74,0,0,1,1.683.431,3.605,3.605,0,0,1-.763,6.655l-2.494.679a120.754,120.754,0,0,1-31.761,4.26" transform="translate(-4.924 -35.999)" fill="#09275e"/>
  </g>
</svg>
