<svg id="Group_236" data-name="Group 236" xmlns="http://www.w3.org/2000/svg" xmlns:xlink="http://www.w3.org/1999/xlink" width="176.856" height="141.055" viewBox="0 0 176.856 141.055">
  <defs>
    <clipPath id="clip-path">
      <rect id="Rectangle_133" data-name="Rectangle 133" width="176.856" height="141.055" fill="#014262"/>
    </clipPath>
  </defs>
  <g id="Group_235" data-name="Group 235" clip-path="url(#clip-path)">
    <path id="Path_298" data-name="Path 298" d="M148.051,69.569a1.446,1.446,0,0,1-1.444-1.444v-9.99a1.446,1.446,0,0,1,1.444-1.444h11.377a1.446,1.446,0,0,1,1.444,1.444v9.99a1.446,1.446,0,0,1-1.444,1.444Zm1.444-2.887h8.49v-7.1H149.5Z" transform="translate(-40.196 -15.543)" fill="#f6ad37"/>
    <path id="Path_299" data-name="Path 299" d="M113.448,69.569A1.445,1.445,0,0,1,112,68.126v-9.99a1.445,1.445,0,0,1,1.444-1.444h11.378a1.445,1.445,0,0,1,1.444,1.444v9.99a1.445,1.445,0,0,1-1.444,1.444Zm1.444-2.887h8.49v-7.1h-8.49Z" transform="translate(-30.709 -15.543)" fill="#f6ad37"/>
    <path id="Path_300" data-name="Path 300" d="M78.844,69.569A1.445,1.445,0,0,1,77.4,68.126v-9.99a1.445,1.445,0,0,1,1.444-1.444H90.222a1.445,1.445,0,0,1,1.444,1.444v9.99a1.445,1.445,0,0,1-1.444,1.444Zm1.443-2.887h8.491v-7.1H80.287Z" transform="translate(-21.221 -15.543)" fill="#f6ad37"/>
    <path id="Path_301" data-name="Path 301" d="M148.051,37.569a1.446,1.446,0,0,1-1.444-1.444v-9.99a1.446,1.446,0,0,1,1.444-1.444h11.377a1.446,1.446,0,0,1,1.444,1.444v9.99a1.446,1.446,0,0,1-1.444,1.444Zm1.444-2.887h8.49v-7.1H149.5Z" transform="translate(-40.196 -6.77)" fill="#f6ad37"/>
    <path id="Path_302" data-name="Path 302" d="M113.448,37.569A1.445,1.445,0,0,1,112,36.126v-9.99a1.445,1.445,0,0,1,1.444-1.444h11.378a1.445,1.445,0,0,1,1.444,1.444v9.99a1.445,1.445,0,0,1-1.444,1.444Zm1.444-2.887h8.49v-7.1h-8.49Z" transform="translate(-30.709 -6.77)" fill="#f6ad37"/>
    <path id="Path_303" data-name="Path 303" d="M78.844,37.569A1.445,1.445,0,0,1,77.4,36.126v-9.99a1.445,1.445,0,0,1,1.444-1.444H90.222a1.445,1.445,0,0,1,1.444,1.444v9.99a1.445,1.445,0,0,1-1.444,1.444Zm1.443-2.887h8.491v-7.1H80.287Z" transform="translate(-21.221 -6.77)" fill="#f6ad37"/>
    <path id="Path_304" data-name="Path 304" d="M148.051,102.3a1.445,1.445,0,0,1-1.444-1.443V90.865a1.446,1.446,0,0,1,1.444-1.443h11.377a1.446,1.446,0,0,1,1.444,1.443v9.992a1.445,1.445,0,0,1-1.444,1.443Zm1.444-2.887h8.49v-7.1H149.5Z" transform="translate(-40.196 -24.518)" fill="#f6ad37"/>
    <path id="Path_305" data-name="Path 305" d="M113.448,102.3A1.444,1.444,0,0,1,112,100.857V90.865a1.445,1.445,0,0,1,1.444-1.443h11.378a1.445,1.445,0,0,1,1.444,1.443v9.992a1.444,1.444,0,0,1-1.444,1.443Zm1.444-2.887h8.49v-7.1h-8.49Z" transform="translate(-30.709 -24.518)" fill="#f6ad37"/>
    <path id="Path_306" data-name="Path 306" d="M78.844,102.3a1.445,1.445,0,0,1-1.444-1.443V90.865a1.445,1.445,0,0,1,1.444-1.443H90.222a1.445,1.445,0,0,1,1.444,1.443v9.992a1.444,1.444,0,0,1-1.444,1.443Zm1.443-2.887h8.491v-7.1H80.287Z" transform="translate(-21.221 -24.518)" fill="#f6ad37"/>
    <path id="Path_307" data-name="Path 307" d="M148.051,135.029a1.446,1.446,0,0,1-1.444-1.444V123.6a1.446,1.446,0,0,1,1.444-1.445h11.377a1.446,1.446,0,0,1,1.444,1.445v9.989a1.446,1.446,0,0,1-1.444,1.444Zm1.444-2.887h8.49v-7.1H149.5Z" transform="translate(-40.196 -33.491)" fill="#f6ad37"/>
    <path id="Path_308" data-name="Path 308" d="M113.448,135.029A1.445,1.445,0,0,1,112,133.586V123.6a1.446,1.446,0,0,1,1.444-1.445h11.378a1.446,1.446,0,0,1,1.444,1.445v9.989a1.445,1.445,0,0,1-1.444,1.444Zm1.444-2.887h8.49v-7.1h-8.49Z" transform="translate(-30.709 -33.491)" fill="#f6ad37"/>
    <path id="Path_309" data-name="Path 309" d="M78.844,135.029a1.445,1.445,0,0,1-1.444-1.444V123.6a1.446,1.446,0,0,1,1.444-1.445H90.222a1.446,1.446,0,0,1,1.444,1.445v9.989a1.445,1.445,0,0,1-1.444,1.444Zm1.443-2.887h8.491v-7.1H80.287Z" transform="translate(-21.221 -33.491)" fill="#f6ad37"/>
    <path id="Path_310" data-name="Path 310" d="M148.051,167.76a1.446,1.446,0,0,1-1.444-1.444v-9.99a1.446,1.446,0,0,1,1.444-1.444h11.377a1.446,1.446,0,0,1,1.444,1.444v9.99a1.446,1.446,0,0,1-1.444,1.444Zm1.444-2.886h8.49v-7.1H149.5Z" transform="translate(-40.196 -42.465)" fill="#f6ad37"/>
    <path id="Path_311" data-name="Path 311" d="M78.844,167.76a1.445,1.445,0,0,1-1.444-1.444v-9.99a1.446,1.446,0,0,1,1.444-1.444H90.222a1.446,1.446,0,0,1,1.444,1.444v9.99a1.445,1.445,0,0,1-1.444,1.444Zm1.443-2.886h8.491v-7.1H80.287Z" transform="translate(-21.221 -42.465)" fill="#f6ad37"/>
    <path id="Path_312" data-name="Path 312" d="M1.444,141.055a1.444,1.444,0,0,1,0-2.888H9.751V56.51a1.446,1.446,0,0,1,1.443-1.444h31V1.444A1.446,1.446,0,0,1,43.636,0h89.582a1.446,1.446,0,0,1,1.444,1.444V55.065h31a1.446,1.446,0,0,1,1.444,1.444v81.657h8.306a1.444,1.444,0,1,1,0,2.888Zm133.22-2.888h29.554V57.953H134.663Zm-40.547-25.75a1.446,1.446,0,0,1,1.444,1.444v24.306h36.216V2.888H45.08V138.167H81.295V113.86a1.446,1.446,0,0,1,1.444-1.444Zm-9.934,25.75h8.49V115.3h-8.49Zm-71.544,0H42.193V57.953H12.638Z" fill="#014262"/>
    <path id="Path_313" data-name="Path 313" d="M197.508,102.3a1.445,1.445,0,0,1-1.444-1.443V90.865a1.445,1.445,0,0,1,1.444-1.443h11.378a1.445,1.445,0,0,1,1.444,1.443v9.992a1.444,1.444,0,0,1-1.444,1.443Zm1.444-2.887h8.49v-7.1h-8.49Z" transform="translate(-53.756 -24.518)" fill="#f6ad37"/>
    <path id="Path_314" data-name="Path 314" d="M197.508,135.029a1.446,1.446,0,0,1-1.444-1.444V123.6a1.446,1.446,0,0,1,1.444-1.445h11.378a1.446,1.446,0,0,1,1.444,1.445v9.989a1.445,1.445,0,0,1-1.444,1.444Zm1.444-2.887h8.49v-7.1h-8.49Z" transform="translate(-53.756 -33.491)" fill="#f6ad37"/>
    <path id="Path_315" data-name="Path 315" d="M197.508,167.76a1.446,1.446,0,0,1-1.444-1.444v-9.99a1.446,1.446,0,0,1,1.444-1.444h11.378a1.446,1.446,0,0,1,1.444,1.444v9.99a1.445,1.445,0,0,1-1.444,1.444Zm1.444-2.886h8.49v-7.1h-8.49Z" transform="translate(-53.756 -42.465)" fill="#f6ad37"/>
    <path id="Path_316" data-name="Path 316" d="M29.57,102.3a1.445,1.445,0,0,1-1.444-1.443V90.865a1.445,1.445,0,0,1,1.444-1.443H40.948a1.445,1.445,0,0,1,1.443,1.443v9.992a1.444,1.444,0,0,1-1.443,1.443Zm1.444-2.887H39.5v-7.1H31.013Z" transform="translate(-7.712 -24.518)" fill="#f6ad37"/>
    <path id="Path_317" data-name="Path 317" d="M29.57,135.029a1.446,1.446,0,0,1-1.444-1.444V123.6a1.446,1.446,0,0,1,1.444-1.445H40.948a1.446,1.446,0,0,1,1.443,1.445v9.989a1.445,1.445,0,0,1-1.443,1.444Zm1.444-2.887H39.5v-7.1H31.013Z" transform="translate(-7.712 -33.491)" fill="#f6ad37"/>
    <path id="Path_318" data-name="Path 318" d="M29.57,167.76a1.446,1.446,0,0,1-1.444-1.444v-9.99a1.446,1.446,0,0,1,1.444-1.444H40.948a1.445,1.445,0,0,1,1.443,1.444v9.99a1.445,1.445,0,0,1-1.443,1.444Zm1.444-2.886H39.5v-7.1H31.013Z" transform="translate(-7.712 -42.465)" fill="#f6ad37"/>
  </g>
</svg>
