<svg id="Group_84" data-name="Group 84" xmlns="http://www.w3.org/2000/svg" xmlns:xlink="http://www.w3.org/1999/xlink" width="70.742" height="65.908" viewBox="0 0 70.742 65.908">
  <defs>
    <clipPath id="clip-path">
      <rect id="Rectangle_69" data-name="Rectangle 69" width="70.742" height="65.908" fill="#014262"/>
    </clipPath>
  </defs>
  <g id="Group_83" data-name="Group 83" clip-path="url(#clip-path)">
    <path id="Path_206" data-name="Path 206" d="M99.962,87.585V87.4s-4.518-.01-6.49-.013a25.772,25.772,0,0,0,.908-2.49h3.408a1.053,1.053,0,0,0-.023-2.105H95.013c.192-.635.393-1.278.627-1.9a1.743,1.743,0,0,1,1.156-1.21,1.506,1.506,0,0,1,.35-.042,1.445,1.445,0,0,1,1.168.587,1.057,1.057,0,0,0,.9.5,1.083,1.083,0,0,0,.532-.143,1.062,1.062,0,0,0,.373-1.436l-.024-.038a3.648,3.648,0,0,0-2.875-1.583h-.053a3.627,3.627,0,0,0-2.915,1.489,5.641,5.641,0,0,0-.714,1.49c-.187.528-.352,1.053-.475,1.45q-.128.415-.252.83H91.484a1.054,1.054,0,0,0-1.014,1.09A1.063,1.063,0,0,0,91.507,84.9h.658v0a17.5,17.5,0,0,1-1.26,2.992,1.066,1.066,0,0,0,.9,1.6c2.525.006,7.591.015,7.591.015h.011a1.052,1.052,0,0,0,.555-1.921" transform="translate(-60.887 -48.756)" fill="#014262"/>
    <path id="Path_207" data-name="Path 207" d="M62.9,65.908H7.84A7.848,7.848,0,0,1,0,58.068V7.84A7.848,7.848,0,0,1,7.84,0H62.9a7.848,7.848,0,0,1,7.84,7.84V58.068a7.848,7.848,0,0,1-7.84,7.84M7.84,1.742a6.1,6.1,0,0,0-6.1,6.1V58.068a6.1,6.1,0,0,0,6.1,6.1H62.9a6.1,6.1,0,0,0,6.1-6.1V7.84a6.1,6.1,0,0,0-6.1-6.1Z" fill="#014262"/>
    <path id="Path_208" data-name="Path 208" d="M69.871,41.732h-69a.871.871,0,0,1,0-1.742h69a.871.871,0,0,1,0,1.742" transform="translate(0 -26.33)" fill="#014262"/>
    <path id="Path_209" data-name="Path 209" d="M130.137,21a1.67,1.67,0,1,1,1.67-1.67,1.672,1.672,0,0,1-1.67,1.67m0-1.742a.072.072,0,0,0-.072.072c0,.082.145.081.145,0a.072.072,0,0,0-.072-.072" transform="translate(-84.584 -11.625)" fill="#014262"/>
    <path id="Path_210" data-name="Path 210" d="M158.653,21a1.67,1.67,0,1,1,1.669-1.67A1.672,1.672,0,0,1,158.653,21m0-1.742a.072.072,0,0,0-.073.072c0,.081.145.082.145,0a.072.072,0,0,0-.072-.072" transform="translate(-103.359 -11.625)" fill="#014262"/>
    <path id="Path_211" data-name="Path 211" d="M83.5,87.267A14.048,14.048,0,1,1,97.546,73.219,14.064,14.064,0,0,1,83.5,87.267m0-25.994A11.947,11.947,0,1,0,95.445,73.219,11.96,11.96,0,0,0,83.5,61.273" transform="translate(-48.529 -37.959)" fill="#014262"/>
    <path id="Path_212" data-name="Path 212" d="M37.729,147.771a.508.508,0,0,1-.359-.868l5.191-5.191a.508.508,0,0,1,.719.719l-5.191,5.191a.507.507,0,0,1-.359.149" transform="translate(-24.507 -88.775)" fill="#014262"/>
    <path id="Path_213" data-name="Path 213" d="M42.92,147.771a.507.507,0,0,1-.359-.149l-5.191-5.191a.508.508,0,1,1,.719-.719L43.28,146.9a.508.508,0,0,1-.359.868" transform="translate(-24.507 -88.775)" fill="#014262"/>
    <path id="Path_214" data-name="Path 214" d="M131.261,148.4h0a.508.508,0,0,1-.359-.149l-2.509-2.509a.508.508,0,0,1,.719-.719l2.149,2.15,4.413-4.413a.508.508,0,0,1,.719.719l-4.772,4.772a.508.508,0,0,1-.359.149" transform="translate(-77.387 -89.618)" fill="#014262"/>
  </g>
</svg>
