<svg id="Group_265" data-name="Group 265" xmlns="http://www.w3.org/2000/svg" xmlns:xlink="http://www.w3.org/1999/xlink" width="141.888" height="137.529" viewBox="0 0 141.888 137.529">
  <defs>
    <clipPath id="clip-path">
      <rect id="Rectangle_144" data-name="Rectangle 144" width="141.888" height="137.529" fill="#014262"/>
    </clipPath>
  </defs>
  <g id="Group_264" data-name="Group 264" clip-path="url(#clip-path)">
    <path id="Path_414" data-name="Path 414" d="M163.285,165.147l0,0q-11.921-.028-23.843-.046a87.143,87.143,0,0,0,4.885-13h13.35a1.455,1.455,0,0,0,0-2.908H145.212l.047-.158c.941-3.141,1.854-6.305,3.016-9.375,1-2.652,2.694-4.812,5.54-5.546a7.257,7.257,0,0,1,7.629,2.865,1.491,1.491,0,0,0,1.989.521,1.467,1.467,0,0,0,.522-1.99,10.384,10.384,0,0,0-8.215-4.523,10.277,10.277,0,0,0-8.39,4.185,17.633,17.633,0,0,0-2.227,4.67c-.578,1.632-1.1,3.279-1.614,4.935-.453,1.47-.892,2.943-1.335,4.417h-6.162a1.455,1.455,0,0,0,0,2.908h5.277c-.3.957-.6,1.91-.911,2.86a62.772,62.772,0,0,1-4.573,10.825,1.355,1.355,0,0,0-.1,1.2A1.33,1.33,0,0,0,137.049,168q13.115.03,26.235.051a1.455,1.455,0,0,0,0-2.908" transform="translate(-52.911 -51.487)" fill="#f6ad37"/>
    <path id="Path_415" data-name="Path 415" d="M155.138,73.217a5.359,5.359,0,0,0,1.625-3.844V65.479a5.384,5.384,0,0,0-5.377-5.378h-2.1l.174-.25A40.782,40.782,0,0,0,156.677,39.2a5.821,5.821,0,0,0-2.36-5.069,5.931,5.931,0,0,0-5.643-.791,26.426,26.426,0,0,1-3.983,1.287,46.633,46.633,0,0,1-4.715-5.218,5.919,5.919,0,0,0-9.461.486l-3.824,5.683-3.99-.65a5.85,5.85,0,0,0-5.762,2.408,5.965,5.965,0,0,0-.339,6.359A33.5,33.5,0,0,1,120.751,60.1h-.94a5.384,5.384,0,0,0-5.378,5.378v3.893a5.357,5.357,0,0,0,1.615,3.835,47.872,47.872,0,0,0-21.266,54.667,28.636,28.636,0,0,0,27.269,20.375H149.12a28.637,28.637,0,0,0,27.27-20.375,47.875,47.875,0,0,0-21.251-54.658M120.632,45.758a36.469,36.469,0,0,0-1.639-3.382,3.211,3.211,0,0,1,.178-3.468,3.1,3.1,0,0,1,3.091-1.287l3.963.646,2.163,8.816a1.365,1.365,0,1,0,2.652-.651l-2.234-9.106,3.975-5.909a3.188,3.188,0,0,1,5.1-.262,53.709,53.709,0,0,0,4.934,5.455l-2.387,11.672a1.366,1.366,0,0,0,2.676.547l2.368-11.576a33.071,33.071,0,0,0,4.168-1.36,3.215,3.215,0,0,1,3.055.43,3.061,3.061,0,0,1,1.261,2.7,38.06,38.06,0,0,1-6.73,19.27l-.95,1.362a1.366,1.366,0,0,0-.2.449H123.481a35.979,35.979,0,0,0-2.85-14.343m-3.467,19.721a2.65,2.65,0,0,1,2.647-2.647h31.574a2.649,2.649,0,0,1,2.646,2.647v3.893a2.646,2.646,0,0,1-1.558,2.406,1.36,1.36,0,0,0-1.13.24H119.828a1.358,1.358,0,0,0-1.111-.244,2.646,2.646,0,0,1-1.552-2.4ZM173.772,127.1a25.89,25.89,0,0,1-24.652,18.422H122.051A25.889,25.889,0,0,1,97.4,127.1a45.142,45.142,0,0,1,21.575-52.418,5.357,5.357,0,0,0,.837.072h31.574a5.337,5.337,0,0,0,.817-.069A45.144,45.144,0,0,1,173.772,127.1" transform="translate(-36.479 -10.721)" fill="#f6ad37"/>
    <path id="Path_416" data-name="Path 416" d="M52.23,133.283H7.033a4.306,4.306,0,0,1-4.3-4.3V7.032a4.306,4.306,0,0,1,4.3-4.3H79.4a4.306,4.306,0,0,1,4.3,4.3v6.58a1.366,1.366,0,1,0,2.731,0V7.032A7.04,7.04,0,0,0,79.4,0H7.033A7.04,7.04,0,0,0,0,7.032v121.95a7.041,7.041,0,0,0,7.033,7.033h45.2a1.366,1.366,0,0,0,0-2.731" fill="#014262"/>
    <path id="Path_417" data-name="Path 417" d="M81.53,33.138A1.366,1.366,0,0,0,82.9,31.773V26.639a1.366,1.366,0,0,0-1.366-1.366H17.892a1.366,1.366,0,0,0-1.366,1.366V54.105a1.366,1.366,0,0,0,1.366,1.366H72.34a1.366,1.366,0,1,0,0-2.731H19.257V28H80.165v3.768a1.366,1.366,0,0,0,1.366,1.366" transform="translate(-6.496 -9.934)" fill="#014262"/>
    <path id="Path_418" data-name="Path 418" d="M32.749,93.249A4.957,4.957,0,0,0,27.8,88.3H19.783a4.958,4.958,0,0,0-4.953,4.952v8.016a4.957,4.957,0,0,0,4.953,4.951H27.8a4.957,4.957,0,0,0,4.952-4.951Zm-2.731,8.016a2.222,2.222,0,0,1-2.221,2.22H19.783a2.223,2.223,0,0,1-2.221-2.22V93.249a2.223,2.223,0,0,1,2.221-2.221H27.8a2.223,2.223,0,0,1,2.221,2.221Z" transform="translate(-5.829 -34.707)" fill="#014262"/>
    <path id="Path_419" data-name="Path 419" d="M74.36,93.249A4.957,4.957,0,0,0,69.408,88.3H61.392a4.957,4.957,0,0,0-4.951,4.952v8.016a4.957,4.957,0,0,0,4.951,4.951h8.016a4.957,4.957,0,0,0,4.952-4.951Zm-2.731,8.016a2.222,2.222,0,0,1-2.221,2.22H61.392a2.222,2.222,0,0,1-2.22-2.22V93.249a2.223,2.223,0,0,1,2.22-2.221h8.016a2.223,2.223,0,0,1,2.221,2.221Z" transform="translate(-22.185 -34.707)" fill="#014262"/>
    <path id="Path_420" data-name="Path 420" d="M32.749,136.043a4.957,4.957,0,0,0-4.952-4.952H19.783a4.958,4.958,0,0,0-4.953,4.952v8.016a4.957,4.957,0,0,0,4.953,4.951H27.8a4.957,4.957,0,0,0,4.952-4.951Zm-2.731,8.016a2.222,2.222,0,0,1-2.221,2.22H19.783a2.223,2.223,0,0,1-2.221-2.22v-8.016a2.223,2.223,0,0,1,2.221-2.221H27.8a2.223,2.223,0,0,1,2.221,2.221Z" transform="translate(-5.829 -51.527)" fill="#014262"/>
    <path id="Path_421" data-name="Path 421" d="M74.36,136.043a4.957,4.957,0,0,0-4.952-4.952H61.392a4.957,4.957,0,0,0-4.951,4.952v8.016a4.957,4.957,0,0,0,4.951,4.951h8.016a4.957,4.957,0,0,0,4.952-4.951Zm-2.731,8.016a2.222,2.222,0,0,1-2.221,2.22H61.392a2.222,2.222,0,0,1-2.22-2.22v-8.016a2.223,2.223,0,0,1,2.22-2.221h8.016a2.223,2.223,0,0,1,2.221,2.221Z" transform="translate(-22.185 -51.527)" fill="#014262"/>
    <path id="Path_422" data-name="Path 422" d="M27.8,173.886H19.783a4.958,4.958,0,0,0-4.953,4.951v8.016a4.957,4.957,0,0,0,4.953,4.951H27.8a4.957,4.957,0,0,0,4.952-4.951v-8.016a4.957,4.957,0,0,0-4.952-4.951m2.221,12.967a2.222,2.222,0,0,1-2.221,2.22H19.783a2.223,2.223,0,0,1-2.221-2.22v-8.016a2.223,2.223,0,0,1,2.221-2.22H27.8a2.222,2.222,0,0,1,2.221,2.22Z" transform="translate(-5.829 -68.349)" fill="#014262"/>
    <path id="Path_423" data-name="Path 423" d="M69.408,173.886H61.392a4.957,4.957,0,0,0-4.951,4.951v8.016a4.957,4.957,0,0,0,4.951,4.951h8.016a4.957,4.957,0,0,0,4.952-4.951v-8.016a4.957,4.957,0,0,0-4.952-4.951m2.221,12.967a2.222,2.222,0,0,1-2.221,2.22H61.392a2.222,2.222,0,0,1-2.22-2.22v-8.016a2.222,2.222,0,0,1,2.22-2.22h8.016a2.222,2.222,0,0,1,2.221,2.22Z" transform="translate(-22.185 -68.349)" fill="#014262"/>
  </g>
</svg>
