<svg id="Group_88" data-name="Group 88" xmlns="http://www.w3.org/2000/svg" xmlns:xlink="http://www.w3.org/1999/xlink" width="69.833" height="68" viewBox="0 0 69.833 68">
  <defs>
    <clipPath id="clip-path">
      <rect id="Rectangle_71" data-name="Rectangle 71" width="69.833" height="68" fill="#014262"/>
    </clipPath>
  </defs>
  <g id="Group_87" data-name="Group 87" clip-path="url(#clip-path)">
    <path id="Path_218" data-name="Path 218" d="M89.8,55.74a.835.835,0,0,1-.834-.834c0-1.75-2.749-3.228-6-3.228s-6,1.478-6,3.228a.834.834,0,1,1-1.668,0c0-2.7,3.441-4.9,7.671-4.9s7.671,2.2,7.671,4.9a.835.835,0,0,1-.834.834" transform="translate(-49.549 -32.912)" fill="#014262"/>
    <path id="Path_219" data-name="Path 219" d="M90.719,56.183a.356.356,0,0,1-.356-.356c0-2.044-2.908-3.707-6.482-3.707S77.4,53.784,77.4,55.828a.356.356,0,1,1-.711,0c0-2.436,3.227-4.418,7.193-4.418s7.193,1.982,7.193,4.418a.356.356,0,0,1-.356.356" transform="translate(-50.471 -33.834)" fill="#014262"/>
    <path id="Path_220" data-name="Path 220" d="M90.118,34.02a3.954,3.954,0,1,1,3.953-3.954,3.958,3.958,0,0,1-3.953,3.954m0-6.239A2.285,2.285,0,1,0,92.4,30.067a2.288,2.288,0,0,0-2.285-2.285" transform="translate(-56.707 -17.185)" fill="#014262"/>
    <path id="Path_221" data-name="Path 221" d="M91.04,34.463a3.475,3.475,0,1,1,3.475-3.475,3.478,3.478,0,0,1-3.475,3.475m0-6.239A2.764,2.764,0,1,0,93.8,30.988a2.767,2.767,0,0,0-2.764-2.764" transform="translate(-57.628 -18.108)" fill="#014262"/>
    <path id="Path_222" data-name="Path 222" d="M5.055,75.516a2.132,2.132,0,0,1-.7-1.009c-.245-.5-2.168-4.116-3.268-6.18-.117-.289-.292-.649-.465-1A5.72,5.72,0,0,1,0,65.722V15.265c0-.4.532-.754,1.138-.754H8.97c.617,0,1.138.345,1.138.754V66.111a5.339,5.339,0,0,1-.8,1.728c-.1.168-.2.328-.278.475-1.368,2.556-3.039,5.691-3.263,6.149a2.181,2.181,0,0,1-.712,1.053M2.3,67.4c.635,1.231,1.177,2.23,1.621,3.049.235.432.442.813.621,1.152l.513.971.515-.97c.518-.977,1.242-2.328,2.241-4.193l.458-.856H1.859Zm-.788-2.057H8.6V21.3H1.508Zm0-45.552H8.622V16.019H1.507Z" transform="translate(0 -9.55)" fill="#014262"/>
    <path id="Path_223" data-name="Path 223" d="M51.4,68a.877.877,0,0,1-.876-.875V.876A.877.877,0,0,1,51.4,0H84.934A.845.845,0,0,1,85.1.017l.036.007a.949.949,0,0,1,.179.069l.057.031a.9.9,0,0,1,.176.129l.041.041L85.6.3,102.706,17.41l.032.025a.866.866,0,0,1,.347.7.616.616,0,0,1-.009.08l-.005.04,0,.074v48.8a.876.876,0,0,1-.875.875Zm.875-1.751h49.038V19.008H84.934a.877.877,0,0,1-.875-.876V1.751H52.277ZM85.809,17.257h14.268L85.809,2.989Z" transform="translate(-33.252)" fill="#014262"/>
    <path id="Path_224" data-name="Path 224" d="M130.658,102.924a.876.876,0,1,1,0-1.751H147.39a.876.876,0,0,1,0,1.751Z" transform="translate(-85.412 -66.584)" fill="#014262"/>
    <path id="Path_225" data-name="Path 225" d="M160.353,121.386a.876.876,0,0,1,0-1.751h6.753a.876.876,0,0,1,0,1.751Z" transform="translate(-104.956 -78.734)" fill="#014262"/>
    <path id="Path_226" data-name="Path 226" d="M160.353,152.159a.876.876,0,0,1,0-1.751h6.753a.876.876,0,0,1,0,1.751Z" transform="translate(-104.956 -98.986)" fill="#014262"/>
    <path id="Path_227" data-name="Path 227" d="M110.468,102.925a.876.876,0,1,1,0-1.751h2.514a.876.876,0,1,1,0,1.751Z" transform="translate(-72.125 -66.585)" fill="#014262"/>
    <path id="Path_228" data-name="Path 228" d="M172.6,136.544a.876.876,0,0,1,0-1.751h2.514a.876.876,0,1,1,0,1.751Z" transform="translate(-113.016 -88.71)" fill="#014262"/>
    <path id="Path_229" data-name="Path 229" d="M152.416,136.544a.876.876,0,0,1,0-1.751h2.515a.876.876,0,0,1,0,1.751Z" transform="translate(-99.732 -88.71)" fill="#014262"/>
    <path id="Path_230" data-name="Path 230" d="M100.526,136.544a.876.876,0,1,1,0-1.751h12.91a.876.876,0,1,1,0,1.751Z" transform="translate(-65.582 -88.71)" fill="#014262"/>
    <path id="Path_231" data-name="Path 231" d="M92,121.388a.876.876,0,1,1,0-1.751h18.815a.876.876,0,1,1,0,1.751Z" transform="translate(-59.973 -78.735)" fill="#014262"/>
  </g>
</svg>
