<svg id="Group_280" data-name="Group 280" xmlns="http://www.w3.org/2000/svg" xmlns:xlink="http://www.w3.org/1999/xlink" width="55.964" height="70.973" viewBox="0 0 55.964 70.973">
  <defs>
    <clipPath id="clip-path">
      <rect id="Rectangle_21" data-name="Rectangle 21" width="55.964" height="70.973" fill="#14acaf"/>
    </clipPath>
  </defs>
  <g id="Group_14" data-name="Group 14" clip-path="url(#clip-path)">
    <path id="Path_49" data-name="Path 49" d="M37.687,128H18.276a19.3,19.3,0,0,1-12.9-4.766A15.475,15.475,0,0,1,0,111.628,48.9,48.9,0,0,1,5.926,88.482l.687-1.264a21.6,21.6,0,0,1,6.331-7.183.73.73,0,0,1,.862,1.177,20.162,20.162,0,0,0-5.91,6.7l-.687,1.264a47.438,47.438,0,0,0-5.749,22.45,14.034,14.034,0,0,0,4.893,10.52,17.845,17.845,0,0,0,11.924,4.4H37.687c9.273,0,16.817-6.691,16.817-14.917a46.383,46.383,0,0,0-1.454-11.506,48.255,48.255,0,0,0-4.3-10.946l-.685-1.26a20.171,20.171,0,0,0-5.911-6.7.729.729,0,0,1,.862-1.177,21.6,21.6,0,0,1,6.332,7.185l.685,1.26A49.751,49.751,0,0,1,54.464,99.76a47.839,47.839,0,0,1,1.5,11.868c0,9.03-8.2,16.376-18.277,16.376" transform="translate(0 -57.031)" fill="#014262"/>
    <path id="Path_50" data-name="Path 50" d="M75.779,7.744A.73.73,0,0,1,75.2,6.576l.4-.529a1.785,1.785,0,0,0,.172-1.98,2.309,2.309,0,0,0-2.218-1.178c-.292.016-.588.022-.889.022A17.039,17.039,0,0,1,67.068,2a9.863,9.863,0,0,0-6.444,0,17.1,17.1,0,0,1-6.479.887,2.307,2.307,0,0,0-2.21,1.176,1.785,1.785,0,0,0,.171,1.979l.4.528a.73.73,0,1,1-1.161.885l-.4-.529a3.237,3.237,0,0,1-.3-3.544,3.756,3.756,0,0,1,3.576-1.952A15.568,15.568,0,0,0,60.147.623a11.339,11.339,0,0,1,7.4-.005,15.589,15.589,0,0,0,5.113.834c.274,0,.543,0,.813-.02a3.773,3.773,0,0,1,3.585,1.955,3.233,3.233,0,0,1-.3,3.541l-.4.526a.729.729,0,0,1-.584.291" transform="translate(-35.872 0)" fill="#014262"/>
    <path id="Path_51" data-name="Path 51" d="M77.423,48.857H60.03a2.954,2.954,0,0,1-2.951-2.951V40.413a2.955,2.955,0,0,1,2.951-2.951H77.423a2.955,2.955,0,0,1,2.951,2.951v5.493a2.954,2.954,0,0,1-2.951,2.951M60.03,38.921a1.494,1.494,0,0,0-1.492,1.492v5.493A1.493,1.493,0,0,0,60.03,47.4H77.423a1.493,1.493,0,0,0,1.492-1.491V40.413a1.494,1.494,0,0,0-1.492-1.492Z" transform="translate(-40.745 -26.742)" fill="#f6ad37"/>
    <path id="Path_52" data-name="Path 52" d="M82.961,148.8q-5.865-.014-11.73-.023a42.893,42.893,0,0,0,2.4-6.394H80.2a.716.716,0,0,0,0-1.431H74.069l.023-.078c.463-1.545.913-3.1,1.484-4.612a4.035,4.035,0,0,1,2.726-2.729,3.57,3.57,0,0,1,3.753,1.41.735.735,0,0,0,.979.257.722.722,0,0,0,.257-.979A5.107,5.107,0,0,0,79.248,132a5.056,5.056,0,0,0-4.128,2.059,8.674,8.674,0,0,0-1.1,2.3c-.283.8-.543,1.614-.794,2.428-.223.723-.439,1.448-.656,2.173H69.543a.716.716,0,0,0,0,1.431h2.6c-.146.47-.294.94-.449,1.407a30.866,30.866,0,0,1-2.25,5.325.669.669,0,0,0-.046.593.654.654,0,0,0,.659.5q6.453.015,12.907.025a.716.716,0,0,0,0-1.431" transform="translate(-49.149 -94.224)" fill="#f6ad37"/>
  </g>
</svg>
