<svg xmlns="http://www.w3.org/2000/svg" xmlns:xlink="http://www.w3.org/1999/xlink" width="101.576" height="65.124" viewBox="0 0 101.576 65.124">
  <defs>
    <clipPath id="clip-path">
      <rect id="Rectangle_158" data-name="Rectangle 158" width="101.576" height="65.124" fill="#f6ad37"/>
    </clipPath>
  </defs>
  <g id="Group_289" data-name="Group 289" clip-path="url(#clip-path)">
    <path id="Path_454" data-name="Path 454" d="M131.793,12a6,6,0,1,0-6-6,6.005,6.005,0,0,0,6,6m0-10.018A4.02,4.02,0,1,1,127.774,6a4.024,4.024,0,0,1,4.019-4.02" transform="translate(-44.598 0)" fill="#f6ad37"/>
    <path id="Path_455" data-name="Path 455" d="M117.76,19.988H105.009a8.329,8.329,0,0,0-5.868,2.4L88.352,32.984V20.206a3.483,3.483,0,0,0-3.479-3.478H66.162a.992.992,0,0,0-.99.992v7.994a.989.989,0,0,0,1.758.622,3.163,3.163,0,1,1,0,3.97.989.989,0,0,0-1.758.621v7.992a.99.99,0,0,0,.99.99h5.971a5.142,5.142,0,0,0,4.629,7.382h.086a5.141,5.141,0,0,0,4.54-7.382h5.973a.982.982,0,0,0,.537-.161,3.944,3.944,0,0,0,5.2-.338l7.727-7.727a.6.6,0,0,1,1.024.425v9.521c0,.094,0,.171.005.26v.54h0v.01l0,.043V66.175a4.842,4.842,0,0,0,4.259,4.857,4.742,4.742,0,0,0,3.635-1.2,4.67,4.67,0,0,0,.556-.6,4.675,4.675,0,0,0,.556.6,4.742,4.742,0,0,0,3.183,1.225c.149,0,.3-.008.451-.022a4.842,4.842,0,0,0,4.259-4.857V45.964a3.755,3.755,0,0,0,1.59.528,3.956,3.956,0,0,0,4.341-3.935V26.909a6.929,6.929,0,0,0-6.921-6.921M86.372,37.929h-7a.989.989,0,0,0-.622,1.759,3.177,3.177,0,0,1-1.931,5.625,3.277,3.277,0,0,1-2.273-.909,3.16,3.16,0,0,1,.234-4.716.99.99,0,0,0-.622-1.759h-7V32.949a5.127,5.127,0,0,0,5.778-8.329,5.045,5.045,0,0,0-3.688-1.439,5.131,5.131,0,0,0-2.091.513V18.707H84.872a1.5,1.5,0,0,1,1.5,1.5Zm36.33,4.628a1.977,1.977,0,0,1-2.173,1.967,2.062,2.062,0,0,1-1.779-2.095V31.685a.99.99,0,0,0-1.979,0v34.49a2.852,2.852,0,0,1-2.468,2.889,2.741,2.741,0,0,1-3.012-2.728V48.295a.99.99,0,1,0-1.979,0V66.336a2.742,2.742,0,0,1-3.014,2.728,2.852,2.852,0,0,1-2.468-2.889V42.463c0-.012,0-.023,0-.034V31.685a.978.978,0,0,0-.229-.625,2.575,2.575,0,0,0-4.177-.777L91.7,38.01a2,2,0,0,1-1.494.576,1.968,1.968,0,0,1-1.436-.723,2.063,2.063,0,0,1,.22-2.736L100.527,23.8a6.364,6.364,0,0,1,4.482-1.832H117.76a4.947,4.947,0,0,1,4.942,4.942Z" transform="translate(-23.105 -5.931)" fill="#f6ad37"/>
    <path id="Path_456" data-name="Path 456" d="M43.389,48.708H35.394a.99.99,0,0,0-.622,1.759,3.177,3.177,0,0,1-1.931,5.625,3.219,3.219,0,0,1-2.273-.909,3.16,3.16,0,0,1,.234-4.716.99.99,0,0,0-.622-1.759h-7V43.726a5.142,5.142,0,1,0,0-9.255V28.5a.99.99,0,0,0-.99-.99H3.478A3.483,3.483,0,0,0,0,30.987v18.7H0v0H0V68.409a3.483,3.483,0,0,0,3.478,3.479H40.9a3.483,3.483,0,0,0,3.478-3.479V49.7a.992.992,0,0,0-.991-.99M1.979,30.987a1.5,1.5,0,0,1,1.5-1.5H21.2v7a.989.989,0,0,0,1.759.621,3.164,3.164,0,0,1,2.368-1.177,3.163,3.163,0,1,1-2.368,5.147A.989.989,0,0,0,21.2,41.7v7H16.219a5.142,5.142,0,1,0-9.256,0H1.979Zm0,37.422V50.688h7a.989.989,0,0,0,.622-1.759A3.176,3.176,0,0,1,11.537,43.3a3.2,3.2,0,0,1,2.271.908,3.161,3.161,0,0,1-.233,4.716.989.989,0,0,0,.621,1.759h7v4.982a5.142,5.142,0,1,0,0,9.255v4.985H3.478a1.5,1.5,0,0,1-1.5-1.5m40.423,0a1.5,1.5,0,0,1-1.5,1.5H23.18v-7a.99.99,0,0,0-1.759-.622,3.163,3.163,0,1,1,0-3.97.99.99,0,0,0,1.759-.622v-7h4.98a5.142,5.142,0,0,0,4.629,7.382h.086a5.141,5.141,0,0,0,4.54-7.382H42.4Z" transform="translate(0 -9.752)" fill="#f6ad37"/>
  </g>
</svg>
