<svg id="Group_245" data-name="Group 245" xmlns="http://www.w3.org/2000/svg" xmlns:xlink="http://www.w3.org/1999/xlink" width="101.729" height="144.956" viewBox="0 0 101.729 144.956">
  <defs>
    <clipPath id="clip-path">
      <rect id="Rectangle_138" data-name="Rectangle 138" width="101.729" height="144.956" fill="#014262"/>
    </clipPath>
  </defs>
  <g id="Group_244" data-name="Group 244" clip-path="url(#clip-path)">
    <path id="Path_355" data-name="Path 355" d="M117.356,178.5l0,.055-.007-.056q-6.983-.017-13.967-.027a53.452,53.452,0,0,0,2.7-7.239h7.872a1.21,1.21,0,0,0,1.166-1.253,1.217,1.217,0,0,0-1.178-1.166h-7.132l.093-.312c.5-1.667,1.011-3.389,1.634-5.035a4.6,4.6,0,0,1,3.135-3.165,4.078,4.078,0,0,1,4.278,1.594,1.225,1.225,0,0,0,1.049.584,1.2,1.2,0,0,0,1.024-1.832,6.657,6.657,0,0,0-5.255-2.889h-.074a6.6,6.6,0,0,0-5.3,2.686,11.019,11.019,0,0,0-1.39,2.908c-.305.863-.609,1.791-.984,3.01-.222.716-.437,1.435-.652,2.154l-.09.3h-3.51a1.21,1.21,0,0,0-1.166,1.253,1.217,1.217,0,0,0,1.178,1.166h2.76q-.2.656-.42,1.312a37.877,37.877,0,0,1-2.746,6.5,1.124,1.124,0,0,0-.095.977,1.138,1.138,0,0,0,1.127.863h0q7.964.019,15.931.031h.012a1.21,1.21,0,0,0,1.166-1.253,1.216,1.216,0,0,0-1.165-1.167" transform="translate(-34.505 -54.65)" fill="#f6ad37"/>
    <path id="Path_356" data-name="Path 356" d="M101.372,144.437a1.368,1.368,0,0,0,.1-.126,1.453,1.453,0,0,0,.225-.533,1.486,1.486,0,0,0,.03-.3v-137A6.493,6.493,0,0,0,95.244,0H6.486A6.493,6.493,0,0,0,0,6.486V143.48a1.487,1.487,0,0,0,.029.3,1.457,1.457,0,0,0,.291.612c.02.025.04.051.062.075a1.472,1.472,0,0,0,.277.244c.014.009.029.014.042.023a1.446,1.446,0,0,0,.3.139c.031.01.061.02.093.029a1.443,1.443,0,0,0,.363.053l.012,0a1.485,1.485,0,0,0,.293-.03,1.441,1.441,0,0,0,.28-.087l11.778-4.986L25.6,144.84a1.478,1.478,0,0,0,1.146,0l11.777-4.986L50.3,144.84a1.48,1.48,0,0,0,1.147,0l11.772-4.986,11.774,4.986a1.478,1.478,0,0,0,1.146,0l11.774-4.986,11.773,4.986a1.434,1.434,0,0,0,.28.087,1.471,1.471,0,0,0,.583,0c.04-.008.078-.024.116-.035a1.522,1.522,0,0,0,.155-.048c.042-.018.081-.042.122-.063a1.484,1.484,0,0,0,.131-.071c.033-.022.062-.05.093-.075a1.526,1.526,0,0,0,.128-.106c.029-.028.052-.062.078-.093M87.339,136.9l-11.774,4.986L63.791,136.9a1.479,1.479,0,0,0-1.147,0l-11.772,4.986L39.1,136.9a1.476,1.476,0,0,0-1.146,0l-11.777,4.986L14.4,136.9a1.478,1.478,0,0,0-1.146,0L2.941,141.266V6.486A3.549,3.549,0,0,1,6.486,2.941H95.244a3.549,3.549,0,0,1,3.544,3.544v134.78l-10.3-4.363a1.478,1.478,0,0,0-1.146,0" fill="#014262"/>
    <path id="Path_357" data-name="Path 357" d="M18.884,28.149H73.6a1.471,1.471,0,1,0,0-2.941H18.884a1.471,1.471,0,0,0,0,2.941" transform="translate(-6.032 -8.732)" fill="#014262"/>
    <path id="Path_358" data-name="Path 358" d="M133.226,25.208h-7.144a1.471,1.471,0,0,0,0,2.941h7.144a1.471,1.471,0,1,0,0-2.941" transform="translate(-43.167 -8.732)" fill="#014262"/>
    <path id="Path_359" data-name="Path 359" d="M18.884,54.355H60.533a1.471,1.471,0,0,0,0-2.941H18.884a1.471,1.471,0,0,0,0,2.941" transform="translate(-6.032 -17.81)" fill="#014262"/>
    <path id="Path_360" data-name="Path 360" d="M133.226,51.414h-7.144a1.471,1.471,0,0,0,0,2.941h7.144a1.471,1.471,0,1,0,0-2.941" transform="translate(-43.167 -17.81)" fill="#014262"/>
    <path id="Path_361" data-name="Path 361" d="M18.884,82.56H73.6a1.471,1.471,0,1,0,0-2.941H18.884a1.471,1.471,0,1,0,0,2.941" transform="translate(-6.032 -27.581)" fill="#014262"/>
    <path id="Path_362" data-name="Path 362" d="M133.226,79.619h-7.144a1.471,1.471,0,1,0,0,2.941h7.144a1.471,1.471,0,1,0,0-2.941" transform="translate(-43.167 -27.581)" fill="#014262"/>
    <path id="Path_363" data-name="Path 363" d="M18.884,110.765H60.533a1.471,1.471,0,1,0,0-2.941H18.884a1.471,1.471,0,1,0,0,2.941" transform="translate(-6.032 -37.351)" fill="#014262"/>
    <path id="Path_364" data-name="Path 364" d="M133.226,107.824h-7.144a1.471,1.471,0,1,0,0,2.941h7.144a1.471,1.471,0,1,0,0-2.941" transform="translate(-43.167 -37.351)" fill="#014262"/>
    <path id="Path_365" data-name="Path 365" d="M75.075,137.5a1.471,1.471,0,0,0-1.471-1.471H18.884a1.471,1.471,0,1,0,0,2.941H73.6a1.471,1.471,0,0,0,1.471-1.471" transform="translate(-6.032 -47.122)" fill="#014262"/>
    <path id="Path_366" data-name="Path 366" d="M133.226,136.029h-7.144a1.471,1.471,0,1,0,0,2.941h7.144a1.471,1.471,0,1,0,0-2.941" transform="translate(-43.167 -47.122)" fill="#014262"/>
    <path id="Path_367" data-name="Path 367" d="M50.939,164.384H18.884a1.471,1.471,0,1,0,0,2.941H50.939a1.471,1.471,0,1,0,0-2.941" transform="translate(-6.032 -56.944)" fill="#014262"/>
    <path id="Path_368" data-name="Path 368" d="M50.939,186.834H18.884a1.471,1.471,0,1,0,0,2.941H50.939a1.471,1.471,0,1,0,0-2.941" transform="translate(-6.032 -64.721)" fill="#014262"/>
  </g>
</svg>
