<svg id="Group_242" data-name="Group 242" xmlns="http://www.w3.org/2000/svg" xmlns:xlink="http://www.w3.org/1999/xlink" width="129.727" height="133.407" viewBox="0 0 129.727 133.407">
  <defs>
    <clipPath id="clip-path">
      <rect id="Rectangle_136" data-name="Rectangle 136" width="129.727" height="133.407" fill="none"/>
    </clipPath>
  </defs>
  <g id="Group_241" data-name="Group 241" clip-path="url(#clip-path)">
    <path id="Path_337" data-name="Path 337" d="M115.767,0H34.145a20.024,20.024,0,0,0-20,20v88.031H1.346A1.345,1.345,0,0,0,0,109.379v2.286a21.766,21.766,0,0,0,21.742,21.742H84.179a15.177,15.177,0,0,0,15.143-15.154l.393-81.541h28.666a1.346,1.346,0,0,0,1.346-1.346V13.959A13.975,13.975,0,0,0,115.767,0M21.742,130.716A19.072,19.072,0,0,1,2.691,111.665v-.94H15.466l.023,0,.023,0H66.626v7.523a15.151,15.151,0,0,0,6.551,12.468Zm62.419,0H81.785a12.482,12.482,0,0,1-12.469-12.468v-8.869a1.345,1.345,0,0,0-1.346-1.346H16.835V20A17.33,17.33,0,0,1,34.145,2.692h68.618a13.947,13.947,0,0,0-5.732,11.268v21.4l-.4,82.886a12.484,12.484,0,0,1-12.47,12.47M127.036,34.02H99.722V13.959A11.281,11.281,0,0,1,110.978,2.692h4.789a11.281,11.281,0,0,1,11.268,11.268Z" fill="#014262"/>
    <path id="Path_338" data-name="Path 338" d="M47.766,97.314H40.138a1.346,1.346,0,1,0,0,2.691h7.629a1.346,1.346,0,1,0,0-2.691" transform="translate(-15.594 -39.119)" fill="#f6ad37"/>
    <path id="Path_339" data-name="Path 339" d="M115.658,97.314H72.9a1.346,1.346,0,1,0,0,2.691h42.754a1.346,1.346,0,1,0,0-2.691" transform="translate(-28.766 -39.119)" fill="#f6ad37"/>
    <path id="Path_340" data-name="Path 340" d="M47.766,119.919H40.138a1.346,1.346,0,1,0,0,2.691h7.629a1.346,1.346,0,0,0,0-2.691" transform="translate(-15.594 -48.206)" fill="#f6ad37"/>
    <path id="Path_341" data-name="Path 341" d="M115.658,119.919H72.9a1.346,1.346,0,1,0,0,2.691h42.754a1.346,1.346,0,1,0,0-2.691" transform="translate(-28.766 -48.206)" fill="#f6ad37"/>
    <path id="Path_342" data-name="Path 342" d="M47.766,142.523H40.138a1.346,1.346,0,1,0,0,2.691h7.629a1.346,1.346,0,1,0,0-2.691" transform="translate(-15.594 -57.293)" fill="#f6ad37"/>
    <path id="Path_343" data-name="Path 343" d="M115.658,142.523H72.9a1.346,1.346,0,1,0,0,2.691h42.754a1.346,1.346,0,1,0,0-2.691" transform="translate(-28.766 -57.293)" fill="#f6ad37"/>
    <path id="Path_344" data-name="Path 344" d="M47.766,165.128H40.138a1.346,1.346,0,1,0,0,2.691h7.629a1.346,1.346,0,1,0,0-2.691" transform="translate(-15.594 -66.38)" fill="#f6ad37"/>
    <path id="Path_345" data-name="Path 345" d="M115.658,165.128H72.9a1.346,1.346,0,1,0,0,2.691h42.754a1.346,1.346,0,1,0,0-2.691" transform="translate(-28.766 -66.38)" fill="#f6ad37"/>
    <path id="Path_346" data-name="Path 346" d="M76.52,38.808h4.048c-.227.734-.457,1.465-.7,2.194a48.109,48.109,0,0,1-3.507,8.3,1.042,1.042,0,0,0-.074.924A1.019,1.019,0,0,0,77.314,51q10.059.023,20.123.039a1.116,1.116,0,0,0,0-2.231h0q-9.143-.022-18.288-.035A66.959,66.959,0,0,0,82.9,38.807H93.138a1.116,1.116,0,0,0,0-2.231H83.575l.036-.121c.722-2.409,1.422-4.837,2.314-7.191a6.287,6.287,0,0,1,4.249-4.254,5.565,5.565,0,0,1,5.852,2.2,1.144,1.144,0,0,0,1.526.4,1.126,1.126,0,0,0,.4-1.526,7.966,7.966,0,0,0-6.3-3.47,7.883,7.883,0,0,0-6.435,3.21A13.5,13.5,0,0,0,83.508,29.4c-.444,1.252-.847,2.515-1.238,3.785-.347,1.127-.684,2.257-1.024,3.388H76.52a1.116,1.116,0,0,0,0,2.231" transform="translate(-30.328 -9.09)" fill="#f6ad37"/>
  </g>
</svg>
