<svg xmlns="http://www.w3.org/2000/svg" xmlns:xlink="http://www.w3.org/1999/xlink" width="145.629" height="145.21" viewBox="0 0 145.629 145.21">
  <defs>
    <clipPath id="clip-path">
      <rect id="Rectangle_31" data-name="Rectangle 31" width="145.629" height="145.21" fill="#014262"/>
    </clipPath>
  </defs>
  <g id="Group_33" data-name="Group 33" clip-path="url(#clip-path)">
    <path id="Path_132" data-name="Path 132" d="M152.5,42.843a1.567,1.567,0,0,1-1.567-1.567V21.238a1.567,1.567,0,0,1,3.134,0V41.276a1.567,1.567,0,0,1-1.567,1.567" transform="translate(-58.19 -7.584)" fill="#014262"/>
    <path id="Path_133" data-name="Path 133" d="M62.968,63.48A1.567,1.567,0,0,1,61.4,61.913V21.237a1.567,1.567,0,0,1,3.134,0V61.913a1.567,1.567,0,0,1-1.567,1.567" transform="translate(-23.672 -7.583)" fill="#014262"/>
    <path id="Path_134" data-name="Path 134" d="M101.618,106.754a61.4,61.4,0,0,1-10.007-.8,1.567,1.567,0,0,1,.512-3.091,59.308,59.308,0,0,0,22.4-.7,1.6,1.6,0,0,1,1.941,1.523,1.564,1.564,0,0,1-1.282,1.542,58.173,58.173,0,0,1-13.566,1.521" transform="translate(-34.813 -39.373)" fill="#014262"/>
    <path id="Path_135" data-name="Path 135" d="M90.473,67.5c-16.306,0-29.079-6-29.079-13.651a1.567,1.567,0,0,1,3.134,0c0,4.974,10.655,10.517,25.945,10.517s25.944-5.543,25.944-10.517a1.567,1.567,0,0,1,3.134,0c0,7.655-12.772,13.651-29.078,13.651" transform="translate(-23.669 -20.156)" fill="#014262"/>
    <path id="Path_136" data-name="Path 136" d="M90.473,27.3c-16.306,0-29.079-6-29.079-13.652S74.167,0,90.473,0s29.078,6,29.078,13.651S106.778,27.3,90.473,27.3m0-24.169c-15.29,0-25.945,5.543-25.945,10.517S75.183,24.168,90.473,24.168s25.944-5.543,25.944-10.517S105.762,3.134,90.473,3.134" transform="translate(-23.669)" fill="#014262"/>
    <path id="Path_137" data-name="Path 137" d="M29.473,158.727a29.473,29.473,0,1,1,29.473-29.473,29.506,29.506,0,0,1-29.473,29.473m0-55.812a26.339,26.339,0,1,0,26.339,26.339,26.369,26.369,0,0,0-26.339-26.339" transform="translate(0 -38.468)" fill="#014262"/>
    <path id="Path_138" data-name="Path 138" d="M35.652,166.386a19.646,19.646,0,0,1-19.624-19.623,1.567,1.567,0,1,1,3.134,0,16.508,16.508,0,0,0,16.49,16.489,1.567,1.567,0,1,1,0,3.134" transform="translate(-6.179 -55.977)" fill="#014262"/>
    <path id="Path_139" data-name="Path 139" d="M146.853,186.15a39.979,39.979,0,1,1,39.979-39.98,40.025,40.025,0,0,1-39.979,39.98m0-76.824A36.845,36.845,0,1,0,183.7,146.17a36.886,36.886,0,0,0-36.845-36.844" transform="translate(-41.203 -40.94)" fill="#f6ad37"/>
    <path id="Path_140" data-name="Path 140" d="M174.4,90.359H155.874a1.567,1.567,0,1,1,0-3.134H174.4a1.567,1.567,0,0,1,0,3.134" transform="translate(-59.49 -33.628)" fill="#014262"/>
    <path id="Path_141" data-name="Path 141" d="M180.549,173.073a1.561,1.561,0,0,1-1.108-.459l-11.2-11.2a1.567,1.567,0,0,1-.459-1.108v-26.1a1.567,1.567,0,1,1,3.134,0v25.451l10.74,10.74a1.567,1.567,0,0,1-1.108,2.675" transform="translate(-64.685 -51.137)" fill="#f6ad37"/>
  </g>
</svg>
