<svg id="Group_240" data-name="Group 240" xmlns="http://www.w3.org/2000/svg" xmlns:xlink="http://www.w3.org/1999/xlink" width="148.949" height="144.127" viewBox="0 0 148.949 144.127">
  <defs>
    <clipPath id="clip-path">
      <rect id="Rectangle_135" data-name="Rectangle 135" width="148.949" height="144.127" fill="#014262"/>
    </clipPath>
  </defs>
  <g id="Group_239" data-name="Group 239" clip-path="url(#clip-path)">
    <path id="Path_327" data-name="Path 327" d="M96.98,87.763l-5.712-.378a22.227,22.227,0,0,1-10.752-3.627l-.073-.052a10.766,10.766,0,0,1-4.8-8.977V72.687A36.085,36.085,0,0,0,84.92,59.233c.026,0,.052.006.079.006,3.008,0,6.042-2.805,7.3-7a11.379,11.379,0,0,0,.163-6.366c-.071-.246-.155-.48-.244-.708.027-1.366.238-3.786.446-6.145.161-1.837.329-3.736.423-5.282A21.735,21.735,0,0,0,84.1,14.631c-.192-.135-.356-.245-.5-.334a26.424,26.424,0,0,0-3.954-5.481C72.8,1.542,61.429-1.661,51.358.842,32.722,5.475,27.8,27.2,27.6,28.126a39.566,39.566,0,0,0,.868,19.634,1.385,1.385,0,0,0,.241.46,12.381,12.381,0,0,0,.531,4.017c1.272,4.234,4.347,7.049,7.382,7a36.534,36.534,0,0,0,8.69,12.917,1.41,1.41,0,0,0-.027.273v2.3a10.765,10.765,0,0,1-4.8,8.977l-.063.045a22.227,22.227,0,0,1-10.762,3.633l-5.712.378A25.741,25.741,0,0,0,0,113.377v29.354a1.4,1.4,0,0,0,2.793,0V113.377A22.94,22.94,0,0,1,24.136,90.55l5.711-.379a24.8,24.8,0,0,0,5.625-1.042l6.4,23.143a1.4,1.4,0,0,0,.965.971,1.381,1.381,0,0,0,.381.053,1.4,1.4,0,0,0,.95-.372l6.072-5.632v.095a4.484,4.484,0,0,0,2.478,4L49.3,142.578a1.4,1.4,0,0,0,1.236,1.54,1.289,1.289,0,0,0,.154.009,1.4,1.4,0,0,0,1.386-1.244l3.4-31.013h9.4l3.389,31.012a1.4,1.4,0,0,0,1.386,1.245,1.279,1.279,0,0,0,.153-.009,1.4,1.4,0,0,0,1.236-1.539l-3.414-31.248a4.486,4.486,0,0,0,2.353-3.945v-.147l5.311,4.855a1.4,1.4,0,0,0,2.264-.58L85.2,89.042a24.794,24.794,0,0,0,5.885,1.129l5.711.379a22.94,22.94,0,0,1,21.344,22.827v29.354a1.4,1.4,0,0,0,2.793,0V113.377A25.741,25.741,0,0,0,96.98,87.763M30.333,28.719c.185-.853,4.73-20.948,21.7-25.166,9.124-2.267,19.4.617,25.581,7.177a23.672,23.672,0,0,1,3.708,5.229,1.353,1.353,0,0,0,.65.618,5.749,5.749,0,0,1,.526.343A18.928,18.928,0,0,1,90.3,33.566c-.092,1.509-.258,3.389-.418,5.208-.1,1.167-.2,2.3-.282,3.332a4.714,4.714,0,0,0-.725-.3l-3.806-1.51-.195-.168A15.07,15.07,0,0,1,79.9,26.075a1.4,1.4,0,0,0-1.714-1.6l-.1.024A45.814,45.814,0,0,1,47.6,21.529a1.39,1.39,0,0,0-1.342.085A21.729,21.729,0,0,0,36.249,37.705l-.3,2.823L32.674,41.8a4.919,4.919,0,0,0-2.389,1.686,36.2,36.2,0,0,1,.048-14.768M38.817,57.2c-.011-.027-.026-.049-.038-.074a1.41,1.41,0,0,0-.067-.133c-.023-.038-.048-.073-.073-.108a1.129,1.129,0,0,0-.181-.2,1.324,1.324,0,0,0-.106-.09c-.034-.026-.07-.048-.106-.071s-.081-.049-.124-.07-.074-.032-.112-.047a1.421,1.421,0,0,0-.14-.047c-.038-.01-.078-.017-.117-.024a1.321,1.321,0,0,0-.149-.019c-.041,0-.081,0-.123,0a1.332,1.332,0,0,0-.148.01c-.043.006-.087.016-.131.025s-.061.009-.092.018c-1.81.546-4.24-1.759-5.193-4.93a8.68,8.68,0,0,1-.158-4.778,3.082,3.082,0,0,1,1.772-2.2c.035-.011.07-.023.1-.036l4.109-1.6a1.394,1.394,0,0,0,.883-1.151l.4-3.667a18.938,18.938,0,0,1,8.1-13.619A48.646,48.646,0,0,0,76.9,27.633a17.883,17.883,0,0,0,6.15,14.607l.373.321a1.392,1.392,0,0,0,.4.24L87.9,44.419c.038.014.075.028.114.039a2.6,2.6,0,0,1,1.513,1.507c.012.03.027.058.042.088a5.157,5.157,0,0,1,.218.6,8.68,8.68,0,0,1-.158,4.778c-.952,3.171-3.377,5.474-5.193,4.93-.032-.01-.065-.012-.1-.019s-.084-.019-.127-.024-.091-.008-.137-.009a1.355,1.355,0,0,0-.142,0c-.041,0-.081.009-.121.016a1.338,1.338,0,0,0-.148.031c-.035.01-.07.022-.1.035a1.426,1.426,0,0,0-.149.063c-.03.015-.058.032-.087.049a1.336,1.336,0,0,0-.142.094c-.025.019-.048.04-.072.061a1.448,1.448,0,0,0-.124.123c-.022.024-.04.05-.06.076a1.443,1.443,0,0,0-.1.145c-.017.03-.032.062-.047.094s-.037.065-.051.1C78.3,68.711,69.888,75.864,60.776,75.864S43.249,68.711,38.817,57.2M60.776,78.656a21.628,21.628,0,0,0,12.077-3.822,13.578,13.578,0,0,0,1.566,6.241,1.393,1.393,0,0,0-.135.1L60.047,94.382,46.164,81.689a13.57,13.57,0,0,0,1.918-6.96v-.315a21.806,21.806,0,0,0,12.695,4.242M43.949,109.314,38.1,88.169a24.943,24.943,0,0,0,3.92-2.127c.022-.014.045-.031.068-.048a13.581,13.581,0,0,0,2.392-2.056L57.993,96.288Zm23.229-1.928a1.689,1.689,0,0,1-1.684,1.69H54.719a1.692,1.692,0,0,1-1.691-1.69V104.7l7.032-6.523,7.117,6.507Zm8.412,1.206L62.115,96.273l13.87-12.865a13.585,13.585,0,0,0,2.842,2.577c.025.02.052.039.079.056a24.926,24.926,0,0,0,3.675,2.019Z" transform="translate(0 0)" fill="#014262"/>
    <path id="Path_328" data-name="Path 328" d="M39.3,178.05a1.4,1.4,0,0,0-1.4,1.4v30.832a1.4,1.4,0,0,0,2.793,0V179.446a1.4,1.4,0,0,0-1.4-1.4" transform="translate(-14.382 -67.549)" fill="#014262"/>
    <path id="Path_329" data-name="Path 329" d="M199.131,28.045H150.157a1.4,1.4,0,0,0,0,2.793h48.974a3.465,3.465,0,0,1,3.462,3.461V137.5a3.466,3.466,0,0,1-3.462,3.462H183.77a1.4,1.4,0,0,0,0,2.793h15.362a6.262,6.262,0,0,0,6.255-6.255V34.3a6.262,6.262,0,0,0-6.255-6.254" transform="translate(-56.437 -10.64)" fill="#f6ad37"/>
    <path id="Path_330" data-name="Path 330" d="M216.455,50.893H202.4a1.4,1.4,0,0,0,0,2.793h14.058a1.4,1.4,0,0,0,0-2.793" transform="translate(-76.256 -19.308)" fill="#f6ad37"/>
    <path id="Path_331" data-name="Path 331" d="M166.658,53.686h8.122a1.4,1.4,0,0,0,0-2.793h-8.122a1.4,1.4,0,0,0,0,2.793" transform="translate(-62.697 -19.308)" fill="#f6ad37"/>
    <path id="Path_332" data-name="Path 332" d="M222.159,82.671h-4.727a1.4,1.4,0,1,0,0,2.793h4.727a1.4,1.4,0,0,0,0-2.793" transform="translate(-81.96 -31.364)" fill="#f6ad37"/>
    <path id="Path_333" data-name="Path 333" d="M166.658,85.464h23.634a1.4,1.4,0,0,0,0-2.793H166.658a1.4,1.4,0,0,0,0,2.793" transform="translate(-62.697 -31.364)" fill="#f6ad37"/>
    <path id="Path_334" data-name="Path 334" d="M214.775,114.451H197.969a1.4,1.4,0,0,0,0,2.793h16.806a1.4,1.4,0,0,0,0-2.793" transform="translate(-74.576 -43.42)" fill="#f6ad37"/>
    <path id="Path_335" data-name="Path 335" d="M166.658,117.244h6.565a1.4,1.4,0,0,0,0-2.793h-6.565a1.4,1.4,0,0,0,0,2.793" transform="translate(-62.697 -43.42)" fill="#f6ad37"/>
    <path id="Path_336" data-name="Path 336" d="M216.172,147.626a1.4,1.4,0,0,0-1.4-1.4H197.969a1.4,1.4,0,0,0,0,2.793h16.806a1.4,1.4,0,0,0,1.4-1.4" transform="translate(-74.576 -55.477)" fill="#f6ad37"/>
  </g>
</svg>
