<svg id="Group_271" data-name="Group 271" xmlns="http://www.w3.org/2000/svg" xmlns:xlink="http://www.w3.org/1999/xlink" width="158.156" height="147.877" viewBox="0 0 158.156 147.877">
  <defs>
    <clipPath id="clip-path">
      <rect id="Rectangle_146" data-name="Rectangle 146" width="158.156" height="147.877" fill="#014262"/>
    </clipPath>
  </defs>
  <g id="Group_269" data-name="Group 269" clip-path="url(#clip-path)">
    <path id="Path_434" data-name="Path 434" d="M60.219,57.869c.883-2.333,2.37-4.235,4.875-4.88a6.385,6.385,0,0,1,6.713,2.521,1.313,1.313,0,0,0,1.75.459,1.29,1.29,0,0,0,.459-1.751,9.135,9.135,0,0,0-7.228-3.98,9.042,9.042,0,0,0-7.382,3.682,15.51,15.51,0,0,0-1.959,4.108c-.509,1.436-.971,2.885-1.42,4.342-.4,1.293-.785,2.59-1.174,3.886H49.43a1.28,1.28,0,0,0,0,2.559h4.644c-.261.842-.525,1.681-.8,2.516a55.264,55.264,0,0,1-4.023,9.524,1.2,1.2,0,0,0-.085,1.059,1.17,1.17,0,0,0,1.178.89q11.539.027,23.083.045a1.28,1.28,0,0,0,0-2.559h0q-10.489-.025-20.979-.04a76.651,76.651,0,0,0,4.3-11.434H68.494a1.281,1.281,0,0,0,0-2.559H57.524l.041-.139c.828-2.763,1.632-5.548,2.654-8.248" transform="translate(-15.134 -15.775)" fill="#f6ad37"/>
    <path id="Path_435" data-name="Path 435" d="M36.242,91.537a1.544,1.544,0,0,0,1.471-2.715,31.6,31.6,0,1,1,46.628-27.8,1.544,1.544,0,1,0,3.087,0A34.685,34.685,0,1,0,36.242,91.537" transform="translate(-5.67 -8.27)" fill="#f6ad37"/>
    <path id="Path_436" data-name="Path 436" d="M156.612,144.79H142.646V53.33a1.544,1.544,0,0,0-1.544-1.544H119.987a1.544,1.544,0,0,0-1.544,1.544v91.46H107.735v-64.9a1.544,1.544,0,0,0-1.544-1.544H85.084a1.544,1.544,0,0,0-1.544,1.544v64.9H72.825V104.609a1.544,1.544,0,0,0-1.544-1.544H50.173a1.544,1.544,0,0,0-1.544,1.544V144.79H37.921V126.711a1.544,1.544,0,0,0-1.544-1.544H15.262a1.544,1.544,0,0,0-1.544,1.544V144.79H3.087V1.544A1.544,1.544,0,0,0,0,1.544v144.79a1.544,1.544,0,0,0,1.544,1.544H156.612a1.544,1.544,0,1,0,0-3.087M121.531,54.873h18.028V144.79H121.531Zm-34.9,26.555h18.021V144.79H86.627ZM51.716,106.152H69.738V144.79H51.716Zm-34.911,22.1H34.834V144.79H16.806Z" fill="#014262"/>
    <path id="Path_437" data-name="Path 437" d="M21.053,108.433a1.543,1.543,0,1,0,.982,2.926A204.1,204.1,0,0,0,122.553,37.749l10.723-14.7A51.837,51.837,0,0,0,135.8,35.992a1.543,1.543,0,1,0,2.931-.97,48.768,48.768,0,0,1-2.463-16.542,1.545,1.545,0,0,0-1.047-1.5,1.705,1.705,0,0,0-.181-.045l-.024-.005a1.516,1.516,0,0,0-.276-.03c-.034,0-.069.005-.1.007a1.556,1.556,0,0,0-.16.014,1.4,1.4,0,0,0-.165.038c-.029.008-.057.016-.085.025s-.068.016-.1.03A48.784,48.784,0,0,1,117.8,20.634a1.544,1.544,0,0,0,.07,3.086h.073a51.886,51.886,0,0,0,12.61-2.167L120.059,35.929a201.021,201.021,0,0,1-99.006,72.5" transform="translate(-6.28 -5.307)" fill="#014262"/>
  </g>
</svg>
