<svg id="Group_25" data-name="Group 25" xmlns="http://www.w3.org/2000/svg" xmlns:xlink="http://www.w3.org/1999/xlink" width="121.017" height="148.764" viewBox="0 0 121.017 148.764">
  <defs>
    <clipPath id="clip-path">
      <rect id="Rectangle_26" data-name="Rectangle 26" width="121.017" height="148.764" fill="#014262"/>
    </clipPath>
  </defs>
  <g id="Group_24" data-name="Group 24" clip-path="url(#clip-path)">
    <path id="Path_100" data-name="Path 100" d="M114.242,165.06H6.775A6.782,6.782,0,0,1,0,158.285V46.676A6.782,6.782,0,0,1,6.775,39.9h20.8a1.509,1.509,0,1,1,0,3.017H6.775a3.762,3.762,0,0,0-3.758,3.757V158.285a3.762,3.762,0,0,0,3.758,3.758H114.242A3.762,3.762,0,0,0,118,158.285V46.676a3.762,3.762,0,0,0-3.758-3.757h-20.8a1.509,1.509,0,1,1,0-3.017h20.8a6.782,6.782,0,0,1,6.775,6.774V158.285a6.782,6.782,0,0,1-6.775,6.775" transform="translate(0 -16.296)" fill="#014262"/>
    <path id="Path_101" data-name="Path 101" d="M103.6,34.97H66.773a6.357,6.357,0,0,1-6.35-6.35V20.269a6.357,6.357,0,0,1,6.35-6.35h4.664v-.17a13.748,13.748,0,1,1,27.5,0v.17H103.6a6.357,6.357,0,0,1,6.35,6.35V28.62a6.356,6.356,0,0,1-6.35,6.35M66.773,16.936a3.337,3.337,0,0,0-3.332,3.333V28.62a3.336,3.336,0,0,0,3.332,3.332H103.6a3.336,3.336,0,0,0,3.333-3.332V20.269a3.337,3.337,0,0,0-3.333-3.333H97.424a1.508,1.508,0,0,1-1.509-1.509V13.748a10.73,10.73,0,1,0-21.461,0v1.679a1.508,1.508,0,0,1-1.509,1.509Z" transform="translate(-24.677)" fill="#014262"/>
    <path id="Path_102" data-name="Path 102" d="M29.7,94.9a1.5,1.5,0,0,1-1.067-.442l-5.016-5.016a1.508,1.508,0,0,1,2.133-2.133L29.7,91.26l9.876-9.876a1.508,1.508,0,1,1,2.133,2.133L30.764,94.46A1.5,1.5,0,0,1,29.7,94.9" transform="translate(-9.464 -33.057)" fill="#f6ad37"/>
    <path id="Path_103" data-name="Path 103" d="M29.7,131.9a1.509,1.509,0,0,1-1.067-.442l-5.016-5.016a1.508,1.508,0,0,1,2.133-2.133l3.949,3.948,9.876-9.876a1.508,1.508,0,1,1,2.133,2.133L30.764,131.454a1.509,1.509,0,0,1-1.067.442" transform="translate(-9.464 -48.165)" fill="#f6ad37"/>
    <path id="Path_104" data-name="Path 104" d="M29.7,168.889a1.5,1.5,0,0,1-1.067-.442l-5.016-5.016a1.508,1.508,0,0,1,2.133-2.133l3.949,3.949,9.876-9.876a1.508,1.508,0,1,1,2.133,2.133L30.764,168.447a1.5,1.5,0,0,1-1.067.442" transform="translate(-9.464 -63.273)" fill="#f6ad37"/>
    <path id="Path_105" data-name="Path 105" d="M139.918,97.832H85.052a1.509,1.509,0,0,1,0-3.017h54.866a1.509,1.509,0,0,1,0,3.017" transform="translate(-34.119 -38.722)" fill="#f6ad37"/>
    <path id="Path_106" data-name="Path 106" d="M139.918,134.826H85.052a1.509,1.509,0,0,1,0-3.017h54.866a1.509,1.509,0,0,1,0,3.017" transform="translate(-34.119 -53.83)" fill="#f6ad37"/>
    <path id="Path_107" data-name="Path 107" d="M139.918,171.819H85.052a1.509,1.509,0,0,1,0-3.017h54.866a1.509,1.509,0,0,1,0,3.017" transform="translate(-34.119 -68.938)" fill="#f6ad37"/>
    <path id="Path_108" data-name="Path 108" d="M29.7,206.889a1.5,1.5,0,0,1-1.067-.442l-5.016-5.016a1.508,1.508,0,0,1,2.133-2.133l3.949,3.949,9.876-9.876a1.508,1.508,0,1,1,2.133,2.133L30.764,206.447a1.5,1.5,0,0,1-1.067.442" transform="translate(-9.464 -78.792)" fill="#f6ad37"/>
    <path id="Path_109" data-name="Path 109" d="M139.918,209.819H85.052a1.509,1.509,0,0,1,0-3.017h54.866a1.509,1.509,0,0,1,0,3.017" transform="translate(-34.119 -84.457)" fill="#f6ad37"/>
  </g>
</svg>
