<svg xmlns="http://www.w3.org/2000/svg" xmlns:xlink="http://www.w3.org/1999/xlink" width="230" height="131.638" viewBox="0 0 230 131.638">
  <defs>
    <clipPath id="clip-path">
      <rect id="Rectangle_108" data-name="Rectangle 108" width="230" height="131.638" fill="none"/>
    </clipPath>
  </defs>
  <g id="Group_163" data-name="Group 163" transform="translate(0 0)">
    <g id="Group_162" data-name="Group 162" transform="translate(0 0)" clip-path="url(#clip-path)">
      <path id="Path_259" data-name="Path 259" d="M216.853,131.638H13.147A13.145,13.145,0,0,1,0,118.491V13.147A13.145,13.145,0,0,1,13.147,0H216.853A13.145,13.145,0,0,1,230,13.147V118.491a13.145,13.145,0,0,1-13.147,13.147" transform="translate(0 -0.001)" fill="#fff"/>
      <path id="Path_260" data-name="Path 260" d="M20,10.794H38.658v3.588H31.482V33.758H27.176V14.382H20Zm17.582,6.1H41.17v3.229c0-.359.359-.718.718-1.435s.718-.718,1.076-1.076a2.72,2.72,0,0,1,1.435-.718,2.689,2.689,0,0,1,1.794-.359H47.27v3.588H45.835a3.235,3.235,0,0,0-1.794.359,4.953,4.953,0,0,0-1.435,1.076,7.844,7.844,0,0,0-1.076,1.794,5.32,5.32,0,0,0-.359,2.512v7.894H37.582ZM64.134,33.758H60.546V31.605a6.092,6.092,0,0,1-2.153,2.153,6.76,6.76,0,0,1-2.871.718c-2.153,0-3.588-.359-4.665-1.794a7.593,7.593,0,0,1-1.435-5.023V17.253h3.588V27.3a7.165,7.165,0,0,0,.718,3.229,3.257,3.257,0,0,0,2.512,1.076,2.689,2.689,0,0,0,1.794-.359c.359-.359,1.076-.718,1.076-1.076a1.864,1.864,0,0,0,.718-1.435c0-.718.359-1.076.359-1.794V17.253h3.588V33.758Zm6.1-5.382a2.17,2.17,0,0,0,1.076,2.153,5.186,5.186,0,0,0,2.512.718H74.9a1.318,1.318,0,0,0,1.076-.359c.359,0,.718-.359,1.076-.718a1.318,1.318,0,0,0,.359-1.076c0-.359-.359-.718-.359-1.076-.359-.359-.718-.359-1.076-.718a15.54,15.54,0,0,0-1.794-.359,15.541,15.541,0,0,1-1.794-.359,2.741,2.741,0,0,1-1.794-.718c-.359-.359-1.076-.359-1.794-.718-.359-.359-1.076-.718-1.076-1.435a4.551,4.551,0,0,1-.359-2.153,3.033,3.033,0,0,1,.718-2.153,7.827,7.827,0,0,1,1.794-1.435,5.1,5.1,0,0,1,2.153-.718c.718,0,1.794-.359,2.512-.359a6.106,6.106,0,0,1,2.512.359,5.1,5.1,0,0,1,2.153.718c.718.359,1.076,1.076,1.435,1.435a5.186,5.186,0,0,1,.718,2.512H77.41a3.051,3.051,0,0,0-1.076-1.794,9.128,9.128,0,0,0-2.512-.718H72.746a1.318,1.318,0,0,0-1.076.359,1.253,1.253,0,0,0-.718.359c-.359.359-.359.359-.359.718a1.318,1.318,0,0,0,.359,1.076c.359.359.718.359,1.076.718a15.54,15.54,0,0,0,1.794.359c.718,0,1.435.359,2.153.359a2.741,2.741,0,0,1,1.794.718c.718.359,1.076.359,1.794.718s1.076.718,1.076,1.435A3.885,3.885,0,0,1,81,28.376a5.186,5.186,0,0,1-.718,2.512c-.359.718-1.076,1.076-1.794,1.794a1.973,1.973,0,0,1-1.794,1.076c-.718,0-1.794.359-2.512.359a7,7,0,0,1-2.871-.359,11.945,11.945,0,0,1-2.153-1.076,3.582,3.582,0,0,1-1.435-1.794,3.257,3.257,0,0,1-1.076-2.512Zm12.2-11.482H85.3V12.229h3.588v5.023h3.229v2.871H88.892V30.17c0,.359,0,.359.359.718l.359.359h2.512v2.512H89.969c-1.076,0-1.794,0-2.153-.359a1.864,1.864,0,0,1-1.435-.718,1.864,1.864,0,0,1-.718-1.435,15.54,15.54,0,0,1-.359-1.794V19.764H82.434Zm12.2,0h3.588v2.512a3.235,3.235,0,0,1,2.153-2.153,8.445,8.445,0,0,1,2.871-.718,10.616,10.616,0,0,1,3.588.718,6.436,6.436,0,0,1,2.512,1.794,7.212,7.212,0,0,1,1.435,2.871,11.062,11.062,0,0,1,.359,3.588,9.934,9.934,0,0,1-.359,3.229,10.743,10.743,0,0,1-1.435,2.871,9.513,9.513,0,0,1-2.153,1.794,8.569,8.569,0,0,1-3.229.718h-1.435c-.359,0-1.076-.359-1.435-.359-.359-.359-1.076-.359-1.435-.718L98.58,31.964v8.253H94.992V16.894Zm12.917,8.612a4.551,4.551,0,0,0-.359-2.153c-.359-.718-.359-1.435-.718-1.794s-.718-1.076-1.435-1.435a3.885,3.885,0,0,0-2.153-.359A4.16,4.16,0,0,0,99.3,21.2a7.652,7.652,0,0,0-1.076,4.306c0,.718,0,1.794.359,2.153.359.718.359,1.435,1.076,1.794.359.359.718,1.076,1.435,1.076a3.235,3.235,0,0,0,1.794.359,4.551,4.551,0,0,0,2.153-.359,2.8,2.8,0,0,0,1.435-1.435c.359-.718.718-1.076.718-1.794a15.54,15.54,0,0,0,.359-1.794m6.459-14.711H117.6v3.588h-3.588Zm0,6.1H117.6V33.758h-3.588Zm6.817-6.1h3.588V33.758h-3.588Zm14.711,23.323a10.616,10.616,0,0,1-3.588-.718,6.436,6.436,0,0,1-2.512-1.794,7.813,7.813,0,0,1-1.794-2.871,10.616,10.616,0,0,1-.718-3.588,10.616,10.616,0,0,1,.718-3.588,7.813,7.813,0,0,1,1.794-2.871,6.436,6.436,0,0,1,2.512-1.794,9.329,9.329,0,0,1,7.176,0,6.436,6.436,0,0,1,2.512,1.794,7.813,7.813,0,0,1,1.794,2.871,10.616,10.616,0,0,1,.718,3.588,10.616,10.616,0,0,1-.718,3.588,7.813,7.813,0,0,1-1.794,2.871,6.436,6.436,0,0,1-2.512,1.794,10.616,10.616,0,0,1-3.588.718m0-2.871a4.551,4.551,0,0,0,2.153-.359,2.8,2.8,0,0,0,1.435-1.435c.359-.718.718-1.076.718-1.794s.359-1.435.359-2.153a4.551,4.551,0,0,0-.359-2.153,2.741,2.741,0,0,0-.718-1.794c-.359-.359-.718-1.076-1.435-1.435a6.638,6.638,0,0,0-4.306,0,2.8,2.8,0,0,0-1.435,1.435c-.359.718-.718,1.076-.718,1.794s-.359,1.435-.359,2.153a4.551,4.551,0,0,0,.359,2.153,2.741,2.741,0,0,0,.718,1.794,2.8,2.8,0,0,0,1.435,1.435c.718,0,1.435.359,2.153.359m9.688-14.353H148.1V12.229h3.588v5.023h3.229v2.871h-3.229V30.17c0,.359,0,.359.359.718l.359.359h2.512v2.512h-2.153c-1.076,0-1.794,0-2.153-.359a1.864,1.864,0,0,1-1.435-.718,1.864,1.864,0,0,1-.718-1.435,15.541,15.541,0,0,1-.359-1.794V19.764h-2.871Z" transform="translate(51.763 27.936)" fill="#191919"/>
      <path id="Path_261" data-name="Path 261" d="M50.375,22.44H33.511L28.488,6.294,23.105,22.44H6.6l13.276,9.688L14.853,48.275,28.488,38.228,41.764,48.275,36.74,32.128Z" transform="translate(17.082 16.288)" fill="#00b67a"/>
      <path id="Path_262" data-name="Path 262" d="M22.029,17.082l-1.076-3.588-8.253,6.1Z" transform="translate(32.869 34.923)" fill="#005128"/>
      <rect id="Rectangle_102" data-name="Rectangle 102" width="34.446" height="34.446" transform="translate(23.682 74.608)" fill="#00b67a"/>
      <rect id="Rectangle_103" data-name="Rectangle 103" width="34.446" height="34.446" transform="translate(60.64 74.608)" fill="#00b67a"/>
      <rect id="Rectangle_104" data-name="Rectangle 104" width="34.446" height="34.446" transform="translate(97.956 74.608)" fill="#00b67a"/>
      <rect id="Rectangle_105" data-name="Rectangle 105" width="34.446" height="34.446" transform="translate(134.914 74.608)" fill="#00b67a"/>
      <rect id="Rectangle_106" data-name="Rectangle 106" width="34.446" height="34.446" transform="translate(172.231 74.608)" fill="#dcdce6"/>
      <rect id="Rectangle_107" data-name="Rectangle 107" width="34.446" height="34.087" transform="translate(172.231 74.608)" fill="#00b67a"/>
      <path id="Path_263" data-name="Path 263" d="M19.841,39.617l5.382-1.435L27.376,45Zm12.2-8.612H22.711l-2.871-8.612L16.97,31.006H8l7.535,5.382L12.665,45,20.2,39.617l4.665-3.229Z" transform="translate(20.705 57.958)" fill="#fff"/>
      <path id="Path_264" data-name="Path 264" d="M30.758,39.617l5.382-1.435L38.294,45ZM42.6,31.006H33.27L30.4,22.394l-2.871,8.612H18.2l7.535,5.382L22.865,45,30.4,39.617l4.665-3.229Z" transform="translate(47.104 57.958)" fill="#fff"/>
      <path id="Path_265" data-name="Path 265" d="M41.159,39.617l5.382-1.435L48.694,45ZM53,31.006H43.67L40.8,22.394l-2.871,8.612H28.6l7.535,5.382L33.623,45l7.535-5.382,4.665-3.229Z" transform="translate(74.021 57.958)" fill="#fff"/>
      <path id="Path_266" data-name="Path 266" d="M51.2,39.617l5.382-1.435L58.735,45Zm12.2-8.612H54.07L51.2,22.394l-2.871,8.612H39l7.535,5.382L43.665,45,51.2,39.617l4.665-3.229Z" transform="translate(100.938 57.958)" fill="#fff"/>
      <path id="Path_267" data-name="Path 267" d="M61.6,39.617l5.382-1.435L69.135,45Zm11.841-8.612H64.111l-2.871-8.612-2.512,8.612H49.4l7.535,5.382L54.065,45,61.6,39.617l4.665-3.229Z" transform="translate(127.854 57.958)" fill="#fff"/>
    </g>
  </g>
</svg>
