<svg xmlns="http://www.w3.org/2000/svg" width="646.322" height="800" viewBox="0 0 646.322 800">
  <g id="Group_2111" data-name="Group 2111" transform="translate(-637 -975)">
    <g id="Group_2105" data-name="Group 2105" transform="translate(-586.349 876.488)">
      <path id="Path_1527" data-name="Path 1527" d="M1305.682,166.059a5.251,5.251,0,0,0,2.254-.292c.712-4.638-4.433-4.006-7.308-3.234-.377,1.384.712,1.559.923,2.311a11.808,11.808,0,0,1,.35,2.961,3.93,3.93,0,0,0,2.216.253C1304.037,167.011,1305.035,166.5,1305.682,166.059Z" transform="translate(-13.985 -11.499)" fill="#fff"/>
      <path id="Path_1528" data-name="Path 1528" d="M1290.184,176.992c-2.068-.319-1.962,1.295-3.057,2.292a13.316,13.316,0,0,1-3.57,2.074c-1.268-1.413.436-1.584.458-2.385a2.8,2.8,0,0,0-.5-2.229,4,4,0,0,0-4.239-2.261c.3,1.009,1.142,1.31,1.195,2.471a5.254,5.254,0,0,1-2.208.509c-1.588-3.621-.072-8.161-2.534-11.476-1.715-2.31-3.165-1.178-3.876,1.075a4.884,4.884,0,0,0-.2,3c.436,1.07,2.262.587,1.681,2.561-.18.168-.341.35-.509.509-2.208.7-2.452-1.1-2.8-2.714-1.485-.076-2.724-.273-3.775.72a15.64,15.64,0,0,0-1.471,3.113c.379,3.006,4.528,2.227,6.513,3.571,1.126.762,1.409,1.928,2.342,2.8.874.816,2.428,1.17,3.118,2.16,1.612,2.314-1.789,3.65-1.63,6.651-1.711.395-2.342-.956-3.742-1.2.061.789-.137,1.679-.077,2.469-1.067.28-1.667-.668-2.31-.676-.432,0-.776-.328-1.222-.328-.689,0-.308.934-.811.991-1.747.195-3.263-.444-5-.165-.064,2.875-1.882,7.059,1.249,8.835,3.539,2.008,6.042-1.043,8.86-2.582.095-.09.093-.094-.007-.014-.942,1.356-3.023,2.294-2.462,4.118,1.174.668,3.822,1.026,4.99.248,1.584-1.054,1.032-3.221,1.12-5,.721.152,1.441.283,2.216.509,1.29,8.031-1.833,15.918-2.253,24.151-.208,4.082.492,8.971,5.594,5.594,3.809-2.521,2.378-8.459,2.593-12.685.3-.015.641-.076.942-.077.043-2.546-2.211-4.288-.676-7.04,2.4-4.3,2.573,2.364,5.246,1.172,2.841-1.267-.969-5.184-1.917-6.328-1.446-1.747-3.684-4-3.341-6.569,1.99-.055,2.286.251,3.016-1.312.56-1.2-.276-2.638.828-3.755,1.514-1.533,4.582-1.081,6.512-2.4.522-2.262-.581-4.9-2.909-5.049C1292.744,181.015,1290.672,178.166,1290.184,176.992Z" transform="translate(-6.888 -11.993)" fill="#fff"/>
      <path id="Path_1529" data-name="Path 1529" d="M1307.385,141.391c.152-1.232-.513-3.688-2.24-3-1.349.534-.366,3.168-2.305,3.48.344-2.214-1.195-2.567-2.273-.929-.646.983-.857,3.569-1.076,4.78a40.242,40.242,0,0,0-.764,4.839c-.159,2.794.37,2.946,2.8,3.31,1.807.27,3.488.667,4.138-1.477.631-2.082-1.145-1.395-1.337-3.361C1304.132,147.01,1307.133,143.434,1307.385,141.391Z" transform="translate(-13.65 -7.202)" fill="#fff"/>
      <path id="Path_1530" data-name="Path 1530" d="M1293.706,157.926a4.681,4.681,0,0,0-1.547,2.031c-.261,1.653.827,1.811,1.235,2.864a12.029,12.029,0,0,1,.58,6.322c-.348,1.282-1.714,3.4-3.309,3.054-1.9-.41-1.453-3.663-1.8-5.359-.436-2.149-1.238-3.221-1.987-5.085-.228-.567-.687-2.166-.267-2.757.755-1.063,2.355.046,3.036-.6.312-.3,1.272-13.084,4.324-7.614C1294.713,152.107,1293.706,156.359,1293.706,157.926Z" transform="translate(-11.429 -9.223)" fill="#fff"/>
      <path id="Path_1531" data-name="Path 1531" d="M1711.589,102.9c-2.324-.2-2.524,2.8-4.08,3.857-.75-1.046-.955-3.022-2.553-2.85-1.13.121-1.668,1.752-2.087,2.552-.883,1.689-3.171,4.83-2.954,6.843,4.817.256,4.884-2.122,8.109-4.805C1710.446,106.481,1711.439,106.447,1711.589,102.9Z" transform="translate(-86.326 -0.793)" fill="#fff"/>
      <path id="Path_1532" data-name="Path 1532" d="M1688.845,106.944c-1.105-.3-3.944-2.951-5.106-3.806-1.088-.8-2.241-4.281-3.291-4.545-2-.5-.822,1.452-1.336,2.443-.472.909-1.6.786-1.928,1.575-1.143,2.715,2.424,3.5,2.023,5.823a13.156,13.156,0,0,1,3.738.5,7.061,7.061,0,0,0,.336-2.971c1.529.087,1.391,1.807,2.488,2.329C1687.254,109,1690.3,108.6,1688.845,106.944Z" transform="translate(-82.17 0)" fill="#fff"/>
      <path id="Path_1533" data-name="Path 1533" d="M1706.831,125.519c-.1-1.349-2.086-4.727-3.564-4.581-2.847.281-.913,3.989-.466,5.3C1703.829,126.654,1705.686,125.511,1706.831,125.519Z" transform="translate(-86.66 -4.062)" fill="#fff"/>
      <path id="Path_1534" data-name="Path 1534" d="M1696.588,111.911c-2.609,1.126.681,6.753-1.968,7.963-2.528,1.154-1.378-6.032-1.3-7.409A5.211,5.211,0,0,1,1696.588,111.911Z" transform="translate(-85.075 -2.421)" fill="#fff"/>
      <path id="Path_1535" data-name="Path 1535" d="M1693.86,129.615c-.278.128-.446.423-.974.21-2.059-4.269-3.673.476-5.11,1.757,1.255.585.813,1.936,1.743,2.373.733.344,2.043-.675,3.032-.3a2.72,2.72,0,0,1,1.018-1.018C1693.7,131.894,1694.3,130.2,1693.86,129.615Z" transform="translate(-84.13 -5.356)" fill="#fff"/>
      <path id="Path_1536" data-name="Path 1536" d="M1685.183,120.85c-1.047-1.274-2.743-3.836-4.271-4.4-2.87-1.056-3.191,2.039-3.068,4.354,1.666.849,7.028,3.041,7.123-.171C1685.212,120.569,1684.944,120.908,1685.183,120.85Z" transform="translate(-82.326 -3.211)" fill="#fff"/>
      <path id="Path_1537" data-name="Path 1537" d="M1671.967,152.929c-2.317-1.419-3.322-4.638-5.658-6.353-2.266-1.662-7.2-.965-6.563,3.043.31,1.956,1.813.98,3.061,2.031.974.82,1.526,2.951,2.858,4.017C1668.55,157.978,1672.578,156.863,1671.967,152.929Z" transform="translate(-79.042 -8.554)" fill="#fff"/>
      <path id="Path_1538" data-name="Path 1538" d="M1688.66,152.33c-.278,2.634.7,4.568,0,7.116-.719,2.606-1.619,6.7-4.134,2.814C1681.713,157.911,1682.483,151.56,1688.66,152.33Z" transform="translate(-83.258 -9.737)" fill="#fff"/>
      <path id="Path_1539" data-name="Path 1539" d="M1693.311,137.461c.282,2.874-6.353,5.873-9.2,5.226-1.562-2.527-8.536-7.812-8.539-1.312-7.715,2.127-4.791-5.219-8.332-10.045-2.516,1.4-2.945,4.122-2.728,6.938-.474.152-.826.317-1.247.475-2.09-3.059.092-6.147.439-9.238.443-3.937-1.208-7,3.537-7.976,8.1-1.659,8.754,7.754,7.559,13.215a3.288,3.288,0,0,0,4.008-2.065,10.373,10.373,0,0,1,1.186-.012c.43,4.117,5,2.134,7.51,1.768C1687.765,139.259,1689.158,139.2,1693.311,137.461Z" transform="translate(-79.527 -4.134)" fill="#fff"/>
      <path id="Path_1540" data-name="Path 1540" d="M1510.863,461.371l-.135-2.529,0,0c0,1.062.015,2.026.053,2.923C1510.806,461.635,1510.835,461.5,1510.863,461.371Z" transform="translate(-52.057 -65.273)" fill="#fff"/>
      <path id="Path_1541" data-name="Path 1541" d="M1567.355,438.232c3.107-3.167,4.014-7.74-1.139-5.064-2.183,3.427-5.077,6.589-7.267,10.255-2.668,4.464-2.7,5.085-8.209,5.412a19.177,19.177,0,0,0,.061,2.473l9.062-6.055C1562.039,442.2,1564.811,440.826,1567.355,438.232Z" transform="translate(-59.303 -60.476)" fill="#fff"/>
      <path id="Path_1542" data-name="Path 1542" d="M1572.456,559.063a8.871,8.871,0,0,1-.369-1.749l-.563.372C1571.845,558.126,1572.157,558.591,1572.456,559.063Z" transform="translate(-63.071 -83.111)" fill="#fff"/>
      <path id="Path_1543" data-name="Path 1543" d="M1511.1,467.712l-.135-2.536a25.187,25.187,0,0,1-.253-2.762C1510.333,464.176,1509.989,465.833,1511.1,467.712Z" transform="translate(-51.989 -65.92)" fill="#fff"/>
      <path id="Path_1544" data-name="Path 1544" d="M1501.742,224.249c2.04-1.112,3.434-4.408,3.012-6.673-1.505-.334-2.8.928-3.57,1.925-1.158.033-2.083.278-3.228.256-.311-2.588,1.183-2.674,2.831-4.164,1.131-1.022,2.2-4.919,3.5-5.833-.332-1.114-1.337-2.581-1.272-3.764.1-1.8,1.5-2.4,1.978-3.825.734-2.183.158-1.363-1.419-2.76-.849-.752-1.641-1.995-2.839-2.208-2.693-.482-3.713,3.822-5.6,5.238-1.963,1.472-4.906,2.787-6.167,5.018-2.406.425-4.494,1.313-6.838,1.8-1.341.278-3.023.4-4.524.859l22.028,14.7A4.774,4.774,0,0,0,1501.742,224.249Z" transform="translate(-46.057 -17.871)" fill="#fff"/>
      <path id="Path_1545" data-name="Path 1545" d="M1496.1,348.883c1.085,1.559,2.114,6.264,5.136,4.988,2.313-.978,1.422-3.345,1.733-5.477l-6.009-3.935C1495.018,345.217,1493.028,348.493,1496.1,348.883Z" transform="translate(-49.12 -44.553)" fill="#fff"/>
      <path id="Path_1546" data-name="Path 1546" d="M1442.242,313.607c1.158.049,2.806-.881,4.042-1.047-2.317-1.1-6.516-6.436-8.4-1.511-1.13,2.949-.733,9.955-.254,12.8.434,2.573.88,9.1,4.074,10.306,1.2.451,4.817-.27,5.416-1.456.819-1.621-1.529-2.89-2.037-4.4a9.159,9.159,0,0,1,.185-4.949c.546-2.03,1.708-2.1,2.795-3.813C1450.735,315.311,1442.8,317.537,1442.242,313.607Z" transform="translate(-38.729 -38.128)" fill="#fff"/>
      <path id="Path_1547" data-name="Path 1547" d="M1511.356,357.924c-3.549-2.854-4.667,3.587-4.539,5.726C1510.6,366.241,1511.434,360.538,1511.356,357.924Z" transform="translate(-51.348 -46.862)" fill="#fff"/>
      <path id="Path_1548" data-name="Path 1548" d="M1479.446,390.5c5.9.295,8.22-4.859,10.4-9.747C1484.667,380.755,1479.2,385.49,1479.446,390.5Z" transform="translate(-46.39 -51.128)" fill="#fff"/>
      <path id="Path_1549" data-name="Path 1549" d="M1435.833,343.667c-4.429-2.36-5.655,9.441-5.519,11.961,2.85.769,5.872-5.867,8.11-6.987C1436.073,347.088,1436.019,346.49,1435.833,343.667Z" transform="translate(-37.489 -44.353)" fill="#fff"/>
      <path id="Path_1550" data-name="Path 1550" d="M1476.238,397h0Z" transform="translate(-45.806 -54.07)" fill="#fff"/>
      <path id="Path_1551" data-name="Path 1551" d="M1473.29,396.873h.025c-.011,0-.021.122-.025.016a41.458,41.458,0,0,0-13.139,1.764c-.365,2.493.631,3.942,2.261,5.675,1.594,1.7,2.709,3.1,3.558.315.767-2.518.529-3.234,2.864-4.941,1.566-1.145,5.185-.883,4.52-3.353C1473.286,396.1,1473.277,396.873,1473.29,396.873Z" transform="translate(-42.882 -53.944)" fill="#fff"/>
      <path id="Path_1552" data-name="Path 1552" d="M1525.96,363.092l-1.877-1.229C1524.214,362.721,1524.763,363.224,1525.96,363.092Z" transform="translate(-54.477 -47.705)" fill="#fff"/>
      <path id="Path_1553" data-name="Path 1553" d="M1572.662,559.45a8.135,8.135,0,0,0,1.915,3.2C1574.035,561.755,1573.384,560.588,1572.662,559.45Z" transform="translate(-63.277 -83.498)" fill="#fff"/>
      <path id="Path_1554" data-name="Path 1554" d="M1517.329,451.2c3.983-2.186,8.118.648,3.455,3.077-4.932,2.57-5.65-.128-5.745,6.122-.044,2.885-.073,9.763,4.874,6.105,1.353-1,3.614-7.271,3.592-9.08,2.108-.374,3.839-7.8,4.7-10.079a85.967,85.967,0,0,1,4.518-10.9C1528.72,438.244,1518.97,447.082,1517.329,451.2Z" transform="translate(-52.838 -61.216)" fill="#fff"/>
      <path id="Path_1555" data-name="Path 1555" d="M1510.724,458.78v.052l0,0Z" transform="translate(-52.057 -65.262)" fill="#fff"/>
      <path id="Path_1556" data-name="Path 1556" d="M1512.023,472.8c-3.169-2.8-4.428-5.1-4.92-8.273l.135,2.536c-1.109-1.878-.765-3.536-.388-5.3-.038-.9-.053-1.861-.053-2.923a31.669,31.669,0,0,0-5.867,5.49c-1.3,1.54-.844,3.4-3.412,3.188-1.758-.144-1.746-2.626-2.641-3.081-3.9-1.979-3.7,1.556-4.432,5.238-.644,3.242-1.81,7.01-1.261,10.383,3.674-.341,8.51-10.507,10.01-3.939a14.647,14.647,0,0,0-.782,3.134c-.065,1.25.535,2.123.43,3.485a6.773,6.773,0,0,1-.1.678l13.278-8.871Q1512.06,473.7,1512.023,472.8Z" transform="translate(-48.129 -65.273)" fill="#fff"/>
      <path id="Path_1557" data-name="Path 1557" d="M1511.188,458.435c-.157.111-.307.222-.46.333l.135,2.529A11.7,11.7,0,0,0,1511.188,458.435Z" transform="translate(-52.058 -65.199)" fill="#fff"/>
      <path id="Path_1558" data-name="Path 1558" d="M1511.043,465.088l-.169-3.158c-.028.133-.056.264-.084.4A25.156,25.156,0,0,0,1511.043,465.088Z" transform="translate(-52.069 -65.832)" fill="#fff"/>
      <path id="Path_1559" data-name="Path 1559" d="M1502.161,450.457c3.877,1.187,6.684-7.7,6.12-10.82C1502.564,440.471,1501.906,445.551,1502.161,450.457Z" transform="translate(-50.498 -61.794)" fill="#fff"/>
      <path id="Path_1560" data-name="Path 1560" d="M1510.142,415.211c1.451-.306,3.9-.4,5.228-.946,1.275-.521,2.392-2.629,3.634-2.449,1.441.209,1.725,2.512,2.973,3.1,1.427.674,3.832.35,5.357.143.135-2.611-1.078-7.786,2.212-8.174.352-1.048.635-3.235.065-4.292-1.163-2.154-1.949-4.54-4.409-5.235-2.837-.8-4.505,1.745-7.78-.1a18.545,18.545,0,0,1-5.4-5.564c-1.25-2.41-.8-4.982-2.373-7.325-3.989-1-4.605,2.186-5.293,5.093-3.359-.174-5.677.2-6.2,3.921-.413.108-.781-.018-1.183.129.053,2.389,3.846,5,6.143,5.674,1.843-3.338,3.554.019,5.613.03,2.311.012,1.9-1.4,4.462-1.349.7,2.837-1.03,2.767-2.682,3.757-2.752,1.647-2.2-.432-3.868,2.719-2.1,3.973.443,8.192,4.749,4.4a8.185,8.185,0,0,1,.917,2.012c-3.383,2.638-11.907.832-16.208,1.047C1492.286,421.434,1505.993,416.083,1510.142,415.211Z" transform="translate(-49.288 -51.749)" fill="#fff"/>
      <path id="Path_1561" data-name="Path 1561" d="M1526.375,363.225l2.654,1.737a9.748,9.748,0,0,0-.531-2.363A7.733,7.733,0,0,1,1526.375,363.225Z" transform="translate(-54.892 -47.839)" fill="#fff"/>
      <path id="Path_1562" data-name="Path 1562" d="M1472.983,219.142c.489,1.15.262,2.6.694,3.776.412,1.117,1.325,1.375,1.3,2.715-2.474.124-3.661-.015-5.519,1.1-.746.446.014,1.6-1.827,1.2-1.124-.244-1.506-1.488-1.789-2.515-.464-1.685-.013-4.55-2.54-4.514-2.348.033-1.742,2.955-2.744,4.333-2.386,3.28-7.152,3.022-3.678,7.722.815,1.1,1.664,3.047,2.8,3.825,1.332.916,4.092.151,3.589,2.892a39.471,39.471,0,0,1-3.992,1.593c-.387,4.059,11.67,3,7.919,7.232-1.839,2.073-4.832,2.534-6.888,4.071s-2.107,2.99-5.11,2.742c-.282,5.4,5.192,10.46,10.087,7.031,2.672-1.872,3.31-3.411,4.9-5.82,1.326-2.013,3.754-1.953,3.348-5.225,1.617-.071,2.064,1.669,3.736,1.424,1.714-3.322.364-6.118-1.681-8.987-.891-1.25-1.851-1.393-1.584-3.263.209-1.46,1.655-3.121,3.27-2.973.2,3.872.023,9.019,4.623,9.747,4.809.762,7.447-4.584,3.024-5.775,4.046,1.594,7.412-.746,6.906-5.264-.551-4.922-5.873-1.138-8.631-1.3,3.547-1.408,7.421-3.074,7.142-7.69,1.764-.1,3.515.542,5.237.464l-22.028-14.7a5.5,5.5,0,0,0-2.668,1.582C1468.782,217,1472.126,217.124,1472.983,219.142Z" transform="translate(-41.996 -20.736)" fill="#fff"/>
      <path id="Path_1563" data-name="Path 1563" d="M1446.983,280.292c-1.253,2.965-3.25.85-5.341.747-1.325,1.734-6.789,2.65-8.919,3.266-.627,1.538-.339,3.75-.265,5.439a13.344,13.344,0,0,0,4.1-.414c1.077-.265,2.3-1.2,3.458-.752,1.494.582,2.714,4,4.125,5.024,1.738,1.263,4.455,2.525,6.3.884,3.491-3.1-2.858-2.753-4.442-3.712,1.811.027,4.425.7,5.99-.032.342-2.385-2.372-3.583-2.463-5.689,1.888-.125,3.54-.766,5.562-1.041C1452.165,283.423,1450.367,279.557,1446.983,280.292Z" transform="translate(-37.856 -32.912)" fill="#fff"/>
      <path id="Path_1564" data-name="Path 1564" d="M1516.669,312.313a3.287,3.287,0,0,0,1.184,0c1.276-2.845.067-4.395.046-7.232-.018-2.326,1.49-3.746,2.8-5.519-1.028.4-1.956,1.594-3.013,1.8-1.524,1.657-1.611,2.612-1.372,4.961C1516.505,308.206,1515.976,310.587,1516.669,312.313Z" transform="translate(-53.051 -36.42)" fill="#fff"/>
      <path id="Path_1565" data-name="Path 1565" d="M1445,300.26c-2.522-1.819-3.153.58-5.116,2.069,2.216,1.742,5.554,1.8,8.339,2.331C1447.117,303.845,1446.082,301.044,1445,300.26Z" transform="translate(-39.224 -36.428)" fill="#fff"/>
      <path id="Path_1566" data-name="Path 1566" d="M1450.915,305.957c-.274-.068-.563-.123-.851-.178A.855.855,0,0,0,1450.915,305.957Z" transform="translate(-41.069 -37.546)" fill="#fff"/>
      <path id="Path_1567" data-name="Path 1567" d="M1497.957,344.285a2.362,2.362,0,0,0-.457.134l6.009,3.935c.015-.1.03-.2.05-.305C1504.077,345.543,1499.953,343.944,1497.957,344.285Z" transform="translate(-49.662 -44.513)" fill="#fff"/>
      <path id="Path_1568" data-name="Path 1568" d="M1493.663,321.535c.6.8,3.048.88,3.769,1.235,1.477.725,1.961,1.657,4.137,1.462,2.08-.185,2.84-1.945,4.291-2.225.112,1.3-.953,5.231,1.833,4.245,1.264-.447,1.891-4.527,1.808-5.752,2.03-.138,2.155,2.888,4.506,2.76.708,2.812-9,9.063-4.034,11.948,4.924,2.86,11.582-6.042,10.223-10.166,2.731-.812,4.729-1.647,6.015-4.594,1.59-3.642-1.087-6.937-4.569-4.892-3.451,2.027-4.969,2.7-8.62.585-2.448-1.419-3.59-4-6.577-3.745-.562-1.734-.406-4-.865-5.666a59.313,59.313,0,0,1-1.2-6.535c-.621-4.008,3.47-7.027.5-10.593-1.258-1.512-2.574-2.995-3.82-4.529-1.112-1.371-1.385-3.973-2.6-5.011-4.028-3.451-7.769,4.524-6.773,7.583.573,1.76,3.806,4.766,3.023,6.735-.851,2.145-4.118,1.217-5.557.177-1.5-1.086-5.319-9.436-7.906-7.872-1.327.8-.357,4.545.274,5.356.924,1.189,3.326,1.417,3.2,3.293-4.038-.2-1.279,1.836-3.527,3.323-1.506-1.035-1.293-4.7-3.271-4.5-.076,1.692.849,3.832-.026,4.993-.466.617-2.014-.422-2.514,1.034-.547,1.592.952,1.924,1.806,2.911,1.365,1.575,1.024,3.278,2.273,4.816,1.347,1.659,3.469,1.572,5.508,1.468.557-1.321.256-2.981.337-4.434,3.8-.716,9.279,6.851,3.049,4.517.823,1.63.291,3.892,1.3,5.424.762,1.159,3.058,2.045,4.227,2.61C1493.979,318.774,1492.837,320.432,1493.663,321.535Z" transform="translate(-45.635 -32.734)" fill="#fff"/>
      <path id="Path_1569" data-name="Path 1569" d="M1563.612,557.106a5.957,5.957,0,0,0-.245,4.441l6.621-4.378C1568.018,554.469,1565.685,552.772,1563.612,557.106Z" transform="translate(-61.536 -82.594)" fill="#fff"/>
      <path id="Path_1570" data-name="Path 1570" d="M1547.219,472.13a22.129,22.129,0,0,0-1.955,1.684A13.482,13.482,0,0,0,1547.219,472.13Z" transform="translate(-58.314 -67.68)" fill="#fff"/>
      <path id="Path_1571" data-name="Path 1571" d="M1540.04,460.452c-6.574,4.65-1.959,7.3-2.433,13.355a41.107,41.107,0,0,0,4.785-3.005,22.152,22.152,0,0,1,1.955-1.684,13.47,13.47,0,0,1-1.955,1.684c-8.441,8.147-9.668,22.107-10.232,33.03-5.725,1.1-1.558,10.282,3.627,9.24,3.7-.743,12.7-9.209,5.356-11.418-.3-3.928,2.028-9.846,3.116-13.736,1.292-4.621,4.026-6.73,6.195-10.464,2.287-3.938.043-8.052-.981-11.864-.971-3.615-2.234-6.444-2.534-10.089l-7.97,5.325A6.056,6.056,0,0,1,1540.04,460.452Z" transform="translate(-55.441 -64.667)" fill="#fff"/>
      <path id="Path_1572" data-name="Path 1572" d="M1567.679,498.411c1.627.165,1.716-2.591,2.607-3.57-5.919-.757-.972-4.831-2.189-7.424-1.423-3.033-6.4-3.171-8.539-1.85-5.521,3.411-1.86,12.713-1.581,17.918C1563.118,504.642,1573.9,507.452,1567.679,498.411Z" transform="translate(-60.355 -69.97)" fill="#fff"/>
      <path id="Path_1573" data-name="Path 1573" d="M1498.393,492.681c5.708.445,6.955-2.812,10.983-5.932a10.879,10.879,0,0,0,4.34-8.727l-13.278,8.871C1500.051,489.117,1498.75,490.425,1498.393,492.681Z" transform="translate(-49.823 -68.747)" fill="#fff"/>
      <path id="Path_1574" data-name="Path 1574" d="M1574.723,478.868c.15-4.737-2.838-12.032-8.332-12.561C1566.2,468.733,1572.84,477.724,1574.723,478.868Z" transform="translate(-62.14 -66.625)" fill="#fff"/>
      <g id="Group_2103" data-name="Group 2103" transform="translate(1223.349 423.941)">
        <path id="Path_1575" data-name="Path 1575" d="M1278.765,924.8a2.951,2.951,0,0,0-.074,2.076c.738-1.15,1.987-2.878,3.544-2.878h-.442C1280.611,924,1280.206,924.976,1278.765,924.8Z" transform="translate(-1233.346 -573.476)" fill="#fff"/>
        <path id="Path_1576" data-name="Path 1576" d="M1259.666,901.6c-2.683-.15-5.988,1.887-5.68,4.8.78-.614,1.163-.468,1.779-1.633,2.272.013,3.831-1.824,4.708-3.246a9.4,9.4,0,0,0,.075-1.25Z" transform="translate(-1228.895 -569.178)" fill="#fff"/>
        <path id="Path_1577" data-name="Path 1577" d="M1228.046,870.042c-2.835-.4-4.735,1.873-4.7,4.451,1.688-.055,3.4-.02,5.071-.1a3.5,3.5,0,0,1,.951-3.469Z" transform="translate(-1223.349 -563.693)" fill="#fff"/>
        <path id="Path_1578" data-name="Path 1578" d="M1267.038,611.98c.176-1.12.978-1.778,1.024-2.953,2.893.223,4.1-2.982,6.564-3.6-2.019-3-4.189-3-7.446-2.584.19.852-.332,2.11-.134,2.96-.922-.411-1.577-.015-2.5-.782.435,2.461-.494,4.995-3.116,5.333C1260.843,614.7,1264.76,612.743,1267.038,611.98Z" transform="translate(-1230.237 -515.264)" fill="#fff"/>
        <path id="Path_1579" data-name="Path 1579" d="M1267.652,654.3c2.062,1.04,5.1.452,3.46-2.134v-.442C1267.836,649.671,1266.144,651.541,1267.652,654.3Z" transform="translate(-1231.274 -523.996)" fill="#fff"/>
        <path id="Path_1580" data-name="Path 1580" d="M1273.294,719.453c-.814,4.729,2.4,6.178,6.484,6.2.87,2.2,4.7,6.575,4.939,1.248-.27-.363-.634-.51-.518-1.25C1280.677,723.086,1278.425,719.1,1273.294,719.453Z" transform="translate(-1232.373 -536.419)" fill="#fff"/>
        <path id="Path_1581" data-name="Path 1581" d="M1254.319,671.782l.442-.442c-1.242-3.52-6.615-3.4-5.238,1.26C1251.344,673.228,1253.429,673.791,1254.319,671.782Z" transform="translate(-1228.05 -527.262)" fill="#fff"/>
        <path id="Path_1582" data-name="Path 1582" d="M1259.04,637.935c1.169-2.439,5.323,4.1,8.839,3.977.235-1,.877-3.677.961-4.342.747-5.913-2.365-6.672-6.608-6.166-5.581.666-8.878-.326-8.351,6.541C1255.582,638.014,1257.345,638.017,1259.04,637.935Z" transform="translate(-1228.87 -520.45)" fill="#fff"/>
        <path id="Path_1583" data-name="Path 1583" d="M1268.545,620.61a8.005,8.005,0,0,0-1.71.067,4.721,4.721,0,0,1,.108,1.011,3.744,3.744,0,0,1,.276,1.132Z" transform="translate(-1231.227 -518.516)" fill="#fff"/>
        <path id="Path_1584" data-name="Path 1584" d="M1265.95,621.118c-1.036-2.646-4.618-5.906-4.6-1.52C1261.372,623.118,1265.956,624.453,1265.95,621.118Z" transform="translate(-1230.234 -517.945)" fill="#fff"/>
        <path id="Path_1585" data-name="Path 1585" d="M1275.228,626.11c1.459-.458,1.774-2.529,2.307-3.878l-1.326.884a27.439,27.439,0,0,0-3.458.518C1272.1,625.425,1273.119,626.771,1275.228,626.11Z" transform="translate(-1232.263 -518.812)" fill="#fff"/>
        <path id="Path_1586" data-name="Path 1586" d="M1459.793,679.323c-2.331-2.985-6.9-6.363-6.682-10.961,5.062.136,8.539-.8,8.815-5.822.174-3.156-.786-8.379-.982-12.3-5.148-.768-8.56-10.337-8.773-14.639-.125-2.542,1.372-8.151.352-9.73-1.639-2.541-5.889-1.345-8.23-2.289-.323-3.585.847-7.217-.02-10.55,3.266-1.318,7.131,1.018,10.926.838,1.887-5.956-.523-10.926-7.005-11.423-3.653-.28-4.784,1.977-7.634,2.971-3.261,1.137-3.8-.129-6.873-1.722-.193-3.274.6-6.785-1.4-9.556-1.952-2.695-5.732-2.641-7.865-4.621-2.183-2.028-3.215-4.4-4.521-6.606-.274-.461-.557-.915-.868-1.356a11.277,11.277,0,0,0-4.755-3.968c-8.973-4.082-7.914,3.4-9.39,8.948-.826,3.107-.445,4.476-2.542,7.19-1.594,2.063-3.217,3.119-4.162,5.55-4.008,1.325-8.046-.334-12.222-.443-1.715-4.495-8.3-5.318-11.542-8-1.264-1.045-3.487-2.075-4.442-3.512-1.079-1.624-.78-4.9-1.327-5.2-.52-.287-1.116-.677-1.692-.959-.648-2.9-4.1-3.343-4.925-5.66-1.222-3.443,1.241-4.238,3.857-5.411,2.824-1.268,5.684-.82,8.529-1.991s4.324-4.306,6.983-5.046c.678-3.651,2.073-4.2-1.25-6.676-2.245-1.674-7.438-.656-7.017-4.242,3.772,0,5.458,3.588,10.11,2.154.414-.128,5.169-2.1,5.3-2.212a4.54,4.54,0,0,0,1.824-4.8c5.337,1.114,5.641-6.945,6.131-10.22.832-5.562,4.725-7.411,10.438-9.416.584-1.61,2.977-3.858,4.837-3.935-.081-.612-.654.278-.734-.333,2.546-.686,5.787-3.645,7.806-5.037.059-.041.123-.089.183-.132q.41-.292.868-.662c2.244-1.82,5.1-4.922,5.233-7.5a9.938,9.938,0,0,1-5.233-1q-.435-.2-.868-.422c-7.333-3.809-14.634-13.643-21.149-12.606-.624,3.9,4.925,4.364,5.621,7.811-3.984.763-6.243-1.407-9.666-.365-4.625,1.408-3.646,3.864-1.878,8.395,1.233,3.159,3.805,6.614,2.328,10.618-.681,1.846-5.668,7.6-7.832,7.524,2.329-1.234,2.212-4.269.046-5.766,2.112-.88,1.05-1.776,1.569-3.56,1-3.443.571-1.522-.454-4.493-.536-1.555-1.428-2.617-1.734-4.323-.319-1.783.665-4.237-.412-5.766-2.051-2.913-8.883-2.626-7.577,1.821.175.6,3.069,1.8,3.578,2.61.616.98.7,3.646.808,4.813-2.25-.6-4.984-4.419-5.314-6.946-5.607-1.7-3.74,4.518-3.075,7.389-3.065-.057-4.831-3.74-4.428-6.5-4.514-.339-6.967,4.265-11.865,4.794-2.125.229-5.3-.708-6.661,1.3-1.02,1.511.222,5.932-.487,7.909-4.613-.032-9.145,4.65-3.6,7.467-2.08.824-5.486,1-5.093,4.023,2.633-.2,7.238-.09,6.937,3.093-.627-.07-1.439.137-2.077.134.224,1.073-.259,2.172.21,3.3-2.954.853-4.883-1.7-7.723-1.536-.662,3.33,3.583,3.4,3.854,6.485-3.163.184-6.43-.015-9.6.143-.047,3.234-3.883,2.923-6.176,3.989a64.743,64.743,0,0,0-.01,6.927,44.032,44.032,0,0,0,10.564.533c3.065-.308,8.29-.811,4.439,3.886,3.4-1.7,8.093-4.369,12.7-4.188.287,2.548-1.976,3.932-2.915,6.143-.994,2.338-1.013,5.057-1.062,7.767-3.3.168-6.226-.412-8.783,1.381-2.081,1.461-4.065,4.714-6.616,6.208-1.367.8-7.773,2.631-6.318,4.981,1.146,1.851,6.147.059,8.016,3.736-.657.036-1.577.667-2.516.62.112,1.371-.239,2.927-.144,4.294-3.5-1.506-2.345-4.635-7-4.813-3.651-.14-4.934,1.488-8.5.12-3.166-1.216-4.866-2.563-8.718-1.338a9.208,9.208,0,0,0-2.339,1.063c-2.245,1.5-1.968,3.654-2.159,7.169-5.182.89-2.551-5.175-3.934-7.888-1.741-3.415-5.717-1.959-9.708-2.21-3.617-.226-5.889-1.386-9.27-2.653-3.649-1.367-7.576-1.006-10.959-2.163-.183,1.643.874,2.946,2.173,3.921-1.3,1.681-3.857,2.564-5.721,3.624a5.159,5.159,0,0,0-.154,1.613c-.512.26-1.1.332-1.613.6-.193.549.08,1.08-.154,1.614-1.874.527-1.841.941-2.056,2.651,2.556,1.277-.769,3.159-.01,5.755,1.961-.254,4.015-.444,6.052-.773-.624,2.44-3.839,4.313-2.948,7.836a4.817,4.817,0,0,1,3.271,4.5c-2.246.491-7.041.843-6.89,4.409.1,2.4,3.648,3.608,5.753,3.546,2.386-.07,5.664-3.291,8.417-1.8,1.755.952,2.761,5.134,1.634,6.659-2.623,3.546-10.375.267-13.908,4.531a8.068,8.068,0,0,0,2.939,12.153c-3.367,1.3-10.186-3.648-10.2,2.243-2.872-.151-6.4.363-7.555,3.494-1.774,4.807,3.09,3.36,4.03,6.661-5.252.517-5.427,4.563-.927,5.389a16.181,16.181,0,0,1,2.771-.915c.636-.012,1.772,1.144,2.631,1.249,2.425.295,4.658-.249,7-.278.077,3.536-6.371,2.414-4.472,6.682,1.148,2.582,6.675,2.651,8.891,2.466-1.194-5.729,4.431-3.581,6.694-3.978,1.8,2.425-.1,5.1-.687,7.752l-1.079.27c-3.686-.125-5.769,4.652-1.4,4.341a12.247,12.247,0,0,0,2.32-3.341,4.033,4.033,0,0,0,.482,2.018,9.925,9.925,0,0,0,1.6.473c-.151-.872.332-2.1.156-2.981,1.982.48,2.1,2.34,4.01,2.925,2.174.666,4.023-.581,6.089-.784a95.658,95.658,0,0,1,14.074.066c-.065.622.217,1.459.134,2.077a8.593,8.593,0,0,0,4.676-.973,5.965,5.965,0,0,0,2.793-2.782c-.244,2.181-1.978,3.36-1.272,5.954,1.124.405,1.371,1.272,2.2,1.867-1.4,1.666-2.52,1.1-3.72.649a3.277,3.277,0,0,0-2.09-.249c-1.71.471-2.489,3.682-4.4,4.016-3.843.672-9.047-9.8-8.937.356-2.625,2.619-4.12,9.073-8.7,9.852a13.1,13.1,0,0,0-.5,5.68c.324,2.024,2.3,2.656,1.689,5.229-2.492,1.613-3.476,4.877-5.768,7.046-2.2,2.086-5.06,4.258-7.389,6.19-3.038,2.52-4.667,4.678-8.088,6.615-2.849,1.613-6.066,3.274-6.022,7.114,2.572.79,2.31-1.194,3.577-1.612,1.431-.473,2.708-.583,4.223-.972,3.75-.962,3.325-1.8,6.287-3.878,4.445-3.124,10.929-.24,16.006.244,3.1.3,5.566.293,7.856-1.2.988-.645,1.25-2.426,2.212-3.126.781-.571,3.254-.867,4.32-1.424,1.973-1.03,3.376-2.936,5.724-3.04a4.632,4.632,0,0,1,.583.008c1.75.142,4.816,3.117,7,3.656-.126,3.288-4.557,3.913-7.586,4.223-.437.044-.846.083-1.207.121-3.966.423-6.68,2.122-10.607,2.651-7.909,1.067-16.2,3.566-24.24,3.16-.114.44.011.825-.066,1.259-1.324,7.436-5.646,8.753-14.075,8.9.025,1.816-.236,1.739,1.2,2.661.751,2.71,1.789,3.349,1.961,6.232.02.33-1.42,1.6-1.389,2.884-.01-.439,2.58,1.826,2.628,1.857-2.559,3.811-9.633,1.5-10.284-2.575-3.489-1.034-3.192,3.261-6.672,2.7-1.146-.184-.61-2.439-2.532-2.778-1.372-.243-2.375.953-3.525,1.433-3.229,1.347-3.8,2.6-6.064,4.775-2.777,2.675-2.828,2.674-6.254.915-.686,2.4-.082,7.953-2.65,8.405a5.878,5.878,0,0,0,0,1.2c3.447.921,5.037-2.145,8.35-2.167,3.07-.021,4.959,1.325,8.341.477,5.4-1.354,13.435-4.816,18.959-2.588,1.7,5.685-8.033,1.125-7.5,6.928-5.334.287-15.9,1.94-17.633,8-.49,1.711,1.211,3.236.152,5.014-.5.835-3.053.677-4.008,2.167-1.456,2.27-.916,9.53,2.486,9.126-.78-4.572,3.2-4.245,6.189-4.726.287,3.486-2.2,7.548,3.157,7,3.661-.374,4.16-4.278,7.049-5.678,2.7-1.31,8.049.231,11.072-.065,1.1-.108,2.526-.3,3.936-.536-.8.66-1.542,1.5-2.491,2.389-2.929,2.744-4.068,2.161-7.656,3.449-3.027,1.087-3.659,3.54-6.262,4.763-2.792,1.312-5.744-.8-4.83,4.893-3.37.015-7.549,4.057-2.143,4.5,2.122.172,9.1-2.675,9.346-4.806,5.69-.492,9.707-3.344,15.4-3.6,1.105-.05,3.481.5,4.441.032,1.4-.685.143-3.05,1.392-3.476,2.616-.893,4.424,2.9,6.473,3.508.007,2.2-7.75,2.836-9.985,4.025-2.922,1.553-5.925,3.658-8.872,5.269-.342,3.677,6.435,2.254,8.24.861-1.67,3.795-11.869,3.063-10.46,10.487a8.038,8.038,0,0,0,5.611.011c-.082-.622.212-1.473.134-2.089,3.774-1.253,8.239-1.159,11.988-2.154,4-1.063,8.346.233,6.55,5.532,1.811.1,8.387-2.7,9.237-4.383,1.945,2.084,4.775,1.683,5.378-1.218.527.186,1.652.128,2.168.33.573-1.89,2.384-2.164,4.31-1.634,1.371,2.217,3.323,1.78,5.26,1.041a20.438,20.438,0,0,1,3.2-1.128c2.11-.389,10.151-1.7,5-5.2,2.958-.626,6.443,1.329,9.976,1.169-.105-1.379.237-2.927.124-4.3,3.717-.337,12.8-3.106,14.108-6.652,1.488-4.024-2.774-10.359-5.291-12.761,3.907-.344,7.894,2.245,11.853.873-2.845,1.415-4.094,4.505-2.163,7.423,2.317,3.5,3.827,1.359,6.506-.419,1.21-.8,2.6-1.305,3.776-2.09.746-.5-.128-1.539.624-2.027s2.277.155,2.8-.281c1.931-1.6,5.408-4.67,5.347-7.478,4.451.082,7.863-.45,12.23-.585.8-.929,1.671-.8,2.385-1.559,1.8-1.926.579-1.946.861-2.859.87-2.823,1.841-4.872-1.687-6.132,2.475.039,5.558.5,7.809-.4,3.121-1.243,3.27-2.829,6.618-2.994,2.564-.125,4.861.311,7.515-.242,2.251-.469,4.243-1.944,6.561-1.58-.253,1.406.483,2.592.585,3.833,3.873.813,3.885-4.815,3.083-7.325a2.769,2.769,0,0,1,2.508-.916c1.44,1.982,1.572,4.474,1.47,6.926a5.743,5.743,0,0,0,2.519,0c.486-2.448,2.946-3.555,2.319-6.5.126-.007.269-.019.4-.028.277-.02.564-.041.868-.068,2.13-.187,4.8-.486,6.541.129,1.8.638,2.514,2.922,4.961,3,1.7.056,3.705-1.469,5.745-1.777,2.1-.316,4.454.04,6.563-.066,2.121-5.617-3.668-6.15-4.285-10.475,3.5-.935,4.07-4.57,5.234-7.136,1.516-3.339,4.045-4.455,5.879-7.391,1.93-3.093.151-7.707.838-11.157.713-3.573,2.922-7.331,4.432-10.411,3.02-6.16,7.637-13.375,6.208-20.549C1460.618,694.415,1464.936,685.909,1459.793,679.323Z" transform="translate(-1223.498 -495.933)" fill="#fff"/>
        <path id="Path_1587" data-name="Path 1587" d="M1358.687,882.918l.331.332a7.558,7.558,0,0,1-.05,2.27c-.7-.191-1.576.072-2.211-.24.026.913.061.706.605,1.318,1.616-.447,3.3-.642,4.923-1.075.16-.173.748-1.033.918-1.269C1362.31,882.353,1360.689,882.486,1358.687,882.918Z" transform="translate(-1247.516 -565.986)" fill="#fff"/>
        <path id="Path_1588" data-name="Path 1588" d="M1366.706,531.819c-6.639-3.117-1.884,3.955-4.057,5.822C1366.969,540.227,1366.253,534.59,1366.706,531.819Z" transform="translate(-1248.583 -502.292)" fill="#fff"/>
        <path id="Path_1589" data-name="Path 1589" d="M1367.8,531.024a4.045,4.045,0,0,0-.2.793c.067.032.128.058.2.092Z" transform="translate(-1249.481 -502.29)" fill="#fff"/>
      </g>
      <path id="Path_1590" data-name="Path 1590" d="M1569.194,1074h0Z" transform="translate(-62.143 -176.707)" fill="#fff"/>
      <path id="Path_1591" data-name="Path 1591" d="M1565.994,1073.819h2.793a1.963,1.963,0,0,0,1.133-.562c.065-.054.116-.257.158-.257h-5.924C1564.7,1073,1565.333,1073.819,1565.994,1073.819Z" transform="translate(-61.736 -176.526)" fill="#fff"/>
      <path id="Path_1592" data-name="Path 1592" d="M1607.2,736.73c-1.281-.681-2.144-.223-3.138-.032l4.74,2.4A3.175,3.175,0,0,0,1607.2,736.73Z" transform="translate(-68.965 -115.546)" fill="#fff"/>
      <path id="Path_1593" data-name="Path 1593" d="M1602.723,732.988c.994-.191,1.857-.648,3.138.032a3.175,3.175,0,0,1,1.6,2.367l9.3,4.708c1.48-2.08,6.778-3.882,8.4-5.743,1.96-2.249,6.515-5.489,6.751-8.372-1.932-.956-2.937.393-4.519.332-3.609-.139-2.43.349-4.847-2.542-2.5-2.99-4.513-6.277-8.3-7.424-2.092-.633-9.606-.838-10.969.886-2.672,3.379,2.069,8.213-5.315,7.942-1.964,2.308-1.49,3.807.068,5.438Z" transform="translate(-67.626 -111.836)" fill="#fff"/>
      <path id="Path_1594" data-name="Path 1594" d="M1693.135,717.042a5.392,5.392,0,0,0,.139,1.782l-.006-2.525A4.2,4.2,0,0,0,1693.135,717.042Z" transform="translate(-85.097 -111.91)" fill="#fff"/>
      <path id="Path_1595" data-name="Path 1595" d="M1594.892,1003.171a2.926,2.926,0,0,0,.9-1.289l-4.066,2.173C1592.816,1003.972,1593.775,1004.122,1594.892,1003.171Z" transform="translate(-66.731 -163.643)" fill="#fff"/>
      <path id="Path_1596" data-name="Path 1596" d="M1611.323,744.359a57.41,57.41,0,0,0,7.444,1.336,1.728,1.728,0,0,1,.383-1.286l-9.3-4.708C1610.207,741.4,1609.958,743.384,1611.323,744.359Z" transform="translate(-70.014 -116.15)" fill="#fff"/>
      <path id="Path_1597" data-name="Path 1597" d="M1599.524,734.994c1.564,1.374,2.588,1.426,3.5,1.251l-4.693-2.376C1598.68,734.233,1599.082,734.605,1599.524,734.994Z" transform="translate(-67.927 -115.093)" fill="#fff"/>
      <path id="Path_1598" data-name="Path 1598" d="M1637.319,909h0Z" transform="translate(-73.586 -146.818)" fill="#fff"/>
      <path id="Path_1599" data-name="Path 1599" d="M1585.579,1006.92a1.377,1.377,0,0,0-.13.364l5.142-2.749a4.662,4.662,0,0,0-1.377.292C1587.65,1005.434,1586.526,1005.3,1585.579,1006.92Z" transform="translate(-65.593 -164.124)" fill="#fff"/>
      <path id="Path_1600" data-name="Path 1600" d="M1591.624,782.482a3.148,3.148,0,0,0,5.25-1.127l-3.894-1.924A23.411,23.411,0,0,0,1591.624,782.482Z" transform="translate(-66.712 -123.347)" fill="#fff"/>
      <path id="Path_1601" data-name="Path 1601" d="M1624.94,907c.037,0,.109.849.23,1.365.833.069,2.1.273,3.56.273h7.75a7.624,7.624,0,0,0,4.675-1.638Z" transform="translate(-72.747 -146.456)" fill="#fff"/>
      <path id="Path_1602" data-name="Path 1602" d="M1587.7,897.555l.028.021c0-.015,0-.028,0-.043Q1587.464,897.306,1587.7,897.555Z" transform="translate(-65.981 -144.721)" fill="#fff"/>
      <path id="Path_1603" data-name="Path 1603" d="M1500.948,506.02c-.414-.915-.022-1.62-.781-2.534,2.067-.3,3.886.328,5.706.739a3.7,3.7,0,0,0,.066-1.277c-.445-5.562-9.511-4.251-9.32,2.165A7.154,7.154,0,0,0,1500.948,506.02Z" transform="translate(-49.502 -72.628)" fill="#fff"/>
      <path id="Path_1604" data-name="Path 1604" d="M1549.611,599.806a7.926,7.926,0,0,0,.357-.824l-4.6-2.856C1546.113,598.622,1547.392,600.308,1549.611,599.806Z" transform="translate(-58.333 -90.142)" fill="#fff"/>
      <path id="Path_1605" data-name="Path 1605" d="M1515.313,567.2c.124,2.377-.1,8.679,1.128,12.785l4.6,2.856c1.1-2.94-.169-5.191-.639-8.183-.6-3.789.272-7.187-1.543-10.632-1.69-3.208-3.743-6.839-7.158-6.438-2.177.255-6.886,2.767-8.975,3.587-2.455.965-6.691,4.439-7.585-.226-.525-2.742,3.618-4.7,5.929-5.921,4.592-2.421,13.008-6.679,7.137-13.494-1.145-1.328-1.514-2.412-3.5-2.152-.4,2.34-.441,5.042,2.092,5.842.582,2.39-1.119,4.342-3.4,2.961-1.431-.865-1.254-4.684-1.443-6.179a20.651,20.651,0,0,0-.393-2.2c-.926-3.9-2.934-5.925-7.158-8.22,2.281-2,2.562-4.649.827-6.629-1.041-1.187-3-.257-3.7-1.215a4.117,4.117,0,0,1-.358-3.005c.136-.919.354-1.832.39-2.533.513-9.907-5.459-6.418-12.31-8.6-3.026-.965-4.573-2.951-8.077-2.491-2.286.3-5.706,2.195-8.032,3.052-4.218,1.555-12.324,6.5-16.682,2.231.171,5.1-1.78,10.758-6.813,12.462-1.867.633-6.995,2.063-8.851,1.8-1.7-.238-2.61-1.8-3.891-1.92-.63-.061-1.349.221-2.3,1.194-1.6,4.366-1.2,9.224-3.109,13.481-1.029,2.3-2.483,3.025-4.028,4.958-.035.044-.059.08-.093.124-1.556,1.985-1.548,2.854-2.31,5.52-1.382-.115-2.956.244-4.331.144-3.224,8.438-10.024-5.174-13.95,1.716s10.068,4.049,9.775,9.8c-3.074.163-4.8,3.47-7.64,4.455-3.694,1.279-6.45.418-9.744,2.768-6.173,4.4-3,8.458.619,12.561.892,1.013,1.811,2.029,2.624,3.053,2.534,3.2,2.245,5.807,3.918,9.093,2.258,4.436,4.885,1.366,8.959,3.121a3.253,3.253,0,0,1,.9.6c2.111,1.918,2.35,6.441,5.227,7.159,2.332.582,1.764-1.56,3.68-1.95,2.068-.42,3.942.809,5.843.929,4.1.26,8.67-.664,8.122-5.754,3.656-2.654,6.059-1.606,6.2-7.253.063-2.607-.936-7.691,2.228-9.445,7.083-3.925,10.317,9.264,12.631,12.607,2.559,3.7,6.7,1.815,9.185,4.129,3.116,2.9-.454,5.467-.433,8.848.055,9.138,12.623,2.2,16.658.449a22.083,22.083,0,0,1,8.1-1.335c3.352.446,2.217,1.619,4.455,3.577,1.973,1.725,3.974,2.517,7.123.585,3.949-2.423,1.677-3.206,2.7-7.312.8-3.2,2.437-4.667,4.53-5.442,2.054-.761,4.545-.853,7.106-1.254,3.637-.568,10.221-3.792,9.789-8.033a30.912,30.912,0,0,1-7.016-3.285c-.13-2.233-.482-4.907-.756-7.589a37.053,37.053,0,0,1-.15-8.854A6.492,6.492,0,0,1,1515.313,567.2Z" transform="translate(-29.407 -74.006)" fill="#fff"/>
      <g id="Group_2104" data-name="Group 2104" transform="translate(1454.702 162.882)">
        <path id="Path_1606" data-name="Path 1606" d="M1920.665,669.977c-6.126-3.7-5.37-12.294-8.774-17.828a14.572,14.572,0,0,0-2.087-2.659c-3.419-3.438-8.013-4.482-12.925-6.064-5.109-1.645-11.764-5.107-17.415-5.921a15.392,15.392,0,0,0-2.718-.174c-3.924.142-5.688,3.68-9.379,4.257-3.792.594-6.622-1.267-10.164-1.3-1.3-.014-2.626.009-3.9.074a12.111,12.111,0,0,0-.6,5.074c-4.732,2.127-4.31,5.405-6.65,9.133-.05.08-.1.146-.155.221-1.97,2.923-4.735,3.023-7.411,3.816a10.5,10.5,0,0,0-1.982.784c.047-4.649-4.3-9.583-8.859-9.59,1.451-4.512,5.257-8.379,8.232-12,.156-.19.311-.379.462-.567,3.911-4.879,5.131-8.581,4.5-14.794-.533-5.23-1.762-11.362-4.73-15.8-1.692-2.532-9.618-8.882-11.169-7.284-2.31-1.59-2.679-4.827-5.722-5.683-1.586-.446-3.636.946-4.9.489-1.5-.544-2.029-2.407-3.072-3.5a12.138,12.138,0,0,0-4.582-2.987c-4.745-1.8-10.607-1.177-15.756-.942-1.924.088-10.379,1.716-8.86-2.2.968-2.494,7.731-1.264,9.742-.945,1.386.22,3.222,1.386,4.519,1.3,2.256-.142,2.57-1.728,4.407-2.527,2.6-1.133,4.26-1.119,5.948-.3a17.571,17.571,0,0,1,3.123,2.148c2.107,1.688,3.322,3.1,5.87,3.8,2.846.781,6.043-.287,8.848.449.943.248,4.9,4.7,5.336.892.126-1.094-4.626-5.227-5.336-6.106-3.047-3.775-5.393-8.662-7.949-13.322h0c-2.68-4.886-5.593-9.522-9.793-12.358,2.344-2.772,7.62-6.419,7.059-10.386-7.4-2.163-10.342-4.816-12.75-11.93-1.954-5.775-3.622-13.075-8.861-17.235-4.956-3.935-11.666-4.749-17.533-6.279-5.707-1.487-13.537-3.2-19.6-1.805-.644-4.308-3.742-8.361-4.826-12.9a29.287,29.287,0,0,0-5.866-12.18c-1.3-1.579-3.628-3.309-4.419-5.214-.968-2.331-.062-5.353-.423-7.838a23.47,23.47,0,0,0-.6-2.843,18.74,18.74,0,0,0-5.416-9.044c4.38-6.509-.22-12.486-1.921-19.063-.662-2.563-1.212-6.936-2.876-9.156-2.721-3.631-8-5.149-11.4-8.143a35.672,35.672,0,0,1-7.3-8.839c-1.528-2.607-2.765-7.1-5.4-9.023-2.733-1.991-7.072-.49-10.375-1.925-1.456-.633-2.519-2.069-3.99-2.636-1.616-.624-4-.1-5.422-.753-2.864-1.313-3.785-5.489-6.961-7.1-2.451-1.24-7.167-1.266-9.745-.242.943,15.6-35.361,8.146-43.763,7.7a24.011,24.011,0,0,0-4.319-9.545c1.181.53,3.252.361,4.265.989,1.3.808,1.72,2.692,2.728,3.311,2.727,1.673,7.011.8,10.078,1.394,6.573,1.277,13.827.147,18.229-5.652,2.723-3.588,2.761-6.088,7.412-7.871,2.877-1.1,6.141-1.742,9.27-2.59,7.725-2.094,10.2-11.3.786-12.966a7.884,7.884,0,0,0-4.756.371c-.356-3.467-3.926-6.476-7.553-5.278-4.8,1.584-3.285,6.993-9.753,6.115a8.559,8.559,0,0,0,3.234-6.889c3.406-1.883,9.247-2.391,13.181-3.027,4-.648,7.238-2.034,10.973-2.784a6.016,6.016,0,0,0,1.4-4.715c8.6-2.977,4.994-12.759,9.17-19.267,1.672-2.6,3.984-4.667,5.513-7.636,1.78-3.453.726-7.309,2.088-10.641,1.61-3.934,4.43-5.286,4.883-9.92.075-.762.107-1.462.12-2.124.065-3.133-.314-5.371,1.084-8.763,2.471-5.991,8.275-11.519,8.518-18.287.175-4.879-1.689-12.615-4.54-16.557-3.482-4.814-10.949-5.448-13.224,1.7-2.83-1.089-5.667-4.127-9.116-3.352-2.146,4.767-14.467.776-17.744-.062a17.145,17.145,0,0,0-9.377.337c-3.064,1.173-4.54,3.23-8.311,2.391-5.738-1.276-10.534-3.764-16.818-1.34-2.582,1-5.254,2.986-7.832,3.921-2.2.8-5.87.5-5.478,3.746-6.627,2.237-11.85,4.764-15.468,11.323-2.849.819-6.031.484-9.045.531,4.541-2.638,14.816-8.79,13.475-15.2-2.772.48-4.717-.643-4.738-3.475,4.269-2.789,7.084,1.12,10.451-2.806,1.555-1.813,4.22-7.362,3.567-9.83-5.5.5-21.492,5.669-24.173-1.263,2.459-2.7,7.114-2.023,10.54-1.851,2.4.12,11.358.113,6.233-4,4.366-3.115,5.965-7.795,9.654-10.81,1.927-1.575,5.377-2.422,7.448-3.9,2.406-1.716,3.082-3.706,4.914-5.707,5.94-6.485,23.466-14.71,17.87-24.819.528.041-1.121-1.332-.6-1.273-.922-2.951-1.9-4.785-.872-7.511.92-2.443,4.346-3.619,1.765-6.335-2.091-2.2-12.686-1.964-15.4-.882-.375,1.954.586,3.69.74,5.517-4.537.236-11.569-2.557-14.969-.8-1.816.937-2.59,3.477-4.853,4.256-2.339.8-5.138-.172-7.169-.676-2.262-.562-4.093-1.728-6.527-1.4-2.953.395-2.7,2.187-4.5,3.5-1.87,1.371-4.076,2.024-6.012,3.558-1.669,1.323-2.008,3.058-4.429,3.779.45-3.243,2.906-10.621-3.625-8.663-3.849,1.154-2.286,8.281-7.909,7.336,2.195-2.348,1.818-5.419,1.655-8.578-4.128-.219-8.326-1.6-12.307-1.372-6.946.389-4.578,2.732-4.485,7.339-.417.085-.777.015-1.185.138-2.281,2.77,1.188,2.6,1.613,5.077-2.164,1.177-.25,3.222.011,5.235-1.915.175-3.351-.483-5.168-.741-.373,2.091.774,7.5,1.6,9.186,1.491,3.038,6.608,2.165,6.659,5.49-3.586.275-5.531-1.01-8.771-1.676-2.741-.563-6.438-.074-9.214.064-.8,4.119,1.753,3.2,2.914,5.706,1.022,2.2.619,5.544.488,8.1-2.155.3-6.99-3.263-6.584.958.131,1.36,3.735,2.908,4.074,5.565,4.063,1.349,7.574,5.928,8.265,10.014-3.516.617-5.24-3.768-8.373-4.55.44,2.867,2.208,4.979,3.942,7.129-2.995,1.657-3.84-2.625-6.926-2.428-.152.523-.375.915-.536,1.412-.02.06-.042.115-.059.178-3.278.339-5.5-6.9-9.323-3.971-2.989,2.289,1.478,9.166.938,12.256a6.352,6.352,0,0,1-2.069.444c-.566-1.946.225-5.468-.838-7.031-1.571-2.309-3.984-2.1-4.907.652-.636,1.9,2.139,9.812,2.962,11.681-6.52.967-3.854,4.107-.7,8.131,2.139,2.733,8.925,4.12,9.554,6.153-3.652.178-5.2.042-7.909-1.655-1.79-1.119-4.017-4.74-7.069-1.869-1.908,1.795-.584,16.063.517,18.753,4.949,1.412,5.684-5.134,9.558-4.19,1.557.379,1.551,3.656,3.613,3.862,2.285.227,2.777-2.231,4.8-2.577.618,6.515-6.135,2.958-9.589,3.483-1.286,4.6,4.825,5.369,8.254,6.1a19.9,19.9,0,0,1,1.688,2.568c-2.766-1.792-8.621.476-7.283,4.685,2.086,2.558,5.186,3.207,7.48,5.3-1.491,1.463-4.244.984-6.155.361-4.542-8.274-14.963,3.947-10.581,7.814,1.029.908,10.3-2.767,7.876,1.861-1.2,2.287-7.227.061-9.224.055-.934,1.688-3.637,6.62-3.28,8.957l1.877,1.229a7.727,7.727,0,0,0,2.123-.626,9.753,9.753,0,0,1,.531,2.363,10.437,10.437,0,0,1-.069,2.73c-2.268.54-1.929,2.739-1.768,4.8-3.814.831-4.455-2.086-7.371-2.47-1.452,2.566-5.775,1.211-8.126,2.876-3.439,2.434-2.334,4.807.98,6.191,3.433,1.434,18.168-2.178,17.244,1.752-.841,3.575-7.5-.058-8.869,2.6-2.367,4.6,4.078,5.291,6.219,6.082,3.625,1.338,5.247,3.929,8.838,2.177.836-.408,1.836-2.119,2.63-2.709,1.376-1.023,2.72-.807,4.1-1.961a56.135,56.135,0,0,0,7.63-8.038l5.183,3.393c-.057.185-.111.368-.173.555-2.512.215-3.3,3.212-5.324,4.744-2.2,1.658-4.915,1.965-6.828,4.061,3.565-.086,7.339-.892,10.758-.5-2.349,1.44-7.941,3.01-4.284,5.714,4.128,3.052,5.8-2.978,8.826-2.642a2.472,2.472,0,0,1,1.712,3.841c-1.074,1.5-4.14.9-5.678.957-3.916.148-6.7-.093-9.722,2.177-3.14.018-1.484,2.743-.939,4.716-.415.121-.784.056-1.205.138-.1,2.556-4.147,7.487-.566,8.284-1.439,2.249-1.948,4.9-2.537,7.7.98-.251,2.1.17,3.069-.206-.546,4-1.727,6.131-4.021,9.4-1.816,2.592-5.2,5.778-4.331,9.536,2.823-.979,1.733-4.568,4.265-5.549.767,3.723-4.231,5.369-3.382,10.339.985-.469,2.069-1.191,3.13-1.66l7.97-5.325a19.176,19.176,0,0,1-.062-2.473c5.51-.327,5.541-.948,8.209-5.412,2.191-3.666,5.084-6.828,7.267-10.255,5.153-2.676,4.246,1.9,1.139,5.064-2.543,2.594-5.316,3.972-7.492,7.022-.113.159-.232.3-.342.469a19.32,19.32,0,0,0-3.1,12.626c.078,1.172.065,5.793,2.673,4.821,1.609-.6.85-4.617.939-6.051,4.21-1.674,10.458,1.3,7.5-5.692,1.763,1.767.574,5.432,2.134,6.835,2.974,2.677,3.327-2.186,3.966-4.266,1.937-6.3,2.307-11.43,2.76-18.255,1.013,1.331,1.63,3.011,2.885,4.274.328-.944,1.224-1.523,1.524-2.49a4.493,4.493,0,0,1,2.939.87c.4,4-6.276,5.224-5.678,9.929.885,6.962,6.931-.4,6.176-4.649,1.556,2.226,1.759,5.092,3.632,6.752,2.07,1.834,4.784,1.887,6.508,4.375-6.771-1.074-13.331-4.854-15.851,3.56-1.458,4.865-3.066,14.844.516,18.181,4.62,4.3,9.6,5.484,10.078,12.723.289,4.4-1.073,5.358-3.524,8.369-2.371,2.911-3.36,5.886-4.787,9.494-2.48,6.272-13.469,18.673-12.491,27.551a8.862,8.862,0,0,0,.369,1.749c.722,1.138,1.373,2.305,1.914,3.2a8.133,8.133,0,0,1-1.914-3.2c-.3-.472-.611-.937-.933-1.377l-6.621,4.378c.873,2.846,3.415,5.41,5.448,6.878-.369,6.1,2.7,3.5,5.229,7.5,1.9,3,1.541,7.146,3.686,10.279a61.39,61.39,0,0,0,6.485.01c1.555-6.375-6.689-11.661-6.043-18.582,2.581-2.151,5.012,1.414,6.994,2.95,3.025,2.344,4.543,2.945,8.4,4.28,3.705,1.283,14.768,9.355,16.815,2.818,1.137-3.635-3.257-6.12-4.785-8.934-2.015-3.712-1.078-5.012,2.663-1.734,5.643,4.947,10.454,5.2,18.45,4.9,4.941-.186,6.554-.822,6.255-6.03,3.57-.194,7.256.317,10.54-.937,4.595-1.755,3.8-4.138,4.045-8.643,5.56.42,13.933-4.015,18.889.718-2.637.1-3.83.025-5.822,1.383-2.647,1.8-1.373,4.1-5.545,2.267-1.333,6.07-4.687,10.545-7.159,16.009-.6,1.331-.318,3-.969,4.282-.713,1.4-2.25,2.118-3.005,3.556-1.561,2.972-1.435,6.24-1.24,9.526,5.106,2.8,7.609,7.274,9.754,12.693.529,1.336,6.365,17.785,7.91,10.526,1.564-.521,2.837-1.313,4.288-1.739,1.016,4.084-2.76,5.908-3.135,9.405a5.461,5.461,0,0,0,6.715,5.365c5.062-1.422.767-7.686,5.779-8.316,1.325-.166,2.965,1.765,4.849,1.751,2.073-.016,2.385-2.029,4.785-1.665,2.765,3.418-.587,4.24-2.475,6.118-2.871,2.855-2.977,2.82-.541,5.638,1.006,1.165,5.31,2.153,3.867,4.609h-.008c-.11,0-.245.31-.424.519-1.2,1.407-6.014.533-7.781,1.441-3.353,4.489-2.615,10.9-.526,15.6,1.738,3.908,2.765,3.119.344,6.945-1.607,2.538-3.512,3.677-3.869,6.963-.512,4.718,3.846,10.21,6.284,13.909a21.1,21.1,0,0,0,12.642,9.242c.64,5.734-5.831.636-7.117-.827-1.577-1.795-3.322-5.319-5.943-6.772-2.949-1.635-7.511-1.693-8.385,1.543l.006,2.525c.7,2.839,3.536,4.132,2.89,8.179a3.512,3.512,0,0,1-2.871.256c-1.824-.7-2.94-3.073-4.995-4.23-3.106-1.748-8.148-2.461-11.405-.653-4.229,2.348-3.5,5.013-8.948,3.4-4.419-1.312-7.449-2.769-12.306-2.559a3.093,3.093,0,0,0,1.7,3.853c-8.357.029-8.877,3.661-14.143,8.272-1.887,1.652-4.424,1.806-6.627,3.146a6.616,6.616,0,0,0-2.046,1.831c-1.035,1.464-1.17,3.163-2.031,5.375-2.388,6.131-7.392,8.866-12.186,12.824-4.048,3.343-6.871,5.621-8.941,9.478l3.894,1.924a3.81,3.81,0,0,0,.175-.537c2.176-.392,5.4,1.3,7.335.271,1.7-.9,2.223-4.7,2.817-6.369,5.353-3.3,13.449-3.371,19.755-3.056.62,3.555-3.925,5.786-2.03,8.967,1.7,2.849,6.337.548,5.764,5.433-.332,2.823-5.289,5.087-4.559,8.186s6.718,3.532,6.139,8.286c-.063.518-2.253,3.567-2.595,4.791a20.9,20.9,0,0,1-1.68,4.875c-.076.144-.16.284-.239.427a34.921,34.921,0,0,1-2.24,3.47c-.956,1.326-1.966,2.617-2.923,3.917a54.464,54.464,0,0,1-14.129,12.883c-3.127,2.037-6.227,2-9.711,3.919-3.449,1.9-6.2,6.168-9.294,7.954-3.364,1.944-6.164-1.589-10.163-1.327-5.375.35-4.684,3.734-4.928,8.207-3.668.2-10.024.98-9.149,6.1,2.411.758,5.193.434,7.823.565-.083,2.5-.287,5.069-.442,7.708-6.849.133-4.1,6.6,1.834,6.6,4.35,0,8.759-3.93,12.748-2.982-.029,3.534-4.721,2.992-7.367,3.058-5.531,9.573,10.122,12.582,8.646,3.506l-.028-.021q-.237-.249.023-.023c0,.016,0,.029.005.043,4.59,3.739,9-4.248,12.93-5.346,6.052-1.693,9.644-1.174,13.722-6.357-.195,4.285.374,6.74,3.958,9.012,2.762,1.752,8.492,1.056,9.677,4.744-3.948,1.15-10.32-.1-9.842,5.636h16.216a3.266,3.266,0,0,0,.807-3.244c5.172-.259,7.458.788,10.131,3.244h.085c.293,0,.592.5.9.806s.629.587.965.923c3.052,3.045,8.734,3.611,10.947,7.048,2.993,4.646,14.1,3.974,19.015,3.056,6.563-1.225,5.691-7.738,10.583-11.014h12.282v-.7c1.638-2.595,4.952-5.183,7.334-7.865.056.787-4.555,6.593-6.883,9.113-.08.087-.186.269-.267.269h-.183v.264c-3.275,3.505-7.332,5.926-9.345,10.68-1.922,4.539-2.638,9.78-3.087,14.834-6.707.335-12.537,2.631-18.506-.8a12.381,12.381,0,0,0-4.338-1.505c-4.44-.7-8.906.683-13.768-.769-6.761-2.019-12.865-.911-19.909.522-2.392.486-6.954,1.644-8.84,3.036-4.414,3.256-.045,3.131,1.724,6.456-1.286.119-2.415.739-3.867.6.057,3.344,2.759,4.762-1.282,7.446-3.04,2.019-6.373.581-9.833.763-6.828.359-6.14,7.476-5.161,13.3.229,1.364.474,2.658.642,3.777,1.238,8.244-4.827,9.7-8.641,14.8-.636.852-.534,1.761-.852,2.653a2.926,2.926,0,0,1-.9,1.289c-1.118.951-2.076.8-3.163.884l-5.142,2.749a14.726,14.726,0,0,0,.282,4.551c-.037.113-.073.225-.109.337-2.028-.187-3.027-1.659-5.169-1.608a12.1,12.1,0,0,1-4.132,8.555c-1.4,1.259-2.671.841-3.912,3.134-.781,1.443-.074,3.666-.947,5.142-1.448,2.446-5.33,4.507-7.515,6.521-1.987,1.833-4.919,5-7.415,5.766-3.3,1.007-7.316-.935-10.518.5-2.214.992-6.394,5.336-7.277,7.754-1.181,3.23.639,6.709,3.19,8.3,3.582,2.227,5.08,1.151,7.6-1.647,3.257-3.615,5.907-8.366,11.977-5.015,3.966,2.191,2.465,6.665,4.775,9.594a3.56,3.56,0,0,1,.728,1.427,1.812,1.812,0,0,0,.273.592l4.357,1.371c.961.324,2.63-.358,2.68-1.371.072-1.466-.047-3.634.292-4.026.671-.777,2.676.466,3.575-.589,2.891-3.394-.5-9.714,1.76-13.474.4.951,1.685,1.856,2.185,2.74,2.993-4.418,3.836-4.511,9.305-6.159,3.419-1.031,2.823-.745,3.975-4.355,1.3-4.062.158-3.654,4.321-2.917,1.852.327,3.731,1.711,5.866,1.2,1.926-.464,3.764-2.874,5.822-3.407,4.431-1.148,10.264.067,14.861-.163.525-3.18-1.084-5.86-.752-9.011,3.142.17,2.075,4.545,3.592,6.343,1.471,1.742,4.2,1.941,6.582,2.321,2.7.43,5.191.24,7.361,2.157,1.681,1.486,1.433,3.682,4.054,4.788,1.288.544,6.206,1.233,7.534.457,2.172-1.272,1.046-4.275,2.188-6.128,2.087-3.385,7.484-4.25,10.659-7.393-4.775-4.972-1.872-5.956-1.808-11.334.057-4.831-1.153-9.373,1.743-13.55a8.019,8.019,0,0,0,3.564,2.97c3.355,1.091,5.895-3.235,10.147-5.508,4.721-2.522,11.7-3.583,17.235-3.06.4.039.819.092,1.247.153,4.365.626,9.92,2.471,12.353,5.509,4.02,5.022,4.646,7.69,12.4,7.337-.435-4.414-3.953-5.492,3.064-5.065,4.278.26,8.624,1.688,13.022,2.1,5.5.521,9.062.39,9.172-5.684.1-5.641-5-4.149-5.235-8.643,3.907-.649,6.487,2.695,10.742,2.045.08-.012.157-.016.238-.031,3.676-.683,8.068-2.469,11.664-2.972.152-.021.633-.037.633-.056v-.97c4.094-.532,6.594.015,10.562-4.174,2.073-2.188,2.2-.868,2-4.016-.121-1.955-2.012-3.592-1.922-5.945,4.393,0,9.829,5.719,13.1,8.008v-.98c0-1.107-.365-2.233-.415-3.436.024.024.092.047.119.07,0-.023-.12-.046-.12-.07.169.162.417.323.417.485v-.133c0,.238.819.477.819.717v.03a17.749,17.749,0,0,1,2.4,2.149,12.231,12.231,0,0,0,2.147.455,6.365,6.365,0,0,0,.089-5.008c3.017,1.486,3.981,4.267,7.147,5.5,3.723,1.449,7.008.563,10.91-.556,1.444-.413,2.691-.784,4.328-1.126v-2.628l1.773.848,5.012,2.453.016,0-5.033-2.457-1.768-.848v-.444l.819.424V825.8l4.194,2.031c4.124-.792,8.306-1.413,12.415-2.022,3.42-.506,7.262-.729,10.624-.893,4.238-.206,5.993.88,9.386,2.1a21.678,21.678,0,0,0,10.072.944c4.07-.689,5.265-3.608,8.972-5.53.368-.191.223-.63.389-.926,3.6-.443,6.7-2.217,10.529-1.818a8,8,0,0,1,.346-3.433L1823.1,792.88l49.508,23.378c1.467-4.111,6.822-4.552,11.586-4.84,6.788-.411,8.111-6.081,4.907-12.127a7.979,7.979,0,0,0,4.975-1.216c2.079-1.155,4.038-2.815,6-3.759,2.907-1.394,7.38-1.711,9.633-4.758,2.414-3.263,1.532-8.541,1-12.092-.055-.363-.092-1.044-.129-1.044h1.6c-.011,0,0-.819,0-.819h0a20.158,20.158,0,0,1,1.527-6.755c-8.161-.415-15.2,3.958-22.9,5.215a19.35,19.35,0,0,1-3.462.721h-3.2c-.087,0-.178-.211-.271-.285-.356.056-.715.068-1.073.113-2.385-1.382-5.72-2.023-7.633-.509-.206-.084-.406-.182-.6-.283a5.964,5.964,0,0,1-2.9-3.109,3.647,3.647,0,0,1-1.507,3.255H1868.1c-1.283-.819-2.018-2.489-.213-5.068,1.424-.513,7.662-2.5,4.7-4.819-1.427-1.116-8.177.413-9.656,1.2-2.235,1.185-3.568,5.918-6.727,4.461-3.483-1.607-.219-5.162,1.78-6.327,5.36-3.125,13.075-2.415,18.693-4.661,3.512-1.4,5.719-2.716,7.046-6.123.876-2.25,2.182-6.636,1.692-9.068-7.411-2.95-6.42,4.678-10.9,5.072-3.307-4.339,1.29-7.458,4.465-10.264,4.35-3.844,4.058-2.466,8.706-.436,4.145,1.81,8.45,1.318,10.961-2.7,2.941-4.7-.8-5.674-1.292-9.538-2.833-.346-7.465,1.769-6.939-3.048,1.9-.538,7.748-.8,4.066-4,6.036-.532,7.921,7.04,11.678.129,2.005-3.689,2.112-3.252,5.413-5.878,2.6-2.068,2.875-3.234,2.952-5.9.012-.424.02-.883.031-1.393.016-.744.056-1.426.116-2.077a20.027,20.027,0,0,1,1.641-6.293c1.421-3.379,1.622-5.9,2.2-9.58C1919.381,682.072,1921.484,675.729,1920.665,669.977ZM1872.656,775.6c-.023,0,.016-.819.112-.819h1.246a3.275,3.275,0,0,0-.49,1.7c-.592-.2-1.072-.88-1.377-.88Z" transform="translate(-1505.881 -177.122)" fill="#fff"/>
        <path id="Path_1607" data-name="Path 1607" d="M1833.424,986.844c-.667-.069-1.343.318-1.87,1.393-2.1-2.484-8.188-3.641-11.409-3.08.078,1.754-7.234,7.018-9.27,7.965-.754,3.027,6.136,2.985,8.32,4.342,2.716,1.687,5.664,4.536,9.647,4.342a4.492,4.492,0,0,1,3.106-2.2,14.3,14.3,0,0,0,1.014-5.173,1.314,1.314,0,0,0,.46-.015,9.1,9.1,0,0,0,1.241-.494C1837.435,991.612,1835.476,987.054,1833.424,986.844Z" transform="translate(-1561.12 -323.47)" fill="#fff"/>
        <path id="Path_1608" data-name="Path 1608" d="M1838.429,976.248c.086.053.176.114.261.164-.082-.381-.171-.761-.261-1.144Z" transform="translate(-1566.121 -321.704)" fill="#fff"/>
        <path id="Path_1609" data-name="Path 1609" d="M1838.242,974.523l-.143-2.917c-.013-.011-.181-.023-.181-.034v.034c0-.15-.2-.3-.367-.449A18.681,18.681,0,0,0,1838.242,974.523Z" transform="translate(-1565.963 -320.96)" fill="#fff"/>
        <path id="Path_1610" data-name="Path 1610" d="M1838.268,971.558c-.183-.161-.362-.323-.531-.485,0,.024,0,.046.005.07.166.15.355.3.526.449Z" transform="translate(-1565.996 -320.944)" fill="#fff"/>
        <path id="Path_1611" data-name="Path 1611" d="M1778.449,324.421a33.3,33.3,0,0,0-4.376,4.422C1775.906,327.476,1777.934,325.887,1778.449,324.421Z" transform="translate(-1554.464 -203.805)" fill="#fff"/>
        <path id="Path_1612" data-name="Path 1612" d="M1595.142,636.887c-1.082,2.123-4.676,5.675-3.944,8.319,7.069,1.322,16.051-4.981,18.495-11.424.686-1.81.23-3.682,1.2-5.424s3.84-1.974,3.664-4.308c-.165-2.167-2.992-2.218-3.442-4.312-.28-1.3,1.518-3.495,1.226-5.4-2.242,1.747-7.7,3.74-8.96,6.607-1.419,3.238.49,6.987-1.281,10.552C1596.957,631.279,1597.01,633.22,1595.142,636.887Z" transform="translate(-1521.318 -256.323)" fill="#fff"/>
      </g>
    </g>
    <g id="noun_map_pin_1183660" data-name="noun_map pin_1183660" transform="translate(1095.373 1624)">
      <path id="Path_1613" data-name="Path 1613" d="M42.173,12C32.583,12,24.8,20.061,24.8,30.068a18.511,18.511,0,0,0,3.892,11.4L41.2,61.479a1.168,1.168,0,0,0,1.946,0L55.655,41.465a18.511,18.511,0,0,0,3.892-11.4C59.546,20.061,51.763,12,42.173,12Zm0,24.322a6.073,6.073,0,0,1-5.907-6.254,5.917,5.917,0,1,1,11.814,0A6.118,6.118,0,0,1,42.173,36.322Z" fill="#e8b042"/>
    </g>
    <g id="noun_map_pin_1183660-2" data-name="noun_map pin_1183660" transform="translate(1135 1574)">
      <path id="Path_1613-2" data-name="Path 1613" d="M42.173,12C32.583,12,24.8,20.061,24.8,30.068a18.511,18.511,0,0,0,3.892,11.4L41.2,61.479a1.168,1.168,0,0,0,1.946,0L55.655,41.465a18.511,18.511,0,0,0,3.892-11.4C59.546,20.061,51.763,12,42.173,12Zm0,24.322a6.073,6.073,0,0,1-5.907-6.254,5.917,5.917,0,1,1,11.814,0A6.118,6.118,0,0,1,42.173,36.322Z" fill="#e8b042"/>
    </g>
    <g id="noun_map_pin_1183660-3" data-name="noun_map pin_1183660" transform="translate(1028.373 1549)">
      <path id="Path_1613-3" data-name="Path 1613" d="M42.173,12C32.583,12,24.8,20.061,24.8,30.068a18.511,18.511,0,0,0,3.892,11.4L41.2,61.479a1.168,1.168,0,0,0,1.946,0L55.655,41.465a18.511,18.511,0,0,0,3.892-11.4C59.546,20.061,51.763,12,42.173,12Zm0,24.322a6.073,6.073,0,0,1-5.907-6.254,5.917,5.917,0,1,1,11.814,0A6.118,6.118,0,0,1,42.173,36.322Z" fill="#e8b042"/>
    </g>
  </g>
</svg>
