<svg id="Group_21" data-name="Group 21" xmlns="http://www.w3.org/2000/svg" xmlns:xlink="http://www.w3.org/1999/xlink" width="130.906" height="143.112" viewBox="0 0 130.906 143.112">
  <defs>
    <clipPath id="clip-path">
      <rect id="Rectangle_24" data-name="Rectangle 24" width="130.906" height="143.112" fill="#014262"/>
    </clipPath>
  </defs>
  <g id="Group_20" data-name="Group 20" clip-path="url(#clip-path)">
    <path id="Path_81" data-name="Path 81" d="M73.51,133.031H14.131A14.148,14.148,0,0,1,0,118.9V14.131A14.148,14.148,0,0,1,14.131,0h80a14.147,14.147,0,0,1,14.131,14.131V80.815a1.687,1.687,0,0,1-3.374,0V14.131A10.769,10.769,0,0,0,94.136,3.374h-80A10.77,10.77,0,0,0,3.374,14.131V118.9a10.77,10.77,0,0,0,10.758,10.758H73.51a1.687,1.687,0,1,1,0,3.374" fill="#014262"/>
    <path id="Path_82" data-name="Path 82" d="M99.144,64.772H24.695a1.687,1.687,0,0,1-1.687-1.687V40.254a1.687,1.687,0,0,1,1.687-1.687H99.144a1.687,1.687,0,0,1,1.687,1.687V63.085a1.687,1.687,0,0,1-1.687,1.687M26.382,61.4H97.457V41.941H26.382Z" transform="translate(-7.788 -13.055)" fill="#014262"/>
    <path id="Path_83" data-name="Path 83" d="M101.423,135.673a1.687,1.687,0,0,1-1.687-1.687V102.959a1.687,1.687,0,0,1,3.374,0v31.027a1.687,1.687,0,0,1-1.687,1.687" transform="translate(-33.762 -34.282)" fill="#014262"/>
    <path id="Path_84" data-name="Path 84" d="M60.515,148.668a1.687,1.687,0,0,1-1.687-1.687V102.963a1.687,1.687,0,0,1,3.374,0v44.018a1.687,1.687,0,0,1-1.687,1.687" transform="translate(-19.914 -34.283)" fill="#014262"/>
    <path id="Path_85" data-name="Path 85" d="M77.086,151.551H29.529a1.687,1.687,0,1,1,0-3.374H77.086a1.687,1.687,0,0,1,0,3.374" transform="translate(-9.425 -50.159)" fill="#014262"/>
    <path id="Path_86" data-name="Path 86" d="M88.192,124.29H29.529a1.687,1.687,0,1,1,0-3.374H88.192a1.687,1.687,0,1,1,0,3.374" transform="translate(-9.425 -40.931)" fill="#014262"/>
    <path id="Path_87" data-name="Path 87" d="M132.645,188.979a1.687,1.687,0,0,1-1.424-2.59l31.361-49.522a1.687,1.687,0,1,1,2.851,1.805L134.071,188.2a1.685,1.685,0,0,1-1.426.784" transform="translate(-44.331 -46.065)" fill="#f6ad37"/>
    <path id="Path_88" data-name="Path 88" d="M128,158.775a11.531,11.531,0,1,1,2.539-.284,11.409,11.409,0,0,1-2.539.284m.035-19.606a8.111,8.111,0,1,0,4.329,1.258,8.114,8.114,0,0,0-4.329-1.258" transform="translate(-39.445 -45.968)" fill="#f6ad37"/>
    <path id="Path_89" data-name="Path 89" d="M174.628,204.588a11.531,11.531,0,1,1,2.539-.284,11.531,11.531,0,0,1-2.539.284m-6.834-15.835a8.115,8.115,0,1,0,11.2-2.514,8.058,8.058,0,0,0-11.2,2.514" transform="translate(-55.23 -61.476)" fill="#f6ad37"/>
  </g>
</svg>
