<svg xmlns="http://www.w3.org/2000/svg" xmlns:xlink="http://www.w3.org/1999/xlink" width="132.515" height="142.846" viewBox="0 0 132.515 142.846">
  <defs>
    <clipPath id="clip-path">
      <rect id="Rectangle_33" data-name="Rectangle 33" width="132.515" height="142.846" fill="#014262"/>
    </clipPath>
  </defs>
  <g id="Group_37" data-name="Group 37" clip-path="url(#clip-path)">
    <path id="Path_153" data-name="Path 153" d="M49.711,178.968l0,.078v-.08q-10.851-.026-21.7-.041A80.861,80.861,0,0,0,32.364,167.3H44.543a1.52,1.52,0,0,0-.006-3.038H33.282l.267-.894c.755-2.532,1.537-5.148,2.485-7.654,1.034-2.734,2.711-4.417,4.982-5a6.479,6.479,0,0,1,6.84,2.562,1.518,1.518,0,1,0,2.612-1.547,9.786,9.786,0,0,0-7.718-4.249,9.675,9.675,0,0,0-7.884,3.937,16.377,16.377,0,0,0-2.072,4.344c-.588,1.66-1.106,3.307-1.491,4.557-.33,1.072-.653,2.145-.974,3.218l-.218.727H24.556a1.52,1.52,0,0,0,.007,3.038h4.625c-.25.8-.5,1.6-.769,2.405a57.792,57.792,0,0,1-4.2,9.941,1.566,1.566,0,0,0,1.3,2.311q12.09.028,24.193.047a1.52,1.52,0,0,0,0-3.038" transform="translate(-9.046 -57.774)" fill="#f6ad37"/>
    <path id="Path_154" data-name="Path 154" d="M164.871,162.834a1.551,1.551,0,0,1-1.551-1.551c0-27.606-23.516-50.064-52.422-50.064A54.186,54.186,0,0,0,88.734,115.9a1.551,1.551,0,1,1-1.26-2.834,57.263,57.263,0,0,1,23.424-4.945c30.616,0,55.524,23.85,55.524,53.166a1.551,1.551,0,0,1-1.551,1.551" transform="translate(-33.907 -42.354)" fill="#014262"/>
    <path id="Path_155" data-name="Path 155" d="M109.043,54.454A27.227,27.227,0,1,1,136.27,27.227a27.258,27.258,0,0,1-27.227,27.227m0-51.352a24.125,24.125,0,1,0,24.125,24.126A24.153,24.153,0,0,0,109.043,3.1" transform="translate(-32.051 0)" fill="#014262"/>
    <path id="Path_156" data-name="Path 156" d="M30.18,188.632a57.5,57.5,0,0,1-12.458-1.358A22.5,22.5,0,0,1,0,165.18V144.94a22.685,22.685,0,0,1,9.422-18.377l7.548-5.426a22.61,22.61,0,0,1,26.42,0l7.548,5.426a22.685,22.685,0,0,1,9.422,18.377v20.24a22.5,22.5,0,0,1-17.723,22.094h0a57.5,57.5,0,0,1-12.457,1.358M42.3,185.76h0ZM30.18,119.98a19.506,19.506,0,0,0-11.4,3.676l-7.547,5.426A19.576,19.576,0,0,0,3.1,144.94v20.24A19.416,19.416,0,0,0,18.4,184.246a54.7,54.7,0,0,0,23.569,0A19.416,19.416,0,0,0,57.259,165.18V144.94a19.576,19.576,0,0,0-8.131-15.859l-7.547-5.426a19.508,19.508,0,0,0-11.4-3.676" transform="translate(0 -45.786)" fill="#f6ad37"/>
    <path id="Path_157" data-name="Path 157" d="M36.436,104a13.085,13.085,0,0,1-9.282-3.839l-8.488-8.488A9.128,9.128,0,0,1,25.12,76.09H47.752a9.128,9.128,0,0,1,6.455,15.583l-8.489,8.488A13.083,13.083,0,0,1,36.436,104M25.12,79.191A6.027,6.027,0,0,0,20.86,89.479l8.488,8.488a10.038,10.038,0,0,0,14.177,0l8.489-8.488a6.027,6.027,0,0,0-4.261-10.288Z" transform="translate(-6.256 -29.808)" fill="#f6ad37"/>
  </g>
</svg>
