<?xml version="1.0" encoding="UTF-8" standalone="no" ?>
<!DOCTYPE svg PUBLIC "-//W3C//DTD SVG 1.1//EN" "http://www.w3.org/Graphics/SVG/1.1/DTD/svg11.dtd">
<svg xmlns="http://www.w3.org/2000/svg" xmlns:xlink="http://www.w3.org/1999/xlink" version="1.1" width="1080" height="1080" viewBox="0 0 1080 1080" xml:space="preserve">
<desc>Created with Fabric.js 5.2.4</desc>
<defs>
</defs>
<rect x="0" y="0" width="100%" height="100%" fill="transparent"></rect>
<g transform="matrix(1 0 0 1 540 540)" id="b3910c71-a0af-4cf2-afcb-4394a40441d6"  >
<rect style="stroke: none; stroke-width: 1; stroke-dasharray: none; stroke-linecap: butt; stroke-dashoffset: 0; stroke-linejoin: miter; stroke-miterlimit: 4; fill: rgb(255,255,255); fill-rule: nonzero; opacity: 1; visibility: hidden;" vector-effect="non-scaling-stroke"  x="-540" y="-540" rx="0" ry="0" width="1080" height="1080" />
</g>
<g transform="matrix(1 0 0 1 540 540)" id="63dd9461-7b41-4cdf-b5f5-0f0d7a1a4790"  >
</g>
<g transform="matrix(NaN NaN NaN NaN 0 0)"  >
<g style=""   >
</g>
</g>
<g transform="matrix(60 0 0 60 540 540)"  >
<path style="stroke: none; stroke-width: 1; stroke-dasharray: none; stroke-linecap: butt; stroke-dashoffset: 0; stroke-linejoin: miter; stroke-miterlimit: 4; fill: rgb(255,255,255); fill-rule: nonzero; opacity: 1;"  transform=" translate(-9, -9)" d="M 7.33329 9.83329 L 1.49996 9.83329 C 1.27895 9.83329 1.06698 9.92109 0.910704 10.0774 C 0.754423 10.2337 0.666626 10.4456 0.666626 10.6666 L 0.666626 16.5 C 0.666626 16.721 0.754423 16.9329 0.910704 17.0892 C 1.06698 17.2455 1.27895 17.3333 1.49996 17.3333 L 7.33329 17.3333 C 7.55431 17.3333 7.76627 17.2455 7.92255 17.0892 C 8.07883 16.9329 8.16663 16.721 8.16663 16.5 L 8.16663 10.6666 C 8.16663 10.4456 8.07883 10.2337 7.92255 10.0774 C 7.76627 9.92109 7.55431 9.83329 7.33329 9.83329 Z M 6.49996 15.6666 L 2.33329 15.6666 L 2.33329 11.5 L 6.49996 11.5 L 6.49996 15.6666 Z M 16.5 0.666626 L 10.6666 0.666626 C 10.4456 0.666626 10.2337 0.754423 10.0774 0.910704 C 9.92109 1.06698 9.83329 1.27895 9.83329 1.49996 L 9.83329 7.33329 C 9.83329 7.55431 9.92109 7.76627 10.0774 7.92255 C 10.2337 8.07883 10.4456 8.16663 10.6666 8.16663 L 16.5 8.16663 C 16.721 8.16663 16.9329 8.07883 17.0892 7.92255 C 17.2455 7.76627 17.3333 7.55431 17.3333 7.33329 L 17.3333 1.49996 C 17.3333 1.27895 17.2455 1.06698 17.0892 0.910704 C 16.9329 0.754423 16.721 0.666626 16.5 0.666626 Z M 15.6666 6.49996 L 11.5 6.49996 L 11.5 2.33329 L 15.6666 2.33329 L 15.6666 6.49996 Z M 16.5 9.83329 L 10.6666 9.83329 C 10.4456 9.83329 10.2337 9.92109 10.0774 10.0774 C 9.92109 10.2337 9.83329 10.4456 9.83329 10.6666 L 9.83329 16.5 C 9.83329 16.721 9.92109 16.9329 10.0774 17.0892 C 10.2337 17.2455 10.4456 17.3333 10.6666 17.3333 L 16.5 17.3333 C 16.721 17.3333 16.9329 17.2455 17.0892 17.0892 C 17.2455 16.9329 17.3333 16.721 17.3333 16.5 L 17.3333 10.6666 C 17.3333 10.4456 17.2455 10.2337 17.0892 10.0774 C 16.9329 9.92109 16.721 9.83329 16.5 9.83329 Z M 15.6666 15.6666 L 11.5 15.6666 L 11.5 11.5 L 15.6666 11.5 L 15.6666 15.6666 Z M 7.33329 0.666626 L 1.49996 0.666626 C 1.27895 0.666626 1.06698 0.754423 0.910704 0.910704 C 0.754423 1.06698 0.666626 1.27895 0.666626 1.49996 L 0.666626 7.33329 C 0.666626 7.55431 0.754423 7.76627 0.910704 7.92255 C 1.06698 8.07883 1.27895 8.16663 1.49996 8.16663 L 7.33329 8.16663 C 7.55431 8.16663 7.76627 8.07883 7.92255 7.92255 C 8.07883 7.76627 8.16663 7.55431 8.16663 7.33329 L 8.16663 1.49996 C 8.16663 1.27895 8.07883 1.06698 7.92255 0.910704 C 7.76627 0.754423 7.55431 0.666626 7.33329 0.666626 Z M 6.49996 6.49996 L 2.33329 6.49996 L 2.33329 2.33329 L 6.49996 2.33329 L 6.49996 6.49996 Z" stroke-linecap="round" />
</g>
<g transform="matrix(NaN NaN NaN NaN 0 0)"  >
<g style=""   >
</g>
</g>
</svg>