<?xml version="1.0" encoding="UTF-8" standalone="no" ?>
<!DOCTYPE svg PUBLIC "-//W3C//DTD SVG 1.1//EN" "http://www.w3.org/Graphics/SVG/1.1/DTD/svg11.dtd">
<svg xmlns="http://www.w3.org/2000/svg" xmlns:xlink="http://www.w3.org/1999/xlink" version="1.1" width="1080" height="1080" viewBox="0 0 1080 1080" xml:space="preserve">
<desc>Created with Fabric.js 5.2.4</desc>
<defs>
</defs>
<rect x="0" y="0" width="100%" height="100%" fill="transparent"></rect>
<g transform="matrix(1 0 0 1 540 540)" id="b3910c71-a0af-4cf2-afcb-4394a40441d6"  >
<rect style="stroke: none; stroke-width: 1; stroke-dasharray: none; stroke-linecap: butt; stroke-dashoffset: 0; stroke-linejoin: miter; stroke-miterlimit: 4; fill: rgb(255,255,255); fill-rule: nonzero; opacity: 1; visibility: hidden;" vector-effect="non-scaling-stroke"  x="-540" y="-540" rx="0" ry="0" width="1080" height="1080" />
</g>
<g transform="matrix(1 0 0 1 540 540)" id="63dd9461-7b41-4cdf-b5f5-0f0d7a1a4790"  >
</g>
<g transform="matrix(NaN NaN NaN NaN 0 0)"  >
<g style=""   >
</g>
</g>
<g transform="matrix(NaN NaN NaN NaN 0 0)"  >
<g style=""   >
</g>
</g>
<g transform="matrix(NaN NaN NaN NaN 0 0)"  >
<g style=""   >
</g>
</g>
<g transform="matrix(NaN NaN NaN NaN 0 0)"  >
<g style=""   >
</g>
</g>
<g transform="matrix(NaN NaN NaN NaN 0 0)"  >
<g style=""   >
</g>
</g>
<g transform="matrix(60 0 0 60 540 540)"  >
<path style="stroke: none; stroke-width: 1; stroke-dasharray: none; stroke-linecap: butt; stroke-dashoffset: 0; stroke-linejoin: miter; stroke-miterlimit: 4; fill: rgb(255,255,255); fill-rule: nonzero; opacity: 1;"  transform=" translate(-9, -9)" d="M 14.9066 3.12873 C 14.9005 3.12223 14.8987 3.11358 14.8923 3.10722 C 14.8859 3.10086 14.8771 3.09893 14.8706 3.09278 C 13.3119 1.53907 11.2008 0.666626 8.99996 0.666626 C 6.79914 0.666626 4.68807 1.53907 3.12935 3.09278 C 3.12279 3.09893 3.11404 3.10081 3.10763 3.10722 C 3.10122 3.11363 3.09944 3.12222 3.09334 3.12873 C 1.93189 4.29575 1.14217 5.78067 0.823851 7.39609 C 0.505534 9.01151 0.672885 10.685 1.30478 12.2054 C 1.93668 13.7258 3.00481 15.025 4.37435 15.9389 C 5.7439 16.8528 7.35348 17.3405 8.99996 17.3405 C 10.6464 17.3405 12.256 16.8528 13.6256 15.9389 C 14.9951 15.025 16.0632 13.7258 16.6951 12.2054 C 17.327 10.685 17.4944 9.01151 17.1761 7.39609 C 16.8578 5.78067 16.068 4.29575 14.9066 3.12873 Z M 8.99992 15.6666 C 8.00181 15.6663 7.01656 15.4414 6.11714 15.0087 C 5.21773 14.5759 4.42719 13.9464 3.80409 13.1666 L 7.15015 13.1666 C 7.38188 13.4286 7.66662 13.6383 7.98551 13.782 C 8.3044 13.9257 8.65017 14 8.99992 14 C 9.34968 14 9.69544 13.9257 10.0143 13.782 C 10.3332 13.6383 10.618 13.4286 10.8497 13.1666 L 14.1958 13.1666 C 13.5727 13.9464 12.7821 14.5759 11.8827 15.0087 C 10.9833 15.4414 9.99804 15.6663 8.99992 15.6666 Z M 8.16659 11.5 C 8.16659 11.3351 8.21546 11.174 8.30703 11.037 C 8.3986 10.8999 8.52875 10.7931 8.68102 10.7301 C 8.83329 10.667 9.00085 10.6505 9.1625 10.6826 C 9.32415 10.7148 9.47263 10.7942 9.58918 10.9107 C 9.70572 11.0272 9.78509 11.1757 9.81724 11.3374 C 9.8494 11.499 9.83289 11.6666 9.76982 11.8189 C 9.70675 11.9711 9.59994 12.1013 9.4629 12.1929 C 9.32586 12.2844 9.16474 12.3333 8.99992 12.3333 C 8.77898 12.3331 8.56714 12.2452 8.41091 12.089 C 8.25468 11.9327 8.16681 11.7209 8.16659 11.5 Z M 15.1751 11.5017 L 15.1665 11.5 L 11.4999 11.5 C 11.4983 10.9846 11.3373 10.4824 11.0389 10.0623 C 10.7405 9.64218 10.3193 9.32472 9.83325 9.15352 L 9.83325 6.49996 C 9.83325 6.27894 9.74546 6.06698 9.58918 5.9107 C 9.4329 5.75442 9.22093 5.66663 8.99992 5.66663 C 8.77891 5.66663 8.56695 5.75442 8.41067 5.9107 C 8.25439 6.06698 8.16659 6.27894 8.16659 6.49996 L 8.16659 9.15352 C 7.68054 9.32472 7.25939 9.64218 6.96098 10.0623 C 6.66256 10.4824 6.50151 10.9846 6.49992 11.5 L 2.83334 11.5 L 2.82474 11.5017 C 2.60799 10.9669 2.46221 10.406 2.39114 9.83329 L 3.16659 9.83329 C 3.3876 9.83329 3.59956 9.74549 3.75584 9.58921 C 3.91212 9.43293 3.99992 9.22097 3.99992 8.99996 C 3.99992 8.77894 3.91212 8.56698 3.75584 8.4107 C 3.59956 8.25442 3.3876 8.16663 3.16659 8.16663 L 2.39114 8.16663 C 2.54005 6.9821 3.00621 5.85981 3.74037 4.91838 L 4.28597 5.46399 C 4.36335 5.54137 4.4552 5.60274 4.5563 5.64462 C 4.65739 5.68649 4.76574 5.70804 4.87517 5.70804 C 4.98459 5.70804 5.09294 5.68649 5.19404 5.64461 C 5.29513 5.60274 5.38699 5.54136 5.46436 5.46399 C 5.54173 5.38661 5.60311 5.29476 5.64498 5.19366 C 5.68686 5.09257 5.70841 4.98422 5.70841 4.87479 C 5.70841 4.76537 5.68686 4.65702 5.64498 4.55592 C 5.60311 4.45483 5.54173 4.36297 5.46435 4.2856 L 4.91881 3.74005 C 5.86016 3.00613 6.98227 2.5401 8.16659 2.39118 L 8.16659 3.16663 C 8.16659 3.38764 8.25439 3.5996 8.41067 3.75588 C 8.56695 3.91216 8.77891 3.99996 8.99992 3.99996 C 9.22093 3.99996 9.4329 3.91216 9.58918 3.75588 C 9.74546 3.5996 9.83325 3.38764 9.83325 3.16663 L 9.83325 2.39118 C 11.0176 2.5401 12.1397 3.00613 13.081 3.74005 L 12.5355 4.2856 C 12.3792 4.44186 12.2914 4.6538 12.2914 4.87479 C 12.2914 5.09578 12.3792 5.30772 12.5355 5.46399 C 12.6917 5.62025 12.9037 5.70804 13.1247 5.70804 C 13.3457 5.70804 13.5576 5.62026 13.7139 5.46399 L 14.2595 4.91838 C 14.9936 5.85981 15.4598 6.9821 15.6087 8.16663 L 14.8333 8.16663 C 14.6122 8.16663 14.4003 8.25442 14.244 8.4107 C 14.0877 8.56698 13.9999 8.77894 13.9999 8.99996 C 13.9999 9.22097 14.0877 9.43293 14.244 9.58921 C 14.4003 9.74549 14.6122 9.83329 14.8333 9.83329 L 15.6087 9.83329 C 15.5376 10.406 15.3919 10.9669 15.1751 11.5017 Z" stroke-linecap="round" />
</g>
<g transform="matrix(NaN NaN NaN NaN 0 0)"  >
<g style=""   >
</g>
</g>
</svg>