<?xml version="1.0" encoding="UTF-8" standalone="no" ?>
<!DOCTYPE svg PUBLIC "-//W3C//DTD SVG 1.1//EN" "http://www.w3.org/Graphics/SVG/1.1/DTD/svg11.dtd">
<svg xmlns="http://www.w3.org/2000/svg" xmlns:xlink="http://www.w3.org/1999/xlink" version="1.1" width="1080" height="1080" viewBox="0 0 1080 1080" xml:space="preserve">
<desc>Created with Fabric.js 5.2.4</desc>
<defs>
</defs>
<rect x="0" y="0" width="100%" height="100%" fill="transparent"></rect>
<g transform="matrix(1 0 0 1 540 540)" id="b3910c71-a0af-4cf2-afcb-4394a40441d6"  >
<rect style="stroke: none; stroke-width: 1; stroke-dasharray: none; stroke-linecap: butt; stroke-dashoffset: 0; stroke-linejoin: miter; stroke-miterlimit: 4; fill: rgb(255,255,255); fill-rule: nonzero; opacity: 1; visibility: hidden;" vector-effect="non-scaling-stroke"  x="-540" y="-540" rx="0" ry="0" width="1080" height="1080" />
</g>
<g transform="matrix(1 0 0 1 540 540)" id="63dd9461-7b41-4cdf-b5f5-0f0d7a1a4790"  >
</g>
<g transform="matrix(NaN NaN NaN NaN 0 0)"  >
<g style=""   >
</g>
</g>
<g transform="matrix(NaN NaN NaN NaN 0 0)"  >
<g style=""   >
</g>
</g>
<g transform="matrix(NaN NaN NaN NaN 0 0)"  >
<g style=""   >
</g>
</g>
<g transform="matrix(NaN NaN NaN NaN 0 0)"  >
<g style=""   >
</g>
</g>
<g transform="matrix(NaN NaN NaN NaN 0 0)"  >
<g style=""   >
</g>
</g>
<g transform="matrix(NaN NaN NaN NaN 0 0)"  >
<g style=""   >
</g>
</g>
<g transform="matrix(NaN NaN NaN NaN 0 0)"  >
<g style=""   >
</g>
</g>
<g transform="matrix(NaN NaN NaN NaN 0 0)"  >
<g style=""   >
</g>
</g>
<g transform="matrix(60 0 0 60 540 540)"  >
<path style="stroke: none; stroke-width: 1; stroke-dasharray: none; stroke-linecap: butt; stroke-dashoffset: 0; stroke-linejoin: miter; stroke-miterlimit: 4; fill: rgb(255,255,255); fill-rule: nonzero; opacity: 1;"  transform=" translate(-9, -5)" d="M 2.09182 8.575 C 2.01257 8.49913 1.91911 8.43966 1.81682 8.4 C 1.61394 8.31665 1.38637 8.31665 1.18349 8.4 C 1.08119 8.43966 0.98774 8.49913 0.908486 8.575 C 0.832619 8.65425 0.773148 8.74771 0.733486 8.85 C 0.66967 9.00176 0.652235 9.16902 0.68338 9.33068 C 0.714525 9.49234 0.792855 9.64115 0.908486 9.75833 C 0.989487 9.83194 1.0825 9.89113 1.18349 9.93333 C 1.28324 9.97742 1.39109 10.0002 1.50015 10.0002 C 1.60921 10.0002 1.71707 9.97742 1.81682 9.93333 C 1.91781 9.89113 2.01082 9.83194 2.09182 9.75833 C 2.20745 9.64115 2.28578 9.49234 2.31693 9.33068 C 2.34807 9.16902 2.33064 9.00176 2.26682 8.85 C 2.22716 8.74771 2.16769 8.65425 2.09182 8.575 Z M 4.83349 1.66667 L 16.5002 1.66667 C 16.7212 1.66667 16.9331 1.57887 17.0894 1.42259 C 17.2457 1.26631 17.3335 1.05435 17.3335 0.833333 C 17.3335 0.61232 17.2457 0.400358 17.0894 0.244078 C 16.9331 0.0877975 16.7212 0 16.5002 0 L 4.83349 0 C 4.61247 0 4.40051 0.0877975 4.24423 0.244078 C 4.08795 0.400358 4.00015 0.61232 4.00015 0.833333 C 4.00015 1.05435 4.08795 1.26631 4.24423 1.42259 C 4.40051 1.57887 4.61247 1.66667 4.83349 1.66667 Z M 2.09182 4.40833 C 1.97463 4.2927 1.82582 4.21437 1.66416 4.18323 C 1.50251 4.15208 1.33525 4.16952 1.18349 4.23333 C 1.0825 4.27554 0.989487 4.33472 0.908486 4.40833 C 0.832619 4.48759 0.773148 4.58104 0.733486 4.68333 C 0.689399 4.78308 0.666626 4.89094 0.666626 5 C 0.666626 5.10906 0.689399 5.21692 0.733486 5.31667 C 0.775688 5.41765 0.834877 5.51067 0.908486 5.59167 C 0.989487 5.66528 1.0825 5.72447 1.18349 5.76667 C 1.28324 5.81075 1.39109 5.83353 1.50015 5.83353 C 1.60921 5.83353 1.71707 5.81075 1.81682 5.76667 C 1.91781 5.72447 2.01082 5.66528 2.09182 5.59167 C 2.16543 5.51067 2.22462 5.41765 2.26682 5.31667 C 2.31091 5.21692 2.33368 5.10906 2.33368 5 C 2.33368 4.89094 2.31091 4.78308 2.26682 4.68333 C 2.22716 4.58104 2.16769 4.48759 2.09182 4.40833 Z M 16.5002 4.16667 L 4.83349 4.16667 C 4.61247 4.16667 4.40051 4.25446 4.24423 4.41074 C 4.08795 4.56703 4.00015 4.77899 4.00015 5 C 4.00015 5.22101 4.08795 5.43298 4.24423 5.58926 C 4.40051 5.74554 4.61247 5.83333 4.83349 5.83333 L 16.5002 5.83333 C 16.7212 5.83333 16.9331 5.74554 17.0894 5.58926 C 17.2457 5.43298 17.3335 5.22101 17.3335 5 C 17.3335 4.77899 17.2457 4.56703 17.0894 4.41074 C 16.9331 4.25446 16.7212 4.16667 16.5002 4.16667 Z M 2.09182 0.241667 C 2.01257 0.165799 1.91911 0.106329 1.81682 0.0666666 C 1.66506 0.00285041 1.4978 -0.0145849 1.33614 0.0165602 C 1.17448 0.0477053 1.02567 0.126035 0.908486 0.241667 C 0.834877 0.322667 0.775688 0.415679 0.733486 0.516667 C 0.689399 0.616417 0.666626 0.724274 0.666626 0.833333 C 0.666626 0.942392 0.689399 1.05025 0.733486 1.15 C 0.775688 1.25099 0.834877 1.344 0.908486 1.425 C 0.989487 1.49861 1.0825 1.5578 1.18349 1.6 C 1.33525 1.66382 1.50251 1.68125 1.66416 1.65011 C 1.82582 1.61896 1.97463 1.54063 2.09182 1.425 C 2.16543 1.344 2.22462 1.25099 2.26682 1.15 C 2.31091 1.05025 2.33368 0.942392 2.33368 0.833333 C 2.33368 0.724274 2.31091 0.616417 2.26682 0.516667 C 2.22462 0.415679 2.16543 0.322667 2.09182 0.241667 Z M 16.5002 8.33333 L 4.83349 8.33333 C 4.61247 8.33333 4.40051 8.42113 4.24423 8.57741 C 4.08795 8.73369 4.00015 8.94565 4.00015 9.16667 C 4.00015 9.38768 4.08795 9.59964 4.24423 9.75592 C 4.40051 9.9122 4.61247 10 4.83349 10 L 16.5002 10 C 16.7212 10 16.9331 9.9122 17.0894 9.75592 C 17.2457 9.59964 17.3335 9.38768 17.3335 9.16667 C 17.3335 8.94565 17.2457 8.73369 17.0894 8.57741 C 16.9331 8.42113 16.7212 8.33333 16.5002 8.33333 Z" stroke-linecap="round" />
</g>
<g transform="matrix(NaN NaN NaN NaN 0 0)"  >
<g style=""   >
</g>
</g>
</svg>