<?xml version="1.0" encoding="UTF-8" standalone="no" ?>
<!DOCTYPE svg PUBLIC "-//W3C//DTD SVG 1.1//EN" "http://www.w3.org/Graphics/SVG/1.1/DTD/svg11.dtd">
<svg xmlns="http://www.w3.org/2000/svg" xmlns:xlink="http://www.w3.org/1999/xlink" version="1.1" width="1080" height="1080" viewBox="0 0 1080 1080" xml:space="preserve">
<desc>Created with Fabric.js 5.2.4</desc>
<defs>
</defs>
<rect x="0" y="0" width="100%" height="100%" fill="transparent"></rect>
<g transform="matrix(1 0 0 1 540 540)" id="b3910c71-a0af-4cf2-afcb-4394a40441d6"  >
<rect style="stroke: none; stroke-width: 1; stroke-dasharray: none; stroke-linecap: butt; stroke-dashoffset: 0; stroke-linejoin: miter; stroke-miterlimit: 4; fill: rgb(255,255,255); fill-rule: nonzero; opacity: 1; visibility: hidden;" vector-effect="non-scaling-stroke"  x="-540" y="-540" rx="0" ry="0" width="1080" height="1080" />
</g>
<g transform="matrix(1 0 0 1 540 540)" id="63dd9461-7b41-4cdf-b5f5-0f0d7a1a4790"  >
</g>
<g transform="matrix(NaN NaN NaN NaN 0 0)"  >
<g style=""   >
</g>
</g>
<g transform="matrix(NaN NaN NaN NaN 0 0)"  >
<g style=""   >
</g>
</g>
<g transform="matrix(NaN NaN NaN NaN 0 0)"  >
<g style=""   >
</g>
</g>
<g transform="matrix(NaN NaN NaN NaN 0 0)"  >
<g style=""   >
</g>
</g>
<g transform="matrix(60 0 0 60 540 540)"  >
<path style="stroke: none; stroke-width: 1; stroke-dasharray: none; stroke-linecap: butt; stroke-dashoffset: 0; stroke-linejoin: miter; stroke-miterlimit: 4; fill: rgb(255,255,255); fill-rule: nonzero; opacity: 1;"  transform=" translate(-9, -9)" d="M 9.0002 0.666626 C 4.41687 0.666626 0.66687 4.41663 0.66687 8.99996 C 0.66687 13.5833 4.41687 17.3333 9.0002 17.3333 C 13.5835 17.3333 17.3335 13.5833 17.3335 8.99996 C 17.3335 4.41663 13.5835 0.666626 9.0002 0.666626 Z M 2.58354 10.6666 C 2.41687 10.0833 2.33354 9.58329 2.33354 8.99996 C 2.33354 8.41663 2.41687 7.91663 2.58354 7.33329 L 4.16687 7.33329 C 4.0002 8.41663 4.0002 9.58329 4.16687 10.6666 L 2.58354 10.6666 Z M 3.2502 12.3333 L 4.41687 12.3333 C 4.58354 13.0833 4.83354 13.8333 5.2502 14.5 C 4.41687 13.9166 3.7502 13.1666 3.2502 12.3333 Z M 4.41687 5.66663 L 3.2502 5.66663 C 3.7502 4.83329 4.41687 4.08329 5.2502 3.49996 C 4.83354 4.16663 4.58354 4.91663 4.41687 5.66663 Z M 8.16687 15.4166 C 7.16687 14.6666 6.41687 13.5833 6.16687 12.3333 L 8.16687 12.3333 L 8.16687 15.4166 Z M 8.16687 10.6666 L 5.7502 10.6666 C 5.66687 10.0833 5.66687 9.58329 5.66687 8.99996 C 5.66687 8.41663 5.66687 7.91663 5.7502 7.33329 L 8.16687 7.33329 L 8.16687 10.6666 Z M 8.16687 5.66663 L 6.16687 5.66663 C 6.41687 4.41663 7.16687 3.33329 8.16687 2.58329 L 8.16687 5.66663 Z M 14.7502 5.66663 L 13.5835 5.66663 C 13.4169 4.91663 13.1669 4.16663 12.7502 3.49996 C 13.5835 4.08329 14.2502 4.83329 14.7502 5.66663 Z M 9.83354 2.58329 C 10.8335 3.33329 11.5835 4.41663 11.8335 5.66663 L 9.83354 5.66663 L 9.83354 2.58329 Z M 9.83354 15.4166 L 9.83354 12.3333 L 11.8335 12.3333 C 11.5835 13.5833 10.8335 14.6666 9.83354 15.4166 Z M 12.2502 10.6666 L 9.83354 10.6666 L 9.83354 7.33329 L 12.2502 7.33329 C 12.3335 8.41663 12.3335 9.58329 12.2502 10.6666 Z M 12.8335 14.5 C 13.1669 13.8333 13.4169 13.0833 13.6669 12.3333 L 14.8335 12.3333 C 14.2502 13.1666 13.5835 13.9166 12.8335 14.5 Z M 13.9169 10.6666 C 14.0835 9.58329 14.0835 8.41663 13.9169 7.33329 L 15.5002 7.33329 C 15.8335 8.41663 15.8335 9.58329 15.5002 10.6666 L 13.9169 10.6666 Z" stroke-linecap="round" />
</g>
<g transform="matrix(NaN NaN NaN NaN 0 0)"  >
<g style=""   >
</g>
</g>
</svg>