<?xml version="1.0" encoding="UTF-8" standalone="no" ?>
<!DOCTYPE svg PUBLIC "-//W3C//DTD SVG 1.1//EN" "http://www.w3.org/Graphics/SVG/1.1/DTD/svg11.dtd">
<svg xmlns="http://www.w3.org/2000/svg" xmlns:xlink="http://www.w3.org/1999/xlink" version="1.1" width="1080" height="1080" viewBox="0 0 1080 1080" xml:space="preserve">
<desc>Created with Fabric.js 5.2.4</desc>
<defs>
</defs>
<rect x="0" y="0" width="100%" height="100%" fill="transparent"></rect>
<g transform="matrix(1 0 0 1 540 540)" id="b3910c71-a0af-4cf2-afcb-4394a40441d6"  >
<rect style="stroke: none; stroke-width: 1; stroke-dasharray: none; stroke-linecap: butt; stroke-dashoffset: 0; stroke-linejoin: miter; stroke-miterlimit: 4; fill: rgb(255,255,255); fill-rule: nonzero; opacity: 1; visibility: hidden;" vector-effect="non-scaling-stroke"  x="-540" y="-540" rx="0" ry="0" width="1080" height="1080" />
</g>
<g transform="matrix(1 0 0 1 540 540)" id="63dd9461-7b41-4cdf-b5f5-0f0d7a1a4790"  >
</g>
<g transform="matrix(NaN NaN NaN NaN 0 0)"  >
<g style=""   >
</g>
</g>
<g transform="matrix(NaN NaN NaN NaN 0 0)"  >
<g style=""   >
</g>
</g>
<g transform="matrix(54 0 0 54 540 540)"  >
<path style="stroke: none; stroke-width: 1; stroke-dasharray: none; stroke-linecap: butt; stroke-dashoffset: 0; stroke-linejoin: miter; stroke-miterlimit: 4; fill: rgb(255,255,255); fill-rule: nonzero; opacity: 1;"  transform=" translate(-10, -9.99)" d="M 17.6416 1.71669 C 17.0442 1.6138 16.4394 1.56084 15.8332 1.55835 C 13.7652 1.55666 11.7403 2.14966 9.99991 3.26669 C 8.25503 2.16433 6.23045 1.58588 4.16657 1.60002 C 3.56045 1.6025 2.95558 1.65546 2.35824 1.75835 C 2.16258 1.79209 1.98539 1.89457 1.85859 2.04735 C 1.73178 2.20013 1.66369 2.39316 1.66657 2.59169 L 1.66657 12.5917 C 1.66479 12.7141 1.69001 12.8355 1.74045 12.9471 C 1.79089 13.0586 1.8653 13.1577 1.95839 13.2373 C 2.05147 13.3169 2.16096 13.3749 2.27904 13.4074 C 2.39712 13.4398 2.5209 13.4459 2.64157 13.425 C 3.83576 13.2183 5.05924 13.2526 6.23996 13.5259 C 7.42068 13.7993 8.53476 14.3061 9.51657 15.0167 L 9.61657 15.075 L 9.70824 15.075 C 9.80066 15.1135 9.89979 15.1334 9.99991 15.1334 C 10.1 15.1334 10.1992 15.1135 10.2916 15.075 L 10.3832 15.075 L 10.4832 15.0167 C 11.4582 14.2903 12.5691 13.767 13.75 13.4778 C 14.931 13.1887 16.158 13.1395 17.3582 13.3334 C 17.4789 13.3542 17.6027 13.3482 17.7208 13.3157 C 17.8389 13.2833 17.9483 13.2252 18.0414 13.1456 C 18.1345 13.0661 18.2089 12.967 18.2594 12.8554 C 18.3098 12.7438 18.335 12.6225 18.3332 12.5 L 18.3332 2.50002 C 18.3246 2.31015 18.2512 2.12895 18.1254 1.98647 C 17.9996 1.84399 17.8289 1.7488 17.6416 1.71669 Z M 9.16657 12.7917 C 7.62481 11.9806 5.90867 11.5573 4.16657 11.5584 C 3.89157 11.5584 3.61657 11.5584 3.33324 11.5584 L 3.33324 3.22502 C 3.61079 3.20902 3.88903 3.20902 4.16657 3.22502 C 5.9444 3.22306 7.68342 3.74476 9.16657 4.72502 L 9.16657 12.7917 Z M 16.6666 11.5917 C 16.3832 11.5917 16.1082 11.5917 15.8332 11.5917 C 14.0911 11.5906 12.375 12.0139 10.8332 12.825 L 10.8332 4.72502 C 12.3164 3.74476 14.0554 3.22306 15.8332 3.22502 C 16.1108 3.20902 16.389 3.20902 16.6666 3.22502 L 16.6666 11.5917 Z M 17.6416 15.05 C 17.0442 14.9471 16.4394 14.8942 15.8332 14.8917 C 13.7652 14.89 11.7403 15.483 9.99991 16.6 C 8.2595 15.483 6.2346 14.89 4.16657 14.8917 C 3.56045 14.8942 2.95558 14.9471 2.35824 15.05 C 2.24976 15.0672 2.14576 15.1057 2.05221 15.1633 C 1.95866 15.2208 1.87741 15.2963 1.81313 15.3854 C 1.74885 15.4744 1.70281 15.5753 1.67766 15.6822 C 1.65251 15.7891 1.64874 15.9 1.66657 16.0084 C 1.70892 16.2248 1.83532 16.4156 2.01807 16.539 C 2.20082 16.6623 2.42502 16.7083 2.64157 16.6667 C 3.83576 16.4599 5.05924 16.4942 6.23996 16.7676 C 7.42068 17.0409 8.53476 17.5478 9.51657 18.2584 C 9.65771 18.3588 9.82665 18.4128 9.99991 18.4128 C 10.1732 18.4128 10.3421 18.3588 10.4832 18.2584 C 11.4651 17.5478 12.5791 17.0409 13.7599 16.7676 C 14.9406 16.4942 16.1641 16.4599 17.3582 16.6667 C 17.5748 16.7083 17.799 16.6623 17.9817 16.539 C 18.1645 16.4156 18.2909 16.2248 18.3332 16.0084 C 18.3511 15.9 18.3473 15.7891 18.3222 15.6822 C 18.297 15.5753 18.251 15.4744 18.1867 15.3854 C 18.1224 15.2963 18.0412 15.2208 17.9476 15.1633 C 17.8541 15.1057 17.7501 15.0672 17.6416 15.05 Z" stroke-linecap="round" />
</g>
<g transform="matrix(NaN NaN NaN NaN 0 0)"  >
<g style=""   >
</g>
</g>
</svg>