<?xml version="1.0" encoding="UTF-8" standalone="no" ?>
<!DOCTYPE svg PUBLIC "-//W3C//DTD SVG 1.1//EN" "http://www.w3.org/Graphics/SVG/1.1/DTD/svg11.dtd">
<svg xmlns="http://www.w3.org/2000/svg" xmlns:xlink="http://www.w3.org/1999/xlink" version="1.1" width="1080" height="1080" viewBox="0 0 1080 1080" xml:space="preserve">
<desc>Created with Fabric.js 5.2.4</desc>
<defs>
</defs>
<rect x="0" y="0" width="100%" height="100%" fill="transparent"></rect>
<g transform="matrix(1 0 0 1 540 540)" id="b3910c71-a0af-4cf2-afcb-4394a40441d6"  >
<rect style="stroke: none; stroke-width: 1; stroke-dasharray: none; stroke-linecap: butt; stroke-dashoffset: 0; stroke-linejoin: miter; stroke-miterlimit: 4; fill: rgb(255,255,255); fill-rule: nonzero; opacity: 1; visibility: hidden;" vector-effect="non-scaling-stroke"  x="-540" y="-540" rx="0" ry="0" width="1080" height="1080" />
</g>
<g transform="matrix(1 0 0 1 540 540)" id="63dd9461-7b41-4cdf-b5f5-0f0d7a1a4790"  >
</g>
<g transform="matrix(NaN NaN NaN NaN 0 0)"  >
<g style=""   >
</g>
</g>
<g transform="matrix(NaN NaN NaN NaN 0 0)"  >
<g style=""   >
</g>
</g>
<g transform="matrix(NaN NaN NaN NaN 0 0)"  >
<g style=""   >
</g>
</g>
<g transform="matrix(NaN NaN NaN NaN 0 0)"  >
<g style=""   >
</g>
</g>
<g transform="matrix(NaN NaN NaN NaN 0 0)"  >
<g style=""   >
</g>
</g>
<g transform="matrix(NaN NaN NaN NaN 0 0)"  >
<g style=""   >
</g>
</g>
<g transform="matrix(54 0 0 54 540 540)"  >
<path style="stroke: none; stroke-width: 1; stroke-dasharray: none; stroke-linecap: butt; stroke-dashoffset: 0; stroke-linejoin: miter; stroke-miterlimit: 4; fill: rgb(255,255,255); fill-rule: nonzero; opacity: 1;"  transform=" translate(-10.01, -8)" d="M 18.9831 6.64169 C 18.9047 6.545 18.8056 6.46712 18.6931 6.41376 C 18.5806 6.36041 18.4576 6.33293 18.3331 6.33335 L 16.6665 6.33335 L 16.6665 5.50002 C 16.6665 4.83698 16.4031 4.20109 15.9342 3.73225 C 15.4654 3.26341 14.8295 3.00002 14.1665 3.00002 L 8.93313 3.00002 L 8.66646 2.16669 C 8.49359 1.67771 8.17292 1.2546 7.74888 0.955986 C 7.32484 0.657367 6.81843 0.498019 6.2998 0.500019 L 3.33313 0.500019 C 2.67009 0.500019 2.0342 0.763411 1.56536 1.23225 C 1.09652 1.70109 0.83313 2.33698 0.83313 3.00002 L 0.83313 13 C 0.83313 13.6631 1.09652 14.2989 1.56536 14.7678 C 2.0342 15.2366 2.67009 15.5 3.33313 15.5 L 15.3331 15.5 C 15.9008 15.4984 16.451 15.3036 16.8933 14.9476 C 17.3355 14.5917 17.6435 14.0959 17.7665 13.5417 L 19.1665 7.35002 C 19.1918 7.22578 19.1885 7.0974 19.1567 6.97466 C 19.1249 6.85191 19.0656 6.73803 18.9831 6.64169 Z M 4.4748 13.1834 C 4.43246 13.3713 4.32629 13.5388 4.17435 13.6574 C 4.02241 13.7759 3.8341 13.8381 3.64146 13.8334 L 3.33313 13.8334 C 3.11212 13.8334 2.90015 13.7456 2.74387 13.5893 C 2.58759 13.433 2.4998 13.221 2.4998 13 L 2.4998 3.00002 C 2.4998 2.779 2.58759 2.56704 2.74387 2.41076 C 2.90015 2.25448 3.11212 2.16669 3.33313 2.16669 L 6.2998 2.16669 C 6.48152 2.1572 6.66135 2.20746 6.81183 2.30978 C 6.9623 2.4121 7.07515 2.56087 7.13313 2.73335 L 7.58313 4.10002 C 7.6366 4.25897 7.7368 4.39809 7.8706 4.49919 C 8.00441 4.60029 8.16561 4.65867 8.33313 4.66669 L 14.1665 4.66669 C 14.3875 4.66669 14.5994 4.75448 14.7557 4.91076 C 14.912 5.06704 14.9998 5.27901 14.9998 5.50002 L 14.9998 6.33335 L 6.66646 6.33335 C 6.47383 6.32864 6.28551 6.39084 6.13358 6.50935 C 5.98164 6.62786 5.87546 6.79537 5.83313 6.98335 L 4.4748 13.1834 Z M 16.1415 13.1834 C 16.0991 13.3713 15.993 13.5388 15.841 13.6574 C 15.6891 13.7759 15.5008 13.8381 15.3081 13.8334 L 6.00813 13.8334 C 6.05117 13.7405 6.08198 13.6425 6.0998 13.5417 L 7.33313 8.00002 L 17.3331 8.00002 L 16.1415 13.1834 Z" stroke-linecap="round" />
</g>
<g transform="matrix(NaN NaN NaN NaN 0 0)"  >
<g style=""   >
</g>
</g>
</svg>