<?xml version="1.0" encoding="UTF-8" standalone="no" ?>
<!DOCTYPE svg PUBLIC "-//W3C//DTD SVG 1.1//EN" "http://www.w3.org/Graphics/SVG/1.1/DTD/svg11.dtd">
<svg xmlns="http://www.w3.org/2000/svg" xmlns:xlink="http://www.w3.org/1999/xlink" version="1.1" width="1080" height="1080" viewBox="0 0 1080 1080" xml:space="preserve">
<desc>Created with Fabric.js 5.2.4</desc>
<defs>
</defs>
<rect x="0" y="0" width="100%" height="100%" fill="transparent"></rect>
<g transform="matrix(1 0 0 1 540 540)" id="b3910c71-a0af-4cf2-afcb-4394a40441d6"  >
<rect style="stroke: none; stroke-width: 1; stroke-dasharray: none; stroke-linecap: butt; stroke-dashoffset: 0; stroke-linejoin: miter; stroke-miterlimit: 4; fill: rgb(255,255,255); fill-rule: nonzero; opacity: 1; visibility: hidden;" vector-effect="non-scaling-stroke"  x="-540" y="-540" rx="0" ry="0" width="1080" height="1080" />
</g>
<g transform="matrix(1 0 0 1 540 540)" id="63dd9461-7b41-4cdf-b5f5-0f0d7a1a4790"  >
</g>
<g transform="matrix(NaN NaN NaN NaN 0 0)"  >
<g style=""   >
</g>
</g>
<g transform="matrix(NaN NaN NaN NaN 0 0)"  >
<g style=""   >
</g>
</g>
<g transform="matrix(NaN NaN NaN NaN 0 0)"  >
<g style=""   >
</g>
</g>
<g transform="matrix(NaN NaN NaN NaN 0 0)"  >
<g style=""   >
</g>
</g>
<g transform="matrix(NaN NaN NaN NaN 0 0)"  >
<g style=""   >
</g>
</g>
<g transform="matrix(NaN NaN NaN NaN 0 0)"  >
<g style=""   >
</g>
</g>
<g transform="matrix(NaN NaN NaN NaN 0 0)"  >
<g style=""   >
</g>
</g>
<g transform="matrix(77.14 0 0 77.14 540 540)"  >
<path style="stroke: none; stroke-width: 1; stroke-dasharray: none; stroke-linecap: butt; stroke-dashoffset: 0; stroke-linejoin: miter; stroke-miterlimit: 4; fill: rgb(255,255,255); fill-rule: nonzero; opacity: 1;"  transform=" translate(-7, -9)" d="M 13.6665 6.44996 C 13.6578 6.3734 13.641 6.29799 13.6165 6.22496 L 13.6165 6.14996 C 13.5764 6.06428 13.5229 5.98551 13.4581 5.91663 L 8.45813 0.916626 C 8.38924 0.851806 8.31048 0.79836 8.2248 0.758293 L 8.1498 0.758293 C 8.06514 0.709744 7.97165 0.678579 7.8748 0.666626 L 2.83313 0.666626 C 2.17009 0.666626 1.5342 0.930018 1.06536 1.39886 C 0.596522 1.8677 0.33313 2.50358 0.33313 3.16663 L 0.33313 14.8333 C 0.33313 15.4963 0.596522 16.1322 1.06536 16.6011 C 1.5342 17.0699 2.17009 17.3333 2.83313 17.3333 L 11.1665 17.3333 C 11.8295 17.3333 12.4654 17.0699 12.9342 16.6011 C 13.4031 16.1322 13.6665 15.4963 13.6665 14.8333 L 13.6665 6.49996 C 13.6665 6.49996 13.6665 6.49996 13.6665 6.44996 Z M 8.66646 3.50829 L 10.8248 5.66663 L 9.49979 5.66663 C 9.27878 5.66663 9.06682 5.57883 8.91054 5.42255 C 8.75426 5.26627 8.66646 5.05431 8.66646 4.83329 L 8.66646 3.50829 Z M 11.9998 14.8333 C 11.9998 15.0543 11.912 15.2663 11.7557 15.4225 C 11.5994 15.5788 11.3875 15.6666 11.1665 15.6666 L 2.83313 15.6666 C 2.61212 15.6666 2.40015 15.5788 2.24387 15.4225 C 2.08759 15.2663 1.9998 15.0543 1.9998 14.8333 L 1.9998 3.16663 C 1.9998 2.94561 2.08759 2.73365 2.24387 2.57737 C 2.40015 2.42109 2.61212 2.33329 2.83313 2.33329 L 6.9998 2.33329 L 6.9998 4.83329 C 6.9998 5.49633 7.26319 6.13222 7.73203 6.60106 C 8.20087 7.0699 8.83675 7.33329 9.49979 7.33329 L 11.9998 7.33329 L 11.9998 14.8333 Z" stroke-linecap="round" />
</g>
<g transform="matrix(NaN NaN NaN NaN 0 0)"  >
<g style=""   >
</g>
</g>
</svg>