<?xml version="1.0" encoding="UTF-8" standalone="no" ?>
<!DOCTYPE svg PUBLIC "-//W3C//DTD SVG 1.1//EN" "http://www.w3.org/Graphics/SVG/1.1/DTD/svg11.dtd">
<svg xmlns="http://www.w3.org/2000/svg" xmlns:xlink="http://www.w3.org/1999/xlink" version="1.1" width="1080" height="1080" viewBox="0 0 1080 1080" xml:space="preserve">
<desc>Created with Fabric.js 5.2.4</desc>
<defs>
</defs>
<rect x="0" y="0" width="100%" height="100%" fill="transparent"></rect>
<g transform="matrix(1 0 0 1 540 540)" id="b3910c71-a0af-4cf2-afcb-4394a40441d6"  >
<rect style="stroke: none; stroke-width: 1; stroke-dasharray: none; stroke-linecap: butt; stroke-dashoffset: 0; stroke-linejoin: miter; stroke-miterlimit: 4; fill: rgb(255,255,255); fill-rule: nonzero; opacity: 1; visibility: hidden;" vector-effect="non-scaling-stroke"  x="-540" y="-540" rx="0" ry="0" width="1080" height="1080" />
</g>
<g transform="matrix(1 0 0 1 540 540)" id="63dd9461-7b41-4cdf-b5f5-0f0d7a1a4790"  >
</g>
<g transform="matrix(NaN NaN NaN NaN 0 0)"  >
<g style=""   >
</g>
</g>
<g transform="matrix(NaN NaN NaN NaN 0 0)"  >
<g style=""   >
</g>
</g>
<g transform="matrix(NaN NaN NaN NaN 0 0)"  >
<g style=""   >
</g>
</g>
<g transform="matrix(60 0 0 60 540 540)"  >
<path style="stroke: none; stroke-width: 1; stroke-dasharray: none; stroke-linecap: butt; stroke-dashoffset: 0; stroke-linejoin: miter; stroke-miterlimit: 4; fill: rgb(255,255,255); fill-rule: nonzero; opacity: 1;"  transform=" translate(-9, -9)" d="M 11.3414 9.23329 C 11.8689 8.66683 12.166 7.92394 12.1747 7.14996 C 12.1747 6.31453 11.8428 5.51331 11.2521 4.92257 C 10.6614 4.33183 9.86015 3.99996 9.02472 3.99996 C 8.18928 3.99996 7.38807 4.33183 6.79733 4.92257 C 6.20659 5.51331 5.87472 6.31453 5.87472 7.14996 C 5.88341 7.92394 6.18057 8.66683 6.70805 9.23329 C 5.97359 9.59902 5.34157 10.1416 4.86881 10.8122 C 4.39606 11.4827 4.0974 12.2603 3.99972 13.075 C 3.9754 13.296 4.03989 13.5176 4.17897 13.6911 C 4.31806 13.8645 4.52037 13.9756 4.74138 14 C 4.9624 14.0243 5.18401 13.9598 5.35749 13.8207 C 5.53096 13.6816 5.64207 13.4793 5.66638 13.2583 C 5.76583 12.4509 6.15709 11.7078 6.76645 11.1688 C 7.37582 10.6299 8.16123 10.3324 8.97472 10.3324 C 9.7882 10.3324 10.5736 10.6299 11.183 11.1688 C 11.7923 11.7078 12.1836 12.4509 12.283 13.2583 C 12.3062 13.472 12.4111 13.6684 12.5757 13.8066 C 12.7403 13.9448 12.9519 14.0141 13.1664 14 L 13.258 14 C 13.4765 13.9748 13.6762 13.8644 13.8135 13.6927 C 13.9509 13.521 14.0148 13.3019 13.9914 13.0833 C 13.9009 12.2729 13.6117 11.4975 13.1494 10.8258 C 12.6871 10.1542 12.066 9.60713 11.3414 9.23329 Z M 8.99972 8.63329 C 8.70634 8.63329 8.41955 8.5463 8.17562 8.38331 C 7.93169 8.22031 7.74156 7.98865 7.62929 7.71761 C 7.51702 7.44656 7.48765 7.14831 7.54488 6.86058 C 7.60212 6.57284 7.74339 6.30853 7.95084 6.10108 C 8.15829 5.89364 8.42259 5.75236 8.71033 5.69513 C 8.99807 5.63789 9.29632 5.66727 9.56736 5.77954 C 9.83841 5.89181 10.0701 6.08193 10.2331 6.32586 C 10.3961 6.5698 10.483 6.85658 10.483 7.14996 C 10.483 7.54336 10.3268 7.92066 10.0486 8.19883 C 9.77041 8.47701 9.39312 8.63329 8.99972 8.63329 Z M 14.833 0.666626 L 3.16638 0.666626 C 2.50334 0.666626 1.86746 0.930018 1.39862 1.39886 C 0.929774 1.8677 0.666382 2.50358 0.666382 3.16663 L 0.666382 14.8333 C 0.666382 15.4963 0.929774 16.1322 1.39862 16.6011 C 1.86746 17.0699 2.50334 17.3333 3.16638 17.3333 L 14.833 17.3333 C 15.4961 17.3333 16.132 17.0699 16.6008 16.6011 C 17.0697 16.1322 17.333 15.4963 17.333 14.8333 L 17.333 3.16663 C 17.333 2.50358 17.0697 1.8677 16.6008 1.39886 C 16.132 0.930018 15.4961 0.666626 14.833 0.666626 Z M 15.6664 14.8333 C 15.6664 15.0543 15.5786 15.2663 15.4223 15.4225 C 15.266 15.5788 15.0541 15.6666 14.833 15.6666 L 3.16638 15.6666 C 2.94537 15.6666 2.73341 15.5788 2.57713 15.4225 C 2.42085 15.2663 2.33305 15.0543 2.33305 14.8333 L 2.33305 3.16663 C 2.33305 2.94561 2.42085 2.73365 2.57713 2.57737 C 2.73341 2.42109 2.94537 2.33329 3.16638 2.33329 L 14.833 2.33329 C 15.0541 2.33329 15.266 2.42109 15.4223 2.57737 C 15.5786 2.73365 15.6664 2.94561 15.6664 3.16663 L 15.6664 14.8333 Z" stroke-linecap="round" />
</g>
<g transform="matrix(NaN NaN NaN NaN 0 0)"  >
<g style=""   >
</g>
</g>
</svg>